<svg xmlns="http://www.w3.org/2000/svg" xmlns:xlink="http://www.w3.org/1999/xlink" width="505" height="308" viewBox="0 0 505 308">
  <defs>
    <filter id="Trazado_629092" x="0" y="0" width="505" height="308" filterUnits="userSpaceOnUse">
      <feOffset dy="5" input="SourceAlpha"/>
      <feGaussianBlur stdDeviation="3" result="blur"/>
      <feFlood flood-opacity="0.161"/>
      <feComposite operator="in" in2="blur"/>
      <feComposite in="SourceGraphic"/>
    </filter>
    <linearGradient id="linear-gradient" x1="0.081" y1="-2.557" x2="0.573" y2="1.031" gradientUnits="objectBoundingBox">
      <stop offset="0" stop-color="#717071"/>
      <stop offset="0.498" stop-color="#1e1e1e" stop-opacity="0.922"/>
      <stop offset="1" stop-color="#0f0f0f" stop-opacity="0"/>
    </linearGradient>
  </defs>
  <g id="Grupo_901628" data-name="Grupo 901628" transform="translate(-819 -599.413)">
    <g transform="matrix(1, 0, 0, 1, 819, 599.41)" filter="url(#Trazado_629092)">
      <path id="Trazado_629092-2" data-name="Trazado 629092" d="M10,0H477a10,10,0,0,1,10,10V280a10,10,0,0,1-10,10H10A10,10,0,0,1,0,280V10A10,10,0,0,1,10,0Z" transform="translate(9 4)" fill="#fdfdfd"/>
    </g>
    <g id="Grupo_898140" data-name="Grupo 898140" transform="translate(849.313 709.289)">
      <g id="Grupo_898139" data-name="Grupo 898139">
        <path id="Rectángulo_302459" data-name="Rectángulo 302459" d="M3.375,0H437.857a3.374,3.374,0,0,1,3.374,3.374V64.34a3.375,3.375,0,0,1-3.375,3.375H3.374A3.374,3.374,0,0,1,0,64.341V3.375A3.375,3.375,0,0,1,3.375,0Z" transform="translate(3.145 0.899)" fill="#98b4ca" opacity="0.35" style="mix-blend-mode: multiply;isolation: isolate"/>
        <path id="Trazado_625184" data-name="Trazado 625184" d="M8.036,0H434.515a8,8,0,0,1,8.037,7.958V60.086a8,8,0,0,1-8.036,7.957H8.037A8,8,0,0,1,0,60.085V7.957A8,8,0,0,1,8.036,0Z" fill="#98b4ca"/>
      </g>
    </g>
    <path id="Trazado_629086" data-name="Trazado 629086" d="M1.016,15V3.625h3.5A5.315,5.315,0,0,1,7.2,4.3,4.712,4.712,0,0,1,9.047,6.223a5.928,5.928,0,0,1,.664,2.832v.523a5.945,5.945,0,0,1-.652,2.82,4.672,4.672,0,0,1-1.84,1.914A5.355,5.355,0,0,1,4.539,15ZM3.359,5.523v7.594H4.492a2.545,2.545,0,0,0,2.1-.9,4.06,4.06,0,0,0,.742-2.57v-.6a4.124,4.124,0,0,0-.719-2.629,2.537,2.537,0,0,0-2.1-.895ZM10.914,10.7A5.013,5.013,0,0,1,11.4,8.453,3.546,3.546,0,0,1,12.793,6.93a4.069,4.069,0,0,1,2.113-.539A3.849,3.849,0,0,1,17.7,7.438a4.2,4.2,0,0,1,1.207,2.844l.016.578a4.418,4.418,0,0,1-1.086,3.121,3.775,3.775,0,0,1-2.914,1.176A3.793,3.793,0,0,1,12,13.984a4.5,4.5,0,0,1-1.09-3.187Zm2.258.16a3.16,3.16,0,0,0,.453,1.843,1.628,1.628,0,0,0,2.578.008,3.457,3.457,0,0,0,.461-2.015A3.128,3.128,0,0,0,16.2,8.86a1.5,1.5,0,0,0-1.3-.649,1.474,1.474,0,0,0-1.281.646A3.516,3.516,0,0,0,13.172,10.856ZM27.664,11.93l1.109-5.383h2.18L28.8,15H26.906L25.3,9.68,23.7,15H21.82L19.664,6.547h2.18l1.1,5.375,1.547-5.375h1.633Zm6.484-5.383.07.977a2.951,2.951,0,0,1,2.43-1.133,2.453,2.453,0,0,1,2,.789,3.682,3.682,0,0,1,.672,2.359V15H37.063V9.581a1.47,1.47,0,0,0-.312-1.045,1.4,1.4,0,0,0-1.039-.325,1.553,1.553,0,0,0-1.43.814V15H32.023V6.547ZM43.414,15H41.148V3h2.266Zm1.508-4.3a5.013,5.013,0,0,1,.484-2.242A3.546,3.546,0,0,1,46.8,6.93a4.069,4.069,0,0,1,2.113-.539,3.849,3.849,0,0,1,2.793,1.047,4.2,4.2,0,0,1,1.207,2.844l.016.578a4.418,4.418,0,0,1-1.086,3.121,4.209,4.209,0,0,1-5.832,0,4.5,4.5,0,0,1-1.09-3.187Zm2.258.16a3.16,3.16,0,0,0,.453,1.843,1.628,1.628,0,0,0,2.578.008,3.457,3.457,0,0,0,.461-2.015,3.128,3.128,0,0,0-.461-1.831,1.5,1.5,0,0,0-1.3-.649,1.474,1.474,0,0,0-1.281.646A3.516,3.516,0,0,0,47.18,10.856ZM59.219,15a2.507,2.507,0,0,1-.227-.758,2.732,2.732,0,0,1-2.133.914,3,3,0,0,1-2.059-.719,2.312,2.312,0,0,1-.816-1.812,2.389,2.389,0,0,1,1-2.062,4.915,4.915,0,0,1,2.879-.727H58.9V9.352a1.393,1.393,0,0,0-.3-.937,1.183,1.183,0,0,0-.949-.352,1.345,1.345,0,0,0-.895.273.929.929,0,0,0-.324.75H54.172a2.268,2.268,0,0,1,.453-1.359,3,3,0,0,1,1.281-.98,4.669,4.669,0,0,1,1.859-.355,3.689,3.689,0,0,1,2.48.785,2.747,2.747,0,0,1,.918,2.207v3.664a4.041,4.041,0,0,0,.336,1.82V15Zm-1.867-1.57a1.945,1.945,0,0,0,.922-.223,1.462,1.462,0,0,0,.625-.6V11.156h-.844q-1.7,0-1.8,1.172l-.008.133a.9.9,0,0,0,.3.7A1.153,1.153,0,0,0,57.352,13.43Zm10.125-.766a.727.727,0,0,0-.41-.652,4.659,4.659,0,0,0-1.316-.426q-3.016-.633-3.016-2.562a2.323,2.323,0,0,1,.934-1.879,3.766,3.766,0,0,1,2.441-.754,4.053,4.053,0,0,1,2.574.758,2.388,2.388,0,0,1,.965,1.969H67.391a1.092,1.092,0,0,0-.312-.8A1.322,1.322,0,0,0,66.1,8a1.351,1.351,0,0,0-.883.258.814.814,0,0,0-.312.656.7.7,0,0,0,.355.605,3.657,3.657,0,0,0,1.2.4,9.8,9.8,0,0,1,1.422.379,2.336,2.336,0,0,1,1.789,2.273,2.2,2.2,0,0,1-.992,1.871,4.28,4.28,0,0,1-2.562.715,4.47,4.47,0,0,1-1.887-.379,3.166,3.166,0,0,1-1.293-1.039,2.414,2.414,0,0,1-.469-1.426h2.141a1.179,1.179,0,0,0,.445.922,1.766,1.766,0,0,0,1.109.32,1.635,1.635,0,0,0,.98-.246A.766.766,0,0,0,67.477,12.664Z" transform="translate(905 726.02)" fill="#fff"/>
    <g id="Grupo_898140-2" data-name="Grupo 898140" transform="translate(860.313 720.289)">
      <g id="Grupo_898139-2" data-name="Grupo 898139">
        <path id="Rectángulo_302459-2" data-name="Rectángulo 302459" d="M3.375,0H415.857a3.374,3.374,0,0,1,3.374,3.374V40.146a3.375,3.375,0,0,1-3.375,3.375H3.374A3.374,3.374,0,0,1,0,40.147V3.375A3.375,3.375,0,0,1,3.375,0Z" transform="translate(3.145 0.899)" fill="#505050" opacity="0.35" style="mix-blend-mode: multiply;isolation: isolate"/>
        <path id="Trazado_625184-2" data-name="Trazado 625184" d="M7.637,0H412.914c4.218,0,7.638,2.3,7.638,5.128V38.722c0,2.832-3.419,5.128-7.637,5.128H7.638C3.42,43.85,0,41.554,0,38.721V5.128C0,2.3,3.419,0,7.637,0Z" fill="#0b5999"/>
        <path id="Rectángulo_302461" data-name="Rectángulo 302461" d="M3.269,0H413.114a3.268,3.268,0,0,1,3.268,3.268V39.724a3.267,3.267,0,0,1-3.267,3.267H3.268A3.268,3.268,0,0,1,0,39.723V3.269A3.269,3.269,0,0,1,3.269,0Z" transform="translate(0.877 0.294)" opacity="0.32" fill="url(#linear-gradient)" style="mix-blend-mode: multiply;isolation: isolate"/>
      </g>
    </g>
    <path id="Trazado_629087" data-name="Trazado 629087" d="M6.176,9.582H2.3L1.435,12H.178L3.707,2.758H4.773L8.309,12H7.059Zm-3.5-1H5.814L4.24,4.262Zm12.5.057a4.113,4.113,0,0,1-.717,2.526,2.3,2.3,0,0,1-1.942.958,2.519,2.519,0,0,1-1.968-.793v3.307H9.369V5.132h1.073l.057.762A2.419,2.419,0,0,1,12.492,5a2.342,2.342,0,0,1,1.958.933,4.157,4.157,0,0,1,.72,2.6ZM14,8.509a3.035,3.035,0,0,0-.5-1.834A1.6,1.6,0,0,0,12.143,6a1.726,1.726,0,0,0-1.6.946v3.282a1.73,1.73,0,0,0,1.612.939A1.587,1.587,0,0,0,13.5,10.5,3.312,3.312,0,0,0,14,8.509ZM18.84,10.28l1.6-5.148H21.7L18.935,13.06q-.641,1.714-2.038,1.714l-.222-.019-.438-.083V13.72l.317.025a1.563,1.563,0,0,0,.93-.241,1.746,1.746,0,0,0,.549-.882l.26-.7-2.45-6.792h1.282Zm6.576.889a1.692,1.692,0,0,0,1.1-.381,1.34,1.34,0,0,0,.521-.952h1.111a2.13,2.13,0,0,1-.406,1.124,2.676,2.676,0,0,1-1,.851,2.885,2.885,0,0,1-1.323.317,2.829,2.829,0,0,1-2.231-.936,3.729,3.729,0,0,1-.828-2.561v-.2a4.135,4.135,0,0,1,.368-1.784,2.8,2.8,0,0,1,1.057-1.212A3,3,0,0,1,25.41,5a2.755,2.755,0,0,1,1.92.692,2.473,2.473,0,0,1,.816,1.8H27.035a1.618,1.618,0,0,0-.5-1.095,1.57,1.57,0,0,0-1.12-.428,1.644,1.644,0,0,0-1.387.644,3.026,3.026,0,0,0-.492,1.863V8.7a2.966,2.966,0,0,0,.489,1.828A1.651,1.651,0,0,0,25.416,11.168ZM29.155,8.5a4.057,4.057,0,0,1,.4-1.815,2.96,2.96,0,0,1,1.1-1.244A3.007,3.007,0,0,1,32.271,5a2.9,2.9,0,0,1,2.269.971,3.736,3.736,0,0,1,.866,2.583v.083a4.092,4.092,0,0,1-.384,1.8,2.916,2.916,0,0,1-1.1,1.241,3.041,3.041,0,0,1-1.641.444,2.889,2.889,0,0,1-2.263-.971,3.718,3.718,0,0,1-.866-2.571Zm1.181.14a2.938,2.938,0,0,0,.53,1.834,1.8,1.8,0,0,0,2.841-.01A3.213,3.213,0,0,0,34.233,8.5,2.933,2.933,0,0,0,33.7,6.671a1.705,1.705,0,0,0-1.425-.7,1.686,1.686,0,0,0-1.4.692A3.189,3.189,0,0,0,30.335,8.642Zm7.649-3.51.032.762A2.536,2.536,0,0,1,40.054,5a1.964,1.964,0,0,1,1.961,1.1,2.6,2.6,0,0,1,.892-.8,2.634,2.634,0,0,1,1.3-.3q2.26,0,2.3,2.393V12H45.329V7.468a1.577,1.577,0,0,0-.336-1.1A1.482,1.482,0,0,0,43.862,6a1.557,1.557,0,0,0-1.085.39,1.584,1.584,0,0,0-.5,1.051V12H41.095V7.5A1.31,1.31,0,0,0,39.628,6a1.571,1.571,0,0,0-1.581.984V12H36.874V5.132Z" transform="translate(867.379 733.619)" fill="#fff"/>
    <path id="Trazado_629088" data-name="Trazado 629088" d="M4.945,2.758H6.17V9.3a2.711,2.711,0,0,1-.8,2.076,2.974,2.974,0,0,1-2.123.749,3.056,3.056,0,0,1-2.146-.7A2.544,2.544,0,0,1,.336,9.448H1.555a1.694,1.694,0,0,0,.435,1.238,1.685,1.685,0,0,0,1.26.444,1.634,1.634,0,0,0,1.222-.476,1.844,1.844,0,0,0,.473-1.333ZM12.3,12a2.467,2.467,0,0,1-.165-.724,2.62,2.62,0,0,1-1.955.851,2.424,2.424,0,0,1-1.666-.574A1.859,1.859,0,0,1,7.865,10.1,1.942,1.942,0,0,1,8.68,8.429a3.846,3.846,0,0,1,2.295-.594h1.143V7.3a1.319,1.319,0,0,0-.368-.981,1.48,1.48,0,0,0-1.085-.365,1.712,1.712,0,0,0-1.054.317.935.935,0,0,0-.425.768H8a1.621,1.621,0,0,1,.365-.993,2.491,2.491,0,0,1,.99-.759A3.331,3.331,0,0,1,10.734,5a2.715,2.715,0,0,1,1.86.594,2.141,2.141,0,0,1,.7,1.635v3.161a3.865,3.865,0,0,0,.241,1.5V12Zm-1.949-.9a2.064,2.064,0,0,0,1.047-.286,1.728,1.728,0,0,0,.717-.743V8.667H11.2q-2.158,0-2.158,1.263a1.069,1.069,0,0,0,.368.863A1.415,1.415,0,0,0,10.353,11.1Zm6.951-.7L19,5.132h1.2L17.742,12h-.9L14.358,5.132h1.2ZM25.479,12a2.467,2.467,0,0,1-.165-.724,2.62,2.62,0,0,1-1.955.851,2.424,2.424,0,0,1-1.666-.574,1.859,1.859,0,0,1-.651-1.457,1.942,1.942,0,0,1,.816-1.666,3.846,3.846,0,0,1,2.295-.594H25.3V7.3a1.319,1.319,0,0,0-.368-.981,1.48,1.48,0,0,0-1.085-.365,1.712,1.712,0,0,0-1.054.317.935.935,0,0,0-.425.768H21.182a1.621,1.621,0,0,1,.365-.993,2.491,2.491,0,0,1,.99-.759A3.331,3.331,0,0,1,23.912,5a2.715,2.715,0,0,1,1.86.594,2.141,2.141,0,0,1,.7,1.635v3.161a3.865,3.865,0,0,0,.241,1.5V12Zm-1.949-.9a2.064,2.064,0,0,0,1.047-.286,1.728,1.728,0,0,0,.717-.743V8.667h-.92q-2.158,0-2.158,1.263a1.069,1.069,0,0,0,.368.863A1.415,1.415,0,0,0,23.531,11.1Zm9.756-8.347L36.309,10.3,39.33,2.758h1.581V12H39.692V8.4l.114-3.885L36.772,12h-.933L32.811,4.535,32.932,8.4V12H31.713V2.758Zm12.441,9.369a3,3,0,0,1-2.272-.917,3.4,3.4,0,0,1-.876-2.453V8.541a4.121,4.121,0,0,1,.39-1.825,3.045,3.045,0,0,1,1.092-1.257A2.745,2.745,0,0,1,45.583,5a2.572,2.572,0,0,1,2.082.882,3.82,3.82,0,0,1,.743,2.526V8.9H43.754a2.441,2.441,0,0,0,.594,1.641,1.866,1.866,0,0,0,1.444.625,2.045,2.045,0,0,0,1.054-.254,2.648,2.648,0,0,0,.755-.673l.717.559A2.884,2.884,0,0,1,45.729,12.127ZM45.583,5.97a1.566,1.566,0,0,0-1.193.517,2.515,2.515,0,0,0-.6,1.45h3.44V7.849a2.237,2.237,0,0,0-.482-1.387A1.475,1.475,0,0,0,45.583,5.97Zm5.294-.838L50.915,6A2.5,2.5,0,0,1,52.971,5q2.177,0,2.2,2.457V12H53.993V7.455a1.581,1.581,0,0,0-.34-1.1A1.361,1.361,0,0,0,52.616,6a1.7,1.7,0,0,0-1,.3,2.069,2.069,0,0,0-.673.8V12H49.766V5.132Zm10.3,6.189a2.494,2.494,0,0,1-2.012.806,2.135,2.135,0,0,1-1.673-.638A2.761,2.761,0,0,1,56.913,9.6V5.132h1.174V9.569q0,1.562,1.27,1.562a1.758,1.758,0,0,0,1.79-1v-5h1.174V12H61.2ZM68.1,10.178a.864.864,0,0,0-.359-.74,3.452,3.452,0,0,0-1.25-.454,5.912,5.912,0,0,1-1.416-.457,2.014,2.014,0,0,1-.774-.635,1.518,1.518,0,0,1-.251-.876,1.782,1.782,0,0,1,.714-1.428A2.789,2.789,0,0,1,66.593,5a2.87,2.87,0,0,1,1.895.6,1.915,1.915,0,0,1,.727,1.542H68.034a1.06,1.06,0,0,0-.409-.832,1.534,1.534,0,0,0-1.031-.349,1.606,1.606,0,0,0-1,.279.879.879,0,0,0-.362.73.712.712,0,0,0,.336.641,4.139,4.139,0,0,0,1.216.413,6.334,6.334,0,0,1,1.425.47,2.079,2.079,0,0,1,.809.657,1.615,1.615,0,0,1,.263.936,1.758,1.758,0,0,1-.736,1.476,3.089,3.089,0,0,1-1.911.555,3.459,3.459,0,0,1-1.46-.292,2.375,2.375,0,0,1-.993-.816,1.966,1.966,0,0,1-.359-1.133h1.174a1.216,1.216,0,0,0,.473.936,1.835,1.835,0,0,0,1.165.346,1.894,1.894,0,0,0,1.07-.27A.829.829,0,0,0,68.1,10.178Z" transform="translate(948.379 733.619)" fill="#fff"/>
    <path id="Trazado_629089" data-name="Trazado 629089" d="M7.458,3.754H4.488V12H3.275V3.754H.311v-1H7.458Zm3.409,8.373a3,3,0,0,1-2.272-.917,3.4,3.4,0,0,1-.876-2.453V8.541a4.121,4.121,0,0,1,.39-1.825A3.045,3.045,0,0,1,9.2,5.459,2.745,2.745,0,0,1,10.721,5a2.572,2.572,0,0,1,2.082.882,3.82,3.82,0,0,1,.743,2.526V8.9H8.893a2.441,2.441,0,0,0,.594,1.641,1.866,1.866,0,0,0,1.444.625,2.045,2.045,0,0,0,1.054-.254,2.648,2.648,0,0,0,.755-.673l.717.559A2.884,2.884,0,0,1,10.867,12.127ZM10.721,5.97a1.566,1.566,0,0,0-1.193.517,2.515,2.515,0,0,0-.6,1.45h3.44V7.849a2.237,2.237,0,0,0-.482-1.387A1.475,1.475,0,0,0,10.721,5.97Zm5.288-.838.032.762A2.536,2.536,0,0,1,18.078,5a1.964,1.964,0,0,1,1.961,1.1,2.6,2.6,0,0,1,.892-.8,2.634,2.634,0,0,1,1.3-.3q2.26,0,2.3,2.393V12H23.353V7.468a1.577,1.577,0,0,0-.336-1.1A1.482,1.482,0,0,0,21.887,6a1.557,1.557,0,0,0-1.085.39,1.584,1.584,0,0,0-.5,1.051V12H19.119V7.5A1.31,1.31,0,0,0,17.653,6a1.571,1.571,0,0,0-1.581.984V12H14.9V5.132ZM32.1,8.642a4.113,4.113,0,0,1-.717,2.526,2.3,2.3,0,0,1-1.942.958,2.519,2.519,0,0,1-1.968-.793v3.307H26.3V5.132h1.073l.057.762A2.419,2.419,0,0,1,29.421,5a2.342,2.342,0,0,1,1.958.933,4.157,4.157,0,0,1,.72,2.6Zm-1.174-.133a3.035,3.035,0,0,0-.5-1.834A1.6,1.6,0,0,0,29.072,6a1.726,1.726,0,0,0-1.6.946v3.282a1.73,1.73,0,0,0,1.612.939,1.587,1.587,0,0,0,1.343-.67A3.312,3.312,0,0,0,30.926,8.509ZM34.868,12H33.693V2.25h1.174Zm6.119,0a2.467,2.467,0,0,1-.165-.724,2.62,2.62,0,0,1-1.955.851,2.424,2.424,0,0,1-1.666-.574A1.859,1.859,0,0,1,36.55,10.1a1.942,1.942,0,0,1,.816-1.666,3.846,3.846,0,0,1,2.295-.594H40.8V7.3a1.319,1.319,0,0,0-.368-.981,1.48,1.48,0,0,0-1.085-.365,1.712,1.712,0,0,0-1.054.317.935.935,0,0,0-.425.768H36.689a1.621,1.621,0,0,1,.365-.993,2.491,2.491,0,0,1,.99-.759A3.331,3.331,0,0,1,39.419,5a2.715,2.715,0,0,1,1.86.594,2.141,2.141,0,0,1,.7,1.635v3.161a3.865,3.865,0,0,0,.241,1.5V12Zm-1.949-.9a2.064,2.064,0,0,0,1.047-.286,1.728,1.728,0,0,0,.717-.743V8.667h-.92q-2.158,0-2.158,1.263a1.069,1.069,0,0,0,.368.863A1.415,1.415,0,0,0,39.038,11.1Zm6.373-7.636V5.132h1.282V6.04H45.411V10.3a.953.953,0,0,0,.171.62.721.721,0,0,0,.584.207,2.843,2.843,0,0,0,.559-.076V12a3.424,3.424,0,0,1-.9.126,1.462,1.462,0,0,1-1.187-.476,2.045,2.045,0,0,1-.4-1.352V6.04h-1.25V5.132h1.25V3.469Zm5.5,8.658a3,3,0,0,1-2.272-.917,3.4,3.4,0,0,1-.876-2.453V8.541a4.121,4.121,0,0,1,.39-1.825,3.045,3.045,0,0,1,1.092-1.257A2.745,2.745,0,0,1,50.769,5a2.572,2.572,0,0,1,2.082.882,3.82,3.82,0,0,1,.743,2.526V8.9H48.94a2.441,2.441,0,0,0,.594,1.641,1.866,1.866,0,0,0,1.444.625,2.045,2.045,0,0,0,1.054-.254,2.648,2.648,0,0,0,.755-.673l.717.559A2.884,2.884,0,0,1,50.915,12.127ZM50.769,5.97a1.566,1.566,0,0,0-1.193.517,2.515,2.515,0,0,0-.6,1.45h3.44V7.849a2.237,2.237,0,0,0-.482-1.387A1.475,1.475,0,0,0,50.769,5.97Zm8.182,4.208a.865.865,0,0,0-.359-.74,3.452,3.452,0,0,0-1.25-.454,5.912,5.912,0,0,1-1.416-.457,2.014,2.014,0,0,1-.774-.635,1.518,1.518,0,0,1-.251-.876,1.782,1.782,0,0,1,.714-1.428A2.789,2.789,0,0,1,57.44,5a2.87,2.87,0,0,1,1.895.6,1.915,1.915,0,0,1,.727,1.542H58.881a1.06,1.06,0,0,0-.409-.832A1.534,1.534,0,0,0,57.44,5.97a1.605,1.605,0,0,0-1,.279.879.879,0,0,0-.362.73.712.712,0,0,0,.336.641,4.139,4.139,0,0,0,1.216.413,6.334,6.334,0,0,1,1.425.47,2.079,2.079,0,0,1,.809.657,1.615,1.615,0,0,1,.263.936,1.758,1.758,0,0,1-.736,1.476,3.089,3.089,0,0,1-1.911.555,3.459,3.459,0,0,1-1.46-.292,2.375,2.375,0,0,1-.993-.816,1.966,1.966,0,0,1-.359-1.133H55.84a1.216,1.216,0,0,0,.473.936,1.835,1.835,0,0,0,1.165.346,1.894,1.894,0,0,0,1.07-.27A.829.829,0,0,0,58.951,10.178Z" transform="translate(1032.5 733.619)" fill="#fff"/>
    <path id="Trazado_629090" data-name="Trazado 629090" d="M2.292,8.382V12H1.073V2.758H4.481a3.425,3.425,0,0,1,2.377.774,2.625,2.625,0,0,1,.86,2.05,2.591,2.591,0,0,1-.841,2.073,3.578,3.578,0,0,1-2.409.727Zm0-1h2.19a2.19,2.19,0,0,0,1.5-.461A1.686,1.686,0,0,0,6.5,5.592a1.742,1.742,0,0,0-.521-1.323,2.051,2.051,0,0,0-1.428-.515H2.292ZM15.93,11.321a2.494,2.494,0,0,1-2.012.806,2.135,2.135,0,0,1-1.673-.638A2.761,2.761,0,0,1,11.664,9.6V5.132h1.174V9.569q0,1.562,1.27,1.562a1.758,1.758,0,0,0,1.79-1v-5h1.174V12H15.955Zm8.846-5.135a3.519,3.519,0,0,0-.578-.044,1.547,1.547,0,0,0-1.568.984V12H21.456V5.132H22.6l.019.793A1.829,1.829,0,0,1,24.256,5a1.2,1.2,0,0,1,.521.089Zm7.678,3.993a.865.865,0,0,0-.359-.74,3.452,3.452,0,0,0-1.25-.454,5.912,5.912,0,0,1-1.416-.457,2.014,2.014,0,0,1-.774-.635,1.518,1.518,0,0,1-.251-.876,1.782,1.782,0,0,1,.714-1.428A2.789,2.789,0,0,1,30.944,5a2.87,2.87,0,0,1,1.895.6,1.915,1.915,0,0,1,.727,1.542H32.384a1.06,1.06,0,0,0-.409-.832,1.534,1.534,0,0,0-1.031-.349,1.606,1.606,0,0,0-1,.279.879.879,0,0,0-.362.73.712.712,0,0,0,.336.641,4.139,4.139,0,0,0,1.216.413,6.334,6.334,0,0,1,1.425.47,2.079,2.079,0,0,1,.809.657,1.615,1.615,0,0,1,.263.936,1.758,1.758,0,0,1-.736,1.476,3.089,3.089,0,0,1-1.911.555,3.459,3.459,0,0,1-1.46-.292,2.375,2.375,0,0,1-.993-.816,1.966,1.966,0,0,1-.359-1.133h1.174a1.216,1.216,0,0,0,.473.936,1.835,1.835,0,0,0,1.165.346,1.894,1.894,0,0,0,1.07-.27A.829.829,0,0,0,32.454,10.178ZM42,12a2.467,2.467,0,0,1-.165-.724,2.62,2.62,0,0,1-1.955.851,2.424,2.424,0,0,1-1.666-.574,1.859,1.859,0,0,1-.651-1.457,1.942,1.942,0,0,1,.816-1.666,3.846,3.846,0,0,1,2.295-.594h1.143V7.3a1.319,1.319,0,0,0-.368-.981,1.48,1.48,0,0,0-1.085-.365,1.712,1.712,0,0,0-1.054.317.935.935,0,0,0-.425.768H37.7a1.621,1.621,0,0,1,.365-.993,2.491,2.491,0,0,1,.99-.759A3.331,3.331,0,0,1,40.431,5a2.715,2.715,0,0,1,1.86.594,2.141,2.141,0,0,1,.7,1.635v3.161a3.865,3.865,0,0,0,.241,1.5V12Zm-1.949-.9a2.064,2.064,0,0,0,1.047-.286,1.728,1.728,0,0,0,.717-.743V8.667h-.92q-2.158,0-2.158,1.263a1.069,1.069,0,0,0,.368.863A1.415,1.415,0,0,0,40.05,11.1Zm10.135.063a1.692,1.692,0,0,0,1.1-.381,1.34,1.34,0,0,0,.521-.952h1.111a2.13,2.13,0,0,1-.406,1.124,2.676,2.676,0,0,1-1,.851,2.885,2.885,0,0,1-1.323.317,2.829,2.829,0,0,1-2.231-.936,3.729,3.729,0,0,1-.828-2.561v-.2a4.135,4.135,0,0,1,.368-1.784A2.8,2.8,0,0,1,48.55,5.437,3,3,0,0,1,50.178,5,2.755,2.755,0,0,1,52.1,5.7a2.473,2.473,0,0,1,.816,1.8H51.8A1.618,1.618,0,0,0,51.3,6.4a1.57,1.57,0,0,0-1.12-.428,1.644,1.644,0,0,0-1.387.644A3.026,3.026,0,0,0,48.3,8.477V8.7a2.965,2.965,0,0,0,.489,1.828A1.651,1.651,0,0,0,50.185,11.168Zm7.824-5.205A2.5,2.5,0,0,1,60.04,5q2.177,0,2.2,2.457V12H61.062V7.455a1.581,1.581,0,0,0-.34-1.1A1.361,1.361,0,0,0,59.684,6a1.7,1.7,0,0,0-1,.3,2.069,2.069,0,0,0-.673.8V12H56.834V2.25h1.174Zm11.436,6.164a3,3,0,0,1-2.272-.917A3.4,3.4,0,0,1,66.3,8.756V8.541a4.121,4.121,0,0,1,.39-1.825,3.045,3.045,0,0,1,1.092-1.257A2.745,2.745,0,0,1,69.3,5a2.572,2.572,0,0,1,2.082.882,3.82,3.82,0,0,1,.743,2.526V8.9H67.471a2.441,2.441,0,0,0,.594,1.641,1.866,1.866,0,0,0,1.444.625,2.045,2.045,0,0,0,1.054-.254,2.648,2.648,0,0,0,.755-.673l.717.559A2.884,2.884,0,0,1,69.445,12.127ZM69.3,5.97a1.566,1.566,0,0,0-1.193.517,2.515,2.515,0,0,0-.6,1.45h3.44V7.849a2.237,2.237,0,0,0-.482-1.387A1.475,1.475,0,0,0,69.3,5.97ZM0,13H72.593v1H0Z" transform="translate(1129 736.017)" fill="#e8e8e8"/>
    <path id="Trazado_629091" data-name="Trazado 629091" d="M9.375,9.067A3.4,3.4,0,0,1,8.293,11.33a3.547,3.547,0,0,1-2.422.8,3.257,3.257,0,0,1-2.625-1.174A4.724,4.724,0,0,1,2.26,7.811V6.922a5.266,5.266,0,0,1,.46-2.266,3.438,3.438,0,0,1,1.3-1.5,3.632,3.632,0,0,1,1.955-.524,3.34,3.34,0,0,1,2.361.822A3.441,3.441,0,0,1,9.375,5.729H8.15a2.655,2.655,0,0,0-.689-1.6,2.084,2.084,0,0,0-1.482-.5,2.181,2.181,0,0,0-1.831.864A3.966,3.966,0,0,0,3.485,6.95v.9a4.077,4.077,0,0,0,.628,2.4,2.031,2.031,0,0,0,1.758.889,2.345,2.345,0,0,0,1.558-.46,2.554,2.554,0,0,0,.72-1.6ZM10.543,8.5a4.057,4.057,0,0,1,.4-1.815,2.96,2.96,0,0,1,1.1-1.244A3.007,3.007,0,0,1,13.66,5a2.9,2.9,0,0,1,2.269.971A3.736,3.736,0,0,1,16.8,8.56v.083a4.092,4.092,0,0,1-.384,1.8,2.916,2.916,0,0,1-1.1,1.241,3.041,3.041,0,0,1-1.641.444,2.889,2.889,0,0,1-2.263-.971,3.718,3.718,0,0,1-.866-2.571Zm1.181.14a2.938,2.938,0,0,0,.53,1.834,1.8,1.8,0,0,0,2.841-.01A3.213,3.213,0,0,0,15.621,8.5a2.933,2.933,0,0,0-.536-1.831,1.705,1.705,0,0,0-1.425-.7,1.686,1.686,0,0,0-1.4.692A3.189,3.189,0,0,0,11.724,8.642Zm7.655-3.51L19.417,6A2.5,2.5,0,0,1,21.474,5q2.177,0,2.2,2.457V12H22.5V7.455a1.581,1.581,0,0,0-.34-1.1A1.361,1.361,0,0,0,21.118,6a1.7,1.7,0,0,0-1,.3,2.069,2.069,0,0,0-.673.8V12H18.268V5.132Zm7.655-1.663V5.132h1.282V6.04H27.034V10.3a.953.953,0,0,0,.171.62.721.721,0,0,0,.584.207,2.843,2.843,0,0,0,.559-.076V12a3.424,3.424,0,0,1-.9.126,1.462,1.462,0,0,1-1.187-.476,2.045,2.045,0,0,1-.4-1.352V6.04H24.61V5.132h1.25V3.469ZM33.928,12a2.467,2.467,0,0,1-.165-.724,2.62,2.62,0,0,1-1.955.851,2.424,2.424,0,0,1-1.666-.574,1.859,1.859,0,0,1-.651-1.457,1.942,1.942,0,0,1,.816-1.666A3.846,3.846,0,0,1,32.6,7.836h1.143V7.3a1.319,1.319,0,0,0-.368-.981,1.48,1.48,0,0,0-1.085-.365,1.712,1.712,0,0,0-1.054.317.935.935,0,0,0-.425.768H29.631A1.621,1.621,0,0,1,30,6.043a2.491,2.491,0,0,1,.99-.759A3.331,3.331,0,0,1,32.36,5a2.715,2.715,0,0,1,1.86.594,2.141,2.141,0,0,1,.7,1.635v3.161a3.865,3.865,0,0,0,.241,1.5V12Zm-1.949-.9a2.064,2.064,0,0,0,1.047-.286,1.728,1.728,0,0,0,.717-.743V8.667h-.92q-2.158,0-2.158,1.263a1.069,1.069,0,0,0,.368.863A1.415,1.415,0,0,0,31.979,11.1Zm7.535.063a1.692,1.692,0,0,0,1.1-.381,1.34,1.34,0,0,0,.521-.952h1.111a2.13,2.13,0,0,1-.406,1.124,2.676,2.676,0,0,1-1,.851,2.885,2.885,0,0,1-1.323.317,2.829,2.829,0,0,1-2.231-.936,3.729,3.729,0,0,1-.828-2.561v-.2a4.135,4.135,0,0,1,.368-1.784,2.8,2.8,0,0,1,1.057-1.212A3,3,0,0,1,39.508,5a2.755,2.755,0,0,1,1.92.692,2.473,2.473,0,0,1,.816,1.8H41.133a1.618,1.618,0,0,0-.5-1.095,1.57,1.57,0,0,0-1.12-.428,1.644,1.644,0,0,0-1.387.644,3.026,3.026,0,0,0-.492,1.863V8.7a2.965,2.965,0,0,0,.489,1.828A1.651,1.651,0,0,0,39.514,11.168Zm5.643-7.7V5.132h1.282V6.04H45.157V10.3a.953.953,0,0,0,.171.62.721.721,0,0,0,.584.207,2.843,2.843,0,0,0,.559-.076V12a3.424,3.424,0,0,1-.9.126,1.462,1.462,0,0,1-1.187-.476,2.045,2.045,0,0,1-.4-1.352V6.04h-1.25V5.132h1.25V3.469Z" transform="translate(1226.5 735.102)" fill="#fff"/>
  </g>
</svg>
