<svg xmlns="http://www.w3.org/2000/svg" xmlns:xlink="http://www.w3.org/1999/xlink" width="505" height="308" viewBox="0 0 505 308">
  <defs>
    <filter id="Rectángulo_299086" x="0" y="0" width="505" height="308" filterUnits="userSpaceOnUse">
      <feOffset dy="5" input="SourceAlpha"/>
      <feGaussianBlur stdDeviation="3" result="blur"/>
      <feFlood flood-opacity="0.161"/>
      <feComposite operator="in" in2="blur"/>
      <feComposite in="SourceGraphic"/>
    </filter>
    <linearGradient id="linear-gradient" x1="0.081" y1="-2.557" x2="0.573" y2="1.031" gradientUnits="objectBoundingBox">
      <stop offset="0" stop-color="#717071"/>
      <stop offset="0.498" stop-color="#1e1e1e" stop-opacity="0.922"/>
      <stop offset="1" stop-color="#0f0f0f" stop-opacity="0"/>
    </linearGradient>
  </defs>
  <g id="Grupo_901593" data-name="Grupo 901593" transform="translate(-819 -2923.412)">
    <g id="Grupo_897785" data-name="Grupo 897785" transform="translate(828 2927.412)">
      <g transform="matrix(1, 0, 0, 1, -9, -4)" filter="url(#Rectángulo_299086)">
        <rect id="Rectángulo_299086-2" data-name="Rectángulo 299086" width="487" height="290" rx="10" transform="translate(9 4)" fill="#fdfdfd"/>
      </g>
    </g>
    <g id="Grupo_898178" data-name="Grupo 898178" transform="translate(835.5 3060.5)">
      <g id="Grupo_898140" data-name="Grupo 898140">
        <g id="Grupo_898139" data-name="Grupo 898139">
          <path id="Rectángulo_302459" data-name="Rectángulo 302459" d="M3.375,0H465.481a3.374,3.374,0,0,1,3.374,3.374V47.226A3.375,3.375,0,0,1,465.48,50.6H3.374A3.374,3.374,0,0,1,0,47.227V3.375A3.375,3.375,0,0,1,3.375,0Z" transform="translate(3.145 0.899)" fill="#fecb2f" opacity="0.35" style="mix-blend-mode: multiply;isolation: isolate"/>
          <path id="Trazado_625184" data-name="Trazado 625184" d="M8.538,0h453.1c4.716,0,8.539,2.667,8.539,5.957V44.974c0,3.289-3.823,5.956-8.538,5.956H8.539C3.823,50.93,0,48.263,0,44.973V5.956C0,2.666,3.822,0,8.538,0Z" fill="#fecb2f"/>
        </g>
      </g>
    </g>
    <g id="Grupo_898177" data-name="Grupo 898177" transform="translate(840.876 3065.447)">
      <g id="Grupo_898140-2" data-name="Grupo 898140">
        <g id="Grupo_898139-2" data-name="Grupo 898139">
          <path id="Rectángulo_302459-2" data-name="Rectángulo 302459" d="M3.375,0h67.9a3.374,3.374,0,0,1,3.374,3.374V40.146a3.375,3.375,0,0,1-3.375,3.375H3.374A3.374,3.374,0,0,1,0,40.147V3.375A3.375,3.375,0,0,1,3.375,0Z" transform="translate(0.513 0.899)" fill="#505050" opacity="0.35" style="mix-blend-mode: multiply;isolation: isolate"/>
          <path id="Trazado_625184-2" data-name="Trazado 625184" d="M1.359,0H73.5c.751,0,1.36,2.3,1.36,5.128V38.722c0,2.832-.609,5.128-1.359,5.128H1.36c-.751,0-1.36-2.3-1.36-5.128V5.128C0,2.3.609,0,1.359,0Z" fill="#0b5999"/>
          <path id="Rectángulo_302461" data-name="Rectángulo 302461" d="M7,0H67.184a7,7,0,0,1,7,7V42.99a0,0,0,0,1,0,0H0a0,0,0,0,1,0,0V7A7,7,0,0,1,7,0Z" transform="translate(0.143 0.294)" opacity="0.32" fill="url(#linear-gradient)" style="mix-blend-mode: multiply;isolation: isolate"/>
        </g>
      </g>
    </g>
    <g id="Grupo_898179" data-name="Grupo 898179" transform="translate(917.894 3065.447)">
      <g id="Grupo_898140-3" data-name="Grupo 898140" transform="translate(0)">
        <g id="Grupo_898139-3" data-name="Grupo 898139">
          <path id="Rectángulo_302459-3" data-name="Rectángulo 302459" d="M3.375,0h67.9a3.374,3.374,0,0,1,3.374,3.374V40.146a3.375,3.375,0,0,1-3.375,3.375H3.374A3.374,3.374,0,0,1,0,40.147V3.375A3.375,3.375,0,0,1,3.375,0Z" transform="translate(0.513 0.899)" fill="#505050" opacity="0.35" style="mix-blend-mode: multiply;isolation: isolate"/>
          <path id="Trazado_625184-3" data-name="Trazado 625184" d="M1.359,0H73.5c.751,0,1.36,2.3,1.36,5.128V38.722c0,2.832-.609,5.128-1.359,5.128H1.36c-.751,0-1.36-2.3-1.36-5.128V5.128C0,2.3.609,0,1.359,0Z" fill="#0b5999"/>
          <path id="Rectángulo_302461-2" data-name="Rectángulo 302461" d="M3.269,0H70.916a3.268,3.268,0,0,1,3.268,3.268V39.724a3.267,3.267,0,0,1-3.267,3.267H3.268A3.268,3.268,0,0,1,0,39.723V3.269A3.269,3.269,0,0,1,3.269,0Z" transform="translate(0.143 0.294)" opacity="0.32" fill="url(#linear-gradient)" style="mix-blend-mode: multiply;isolation: isolate"/>
        </g>
      </g>
    </g>
    <g id="Grupo_898180" data-name="Grupo 898180" transform="translate(994.912 3065.447)">
      <g id="Grupo_898140-4" data-name="Grupo 898140">
        <g id="Grupo_898139-4" data-name="Grupo 898139">
          <path id="Rectángulo_302459-4" data-name="Rectángulo 302459" d="M3.375,0h67.9a3.374,3.374,0,0,1,3.374,3.374V40.146a3.375,3.375,0,0,1-3.375,3.375H3.374A3.374,3.374,0,0,1,0,40.147V3.375A3.375,3.375,0,0,1,3.375,0Z" transform="translate(0.513 0.899)" fill="#505050" opacity="0.35" style="mix-blend-mode: multiply;isolation: isolate"/>
          <path id="Trazado_625184-4" data-name="Trazado 625184" d="M1.359,0H73.5c.751,0,1.36,2.3,1.36,5.128V38.722c0,2.832-.609,5.128-1.359,5.128H1.36c-.751,0-1.36-2.3-1.36-5.128V5.128C0,2.3.609,0,1.359,0Z" fill="#0b5999"/>
          <path id="Rectángulo_302461-3" data-name="Rectángulo 302461" d="M3.269,0H70.916a3.268,3.268,0,0,1,3.268,3.268V39.724a3.267,3.267,0,0,1-3.267,3.267H3.268A3.268,3.268,0,0,1,0,39.723V3.269A3.269,3.269,0,0,1,3.269,0Z" transform="translate(0.143 0.294)" opacity="0.32" fill="url(#linear-gradient)" style="mix-blend-mode: multiply;isolation: isolate"/>
        </g>
      </g>
    </g>
    <g id="Grupo_898181" data-name="Grupo 898181" transform="translate(1071.929 3065.447)">
      <g id="Grupo_898140-5" data-name="Grupo 898140" transform="translate(0)">
        <g id="Grupo_898139-5" data-name="Grupo 898139">
          <path id="Rectángulo_302459-5" data-name="Rectángulo 302459" d="M3.375,0h67.9a3.374,3.374,0,0,1,3.374,3.374V40.146a3.375,3.375,0,0,1-3.375,3.375H3.374A3.374,3.374,0,0,1,0,40.147V3.375A3.375,3.375,0,0,1,3.375,0Z" transform="translate(0.513 0.899)" fill="#505050" opacity="0.35" style="mix-blend-mode: multiply;isolation: isolate"/>
          <path id="Trazado_625184-5" data-name="Trazado 625184" d="M1.359,0H73.5c.751,0,1.36,2.3,1.36,5.128V38.722c0,2.832-.609,5.128-1.359,5.128H1.36c-.751,0-1.36-2.3-1.36-5.128V5.128C0,2.3.609,0,1.359,0Z" fill="#0b5999"/>
          <path id="Rectángulo_302461-4" data-name="Rectángulo 302461" d="M3.269,0H70.916a3.268,3.268,0,0,1,3.268,3.268V39.724a3.267,3.267,0,0,1-3.267,3.267H3.268A3.268,3.268,0,0,1,0,39.723V3.269A3.269,3.269,0,0,1,3.269,0Z" transform="translate(0.143 0.294)" opacity="0.32" fill="url(#linear-gradient)" style="mix-blend-mode: multiply;isolation: isolate"/>
        </g>
      </g>
    </g>
    <g id="Grupo_898182" data-name="Grupo 898182" transform="translate(1148.947 3065.447)">
      <g id="Grupo_898140-6" data-name="Grupo 898140">
        <g id="Grupo_898139-6" data-name="Grupo 898139">
          <path id="Rectángulo_302459-6" data-name="Rectángulo 302459" d="M3.375,0h67.9a3.374,3.374,0,0,1,3.374,3.374V40.146a3.375,3.375,0,0,1-3.375,3.375H3.374A3.374,3.374,0,0,1,0,40.147V3.375A3.375,3.375,0,0,1,3.375,0Z" transform="translate(0.513 0.899)" fill="#505050" opacity="0.35" style="mix-blend-mode: multiply;isolation: isolate"/>
          <path id="Trazado_625184-6" data-name="Trazado 625184" d="M1.359,0H73.5c.751,0,1.36,2.3,1.36,5.128V38.722c0,2.832-.609,5.128-1.359,5.128H1.36c-.751,0-1.36-2.3-1.36-5.128V5.128C0,2.3.609,0,1.359,0Z" fill="#0b5999"/>
          <path id="Rectángulo_302461-5" data-name="Rectángulo 302461" d="M3.269,0H70.916a3.268,3.268,0,0,1,3.268,3.268V39.724a3.267,3.267,0,0,1-3.267,3.267H3.268A3.268,3.268,0,0,1,0,39.723V3.269A3.269,3.269,0,0,1,3.269,0Z" transform="translate(0.143 0.294)" opacity="0.32" fill="url(#linear-gradient)" style="mix-blend-mode: multiply;isolation: isolate"/>
        </g>
      </g>
    </g>
    <g id="Grupo_898183" data-name="Grupo 898183" transform="translate(1225.714 3065.447)">
      <g id="Grupo_898140-7" data-name="Grupo 898140">
        <g id="Grupo_898139-7" data-name="Grupo 898139">
          <path id="Rectángulo_302459-7" data-name="Rectángulo 302459" d="M3.375,0h67.9a3.374,3.374,0,0,1,3.374,3.374V40.146a3.375,3.375,0,0,1-3.375,3.375H3.374A3.374,3.374,0,0,1,0,40.147V3.375A3.375,3.375,0,0,1,3.375,0Z" transform="translate(0.513 0.899)" fill="#e8e8e8" opacity="0.35" style="mix-blend-mode: multiply;isolation: isolate"/>
          <path id="Trazado_625184-7" data-name="Trazado 625184" d="M1.359,0H73.5c.751,0,1.36,2.3,1.36,5.128V38.722c0,2.832-.609,5.128-1.359,5.128H1.36c-.751,0-1.36-2.3-1.36-5.128V5.128C0,2.3.609,0,1.359,0Z" fill="#e8e8e8"/>
          <path id="Rectángulo_302461-6" data-name="Rectángulo 302461" d="M3.269,0H70.916a3.268,3.268,0,0,1,3.268,3.268V39.724a3.267,3.267,0,0,1-3.267,3.267H3.268A3.268,3.268,0,0,1,0,39.723V3.269A3.269,3.269,0,0,1,3.269,0Z" transform="translate(0.143 0.294)" fill="#e8e8e8" opacity="0.32" style="mix-blend-mode: multiply;isolation: isolate"/>
        </g>
      </g>
    </g>
    <path id="Trazado_629091" data-name="Trazado 629091" d="M0,0H470V20H0Z" transform="translate(835.376 3106)" fill="#e1e1e1"/>
    <path id="Trazado_629092" data-name="Trazado 629092" d="M8.694,9.728H4.688V13H9.341v1H3.47V4.758H9.278v1H4.688V8.731H8.694Zm4.285-.089L14.5,7.132h1.371l-2.247,3.4L15.943,14H14.584L13,11.429,11.41,14H10.046l2.317-3.472-2.247-3.4h1.358ZM21.357,14a2.467,2.467,0,0,1-.165-.724,2.62,2.62,0,0,1-1.955.851,2.424,2.424,0,0,1-1.666-.574A1.859,1.859,0,0,1,16.92,12.1a1.942,1.942,0,0,1,.816-1.666,3.846,3.846,0,0,1,2.295-.594h1.143V9.3a1.319,1.319,0,0,0-.368-.981,1.48,1.48,0,0,0-1.085-.365,1.712,1.712,0,0,0-1.054.317.935.935,0,0,0-.425.768H17.06a1.621,1.621,0,0,1,.365-.993,2.491,2.491,0,0,1,.99-.759A3.331,3.331,0,0,1,19.789,7a2.715,2.715,0,0,1,1.86.594,2.141,2.141,0,0,1,.7,1.635v3.161a3.865,3.865,0,0,0,.241,1.5V14Zm-1.949-.9a2.064,2.064,0,0,0,1.047-.286,1.728,1.728,0,0,0,.717-.743V10.667h-.92q-2.158,0-2.158,1.263a1.069,1.069,0,0,0,.368.863A1.415,1.415,0,0,0,19.408,13.1Zm5.884-5.973.032.762A2.536,2.536,0,0,1,27.362,7a1.964,1.964,0,0,1,1.961,1.1,2.6,2.6,0,0,1,.892-.8,2.634,2.634,0,0,1,1.3-.3q2.26,0,2.3,2.393V14H32.637V9.468a1.577,1.577,0,0,0-.336-1.1A1.482,1.482,0,0,0,31.171,8a1.557,1.557,0,0,0-1.085.39,1.584,1.584,0,0,0-.5,1.051V14H28.4V9.5A1.31,1.31,0,0,0,26.937,8a1.571,1.571,0,0,0-1.581.984V14H24.182V7.132Zm16.091,3.51a4.113,4.113,0,0,1-.717,2.526,2.3,2.3,0,0,1-1.942.958,2.519,2.519,0,0,1-1.968-.793v3.307H35.582V7.132h1.073l.057.762A2.419,2.419,0,0,1,38.705,7a2.342,2.342,0,0,1,1.958.933,4.157,4.157,0,0,1,.72,2.6Zm-1.174-.133a3.035,3.035,0,0,0-.5-1.834A1.6,1.6,0,0,0,38.356,8a1.726,1.726,0,0,0-1.6.946v3.282a1.73,1.73,0,0,0,1.612.939,1.587,1.587,0,0,0,1.343-.67A3.312,3.312,0,0,0,40.21,10.509ZM44.152,14H42.977V4.25h1.174Zm4.729.127a3,3,0,0,1-2.272-.917,3.4,3.4,0,0,1-.876-2.453v-.216a4.121,4.121,0,0,1,.39-1.825,3.045,3.045,0,0,1,1.092-1.257A2.745,2.745,0,0,1,48.735,7a2.572,2.572,0,0,1,2.082.882,3.82,3.82,0,0,1,.743,2.526V10.9H46.907a2.441,2.441,0,0,0,.594,1.641,1.866,1.866,0,0,0,1.444.625A2.045,2.045,0,0,0,50,12.915a2.648,2.648,0,0,0,.755-.673l.717.559A2.884,2.884,0,0,1,48.881,14.127ZM48.735,7.97a1.566,1.566,0,0,0-1.193.517,2.515,2.515,0,0,0-.6,1.45h3.44V9.849A2.237,2.237,0,0,0,49.9,8.462,1.475,1.475,0,0,0,48.735,7.97Z" transform="translate(858.379 3068)" fill="#fff"/>
    <path id="Trazado_629093" data-name="Trazado 629093" d="M8.694,9.728H4.688V13H9.341v1H3.47V4.758H9.278v1H4.688V8.731H8.694Zm4.285-.089L14.5,7.132h1.371l-2.247,3.4L15.943,14H14.584L13,11.429,11.41,14H10.046l2.317-3.472-2.247-3.4h1.358ZM21.357,14a2.467,2.467,0,0,1-.165-.724,2.62,2.62,0,0,1-1.955.851,2.424,2.424,0,0,1-1.666-.574A1.859,1.859,0,0,1,16.92,12.1a1.942,1.942,0,0,1,.816-1.666,3.846,3.846,0,0,1,2.295-.594h1.143V9.3a1.319,1.319,0,0,0-.368-.981,1.48,1.48,0,0,0-1.085-.365,1.712,1.712,0,0,0-1.054.317.935.935,0,0,0-.425.768H17.06a1.621,1.621,0,0,1,.365-.993,2.491,2.491,0,0,1,.99-.759A3.331,3.331,0,0,1,19.789,7a2.715,2.715,0,0,1,1.86.594,2.141,2.141,0,0,1,.7,1.635v3.161a3.865,3.865,0,0,0,.241,1.5V14Zm-1.949-.9a2.064,2.064,0,0,0,1.047-.286,1.728,1.728,0,0,0,.717-.743V10.667h-.92q-2.158,0-2.158,1.263a1.069,1.069,0,0,0,.368.863A1.415,1.415,0,0,0,19.408,13.1Zm5.884-5.973.032.762A2.536,2.536,0,0,1,27.362,7a1.964,1.964,0,0,1,1.961,1.1,2.6,2.6,0,0,1,.892-.8,2.634,2.634,0,0,1,1.3-.3q2.26,0,2.3,2.393V14H32.637V9.468a1.577,1.577,0,0,0-.336-1.1A1.482,1.482,0,0,0,31.171,8a1.557,1.557,0,0,0-1.085.39,1.584,1.584,0,0,0-.5,1.051V14H28.4V9.5A1.31,1.31,0,0,0,26.937,8a1.571,1.571,0,0,0-1.581.984V14H24.182V7.132Zm16.091,3.51a4.113,4.113,0,0,1-.717,2.526,2.3,2.3,0,0,1-1.942.958,2.519,2.519,0,0,1-1.968-.793v3.307H35.582V7.132h1.073l.057.762A2.419,2.419,0,0,1,38.705,7a2.342,2.342,0,0,1,1.958.933,4.157,4.157,0,0,1,.72,2.6Zm-1.174-.133a3.035,3.035,0,0,0-.5-1.834A1.6,1.6,0,0,0,38.356,8a1.726,1.726,0,0,0-1.6.946v3.282a1.73,1.73,0,0,0,1.612.939,1.587,1.587,0,0,0,1.343-.67A3.312,3.312,0,0,0,40.21,10.509ZM44.152,14H42.977V4.25h1.174Zm4.729.127a3,3,0,0,1-2.272-.917,3.4,3.4,0,0,1-.876-2.453v-.216a4.121,4.121,0,0,1,.39-1.825,3.045,3.045,0,0,1,1.092-1.257A2.745,2.745,0,0,1,48.735,7a2.572,2.572,0,0,1,2.082.882,3.82,3.82,0,0,1,.743,2.526V10.9H46.907a2.441,2.441,0,0,0,.594,1.641,1.866,1.866,0,0,0,1.444.625A2.045,2.045,0,0,0,50,12.915a2.648,2.648,0,0,0,.755-.673l.717.559A2.884,2.884,0,0,1,48.881,14.127ZM48.735,7.97a1.566,1.566,0,0,0-1.193.517,2.515,2.515,0,0,0-.6,1.45h3.44V9.849A2.237,2.237,0,0,0,49.9,8.462,1.475,1.475,0,0,0,48.735,7.97Z" transform="translate(935.63 3068)" fill="#fff"/>
    <path id="Trazado_629094" data-name="Trazado 629094" d="M8.694,9.728H4.688V13H9.341v1H3.47V4.758H9.278v1H4.688V8.731H8.694Zm4.285-.089L14.5,7.132h1.371l-2.247,3.4L15.943,14H14.584L13,11.429,11.41,14H10.046l2.317-3.472-2.247-3.4h1.358ZM21.357,14a2.467,2.467,0,0,1-.165-.724,2.62,2.62,0,0,1-1.955.851,2.424,2.424,0,0,1-1.666-.574A1.859,1.859,0,0,1,16.92,12.1a1.942,1.942,0,0,1,.816-1.666,3.846,3.846,0,0,1,2.295-.594h1.143V9.3a1.319,1.319,0,0,0-.368-.981,1.48,1.48,0,0,0-1.085-.365,1.712,1.712,0,0,0-1.054.317.935.935,0,0,0-.425.768H17.06a1.621,1.621,0,0,1,.365-.993,2.491,2.491,0,0,1,.99-.759A3.331,3.331,0,0,1,19.789,7a2.715,2.715,0,0,1,1.86.594,2.141,2.141,0,0,1,.7,1.635v3.161a3.865,3.865,0,0,0,.241,1.5V14Zm-1.949-.9a2.064,2.064,0,0,0,1.047-.286,1.728,1.728,0,0,0,.717-.743V10.667h-.92q-2.158,0-2.158,1.263a1.069,1.069,0,0,0,.368.863A1.415,1.415,0,0,0,19.408,13.1Zm5.884-5.973.032.762A2.536,2.536,0,0,1,27.362,7a1.964,1.964,0,0,1,1.961,1.1,2.6,2.6,0,0,1,.892-.8,2.634,2.634,0,0,1,1.3-.3q2.26,0,2.3,2.393V14H32.637V9.468a1.577,1.577,0,0,0-.336-1.1A1.482,1.482,0,0,0,31.171,8a1.557,1.557,0,0,0-1.085.39,1.584,1.584,0,0,0-.5,1.051V14H28.4V9.5A1.31,1.31,0,0,0,26.937,8a1.571,1.571,0,0,0-1.581.984V14H24.182V7.132Zm16.091,3.51a4.113,4.113,0,0,1-.717,2.526,2.3,2.3,0,0,1-1.942.958,2.519,2.519,0,0,1-1.968-.793v3.307H35.582V7.132h1.073l.057.762A2.419,2.419,0,0,1,38.705,7a2.342,2.342,0,0,1,1.958.933,4.157,4.157,0,0,1,.72,2.6Zm-1.174-.133a3.035,3.035,0,0,0-.5-1.834A1.6,1.6,0,0,0,38.356,8a1.726,1.726,0,0,0-1.6.946v3.282a1.73,1.73,0,0,0,1.612.939,1.587,1.587,0,0,0,1.343-.67A3.312,3.312,0,0,0,40.21,10.509ZM44.152,14H42.977V4.25h1.174Zm4.729.127a3,3,0,0,1-2.272-.917,3.4,3.4,0,0,1-.876-2.453v-.216a4.121,4.121,0,0,1,.39-1.825,3.045,3.045,0,0,1,1.092-1.257A2.745,2.745,0,0,1,48.735,7a2.572,2.572,0,0,1,2.082.882,3.82,3.82,0,0,1,.743,2.526V10.9H46.907a2.441,2.441,0,0,0,.594,1.641,1.866,1.866,0,0,0,1.444.625A2.045,2.045,0,0,0,50,12.915a2.648,2.648,0,0,0,.755-.673l.717.559A2.884,2.884,0,0,1,48.881,14.127ZM48.735,7.97a1.566,1.566,0,0,0-1.193.517,2.515,2.515,0,0,0-.6,1.45h3.44V9.849A2.237,2.237,0,0,0,49.9,8.462,1.475,1.475,0,0,0,48.735,7.97Z" transform="translate(1013.63 3068)" fill="#fff"/>
    <path id="Trazado_629095" data-name="Trazado 629095" d="M8.694,9.728H4.688V13H9.341v1H3.47V4.758H9.278v1H4.688V8.731H8.694Zm4.285-.089L14.5,7.132h1.371l-2.247,3.4L15.943,14H14.584L13,11.429,11.41,14H10.046l2.317-3.472-2.247-3.4h1.358ZM21.357,14a2.467,2.467,0,0,1-.165-.724,2.62,2.62,0,0,1-1.955.851,2.424,2.424,0,0,1-1.666-.574A1.859,1.859,0,0,1,16.92,12.1a1.942,1.942,0,0,1,.816-1.666,3.846,3.846,0,0,1,2.295-.594h1.143V9.3a1.319,1.319,0,0,0-.368-.981,1.48,1.48,0,0,0-1.085-.365,1.712,1.712,0,0,0-1.054.317.935.935,0,0,0-.425.768H17.06a1.621,1.621,0,0,1,.365-.993,2.491,2.491,0,0,1,.99-.759A3.331,3.331,0,0,1,19.789,7a2.715,2.715,0,0,1,1.86.594,2.141,2.141,0,0,1,.7,1.635v3.161a3.865,3.865,0,0,0,.241,1.5V14Zm-1.949-.9a2.064,2.064,0,0,0,1.047-.286,1.728,1.728,0,0,0,.717-.743V10.667h-.92q-2.158,0-2.158,1.263a1.069,1.069,0,0,0,.368.863A1.415,1.415,0,0,0,19.408,13.1Zm5.884-5.973.032.762A2.536,2.536,0,0,1,27.362,7a1.964,1.964,0,0,1,1.961,1.1,2.6,2.6,0,0,1,.892-.8,2.634,2.634,0,0,1,1.3-.3q2.26,0,2.3,2.393V14H32.637V9.468a1.577,1.577,0,0,0-.336-1.1A1.482,1.482,0,0,0,31.171,8a1.557,1.557,0,0,0-1.085.39,1.584,1.584,0,0,0-.5,1.051V14H28.4V9.5A1.31,1.31,0,0,0,26.937,8a1.571,1.571,0,0,0-1.581.984V14H24.182V7.132Zm16.091,3.51a4.113,4.113,0,0,1-.717,2.526,2.3,2.3,0,0,1-1.942.958,2.519,2.519,0,0,1-1.968-.793v3.307H35.582V7.132h1.073l.057.762A2.419,2.419,0,0,1,38.705,7a2.342,2.342,0,0,1,1.958.933,4.157,4.157,0,0,1,.72,2.6Zm-1.174-.133a3.035,3.035,0,0,0-.5-1.834A1.6,1.6,0,0,0,38.356,8a1.726,1.726,0,0,0-1.6.946v3.282a1.73,1.73,0,0,0,1.612.939,1.587,1.587,0,0,0,1.343-.67A3.312,3.312,0,0,0,40.21,10.509ZM44.152,14H42.977V4.25h1.174Zm4.729.127a3,3,0,0,1-2.272-.917,3.4,3.4,0,0,1-.876-2.453v-.216a4.121,4.121,0,0,1,.39-1.825,3.045,3.045,0,0,1,1.092-1.257A2.745,2.745,0,0,1,48.735,7a2.572,2.572,0,0,1,2.082.882,3.82,3.82,0,0,1,.743,2.526V10.9H46.907a2.441,2.441,0,0,0,.594,1.641,1.866,1.866,0,0,0,1.444.625A2.045,2.045,0,0,0,50,12.915a2.648,2.648,0,0,0,.755-.673l.717.559A2.884,2.884,0,0,1,48.881,14.127ZM48.735,7.97a1.566,1.566,0,0,0-1.193.517,2.515,2.515,0,0,0-.6,1.45h3.44V9.849A2.237,2.237,0,0,0,49.9,8.462,1.475,1.475,0,0,0,48.735,7.97Z" transform="translate(1090.63 3068)" fill="#fff"/>
    <path id="Trazado_629096" data-name="Trazado 629096" d="M8.694,9.728H4.688V13H9.341v1H3.47V4.758H9.278v1H4.688V8.731H8.694Zm4.285-.089L14.5,7.132h1.371l-2.247,3.4L15.943,14H14.584L13,11.429,11.41,14H10.046l2.317-3.472-2.247-3.4h1.358ZM21.357,14a2.467,2.467,0,0,1-.165-.724,2.62,2.62,0,0,1-1.955.851,2.424,2.424,0,0,1-1.666-.574A1.859,1.859,0,0,1,16.92,12.1a1.942,1.942,0,0,1,.816-1.666,3.846,3.846,0,0,1,2.295-.594h1.143V9.3a1.319,1.319,0,0,0-.368-.981,1.48,1.48,0,0,0-1.085-.365,1.712,1.712,0,0,0-1.054.317.935.935,0,0,0-.425.768H17.06a1.621,1.621,0,0,1,.365-.993,2.491,2.491,0,0,1,.99-.759A3.331,3.331,0,0,1,19.789,7a2.715,2.715,0,0,1,1.86.594,2.141,2.141,0,0,1,.7,1.635v3.161a3.865,3.865,0,0,0,.241,1.5V14Zm-1.949-.9a2.064,2.064,0,0,0,1.047-.286,1.728,1.728,0,0,0,.717-.743V10.667h-.92q-2.158,0-2.158,1.263a1.069,1.069,0,0,0,.368.863A1.415,1.415,0,0,0,19.408,13.1Zm5.884-5.973.032.762A2.536,2.536,0,0,1,27.362,7a1.964,1.964,0,0,1,1.961,1.1,2.6,2.6,0,0,1,.892-.8,2.634,2.634,0,0,1,1.3-.3q2.26,0,2.3,2.393V14H32.637V9.468a1.577,1.577,0,0,0-.336-1.1A1.482,1.482,0,0,0,31.171,8a1.557,1.557,0,0,0-1.085.39,1.584,1.584,0,0,0-.5,1.051V14H28.4V9.5A1.31,1.31,0,0,0,26.937,8a1.571,1.571,0,0,0-1.581.984V14H24.182V7.132Zm16.091,3.51a4.113,4.113,0,0,1-.717,2.526,2.3,2.3,0,0,1-1.942.958,2.519,2.519,0,0,1-1.968-.793v3.307H35.582V7.132h1.073l.057.762A2.419,2.419,0,0,1,38.705,7a2.342,2.342,0,0,1,1.958.933,4.157,4.157,0,0,1,.72,2.6Zm-1.174-.133a3.035,3.035,0,0,0-.5-1.834A1.6,1.6,0,0,0,38.356,8a1.726,1.726,0,0,0-1.6.946v3.282a1.73,1.73,0,0,0,1.612.939,1.587,1.587,0,0,0,1.343-.67A3.312,3.312,0,0,0,40.21,10.509ZM44.152,14H42.977V4.25h1.174Zm4.729.127a3,3,0,0,1-2.272-.917,3.4,3.4,0,0,1-.876-2.453v-.216a4.121,4.121,0,0,1,.39-1.825,3.045,3.045,0,0,1,1.092-1.257A2.745,2.745,0,0,1,48.735,7a2.572,2.572,0,0,1,2.082.882,3.82,3.82,0,0,1,.743,2.526V10.9H46.907a2.441,2.441,0,0,0,.594,1.641,1.866,1.866,0,0,0,1.444.625A2.045,2.045,0,0,0,50,12.915a2.648,2.648,0,0,0,.755-.673l.717.559A2.884,2.884,0,0,1,48.881,14.127ZM48.735,7.97a1.566,1.566,0,0,0-1.193.517,2.515,2.515,0,0,0-.6,1.45h3.44V9.849A2.237,2.237,0,0,0,49.9,8.462,1.475,1.475,0,0,0,48.735,7.97Z" transform="translate(1165.63 3068)" fill="#fff"/>
    <path id="Trazado_629097" data-name="Trazado 629097" d="M8.694,9.728H4.688V13H9.341v1H3.47V4.758H9.278v1H4.688V8.731H8.694Zm4.285-.089L14.5,7.132h1.371l-2.247,3.4L15.943,14H14.584L13,11.429,11.41,14H10.046l2.317-3.472-2.247-3.4h1.358ZM21.357,14a2.467,2.467,0,0,1-.165-.724,2.62,2.62,0,0,1-1.955.851,2.424,2.424,0,0,1-1.666-.574A1.859,1.859,0,0,1,16.92,12.1a1.942,1.942,0,0,1,.816-1.666,3.846,3.846,0,0,1,2.295-.594h1.143V9.3a1.319,1.319,0,0,0-.368-.981,1.48,1.48,0,0,0-1.085-.365,1.712,1.712,0,0,0-1.054.317.935.935,0,0,0-.425.768H17.06a1.621,1.621,0,0,1,.365-.993,2.491,2.491,0,0,1,.99-.759A3.331,3.331,0,0,1,19.789,7a2.715,2.715,0,0,1,1.86.594,2.141,2.141,0,0,1,.7,1.635v3.161a3.865,3.865,0,0,0,.241,1.5V14Zm-1.949-.9a2.064,2.064,0,0,0,1.047-.286,1.728,1.728,0,0,0,.717-.743V10.667h-.92q-2.158,0-2.158,1.263a1.069,1.069,0,0,0,.368.863A1.415,1.415,0,0,0,19.408,13.1Zm5.884-5.973.032.762A2.536,2.536,0,0,1,27.362,7a1.964,1.964,0,0,1,1.961,1.1,2.6,2.6,0,0,1,.892-.8,2.634,2.634,0,0,1,1.3-.3q2.26,0,2.3,2.393V14H32.637V9.468a1.577,1.577,0,0,0-.336-1.1A1.482,1.482,0,0,0,31.171,8a1.557,1.557,0,0,0-1.085.39,1.584,1.584,0,0,0-.5,1.051V14H28.4V9.5A1.31,1.31,0,0,0,26.937,8a1.571,1.571,0,0,0-1.581.984V14H24.182V7.132Zm16.091,3.51a4.113,4.113,0,0,1-.717,2.526,2.3,2.3,0,0,1-1.942.958,2.519,2.519,0,0,1-1.968-.793v3.307H35.582V7.132h1.073l.057.762A2.419,2.419,0,0,1,38.705,7a2.342,2.342,0,0,1,1.958.933,4.157,4.157,0,0,1,.72,2.6Zm-1.174-.133a3.035,3.035,0,0,0-.5-1.834A1.6,1.6,0,0,0,38.356,8a1.726,1.726,0,0,0-1.6.946v3.282a1.73,1.73,0,0,0,1.612.939,1.587,1.587,0,0,0,1.343-.67A3.312,3.312,0,0,0,40.21,10.509ZM44.152,14H42.977V4.25h1.174Zm4.729.127a3,3,0,0,1-2.272-.917,3.4,3.4,0,0,1-.876-2.453v-.216a4.121,4.121,0,0,1,.39-1.825,3.045,3.045,0,0,1,1.092-1.257A2.745,2.745,0,0,1,48.735,7a2.572,2.572,0,0,1,2.082.882,3.82,3.82,0,0,1,.743,2.526V10.9H46.907a2.441,2.441,0,0,0,.594,1.641,1.866,1.866,0,0,0,1.444.625A2.045,2.045,0,0,0,50,12.915a2.648,2.648,0,0,0,.755-.673l.717.559A2.884,2.884,0,0,1,48.881,14.127ZM48.735,7.97a1.566,1.566,0,0,0-1.193.517,2.515,2.515,0,0,0-.6,1.45h3.44V9.849A2.237,2.237,0,0,0,49.9,8.462,1.475,1.475,0,0,0,48.735,7.97Z" transform="translate(1243.63 3068)" fill="#ef3c79"/>
    <g id="Grupo_898186" data-name="Grupo 898186" transform="translate(504.635 2932.551)">
      <path id="Trazado_625185" data-name="Trazado 625185" d="M732.316,151.653l8.373.084a1.8,1.8,0,0,1,1.559,1.014l.5,1.24,9.229.03a1.177,1.177,0,0,1,1.2,1.14l-.524,11.57a1.122,1.122,0,0,1-1.15,1.086H732.782a1.122,1.122,0,0,1-1.146-1.086l-.526-13.937A1.179,1.179,0,0,1,732.316,151.653Z" transform="translate(-0.404)" fill="#fea311"/>
      <path id="Trazado_625186" data-name="Trazado 625186" d="M752.88,161.64l-19.962,1.409-.622-5.8,19.962-1.409Z" transform="translate(-0.843 -1.551)" fill="#fff"/>
      <path id="Trazado_625187" data-name="Trazado 625187" d="M752.19,158.246l-8.9.076a1.961,1.961,0,0,0-1.656.913l-.534,1.116-9.806.026a1.178,1.178,0,0,0-1.28,1.026l.558,10.411a1.123,1.123,0,0,0,1.22.977h19.894a1.121,1.121,0,0,0,1.22-.977l.557-12.541A1.177,1.177,0,0,0,752.19,158.246Z" transform="translate(0 -2.442)" fill="#ffca00"/>
      <path id="Trazado_625188" data-name="Trazado 625188" d="M752.5,158.246l-.876.008-.53,11.9a1.123,1.123,0,0,1-1.219.978H730.849l.036.679a1.123,1.123,0,0,0,1.22.977H752a1.121,1.121,0,0,0,1.22-.977l.557-12.541A1.177,1.177,0,0,0,752.5,158.246Z" transform="translate(-0.307 -2.442)" fill="#fea311"/>
    </g>
    <g id="Grupo_898191" data-name="Grupo 898191" transform="translate(306.847 2840.822)">
      <g id="Grupo_898189" data-name="Grupo 898189" transform="translate(613.529 244.774)">
        <g id="Grupo_898188" data-name="Grupo 898188" transform="translate(0 0)">
          <g id="Grupo_898187" data-name="Grupo 898187" transform="translate(2.058)">
            <path id="Trazado_625193" data-name="Trazado 625193" d="M620.636,248.829a1.7,1.7,0,0,0-1.7,1.7v13.909a1.7,1.7,0,0,0,1.7,1.7h4.8v-17.3Z" transform="translate(-618.94 -248.829)" fill="#fff"/>
            <path id="Trazado_625194" data-name="Trazado 625194" d="M640.823,248.829h-4.8v17.3h4.8a1.7,1.7,0,0,0,1.7-1.7V250.526A1.7,1.7,0,0,0,640.823,248.829Z" transform="translate(-629.523 -248.829)" fill="#f0f0f0"/>
          </g>
          <path id="Trazado_625195" data-name="Trazado 625195" d="M618.976,290.426a1.7,1.7,0,0,0,1.683,1.478h9.6a1.7,1.7,0,0,0,1.681-1.478Z" transform="translate(-616.904 -274.602)" fill="#fff"/>
          <path id="Trazado_625196" data-name="Trazado 625196" d="M623.355,248.829h-8.144a1.7,1.7,0,0,0-1.682,1.478H625.2a1.7,1.7,0,0,1,1.682-1.478Z" transform="translate(-613.529 -248.829)" fill="#e0e0e0"/>
        </g>
      </g>
      <g id="Grupo_898190" data-name="Grupo 898190" transform="translate(622.809 241.483)">
        <path id="Trazado_625197" data-name="Trazado 625197" d="M651.638,247.73l-.152-1.125a.237.237,0,0,0-.266-.2l-1.124-.052a.276.276,0,0,1-.115-.009,3.868,3.868,0,0,0-.367-.721.29.29,0,0,1,.044-.252l.513-1a.236.236,0,0,0-.044-.332l-.9-.688a.236.236,0,0,0-.331.045l-.833.757a.282.282,0,0,1-.087.074,3.715,3.715,0,0,0-.77-.25.293.293,0,0,1-.147-.211l-.345-1.07a.238.238,0,0,0-.266-.2l-1.126.151a.236.236,0,0,0-.2.267l-.053,1.123a.265.265,0,0,1-.008.115,3.782,3.782,0,0,0-.722.367.286.286,0,0,1-.252-.045l-1-.512a.237.237,0,0,0-.333.044l-.687.9a.236.236,0,0,0,.043.332l.759.833a.275.275,0,0,1,.074.086,3.7,3.7,0,0,0-.25.771.289.289,0,0,1-.211.146l-1.072.346a.235.235,0,0,0-.2.266l.151,1.125a.236.236,0,0,0,.265.2l1.125.052a.269.269,0,0,1,.113.01,3.826,3.826,0,0,0,.368.721.287.287,0,0,1-.045.252l-.512,1a.237.237,0,0,0,.044.333l.9.688a.237.237,0,0,0,.332-.044l.831-.758a.282.282,0,0,1,.088-.075,3.726,3.726,0,0,0,.769.25.291.291,0,0,1,.147.21l.346,1.071a.237.237,0,0,0,.266.2l1.124-.151a.238.238,0,0,0,.2-.266l.053-1.125a.268.268,0,0,1,.009-.113,3.775,3.775,0,0,0,.721-.368.291.291,0,0,1,.253.045l1,.512a.238.238,0,0,0,.333-.044l.688-.9a.237.237,0,0,0-.044-.333l-.758-.832a.284.284,0,0,1-.074-.088,3.736,3.736,0,0,0,.25-.77.286.286,0,0,1,.21-.146l1.072-.346A.239.239,0,0,0,651.638,247.73Zm-5.219,3.145a3.172,3.172,0,1,1,3.172-3.172A3.171,3.171,0,0,1,646.419,250.874Z" transform="translate(-641.199 -242.483)" fill="#ffca00"/>
      </g>
    </g>
    <g id="Grupo_898197" data-name="Grupo 898197" transform="translate(411.77 2854.781)">
      <g id="Grupo_898192" data-name="Grupo 898192" transform="translate(592.603 238.007)">
        <rect id="Rectángulo_302468" data-name="Rectángulo 302468" width="4.516" height="0.9" transform="matrix(0.615, -0.789, 0.789, 0.615, 0, 3.563)" fill="#1a4b6c"/>
        <rect id="Rectángulo_302469" data-name="Rectángulo 302469" width="4.516" height="0.899" transform="matrix(0.614, -0.789, 0.789, 0.614, 0.711, 4.116)" fill="#134663"/>
      </g>
      <g id="Grupo_898193" data-name="Grupo 898193" transform="translate(588.646 239.927)">
        <path id="Trazado_625198" data-name="Trazado 625198" d="M593.7,248.192a22.294,22.294,0,0,0-4.7,6.03l1.044.815,4.7-6.031C594.435,248.761,594.121,248.518,593.7,248.192Z" transform="translate(-589.005 -248.192)" fill="#f6f6f6"/>
        <path id="Trazado_625199" data-name="Trazado 625199" d="M596.693,250.522l-1.044-.813-4.7,6.031,1.044.813A22.273,22.273,0,0,0,596.693,250.522Z" transform="translate(-589.907 -248.895)" fill="#f6f6f6"/>
      </g>
      <g id="Grupo_898194" data-name="Grupo 898194" transform="translate(593.393 230.357)">
        <path id="Trazado_625200" data-name="Trazado 625200" d="M598.93,232.326a5.106,5.106,0,0,0,.891,7.167l6.276-8.057A5.107,5.107,0,0,0,598.93,232.326Z" transform="translate(-597.852 -230.357)" fill="#e8e8e8"/>
        <path id="Trazado_625201" data-name="Trazado 625201" d="M607.8,232.367l-6.276,8.057a5.107,5.107,0,0,0,6.276-8.057Z" transform="translate(-599.552 -231.289)" fill="#e8e8e8"/>
      </g>
      <g id="Grupo_898195" data-name="Grupo 898195" transform="translate(594.949 231.913)">
        <path id="Trazado_625202" data-name="Trazado 625202" d="M607.666,234.654l-4.365,5.6a3.551,3.551,0,1,0,4.365-5.6Z" transform="translate(-601.932 -233.904)" fill="#2a9ed1"/>
        <path id="Trazado_625203" data-name="Trazado 625203" d="M601.5,234.626a3.55,3.55,0,0,0,.618,4.983l4.365-5.6A3.55,3.55,0,0,0,601.5,234.626Z" transform="translate(-600.751 -233.257)" fill="#62c3ed"/>
      </g>
      <g id="Grupo_898196" data-name="Grupo 898196" transform="translate(588.23 239.394)">
        <rect id="Rectángulo_302470" data-name="Rectángulo 302470" width="0.676" height="1.323" transform="matrix(0.615, -0.789, 0.789, 0.615, 1.044, 7.911)" fill="#fa0"/>
        <rect id="Rectángulo_302471" data-name="Rectángulo 302471" width="0.676" height="1.324" transform="translate(0 7.097) rotate(-52.083)" fill="#ffca00"/>
        <rect id="Rectángulo_302472" data-name="Rectángulo 302472" width="0.676" height="1.323" transform="translate(6.158 1.347) rotate(-52.076)" fill="#fa0"/>
        <rect id="Rectángulo_302473" data-name="Rectángulo 302473" width="0.676" height="1.324" transform="translate(5.114 0.533) rotate(-52.046)" fill="#ffca00"/>
      </g>
    </g>
    <path id="Trazado_629098" data-name="Trazado 629098" d="M3,0H15a3,3,0,0,1,3,3v9a3,3,0,0,1-3,3H3a3,3,0,0,1-3-3V3A3,3,0,0,1,3,0Z" transform="translate(1078.376 3087)" fill="#ef3c79"/>
    <path id="Trazado_629099" data-name="Trazado 629099" d="M3,0H15a3,3,0,0,1,3,3v9a3,3,0,0,1-3,3H3a3,3,0,0,1-3-3V3A3,3,0,0,1,3,0Z" transform="translate(847.376 3088)" fill="#21cbae"/>
    <path id="Trazado_629100" data-name="Trazado 629100" d="M7.282,9.728H3.277V13H7.929v1H2.058V4.758H7.866v1H3.277V8.731H7.282Zm4.285-.089L13.09,7.132h1.371l-2.247,3.4L14.531,14H13.173l-1.587-2.571L10,14H8.634l2.317-3.472L8.7,7.132h1.358Z" transform="translate(1078.376 3087.658)" fill="#fff"/>
    <path id="Trazado_629101" data-name="Trazado 629101" d="M2.331,13H7.618v1H.89v-.914L5.955,5.754H.972v-1H7.415v.889Zm6.4-2.495a4.023,4.023,0,0,1,.749-2.542A2.369,2.369,0,0,1,11.44,7a2.382,2.382,0,0,1,1.911.825V4.25h1.174V14H13.446l-.057-.736a2.391,2.391,0,0,1-1.961.863,2.346,2.346,0,0,1-1.946-.978A4.069,4.069,0,0,1,8.729,10.6Zm1.174.133a3.046,3.046,0,0,0,.482,1.828,1.56,1.56,0,0,0,1.333.66,1.713,1.713,0,0,0,1.631-1V8.973A1.726,1.726,0,0,0,11.732,8a1.567,1.567,0,0,0-1.346.667A3.354,3.354,0,0,0,9.9,10.642Z" transform="translate(848.376 3088.658)" fill="#fff"/>
    <g id="Grupo_898199" data-name="Grupo 898199" transform="translate(564.249 2862.093)">
      <rect id="Rectángulo_302476" data-name="Rectángulo 302476" width="9.336" height="14.304" transform="translate(590.128 225.255)" fill="#fff"/>
      <rect id="Rectángulo_302477" data-name="Rectángulo 302477" width="9.085" height="14.304" transform="translate(599.464 225.255)" fill="#e0e0e0"/>
      <g id="Grupo_898198" data-name="Grupo 898198" transform="translate(590.128 225.255)">
        <rect id="Rectángulo_302478" data-name="Rectángulo 302478" width="9.336" height="1.127" transform="translate(0 0)" fill="#2d4375"/>
        <rect id="Rectángulo_302479" data-name="Rectángulo 302479" width="9.085" height="1.127" transform="translate(9.336 0)" fill="#1e2d4f"/>
        <rect id="Rectángulo_302480" data-name="Rectángulo 302480" width="0.569" height="0.531" transform="translate(17.417 0.298)" fill="#fff"/>
        <rect id="Rectángulo_302481" data-name="Rectángulo 302481" width="0.569" height="0.531" transform="translate(16.225 0.298)" fill="#fff"/>
      </g>
    </g>
  </g>
</svg>
