<svg xmlns="http://www.w3.org/2000/svg" xmlns:xlink="http://www.w3.org/1999/xlink" width="505" height="308" viewBox="0 0 505 308">
  <defs>
    <filter id="Rectángulo_299086" x="0" y="0" width="505" height="308" filterUnits="userSpaceOnUse">
      <feOffset dy="5" input="SourceAlpha"/>
      <feGaussianBlur stdDeviation="3" result="blur"/>
      <feFlood flood-opacity="0.161"/>
      <feComposite operator="in" in2="blur"/>
      <feComposite in="SourceGraphic"/>
    </filter>
    <linearGradient id="linear-gradient" x1="0.081" y1="-2.557" x2="0.573" y2="1.031" gradientUnits="objectBoundingBox">
      <stop offset="0" stop-color="#717071"/>
      <stop offset="0.787" stop-color="#1e1e1e" stop-opacity="0.922"/>
      <stop offset="1" stop-color="#0f0f0f" stop-opacity="0"/>
    </linearGradient>
    <linearGradient id="linear-gradient-5" x1="0.935" y1="0.021" x2="0.075" y2="0.925" gradientUnits="objectBoundingBox">
      <stop offset="0" stop-color="#acaa84"/>
      <stop offset="1" stop-color="#fbfbfb" stop-opacity="0"/>
    </linearGradient>
    <filter id="Trazado_629082" x="207" y="95.672" width="142" height="107" filterUnits="userSpaceOnUse">
      <feOffset dx="2" dy="2" input="SourceAlpha"/>
      <feGaussianBlur stdDeviation="1" result="blur-2"/>
      <feFlood flood-opacity="0.161"/>
      <feComposite operator="in" in2="blur-2"/>
      <feComposite in="SourceGraphic"/>
    </filter>
    <filter id="Trazado_629082-2" x="207" y="95.672" width="142" height="107" filterUnits="userSpaceOnUse">
      <feOffset dx="2" dy="2" input="SourceAlpha"/>
      <feGaussianBlur stdDeviation="1" result="blur-3"/>
      <feFlood flood-opacity="0.161" result="color"/>
      <feComposite operator="out" in="SourceGraphic" in2="blur-3"/>
      <feComposite operator="in" in="color"/>
      <feComposite operator="in" in2="SourceGraphic"/>
    </filter>
    <filter id="Trazado_629083" x="346" y="166.672" width="128" height="69" filterUnits="userSpaceOnUse">
      <feOffset dx="2" dy="2" input="SourceAlpha"/>
      <feGaussianBlur stdDeviation="1" result="blur-4"/>
      <feFlood flood-opacity="0.161"/>
      <feComposite operator="in" in2="blur-4"/>
      <feComposite in="SourceGraphic"/>
    </filter>
    <filter id="Trazado_629083-2" x="346" y="166.672" width="128" height="69" filterUnits="userSpaceOnUse">
      <feOffset dx="2" dy="2" input="SourceAlpha"/>
      <feGaussianBlur stdDeviation="1" result="blur-5"/>
      <feFlood flood-opacity="0.161" result="color-2"/>
      <feComposite operator="out" in="SourceGraphic" in2="blur-5"/>
      <feComposite operator="in" in="color-2"/>
      <feComposite operator="in" in2="SourceGraphic"/>
    </filter>
  </defs>
  <g id="Grupo_901591" data-name="Grupo 901591" transform="translate(-819 -1986.691)">
    <g id="Grupo_897783" data-name="Grupo 897783" transform="translate(828 1990.691)">
      <g transform="matrix(1, 0, 0, 1, -9, -4)" filter="url(#Rectángulo_299086)">
        <rect id="Rectángulo_299086-2" data-name="Rectángulo 299086" width="487" height="290" rx="10" transform="translate(9 4)" fill="#fdfdfd"/>
      </g>
    </g>
    <g id="Grupo_898161" data-name="Grupo 898161" transform="translate(855 2054.02)">
      <g id="Grupo_898140" data-name="Grupo 898140">
        <g id="Grupo_898139" data-name="Grupo 898139">
          <path id="Rectángulo_302459" data-name="Rectángulo 302459" d="M3.375,0h162.3a3.374,3.374,0,0,1,3.374,3.374V22.753a3.375,3.375,0,0,1-3.375,3.375H3.374A3.374,3.374,0,0,1,0,22.754V3.375A3.375,3.375,0,0,1,3.375,0Z" transform="translate(3.145 0.899)" fill="#505050" opacity="0.35" style="mix-blend-mode: multiply;isolation: isolate"/>
          <path id="Trazado_625183" data-name="Trazado 625183" d="M3.094,0H167.277a3.094,3.094,0,0,1,3.094,3.094V23.362a3.094,3.094,0,0,1-3.094,3.094H3.094A3.094,3.094,0,0,1,0,23.362V3.094A3.094,3.094,0,0,1,3.094,0Z" fill="#fecb2f"/>
          <path id="Rectángulo_302461" data-name="Rectángulo 302461" d="M3.269,0H162.933A3.268,3.268,0,0,1,166.2,3.268V22.33a3.267,3.267,0,0,1-3.267,3.267H3.268A3.268,3.268,0,0,1,0,22.329V3.269A3.269,3.269,0,0,1,3.269,0Z" transform="translate(0.877 0.294)" fill="url(#linear-gradient)" style="mix-blend-mode: screen;isolation: isolate"/>
        </g>
      </g>
    </g>
    <g id="Grupo_898164" data-name="Grupo 898164" transform="translate(855 2106.02)">
      <g id="Grupo_898140-2" data-name="Grupo 898140">
        <g id="Grupo_898139-2" data-name="Grupo 898139">
          <path id="Rectángulo_302459-2" data-name="Rectángulo 302459" d="M3.375,0h162.3a3.374,3.374,0,0,1,3.374,3.374V22.753a3.375,3.375,0,0,1-3.375,3.375H3.374A3.374,3.374,0,0,1,0,22.754V3.375A3.375,3.375,0,0,1,3.375,0Z" transform="translate(3.145 0.899)" fill="#505050" opacity="0.35" style="mix-blend-mode: multiply;isolation: isolate"/>
          <path id="Trazado_625183-2" data-name="Trazado 625183" d="M3.094,0H167.277a3.094,3.094,0,0,1,3.094,3.094V23.362a3.094,3.094,0,0,1-3.094,3.094H3.094A3.094,3.094,0,0,1,0,23.362V3.094A3.094,3.094,0,0,1,3.094,0Z" fill="#ef3c79"/>
          <path id="Rectángulo_302461-2" data-name="Rectángulo 302461" d="M3.269,0H162.933A3.268,3.268,0,0,1,166.2,3.268V22.33a3.267,3.267,0,0,1-3.267,3.267H3.268A3.268,3.268,0,0,1,0,22.329V3.269A3.269,3.269,0,0,1,3.269,0Z" transform="translate(0.877 0.294)" fill="url(#linear-gradient)" style="mix-blend-mode: screen;isolation: isolate"/>
        </g>
      </g>
    </g>
    <g id="Grupo_898162" data-name="Grupo 898162" transform="translate(855 2080.02)">
      <g id="Grupo_898140-3" data-name="Grupo 898140">
        <g id="Grupo_898139-3" data-name="Grupo 898139">
          <path id="Rectángulo_302459-3" data-name="Rectángulo 302459" d="M3.375,0h162.3a3.374,3.374,0,0,1,3.374,3.374V22.753a3.375,3.375,0,0,1-3.375,3.375H3.374A3.374,3.374,0,0,1,0,22.754V3.375A3.375,3.375,0,0,1,3.375,0Z" transform="translate(3.145 0.899)" fill="#505050" opacity="0.35" style="mix-blend-mode: multiply;isolation: isolate"/>
          <rect id="Rectángulo_302460" data-name="Rectángulo 302460" width="170.371" height="26.456" rx="3.094" fill="#21cbae"/>
          <path id="Rectángulo_302461-3" data-name="Rectángulo 302461" d="M3.269,0H162.933A3.268,3.268,0,0,1,166.2,3.268V22.33a3.267,3.267,0,0,1-3.267,3.267H3.268A3.268,3.268,0,0,1,0,22.329V3.269A3.269,3.269,0,0,1,3.269,0Z" transform="translate(0.877 0.294)" fill="url(#linear-gradient)" style="mix-blend-mode: screen;isolation: isolate"/>
        </g>
      </g>
    </g>
    <g id="Grupo_898163" data-name="Grupo 898163" transform="translate(855 2132.02)">
      <g id="Grupo_898140-4" data-name="Grupo 898140">
        <g id="Grupo_898139-4" data-name="Grupo 898139">
          <path id="Rectángulo_302459-4" data-name="Rectángulo 302459" d="M3.375,0h162.3a3.374,3.374,0,0,1,3.374,3.374V22.753a3.375,3.375,0,0,1-3.375,3.375H3.374A3.374,3.374,0,0,1,0,22.754V3.375A3.375,3.375,0,0,1,3.375,0Z" transform="translate(3.145 0.899)" fill="#505050" opacity="0.35" style="mix-blend-mode: multiply;isolation: isolate"/>
          <path id="Trazado_625184" data-name="Trazado 625184" d="M3.094,0H167.277a3.094,3.094,0,0,1,3.094,3.094V23.362a3.094,3.094,0,0,1-3.094,3.094H3.094A3.094,3.094,0,0,1,0,23.362V3.094A3.094,3.094,0,0,1,3.094,0Z" fill="#0b5999"/>
          <path id="Rectángulo_302461-4" data-name="Rectángulo 302461" d="M3.269,0H162.933A3.268,3.268,0,0,1,166.2,3.268V22.33a3.267,3.267,0,0,1-3.267,3.267H3.268A3.268,3.268,0,0,1,0,22.329V3.269A3.269,3.269,0,0,1,3.269,0Z" transform="translate(0.877 0.294)" fill="url(#linear-gradient)" style="mix-blend-mode: screen;isolation: isolate"/>
        </g>
      </g>
    </g>
    <path id="Trazado_629078" data-name="Trazado 629078" d="M7.438,14.656H3.328L2.547,17H.055L4.289,5.625H6.461L10.719,17H8.227Zm-3.477-1.9H6.8L5.375,8.5Zm15.281.094a5.07,5.07,0,0,1-.887,3.129,2.843,2.843,0,0,1-2.395,1.176,2.633,2.633,0,0,1-2.07-.891V20.25H11.633V8.547h2.094l.078.828a2.654,2.654,0,0,1,2.141-.984,2.862,2.862,0,0,1,2.43,1.156,5.207,5.207,0,0,1,.867,3.188Zm-2.258-.164a3.327,3.327,0,0,0-.418-1.82,1.361,1.361,0,0,0-1.215-.641,1.479,1.479,0,0,0-1.461.813V14.5a1.5,1.5,0,0,0,1.477.836Q16.984,15.336,16.984,12.688ZM23.8,13.8l1.563-5.258h2.422l-3.4,9.766-.187.445a2.577,2.577,0,0,1-2.5,1.656,3.552,3.552,0,0,1-1-.148V18.555l.344.008a1.857,1.857,0,0,0,.957-.2,1.283,1.283,0,0,0,.5-.648l.266-.7L19.8,8.547h2.43Zm8.391,1.531a1.481,1.481,0,0,0,1.016-.344,1.2,1.2,0,0,0,.406-.914h2.117a2.9,2.9,0,0,1-.469,1.574A3.093,3.093,0,0,1,34,16.762a3.949,3.949,0,0,1-1.77.395A3.67,3.67,0,0,1,29.367,16,4.56,4.56,0,0,1,28.32,12.82v-.148a4.508,4.508,0,0,1,1.039-3.117,3.627,3.627,0,0,1,2.852-1.164,3.555,3.555,0,0,1,2.543.9,3.2,3.2,0,0,1,.973,2.4H33.609a1.551,1.551,0,0,0-.406-1.072,1.51,1.51,0,0,0-2.223.163,3.333,3.333,0,0,0-.4,1.866v.235a3.375,3.375,0,0,0,.4,1.878A1.377,1.377,0,0,0,32.188,15.336ZM36.664,12.7a5.013,5.013,0,0,1,.484-2.242A3.546,3.546,0,0,1,38.543,8.93a4.069,4.069,0,0,1,2.113-.539,3.849,3.849,0,0,1,2.793,1.047,4.2,4.2,0,0,1,1.207,2.844l.016.578a4.418,4.418,0,0,1-1.086,3.121,4.209,4.209,0,0,1-5.832,0,4.5,4.5,0,0,1-1.09-3.187Zm2.258.16a3.16,3.16,0,0,0,.453,1.843,1.628,1.628,0,0,0,2.578.008,3.457,3.457,0,0,0,.461-2.015,3.128,3.128,0,0,0-.461-1.831,1.5,1.5,0,0,0-1.3-.649,1.474,1.474,0,0,0-1.281.646A3.516,3.516,0,0,0,38.922,12.856ZM48.18,8.547l.07.945a2.971,2.971,0,0,1,2.43-1.1A2.255,2.255,0,0,1,52.922,9.68a2.9,2.9,0,0,1,2.539-1.289,2.521,2.521,0,0,1,2.047.8,3.681,3.681,0,0,1,.672,2.41V17H55.914V11.609a1.61,1.61,0,0,0-.281-1.051,1.246,1.246,0,0,0-.992-.332,1.409,1.409,0,0,0-1.406.969l.008,5.8H50.984V11.617a1.59,1.59,0,0,0-.289-1.062,1.259,1.259,0,0,0-.984-.328,1.463,1.463,0,0,0-1.391.8V17H46.063V8.547Z" transform="translate(887 2056.652)" fill="#fff"/>
    <path id="Trazado_629079" data-name="Trazado 629079" d="M5.766,17a2.507,2.507,0,0,1-.227-.758,2.732,2.732,0,0,1-2.133.914,3,3,0,0,1-2.059-.719,2.312,2.312,0,0,1-.816-1.812,2.389,2.389,0,0,1,1-2.062,4.915,4.915,0,0,1,2.879-.727H5.445v-.484a1.393,1.393,0,0,0-.3-.937,1.183,1.183,0,0,0-.949-.352,1.345,1.345,0,0,0-.895.273.929.929,0,0,0-.324.75H.719a2.268,2.268,0,0,1,.453-1.359,3,3,0,0,1,1.281-.98,4.669,4.669,0,0,1,1.859-.355,3.689,3.689,0,0,1,2.48.785,2.747,2.747,0,0,1,.918,2.207v3.664a4.041,4.041,0,0,0,.336,1.82V17ZM3.9,15.43a1.945,1.945,0,0,0,.922-.223,1.462,1.462,0,0,0,.625-.6V13.156H4.6q-1.7,0-1.8,1.172l-.008.133a.9.9,0,0,0,.3.7A1.153,1.153,0,0,0,3.9,15.43Zm13.156-2.578a5.07,5.07,0,0,1-.887,3.129,2.843,2.843,0,0,1-2.395,1.176,2.633,2.633,0,0,1-2.07-.891V20.25H9.445V8.547h2.094l.078.828a2.654,2.654,0,0,1,2.141-.984,2.862,2.862,0,0,1,2.43,1.156,5.207,5.207,0,0,1,.867,3.188ZM14.8,12.688a3.327,3.327,0,0,0-.418-1.82,1.361,1.361,0,0,0-1.215-.641,1.479,1.479,0,0,0-1.461.813V14.5a1.5,1.5,0,0,0,1.477.836Q14.8,15.336,14.8,12.688Zm6.867-7.062,2.922,8.25,2.906-8.25H30.57V17H28.219V13.891l.234-5.367L25.383,17H23.773L20.711,8.531l.234,5.359V17H18.6V5.625Zm14.7,11.531a4.15,4.15,0,0,1-3.027-1.141,4.054,4.054,0,0,1-1.168-3.039v-.219a5.106,5.106,0,0,1,.492-2.277,3.612,3.612,0,0,1,1.395-1.547,3.914,3.914,0,0,1,2.059-.543,3.508,3.508,0,0,1,2.73,1.094,4.444,4.444,0,0,1,1,3.1v.922H34.453a2.1,2.1,0,0,0,.66,1.328,2,2,0,0,0,1.395.5,2.437,2.437,0,0,0,2.039-.945l1.109,1.242a3.389,3.389,0,0,1-1.375,1.121A4.511,4.511,0,0,1,36.359,17.156ZM36.1,10.211a1.411,1.411,0,0,0-1.09.455,2.357,2.357,0,0,0-.535,1.3h3.141v-.181a1.681,1.681,0,0,0-.406-1.165A1.456,1.456,0,0,0,36.1,10.211ZM43.2,8.547l.07.977A2.951,2.951,0,0,1,45.7,8.391a2.453,2.453,0,0,1,2,.789,3.682,3.682,0,0,1,.672,2.359V17H46.109V11.594a1.465,1.465,0,0,0-.312-1.043,1.4,1.4,0,0,0-1.039-.324,1.553,1.553,0,0,0-1.43.813V17H41.07V8.547Zm11.945,7.594a2.831,2.831,0,0,1-2.312,1.016,2.67,2.67,0,0,1-2.074-.781,3.335,3.335,0,0,1-.73-2.289V8.547h2.258v5.467q0,1.322,1.2,1.322a1.63,1.63,0,0,0,1.578-.8V8.547h2.266V17H55.2Zm8.469-1.477a.727.727,0,0,0-.41-.652,4.659,4.659,0,0,0-1.316-.426q-3.016-.633-3.016-2.562A2.323,2.323,0,0,1,59.8,9.145a3.766,3.766,0,0,1,2.441-.754,4.053,4.053,0,0,1,2.574.758,2.388,2.388,0,0,1,.965,1.969H63.523a1.092,1.092,0,0,0-.312-.8A1.322,1.322,0,0,0,62.234,10a1.351,1.351,0,0,0-.883.258.814.814,0,0,0-.312.656.7.7,0,0,0,.355.605,3.657,3.657,0,0,0,1.2.4,9.8,9.8,0,0,1,1.422.379A2.336,2.336,0,0,1,65.8,14.57a2.2,2.2,0,0,1-.992,1.871,4.28,4.28,0,0,1-2.562.715,4.47,4.47,0,0,1-1.887-.379,3.166,3.166,0,0,1-1.293-1.039,2.414,2.414,0,0,1-.469-1.426h2.141a1.179,1.179,0,0,0,.445.922,1.766,1.766,0,0,0,1.109.32,1.635,1.635,0,0,0,.98-.246A.766.766,0,0,0,63.609,14.664Z" transform="translate(887 2083.652)" fill="#fff"/>
    <path id="Trazado_629080" data-name="Trazado 629080" d="M3.359,12.992V17H1.016V5.625H5.453a5.134,5.134,0,0,1,2.254.469A3.454,3.454,0,0,1,9.2,7.426a3.714,3.714,0,0,1,.523,1.965,3.266,3.266,0,0,1-1.145,2.637,4.767,4.767,0,0,1-3.168.965Zm0-1.9H5.453a2.059,2.059,0,0,0,1.418-.437,1.591,1.591,0,0,0,.488-1.25,1.876,1.876,0,0,0-.492-1.352,1.839,1.839,0,0,0-1.359-.531H3.359ZM16,17a2.507,2.507,0,0,1-.227-.758,2.732,2.732,0,0,1-2.133.914,3,3,0,0,1-2.059-.719,2.312,2.312,0,0,1-.816-1.812,2.389,2.389,0,0,1,1-2.062,4.915,4.915,0,0,1,2.879-.727H15.68v-.484a1.393,1.393,0,0,0-.3-.937,1.183,1.183,0,0,0-.949-.352,1.345,1.345,0,0,0-.895.273.929.929,0,0,0-.324.75H10.953a2.268,2.268,0,0,1,.453-1.359,3,3,0,0,1,1.281-.98,4.669,4.669,0,0,1,1.859-.355,3.689,3.689,0,0,1,2.48.785,2.747,2.747,0,0,1,.918,2.207v3.664a4.041,4.041,0,0,0,.336,1.82V17Zm-1.867-1.57a1.945,1.945,0,0,0,.922-.223,1.462,1.462,0,0,0,.625-.6V13.156h-.844q-1.7,0-1.8,1.172l-.008.133a.9.9,0,0,0,.3.7A1.153,1.153,0,0,0,14.133,15.43Zm10.3-4.766a6.134,6.134,0,0,0-.812-.062,1.654,1.654,0,0,0-1.68.867V17H19.68V8.547h2.133l.063,1.008a2.092,2.092,0,0,1,1.883-1.164,2.366,2.366,0,0,1,.7.1ZM30.18,17a2.507,2.507,0,0,1-.227-.758,2.732,2.732,0,0,1-2.133.914,3,3,0,0,1-2.059-.719,2.312,2.312,0,0,1-.816-1.812,2.389,2.389,0,0,1,1-2.062,4.915,4.915,0,0,1,2.879-.727h1.039v-.484a1.393,1.393,0,0,0-.3-.937,1.183,1.183,0,0,0-.949-.352,1.345,1.345,0,0,0-.895.273.929.929,0,0,0-.324.75H25.133a2.268,2.268,0,0,1,.453-1.359,3,3,0,0,1,1.281-.98,4.669,4.669,0,0,1,1.859-.355,3.689,3.689,0,0,1,2.48.785,2.747,2.747,0,0,1,.918,2.207v3.664a4.041,4.041,0,0,0,.336,1.82V17Zm-1.867-1.57a1.945,1.945,0,0,0,.922-.223,1.462,1.462,0,0,0,.625-.6V13.156h-.844q-1.7,0-1.8,1.172l-.008.133a.9.9,0,0,0,.3.7A1.153,1.153,0,0,0,28.313,15.43Zm7.664-6.883.07.945a2.971,2.971,0,0,1,2.43-1.1A2.255,2.255,0,0,1,40.719,9.68a2.9,2.9,0,0,1,2.539-1.289,2.521,2.521,0,0,1,2.047.8,3.681,3.681,0,0,1,.672,2.41V17H43.711V11.609a1.61,1.61,0,0,0-.281-1.051,1.246,1.246,0,0,0-.992-.332,1.409,1.409,0,0,0-1.406.969l.008,5.8H38.781V11.617a1.59,1.59,0,0,0-.289-1.062,1.259,1.259,0,0,0-.984-.328,1.463,1.463,0,0,0-1.391.8V17H33.859V8.547ZM51.6,17.156a4.15,4.15,0,0,1-3.027-1.141,4.054,4.054,0,0,1-1.168-3.039v-.219A5.106,5.106,0,0,1,47.9,10.48a3.612,3.612,0,0,1,1.395-1.547,3.914,3.914,0,0,1,2.059-.543,3.508,3.508,0,0,1,2.73,1.094,4.444,4.444,0,0,1,1,3.1v.922H49.7a2.1,2.1,0,0,0,.66,1.328,2,2,0,0,0,1.395.5,2.437,2.437,0,0,0,2.039-.945L54.9,15.633a3.389,3.389,0,0,1-1.375,1.121A4.511,4.511,0,0,1,51.6,17.156Zm-.258-6.945a1.411,1.411,0,0,0-1.09.455,2.357,2.357,0,0,0-.535,1.3h3.141v-.181a1.681,1.681,0,0,0-.406-1.165A1.456,1.456,0,0,0,51.344,10.211Zm7.719-3.742V8.547h1.445V10.2H59.063v4.219a1.007,1.007,0,0,0,.18.672.9.9,0,0,0,.688.2,3.6,3.6,0,0,0,.664-.055v1.711a4.648,4.648,0,0,1-1.367.2,2.156,2.156,0,0,1-2.422-2.4V10.2H55.57V8.547H56.8V6.469Zm6.594,10.688a4.15,4.15,0,0,1-3.027-1.141,4.054,4.054,0,0,1-1.168-3.039v-.219a5.106,5.106,0,0,1,.492-2.277,3.612,3.612,0,0,1,1.395-1.547,3.914,3.914,0,0,1,2.059-.543,3.508,3.508,0,0,1,2.73,1.094,4.444,4.444,0,0,1,1,3.1v.922H63.75a2.1,2.1,0,0,0,.66,1.328,2,2,0,0,0,1.395.5,2.437,2.437,0,0,0,2.039-.945l1.109,1.242a3.389,3.389,0,0,1-1.375,1.121A4.511,4.511,0,0,1,65.656,17.156ZM65.4,10.211a1.411,1.411,0,0,0-1.09.455,2.357,2.357,0,0,0-.535,1.3h3.141v-.181a1.681,1.681,0,0,0-.406-1.165A1.456,1.456,0,0,0,65.4,10.211Zm9.766.453a6.134,6.134,0,0,0-.812-.062,1.654,1.654,0,0,0-1.68.867V17H70.414V8.547h2.133l.063,1.008a2.092,2.092,0,0,1,1.883-1.164,2.366,2.366,0,0,1,.7.1Zm5.664,4a.727.727,0,0,0-.41-.652,4.659,4.659,0,0,0-1.316-.426q-3.016-.633-3.016-2.562a2.323,2.323,0,0,1,.934-1.879,3.766,3.766,0,0,1,2.441-.754,4.053,4.053,0,0,1,2.574.758A2.388,2.388,0,0,1,83,11.117H80.742a1.092,1.092,0,0,0-.312-.8A1.322,1.322,0,0,0,79.453,10a1.351,1.351,0,0,0-.883.258.814.814,0,0,0-.312.656.7.7,0,0,0,.355.605,3.657,3.657,0,0,0,1.2.4,9.8,9.8,0,0,1,1.422.379,2.336,2.336,0,0,1,1.789,2.273,2.2,2.2,0,0,1-.992,1.871,4.28,4.28,0,0,1-2.562.715,4.47,4.47,0,0,1-1.887-.379,3.166,3.166,0,0,1-1.293-1.039,2.414,2.414,0,0,1-.469-1.426h2.141a1.179,1.179,0,0,0,.445.922,1.766,1.766,0,0,0,1.109.32,1.635,1.635,0,0,0,.98-.246A.766.766,0,0,0,80.828,14.664Z" transform="translate(887 2109.652)" fill="#fff"/>
    <path id="Trazado_629081" data-name="Trazado 629081" d="M1.016,17V5.625h3.5A5.315,5.315,0,0,1,7.2,6.3,4.712,4.712,0,0,1,9.047,8.223a5.928,5.928,0,0,1,.664,2.832v.523a5.945,5.945,0,0,1-.652,2.82,4.672,4.672,0,0,1-1.84,1.914A5.355,5.355,0,0,1,4.539,17ZM3.359,7.523v7.594H4.492a2.545,2.545,0,0,0,2.1-.9,4.06,4.06,0,0,0,.742-2.57v-.6a4.124,4.124,0,0,0-.719-2.629,2.537,2.537,0,0,0-2.1-.895ZM10.914,12.7a5.013,5.013,0,0,1,.484-2.242A3.546,3.546,0,0,1,12.793,8.93a4.069,4.069,0,0,1,2.113-.539A3.849,3.849,0,0,1,17.7,9.438a4.2,4.2,0,0,1,1.207,2.844l.016.578a4.418,4.418,0,0,1-1.086,3.121,3.775,3.775,0,0,1-2.914,1.176A3.793,3.793,0,0,1,12,15.984a4.5,4.5,0,0,1-1.09-3.187Zm2.258.16a3.16,3.16,0,0,0,.453,1.843,1.628,1.628,0,0,0,2.578.008,3.457,3.457,0,0,0,.461-2.015A3.128,3.128,0,0,0,16.2,10.86a1.5,1.5,0,0,0-1.3-.649,1.474,1.474,0,0,0-1.281.646A3.516,3.516,0,0,0,13.172,12.856ZM27.664,13.93l1.109-5.383h2.18L28.8,17H26.906l-1.6-5.32L23.7,17H21.82L19.664,8.547h2.18l1.1,5.375,1.547-5.375h1.633Zm6.484-5.383.07.977a2.951,2.951,0,0,1,2.43-1.133,2.453,2.453,0,0,1,2,.789,3.682,3.682,0,0,1,.672,2.359V17H37.063V11.594a1.465,1.465,0,0,0-.312-1.043,1.4,1.4,0,0,0-1.039-.324,1.553,1.553,0,0,0-1.43.813V17H32.023V8.547ZM43.414,17H41.148V5h2.266Zm1.508-4.3a5.013,5.013,0,0,1,.484-2.242A3.546,3.546,0,0,1,46.8,8.93a4.069,4.069,0,0,1,2.113-.539,3.849,3.849,0,0,1,2.793,1.047,4.2,4.2,0,0,1,1.207,2.844l.016.578a4.418,4.418,0,0,1-1.086,3.121,4.209,4.209,0,0,1-5.832,0,4.5,4.5,0,0,1-1.09-3.187Zm2.258.16a3.16,3.16,0,0,0,.453,1.843,1.628,1.628,0,0,0,2.578.008,3.457,3.457,0,0,0,.461-2.015,3.128,3.128,0,0,0-.461-1.831,1.5,1.5,0,0,0-1.3-.649,1.474,1.474,0,0,0-1.281.646A3.516,3.516,0,0,0,47.18,12.856ZM59.219,17a2.507,2.507,0,0,1-.227-.758,2.732,2.732,0,0,1-2.133.914,3,3,0,0,1-2.059-.719,2.312,2.312,0,0,1-.816-1.812,2.389,2.389,0,0,1,1-2.062,4.915,4.915,0,0,1,2.879-.727H58.9v-.484a1.393,1.393,0,0,0-.3-.937,1.183,1.183,0,0,0-.949-.352,1.345,1.345,0,0,0-.895.273.929.929,0,0,0-.324.75H54.172a2.268,2.268,0,0,1,.453-1.359,3,3,0,0,1,1.281-.98,4.669,4.669,0,0,1,1.859-.355,3.689,3.689,0,0,1,2.48.785,2.747,2.747,0,0,1,.918,2.207v3.664a4.041,4.041,0,0,0,.336,1.82V17Zm-1.867-1.57a1.945,1.945,0,0,0,.922-.223,1.462,1.462,0,0,0,.625-.6V13.156h-.844q-1.7,0-1.8,1.172l-.008.133a.9.9,0,0,0,.3.7A1.153,1.153,0,0,0,57.352,15.43Zm10.125-.766a.727.727,0,0,0-.41-.652,4.659,4.659,0,0,0-1.316-.426q-3.016-.633-3.016-2.562a2.323,2.323,0,0,1,.934-1.879,3.766,3.766,0,0,1,2.441-.754,4.053,4.053,0,0,1,2.574.758,2.388,2.388,0,0,1,.965,1.969H67.391a1.092,1.092,0,0,0-.312-.8A1.322,1.322,0,0,0,66.1,10a1.351,1.351,0,0,0-.883.258.814.814,0,0,0-.312.656.7.7,0,0,0,.355.605,3.657,3.657,0,0,0,1.2.4,9.8,9.8,0,0,1,1.422.379,2.336,2.336,0,0,1,1.789,2.273,2.2,2.2,0,0,1-.992,1.871,4.28,4.28,0,0,1-2.562.715,4.47,4.47,0,0,1-1.887-.379,3.166,3.166,0,0,1-1.293-1.039,2.414,2.414,0,0,1-.469-1.426h2.141a1.179,1.179,0,0,0,.445.922,1.766,1.766,0,0,0,1.109.32,1.635,1.635,0,0,0,.98-.246A.766.766,0,0,0,67.477,14.664Z" transform="translate(887 2136.652)" fill="#fff"/>
    <g id="Grupo_898165" data-name="Grupo 898165" transform="translate(858.702 2058.75)">
      <g id="Grupo_898102" data-name="Grupo 898102">
        <path id="Rectángulo_302424" data-name="Rectángulo 302424" d="M2.372,0h12a2.372,2.372,0,0,1,2.372,2.372V13.32a2.372,2.372,0,0,1-2.372,2.372h-12A2.369,2.369,0,0,1,0,13.323V2.372A2.372,2.372,0,0,1,2.372,0Z" transform="translate(0 1.874)" fill="#070770" opacity="0.2" style="mix-blend-mode: multiply;isolation: isolate"/>
        <path id="Trazado_625177" data-name="Trazado 625177" d="M.954,0H15.222a.954.954,0,0,1,.954.954v14.27a.952.952,0,0,1-.952.952H.952A.952.952,0,0,1,0,15.223V.954A.954.954,0,0,1,.954,0Z" transform="translate(2.022)" fill="#137a68"/>
        <path id="Rectángulo_302426" data-name="Rectángulo 302426" d="M1.523,0H13.39a1.521,1.521,0,0,1,1.521,1.521V13.389a1.523,1.523,0,0,1-1.523,1.523H1.523A1.523,1.523,0,0,1,0,13.388V1.523A1.523,1.523,0,0,1,1.523,0Z" transform="translate(2.976 0.432)" fill="url(#linear-gradient-5)" style="mix-blend-mode: screen;isolation: isolate"/>
      </g>
      <g id="Grupo_898103" data-name="Grupo 898103" transform="translate(5.6 3.179)">
        <path id="Trazado_625153" data-name="Trazado 625153" d="M581.09,362.844h.568a.38.38,0,0,0,.38-.379V361.16a.379.379,0,0,0-.38-.379h-.488a.492.492,0,0,1-.458-.307c-.013-.034-.026-.065-.039-.1a.5.5,0,0,1,.106-.543l.347-.343a.378.378,0,0,0,0-.536l-.922-.927a.38.38,0,0,0-.536,0l-.395.4a.387.387,0,0,1-.428.084c-.078-.036-.157-.071-.238-.1a.368.368,0,0,1-.247-.341v-.58a.379.379,0,0,0-.378-.38h-1.308a.379.379,0,0,0-.378.38v.568a.391.391,0,0,1-.258.359,2.919,2.919,0,0,0-.284.122.392.392,0,0,1-.44-.061l-.411-.393a.379.379,0,0,0-.536.014l-.9.947a.379.379,0,0,0,.014.536l.608.58h0a3.8,3.8,0,0,0-.17.385.373.373,0,0,1-.351.24H573a.379.379,0,0,0-.38.379v1.306a.38.38,0,0,0,.38.379h.488a.492.492,0,0,1,.458.309c.013.032.026.065.04.1a.489.489,0,0,1-.106.541l-.347.345a.38.38,0,0,0,0,.536l.922.926a.379.379,0,0,0,.536,0l.395-.393a.383.383,0,0,1,.43-.082c.077.033.157.066.238.1a.367.367,0,0,1,.246.339v.582a.379.379,0,0,0,.378.38h1.308a.379.379,0,0,0,.378-.38v-.568a.389.389,0,0,1,.258-.359c.1-.036.193-.076.286-.122a.387.387,0,0,1,.437.061l.413.392a.379.379,0,0,0,.536-.014l.9-.946a.379.379,0,0,0-.012-.535l-.609-.578h0a3.5,3.5,0,0,0,.17-.387A.376.376,0,0,1,581.09,362.844Zm-5.763-1.032a2,2,0,1,1,2,2.01A2.007,2.007,0,0,1,575.327,361.813Z" transform="translate(-572.62 -357.104)" fill="#fff"/>
      </g>
    </g>
    <g id="Grupo_898167" data-name="Grupo 898167" transform="translate(858.702 2085.75)">
      <g id="Grupo_898102-2" data-name="Grupo 898102">
        <path id="Rectángulo_302424-2" data-name="Rectángulo 302424" d="M2.372,0h12a2.372,2.372,0,0,1,2.372,2.372V13.32a2.372,2.372,0,0,1-2.372,2.372h-12A2.369,2.369,0,0,1,0,13.323V2.372A2.372,2.372,0,0,1,2.372,0Z" transform="translate(0 1.874)" fill="#070770" opacity="0.2" style="mix-blend-mode: multiply;isolation: isolate"/>
        <path id="Trazado_625177-2" data-name="Trazado 625177" d="M.954,0H15.222a.954.954,0,0,1,.954.954v14.27a.952.952,0,0,1-.952.952H.952A.952.952,0,0,1,0,15.223V.954A.954.954,0,0,1,.954,0Z" transform="translate(2.022)" fill="#137a68"/>
        <path id="Rectángulo_302426-2" data-name="Rectángulo 302426" d="M1.523,0H13.39a1.521,1.521,0,0,1,1.521,1.521V13.389a1.523,1.523,0,0,1-1.523,1.523H1.523A1.523,1.523,0,0,1,0,13.388V1.523A1.523,1.523,0,0,1,1.523,0Z" transform="translate(2.976 0.432)" fill="url(#linear-gradient-5)" style="mix-blend-mode: screen;isolation: isolate"/>
      </g>
      <g id="Grupo_898103-2" data-name="Grupo 898103" transform="translate(5.6 3.179)">
        <path id="Trazado_625153-2" data-name="Trazado 625153" d="M581.09,362.844h.568a.38.38,0,0,0,.38-.379V361.16a.379.379,0,0,0-.38-.379h-.488a.492.492,0,0,1-.458-.307c-.013-.034-.026-.065-.039-.1a.5.5,0,0,1,.106-.543l.347-.343a.378.378,0,0,0,0-.536l-.922-.927a.38.38,0,0,0-.536,0l-.395.4a.387.387,0,0,1-.428.084c-.078-.036-.157-.071-.238-.1a.368.368,0,0,1-.247-.341v-.58a.379.379,0,0,0-.378-.38h-1.308a.379.379,0,0,0-.378.38v.568a.391.391,0,0,1-.258.359,2.919,2.919,0,0,0-.284.122.392.392,0,0,1-.44-.061l-.411-.393a.379.379,0,0,0-.536.014l-.9.947a.379.379,0,0,0,.014.536l.608.58h0a3.8,3.8,0,0,0-.17.385.373.373,0,0,1-.351.24H573a.379.379,0,0,0-.38.379v1.306a.38.38,0,0,0,.38.379h.488a.492.492,0,0,1,.458.309c.013.032.026.065.04.1a.489.489,0,0,1-.106.541l-.347.345a.38.38,0,0,0,0,.536l.922.926a.379.379,0,0,0,.536,0l.395-.393a.383.383,0,0,1,.43-.082c.077.033.157.066.238.1a.367.367,0,0,1,.246.339v.582a.379.379,0,0,0,.378.38h1.308a.379.379,0,0,0,.378-.38v-.568a.389.389,0,0,1,.258-.359c.1-.036.193-.076.286-.122a.387.387,0,0,1,.437.061l.413.392a.379.379,0,0,0,.536-.014l.9-.946a.379.379,0,0,0-.012-.535l-.609-.578h0a3.5,3.5,0,0,0,.17-.387A.376.376,0,0,1,581.09,362.844Zm-5.763-1.032a2,2,0,1,1,2,2.01A2.007,2.007,0,0,1,575.327,361.813Z" transform="translate(-572.62 -357.104)" fill="#fff"/>
      </g>
    </g>
    <g id="Grupo_898168" data-name="Grupo 898168" transform="translate(858.702 2110.75)">
      <g id="Grupo_898102-3" data-name="Grupo 898102">
        <path id="Rectángulo_302424-3" data-name="Rectángulo 302424" d="M2.372,0h12a2.372,2.372,0,0,1,2.372,2.372V13.32a2.372,2.372,0,0,1-2.372,2.372h-12A2.369,2.369,0,0,1,0,13.323V2.372A2.372,2.372,0,0,1,2.372,0Z" transform="translate(0 1.874)" fill="#070770" opacity="0.2" style="mix-blend-mode: multiply;isolation: isolate"/>
        <path id="Trazado_625177-3" data-name="Trazado 625177" d="M.954,0H15.222a.954.954,0,0,1,.954.954v14.27a.952.952,0,0,1-.952.952H.952A.952.952,0,0,1,0,15.223V.954A.954.954,0,0,1,.954,0Z" transform="translate(2.022)" fill="#137a68"/>
        <path id="Rectángulo_302426-3" data-name="Rectángulo 302426" d="M1.523,0H13.39a1.521,1.521,0,0,1,1.521,1.521V13.389a1.523,1.523,0,0,1-1.523,1.523H1.523A1.523,1.523,0,0,1,0,13.388V1.523A1.523,1.523,0,0,1,1.523,0Z" transform="translate(2.976 0.432)" fill="url(#linear-gradient-5)" style="mix-blend-mode: screen;isolation: isolate"/>
      </g>
      <g id="Grupo_898103-3" data-name="Grupo 898103" transform="translate(5.6 3.179)">
        <path id="Trazado_625153-3" data-name="Trazado 625153" d="M581.09,362.844h.568a.38.38,0,0,0,.38-.379V361.16a.379.379,0,0,0-.38-.379h-.488a.492.492,0,0,1-.458-.307c-.013-.034-.026-.065-.039-.1a.5.5,0,0,1,.106-.543l.347-.343a.378.378,0,0,0,0-.536l-.922-.927a.38.38,0,0,0-.536,0l-.395.4a.387.387,0,0,1-.428.084c-.078-.036-.157-.071-.238-.1a.368.368,0,0,1-.247-.341v-.58a.379.379,0,0,0-.378-.38h-1.308a.379.379,0,0,0-.378.38v.568a.391.391,0,0,1-.258.359,2.919,2.919,0,0,0-.284.122.392.392,0,0,1-.44-.061l-.411-.393a.379.379,0,0,0-.536.014l-.9.947a.379.379,0,0,0,.014.536l.608.58h0a3.8,3.8,0,0,0-.17.385.373.373,0,0,1-.351.24H573a.379.379,0,0,0-.38.379v1.306a.38.38,0,0,0,.38.379h.488a.492.492,0,0,1,.458.309c.013.032.026.065.04.1a.489.489,0,0,1-.106.541l-.347.345a.38.38,0,0,0,0,.536l.922.926a.379.379,0,0,0,.536,0l.395-.393a.383.383,0,0,1,.43-.082c.077.033.157.066.238.1a.367.367,0,0,1,.246.339v.582a.379.379,0,0,0,.378.38h1.308a.379.379,0,0,0,.378-.38v-.568a.389.389,0,0,1,.258-.359c.1-.036.193-.076.286-.122a.387.387,0,0,1,.437.061l.413.392a.379.379,0,0,0,.536-.014l.9-.946a.379.379,0,0,0-.012-.535l-.609-.578h0a3.5,3.5,0,0,0,.17-.387A.376.376,0,0,1,581.09,362.844Zm-5.763-1.032a2,2,0,1,1,2,2.01A2.007,2.007,0,0,1,575.327,361.813Z" transform="translate(-572.62 -357.104)" fill="#fff"/>
      </g>
    </g>
    <g id="Grupo_898169" data-name="Grupo 898169" transform="translate(858.702 2136.652)">
      <g id="Grupo_898102-4" data-name="Grupo 898102">
        <path id="Rectángulo_302424-4" data-name="Rectángulo 302424" d="M2.372,0h12a2.372,2.372,0,0,1,2.372,2.372V13.32a2.372,2.372,0,0,1-2.372,2.372h-12A2.369,2.369,0,0,1,0,13.323V2.372A2.372,2.372,0,0,1,2.372,0Z" transform="translate(0 1.874)" fill="#070770" opacity="0.2" style="mix-blend-mode: multiply;isolation: isolate"/>
        <path id="Trazado_625177-4" data-name="Trazado 625177" d="M.954,0H15.222a.954.954,0,0,1,.954.954v14.27a.952.952,0,0,1-.952.952H.952A.952.952,0,0,1,0,15.223V.954A.954.954,0,0,1,.954,0Z" transform="translate(2.022)" fill="#137a68"/>
        <path id="Rectángulo_302426-4" data-name="Rectángulo 302426" d="M1.523,0H13.39a1.521,1.521,0,0,1,1.521,1.521V13.389a1.523,1.523,0,0,1-1.523,1.523H1.523A1.523,1.523,0,0,1,0,13.388V1.523A1.523,1.523,0,0,1,1.523,0Z" transform="translate(2.976 0.432)" fill="url(#linear-gradient-5)" style="mix-blend-mode: screen;isolation: isolate"/>
      </g>
      <g id="Grupo_898103-4" data-name="Grupo 898103" transform="translate(5.6 3.179)">
        <path id="Trazado_625153-4" data-name="Trazado 625153" d="M581.09,362.844h.568a.38.38,0,0,0,.38-.379V361.16a.379.379,0,0,0-.38-.379h-.488a.492.492,0,0,1-.458-.307c-.013-.034-.026-.065-.039-.1a.5.5,0,0,1,.106-.543l.347-.343a.378.378,0,0,0,0-.536l-.922-.927a.38.38,0,0,0-.536,0l-.395.4a.387.387,0,0,1-.428.084c-.078-.036-.157-.071-.238-.1a.368.368,0,0,1-.247-.341v-.58a.379.379,0,0,0-.378-.38h-1.308a.379.379,0,0,0-.378.38v.568a.391.391,0,0,1-.258.359,2.919,2.919,0,0,0-.284.122.392.392,0,0,1-.44-.061l-.411-.393a.379.379,0,0,0-.536.014l-.9.947a.379.379,0,0,0,.014.536l.608.58h0a3.8,3.8,0,0,0-.17.385.373.373,0,0,1-.351.24H573a.379.379,0,0,0-.38.379v1.306a.38.38,0,0,0,.38.379h.488a.492.492,0,0,1,.458.309c.013.032.026.065.04.1a.489.489,0,0,1-.106.541l-.347.345a.38.38,0,0,0,0,.536l.922.926a.379.379,0,0,0,.536,0l.395-.393a.383.383,0,0,1,.43-.082c.077.033.157.066.238.1a.367.367,0,0,1,.246.339v.582a.379.379,0,0,0,.378.38h1.308a.379.379,0,0,0,.378-.38v-.568a.389.389,0,0,1,.258-.359c.1-.036.193-.076.286-.122a.387.387,0,0,1,.437.061l.413.392a.379.379,0,0,0,.536-.014l.9-.946a.379.379,0,0,0-.012-.535l-.609-.578h0a3.5,3.5,0,0,0,.17-.387A.376.376,0,0,1,581.09,362.844Zm-5.763-1.032a2,2,0,1,1,2,2.01A2.007,2.007,0,0,1,575.327,361.813Z" transform="translate(-572.62 -357.104)" fill="#fff"/>
      </g>
    </g>
    <g data-type="innerShadowGroup">
      <g transform="matrix(1, 0, 0, 1, 819, 1986.69)" filter="url(#Trazado_629082)">
        <path id="Trazado_629082-3" data-name="Trazado 629082" d="M0,0H136V101H0Z" transform="translate(208 96.67)" fill="#e8e8e8"/>
      </g>
      <g transform="matrix(1, 0, 0, 1, 819, 1986.69)" filter="url(#Trazado_629082-2)">
        <path id="Trazado_629082-4" data-name="Trazado 629082" d="M0,0H136V101H0Z" transform="translate(208 96.67)" fill="#fff"/>
      </g>
    </g>
    <g data-type="innerShadowGroup">
      <g transform="matrix(1, 0, 0, 1, 819, 1986.69)" filter="url(#Trazado_629083)">
        <path id="Trazado_629083-3" data-name="Trazado 629083" d="M0,0H122V63H0Z" transform="translate(347 167.67)" fill="#e8e8e8"/>
      </g>
      <g transform="matrix(1, 0, 0, 1, 819, 1986.69)" filter="url(#Trazado_629083-2)">
        <path id="Trazado_629083-4" data-name="Trazado 629083" d="M0,0H122V63H0Z" transform="translate(347 167.67)" fill="#fff"/>
      </g>
    </g>
    <path id="Trazado_629084" data-name="Trazado 629084" d="M5.045,15a2.194,2.194,0,0,1-.2-.663,2.39,2.39,0,0,1-1.866.8,2.626,2.626,0,0,1-1.8-.629,2.023,2.023,0,0,1-.714-1.586,2.09,2.09,0,0,1,.872-1.8,4.3,4.3,0,0,1,2.519-.636h.909v-.424a1.219,1.219,0,0,0-.263-.82,1.035,1.035,0,0,0-.831-.308,1.177,1.177,0,0,0-.783.239.813.813,0,0,0-.284.656H.629a1.984,1.984,0,0,1,.4-1.189,2.621,2.621,0,0,1,1.121-.858,4.086,4.086,0,0,1,1.627-.311,3.228,3.228,0,0,1,2.17.687,2.4,2.4,0,0,1,.8,1.931v3.206a3.536,3.536,0,0,0,.294,1.593V15ZM3.411,13.626a1.7,1.7,0,0,0,.807-.195,1.28,1.28,0,0,0,.547-.523V11.637H4.026q-1.483,0-1.579,1.025l-.007.116a.791.791,0,0,0,.26.608A1.009,1.009,0,0,0,3.411,13.626ZM14.923,11.37a4.436,4.436,0,0,1-.776,2.738,2.488,2.488,0,0,1-2.1,1.029,2.3,2.3,0,0,1-1.812-.779v3.486H8.265V7.6H10.1l.068.725a2.322,2.322,0,0,1,1.873-.861,2.5,2.5,0,0,1,2.126,1.012,4.556,4.556,0,0,1,.759,2.789Zm-1.976-.144a2.911,2.911,0,0,0-.366-1.593,1.191,1.191,0,0,0-1.063-.561,1.294,1.294,0,0,0-1.278.711v3.028a1.316,1.316,0,0,0,1.292.731Q12.947,13.544,12.947,11.227Zm6.009-6.18,2.557,7.219,2.543-7.219h2.693V15H24.691V12.279l.205-4.7L22.21,15H20.8l-2.68-7.41.205,4.689V15H16.276V5.047Zm12.858,10.09a3.631,3.631,0,0,1-2.649-1,3.548,3.548,0,0,1-1.022-2.659v-.191A4.468,4.468,0,0,1,28.574,9.3a3.161,3.161,0,0,1,1.22-1.354,3.425,3.425,0,0,1,1.8-.475,3.07,3.07,0,0,1,2.389.957,3.889,3.889,0,0,1,.872,2.714v.807h-4.71a1.835,1.835,0,0,0,.578,1.162,1.746,1.746,0,0,0,1.22.438,2.132,2.132,0,0,0,1.784-.827L34.7,13.8a2.966,2.966,0,0,1-1.2.981A3.947,3.947,0,0,1,31.814,15.137ZM31.589,9.06a1.234,1.234,0,0,0-.954.4,2.062,2.062,0,0,0-.468,1.14h2.748V10.44a1.471,1.471,0,0,0-.355-1.02A1.274,1.274,0,0,0,31.589,9.06ZM37.8,7.6l.062.854a2.582,2.582,0,0,1,2.126-.991,2.146,2.146,0,0,1,1.75.69,3.221,3.221,0,0,1,.588,2.064V15H40.346V10.27a1.282,1.282,0,0,0-.273-.913,1.224,1.224,0,0,0-.909-.284,1.359,1.359,0,0,0-1.251.711V15H35.937V7.6Zm10.452,6.645a2.477,2.477,0,0,1-2.023.889,2.337,2.337,0,0,1-1.815-.684,2.918,2.918,0,0,1-.639-2V7.6h1.976v4.784q0,1.157,1.053,1.157a1.426,1.426,0,0,0,1.381-.7V7.6h1.982V15H48.3Z" transform="translate(1039 2093.363)" fill="#12263f"/>
    <path id="Trazado_629085" data-name="Trazado 629085" d="M8.989,15H6.938V10.734h-4V15H.889V5.047H2.939V9.08h4V5.047H8.989Zm1.354-3.767a4.387,4.387,0,0,1,.424-1.962,3.1,3.1,0,0,1,1.22-1.333,3.56,3.56,0,0,1,1.849-.472,3.368,3.368,0,0,1,2.444.916,3.676,3.676,0,0,1,1.056,2.488l.014.506a3.866,3.866,0,0,1-.95,2.731,3.3,3.3,0,0,1-2.55,1.029A3.319,3.319,0,0,1,11.3,14.111a3.934,3.934,0,0,1-.954-2.789Zm1.976.14a2.765,2.765,0,0,0,.4,1.612,1.424,1.424,0,0,0,2.256.007,3.025,3.025,0,0,0,.4-1.763,2.737,2.737,0,0,0-.4-1.6,1.311,1.311,0,0,0-1.135-.568,1.29,1.29,0,0,0-1.121.565A3.076,3.076,0,0,0,12.318,11.374Zm8.1-3.77.062.827a2.6,2.6,0,0,1,2.126-.964,1.973,1.973,0,0,1,1.962,1.128A2.54,2.54,0,0,1,26.79,7.467a2.206,2.206,0,0,1,1.791.7,3.221,3.221,0,0,1,.588,2.109V15H27.187V10.283a1.408,1.408,0,0,0-.246-.919,1.091,1.091,0,0,0-.868-.291,1.233,1.233,0,0,0-1.23.848L24.849,15H22.873V10.29a1.391,1.391,0,0,0-.253-.93,1.1,1.1,0,0,0-.861-.287,1.28,1.28,0,0,0-1.217.7V15H18.566V7.6Zm13.672,7.533a3.631,3.631,0,0,1-2.649-1,3.548,3.548,0,0,1-1.022-2.659v-.191A4.468,4.468,0,0,1,30.851,9.3a3.161,3.161,0,0,1,1.22-1.354,3.425,3.425,0,0,1,1.8-.475,3.07,3.07,0,0,1,2.389.957,3.889,3.889,0,0,1,.872,2.714v.807h-4.71A1.835,1.835,0,0,0,33,13.106a1.746,1.746,0,0,0,1.22.438A2.132,2.132,0,0,0,36,12.717l.971,1.087a2.966,2.966,0,0,1-1.2.981A3.947,3.947,0,0,1,34.091,15.137ZM33.865,9.06a1.234,1.234,0,0,0-.954.4,2.062,2.062,0,0,0-.468,1.14h2.748V10.44a1.471,1.471,0,0,0-.355-1.02A1.274,1.274,0,0,0,33.865,9.06Z" transform="translate(1178 2164.363)" fill="#12263f"/>
    <path id="Trazado_629086" data-name="Trazado 629086" d="M5.045,15a2.194,2.194,0,0,1-.2-.663,2.39,2.39,0,0,1-1.866.8,2.626,2.626,0,0,1-1.8-.629,2.023,2.023,0,0,1-.714-1.586,2.09,2.09,0,0,1,.872-1.8,4.3,4.3,0,0,1,2.519-.636h.909v-.424a1.219,1.219,0,0,0-.263-.82,1.035,1.035,0,0,0-.831-.308,1.177,1.177,0,0,0-.783.239.813.813,0,0,0-.284.656H.629a1.984,1.984,0,0,1,.4-1.189,2.621,2.621,0,0,1,1.121-.858,4.086,4.086,0,0,1,1.627-.311,3.228,3.228,0,0,1,2.17.687,2.4,2.4,0,0,1,.8,1.931v3.206a3.536,3.536,0,0,0,.294,1.593V15ZM3.411,13.626a1.7,1.7,0,0,0,.807-.195,1.28,1.28,0,0,0,.547-.523V11.637H4.026q-1.483,0-1.579,1.025l-.007.116a.791.791,0,0,0,.26.608A1.009,1.009,0,0,0,3.411,13.626ZM14.923,11.37a4.436,4.436,0,0,1-.776,2.738,2.488,2.488,0,0,1-2.1,1.029,2.3,2.3,0,0,1-1.812-.779v3.486H8.265V7.6H10.1l.068.725a2.322,2.322,0,0,1,1.873-.861,2.5,2.5,0,0,1,2.126,1.012,4.556,4.556,0,0,1,.759,2.789Zm-1.976-.144a2.911,2.911,0,0,0-.366-1.593,1.191,1.191,0,0,0-1.063-.561,1.294,1.294,0,0,0-1.278.711v3.028a1.316,1.316,0,0,0,1.292.731Q12.947,13.544,12.947,11.227Zm5.38.267V15H16.276V5.047h3.883a4.492,4.492,0,0,1,1.972.41A3.022,3.022,0,0,1,23.44,6.623,3.25,3.25,0,0,1,23.9,8.342a2.858,2.858,0,0,1-1,2.307,4.171,4.171,0,0,1-2.772.844Zm0-1.661h1.832A1.8,1.8,0,0,0,21.4,9.449a1.392,1.392,0,0,0,.427-1.094A1.642,1.642,0,0,0,21.4,7.173a1.609,1.609,0,0,0-1.189-.465h-1.88Zm6.453,1.4A4.387,4.387,0,0,1,25.2,9.271a3.1,3.1,0,0,1,1.22-1.333,3.56,3.56,0,0,1,1.849-.472,3.368,3.368,0,0,1,2.444.916,3.676,3.676,0,0,1,1.056,2.488l.014.506a3.866,3.866,0,0,1-.95,2.731,3.3,3.3,0,0,1-2.55,1.029,3.319,3.319,0,0,1-2.553-1.025,3.934,3.934,0,0,1-.954-2.789Zm1.976.14a2.765,2.765,0,0,0,.4,1.612,1.424,1.424,0,0,0,2.256.007,3.025,3.025,0,0,0,.4-1.763,2.737,2.737,0,0,0-.4-1.6,1.311,1.311,0,0,0-1.135-.568,1.29,1.29,0,0,0-1.121.565A3.076,3.076,0,0,0,26.756,11.374Zm12.906,0a4.436,4.436,0,0,1-.776,2.738,2.488,2.488,0,0,1-2.1,1.029,2.3,2.3,0,0,1-1.812-.779v3.486H33V7.6h1.832l.068.725a2.322,2.322,0,0,1,1.873-.861A2.5,2.5,0,0,1,38.9,8.479a4.556,4.556,0,0,1,.759,2.789Zm-1.976-.144a2.911,2.911,0,0,0-.366-1.593,1.191,1.191,0,0,0-1.063-.561,1.294,1.294,0,0,0-1.278.711v3.028a1.316,1.316,0,0,0,1.292.731Q37.687,13.544,37.687,11.227Zm7.629,3.021a2.477,2.477,0,0,1-2.023.889,2.337,2.337,0,0,1-1.815-.684,2.918,2.918,0,0,1-.639-2V7.6h1.976v4.784q0,1.157,1.053,1.157a1.426,1.426,0,0,0,1.381-.7V7.6h1.982V15H45.37ZM55.378,11.37a4.436,4.436,0,0,1-.776,2.738,2.488,2.488,0,0,1-2.1,1.029,2.3,2.3,0,0,1-1.812-.779v3.486H48.72V7.6h1.832l.068.725a2.322,2.322,0,0,1,1.873-.861,2.5,2.5,0,0,1,2.126,1.012,4.556,4.556,0,0,1,.759,2.789ZM53.4,11.227a2.911,2.911,0,0,0-.366-1.593,1.191,1.191,0,0,0-1.063-.561,1.294,1.294,0,0,0-1.278.711v3.028a1.316,1.316,0,0,0,1.292.731Q53.4,13.544,53.4,11.227Zm6.009-6.18,2.557,7.219,2.543-7.219H67.2V15H65.146V12.279l.205-4.7L62.665,15H61.257l-2.68-7.41.205,4.689V15H56.731V5.047ZM72.27,15.137a3.631,3.631,0,0,1-2.649-1A3.548,3.548,0,0,1,68.6,11.479v-.191A4.468,4.468,0,0,1,69.029,9.3a3.161,3.161,0,0,1,1.22-1.354,3.425,3.425,0,0,1,1.8-.475,3.07,3.07,0,0,1,2.389.957,3.889,3.889,0,0,1,.872,2.714v.807H70.6a1.835,1.835,0,0,0,.578,1.162,1.746,1.746,0,0,0,1.22.438,2.132,2.132,0,0,0,1.784-.827l.971,1.087a2.966,2.966,0,0,1-1.2.981A3.947,3.947,0,0,1,72.27,15.137ZM72.044,9.06a1.234,1.234,0,0,0-.954.4,2.062,2.062,0,0,0-.468,1.14H73.37V10.44a1.471,1.471,0,0,0-.355-1.02A1.274,1.274,0,0,0,72.044,9.06ZM78.251,7.6l.062.854a2.582,2.582,0,0,1,2.126-.991,2.146,2.146,0,0,1,1.75.69,3.221,3.221,0,0,1,.588,2.064V15H80.8V10.27a1.282,1.282,0,0,0-.273-.913,1.224,1.224,0,0,0-.909-.284,1.359,1.359,0,0,0-1.251.711V15H76.392V7.6ZM88.7,14.248a2.477,2.477,0,0,1-2.023.889,2.337,2.337,0,0,1-1.815-.684,2.918,2.918,0,0,1-.639-2V7.6H86.2v4.784q0,1.157,1.053,1.157a1.426,1.426,0,0,0,1.381-.7V7.6h1.982V15H88.758Z" transform="translate(1039 2115.286)" fill="#12263f"/>
    <path id="Trazado_629087" data-name="Trazado 629087" d="M2.939,11.493V15H.889V5.047H4.771a4.492,4.492,0,0,1,1.972.41A3.022,3.022,0,0,1,8.053,6.623a3.25,3.25,0,0,1,.458,1.719,2.858,2.858,0,0,1-1,2.307,4.171,4.171,0,0,1-2.772.844Zm0-1.661H4.771a1.8,1.8,0,0,0,1.241-.383,1.392,1.392,0,0,0,.427-1.094,1.642,1.642,0,0,0-.431-1.183,1.609,1.609,0,0,0-1.189-.465H2.939ZM14,15a2.194,2.194,0,0,1-.2-.663,2.39,2.39,0,0,1-1.866.8,2.626,2.626,0,0,1-1.8-.629,2.023,2.023,0,0,1-.714-1.586,2.09,2.09,0,0,1,.872-1.8,4.3,4.3,0,0,1,2.519-.636h.909v-.424a1.219,1.219,0,0,0-.263-.82,1.035,1.035,0,0,0-.831-.308,1.177,1.177,0,0,0-.783.239.813.813,0,0,0-.284.656H9.584a1.984,1.984,0,0,1,.4-1.189A2.621,2.621,0,0,1,11.1,7.778a4.086,4.086,0,0,1,1.627-.311,3.228,3.228,0,0,1,2.17.687,2.4,2.4,0,0,1,.8,1.931v3.206A3.536,3.536,0,0,0,16,14.884V15Zm-1.634-1.374a1.7,1.7,0,0,0,.807-.195,1.28,1.28,0,0,0,.547-.523V11.637h-.738q-1.483,0-1.579,1.025l-.007.116a.791.791,0,0,0,.26.608A1.009,1.009,0,0,0,12.366,13.626Zm9.01-4.17a5.367,5.367,0,0,0-.711-.055,1.447,1.447,0,0,0-1.47.759V15H17.22V7.6h1.866l.055.882a1.831,1.831,0,0,1,1.647-1.019,2.07,2.07,0,0,1,.615.089ZM26.407,15a2.194,2.194,0,0,1-.2-.663,2.39,2.39,0,0,1-1.866.8,2.626,2.626,0,0,1-1.8-.629,2.023,2.023,0,0,1-.714-1.586,2.09,2.09,0,0,1,.872-1.8,4.3,4.3,0,0,1,2.519-.636h.909v-.424a1.219,1.219,0,0,0-.263-.82,1.035,1.035,0,0,0-.831-.308,1.177,1.177,0,0,0-.783.239.813.813,0,0,0-.284.656H21.991a1.984,1.984,0,0,1,.4-1.189,2.621,2.621,0,0,1,1.121-.858,4.086,4.086,0,0,1,1.627-.311,3.228,3.228,0,0,1,2.17.687,2.4,2.4,0,0,1,.8,1.931v3.206a3.536,3.536,0,0,0,.294,1.593V15Zm-1.634-1.374a1.7,1.7,0,0,0,.807-.195,1.28,1.28,0,0,0,.547-.523V11.637h-.738q-1.483,0-1.579,1.025l-.007.116a.791.791,0,0,0,.26.608A1.009,1.009,0,0,0,24.773,13.626ZM31.479,7.6l.062.827a2.6,2.6,0,0,1,2.126-.964,1.973,1.973,0,0,1,1.962,1.128,2.54,2.54,0,0,1,2.222-1.128,2.206,2.206,0,0,1,1.791.7,3.221,3.221,0,0,1,.588,2.109V15H38.247V10.283A1.408,1.408,0,0,0,38,9.364a1.091,1.091,0,0,0-.868-.291,1.233,1.233,0,0,0-1.23.848L35.909,15H33.934V10.29a1.391,1.391,0,0,0-.253-.93,1.1,1.1,0,0,0-.861-.287,1.28,1.28,0,0,0-1.217.7V15H29.627V7.6Zm13.672,7.533a3.631,3.631,0,0,1-2.649-1,3.548,3.548,0,0,1-1.022-2.659v-.191A4.468,4.468,0,0,1,41.911,9.3a3.161,3.161,0,0,1,1.22-1.354,3.425,3.425,0,0,1,1.8-.475,3.07,3.07,0,0,1,2.389.957,3.889,3.889,0,0,1,.872,2.714v.807h-4.71a1.835,1.835,0,0,0,.578,1.162,1.746,1.746,0,0,0,1.22.438,2.132,2.132,0,0,0,1.784-.827l.971,1.087a2.966,2.966,0,0,1-1.2.981A3.947,3.947,0,0,1,45.151,15.137ZM44.926,9.06a1.234,1.234,0,0,0-.954.4A2.062,2.062,0,0,0,43.5,10.6h2.748V10.44A1.471,1.471,0,0,0,45.9,9.42,1.274,1.274,0,0,0,44.926,9.06ZM51.68,5.785V7.6h1.265V9.053H51.68v3.691a.881.881,0,0,0,.157.588.79.79,0,0,0,.6.178,3.15,3.15,0,0,0,.581-.048v1.5a4.067,4.067,0,0,1-1.2.178,1.886,1.886,0,0,1-2.119-2.1V9.053h-1.08V7.6H49.7V5.785Zm5.77,9.352a3.631,3.631,0,0,1-2.649-1,3.548,3.548,0,0,1-1.022-2.659v-.191A4.468,4.468,0,0,1,54.209,9.3a3.161,3.161,0,0,1,1.22-1.354,3.425,3.425,0,0,1,1.8-.475,3.07,3.07,0,0,1,2.389.957,3.889,3.889,0,0,1,.872,2.714v.807h-4.71a1.835,1.835,0,0,0,.578,1.162,1.746,1.746,0,0,0,1.22.438,2.132,2.132,0,0,0,1.784-.827l.971,1.087a2.966,2.966,0,0,1-1.2.981A3.947,3.947,0,0,1,57.449,15.137ZM57.224,9.06a1.234,1.234,0,0,0-.954.4A2.062,2.062,0,0,0,55.8,10.6H58.55V10.44a1.471,1.471,0,0,0-.355-1.02A1.274,1.274,0,0,0,57.224,9.06Zm8.545.4a5.367,5.367,0,0,0-.711-.055,1.447,1.447,0,0,0-1.47.759V15H61.612V7.6h1.866l.055.882a1.831,1.831,0,0,1,1.647-1.019,2.07,2.07,0,0,1,.615.089Zm4.956,3.5a.637.637,0,0,0-.359-.571,4.077,4.077,0,0,0-1.152-.373q-2.639-.554-2.639-2.242a2.032,2.032,0,0,1,.817-1.644,3.3,3.3,0,0,1,2.136-.66,3.547,3.547,0,0,1,2.252.663,2.09,2.09,0,0,1,.844,1.723H70.649a.956.956,0,0,0-.273-.7,1.157,1.157,0,0,0-.854-.277,1.182,1.182,0,0,0-.772.226.712.712,0,0,0-.273.574.609.609,0,0,0,.311.53,3.2,3.2,0,0,0,1.049.349,8.571,8.571,0,0,1,1.244.332,2.044,2.044,0,0,1,1.565,1.989,1.929,1.929,0,0,1-.868,1.637,3.745,3.745,0,0,1-2.242.625,3.912,3.912,0,0,1-1.651-.332,2.77,2.77,0,0,1-1.131-.909,2.113,2.113,0,0,1-.41-1.248h1.873a1.031,1.031,0,0,0,.39.807,1.546,1.546,0,0,0,.971.28,1.43,1.43,0,0,0,.858-.215A.67.67,0,0,0,70.725,12.956Z" transform="translate(1178 2186.286)" fill="#12263f"/>
    <path id="Trazado_629088" data-name="Trazado 629088" d="M5.045,15a2.194,2.194,0,0,1-.2-.663,2.39,2.39,0,0,1-1.866.8,2.626,2.626,0,0,1-1.8-.629,2.023,2.023,0,0,1-.714-1.586,2.09,2.09,0,0,1,.872-1.8,4.3,4.3,0,0,1,2.519-.636h.909v-.424a1.219,1.219,0,0,0-.263-.82,1.035,1.035,0,0,0-.831-.308,1.177,1.177,0,0,0-.783.239.813.813,0,0,0-.284.656H.629a1.984,1.984,0,0,1,.4-1.189,2.621,2.621,0,0,1,1.121-.858,4.086,4.086,0,0,1,1.627-.311,3.228,3.228,0,0,1,2.17.687,2.4,2.4,0,0,1,.8,1.931v3.206a3.536,3.536,0,0,0,.294,1.593V15ZM3.411,13.626a1.7,1.7,0,0,0,.807-.195,1.28,1.28,0,0,0,.547-.523V11.637H4.026q-1.483,0-1.579,1.025l-.007.116a.791.791,0,0,0,.26.608A1.009,1.009,0,0,0,3.411,13.626ZM14.923,11.37a4.436,4.436,0,0,1-.776,2.738,2.488,2.488,0,0,1-2.1,1.029,2.3,2.3,0,0,1-1.812-.779v3.486H8.265V7.6H10.1l.068.725a2.322,2.322,0,0,1,1.873-.861,2.5,2.5,0,0,1,2.126,1.012,4.556,4.556,0,0,1,.759,2.789Zm-1.976-.144a2.911,2.911,0,0,0-.366-1.593,1.191,1.191,0,0,0-1.063-.561,1.294,1.294,0,0,0-1.278.711v3.028a1.316,1.316,0,0,0,1.292.731Q12.947,13.544,12.947,11.227ZM16.276,15V5.047h3.486a4.578,4.578,0,0,1,2.748.694,2.373,2.373,0,0,1,.937,2.034,2.249,2.249,0,0,1-.376,1.289,2.172,2.172,0,0,1-1.046.817,2.1,2.1,0,0,1,1.207.772,2.284,2.284,0,0,1,.441,1.422,2.627,2.627,0,0,1-.916,2.174A4.124,4.124,0,0,1,20.146,15Zm2.051-4.334v2.687h1.757a1.7,1.7,0,0,0,1.131-.345,1.184,1.184,0,0,0,.407-.954,1.25,1.25,0,0,0-1.415-1.388Zm0-1.449h1.518Q21.4,9.189,21.4,7.979A1.143,1.143,0,0,0,21,7.005a2.067,2.067,0,0,0-1.241-.3H18.327Zm11.184,5.031a2.477,2.477,0,0,1-2.023.889,2.337,2.337,0,0,1-1.815-.684,2.918,2.918,0,0,1-.639-2V7.6h1.976v4.784q0,1.157,1.053,1.157a1.426,1.426,0,0,0,1.381-.7V7.6h1.982V15H29.565Zm5.77-8.463V7.6h1.265V9.053H35.28v3.691a.881.881,0,0,0,.157.588.79.79,0,0,0,.6.178,3.15,3.15,0,0,0,.581-.048v1.5a4.067,4.067,0,0,1-1.2.178,1.886,1.886,0,0,1-2.119-2.1V9.053h-1.08V7.6H33.3V5.785Zm4.73,0V7.6h1.265V9.053H40.011v3.691a.881.881,0,0,0,.157.588.79.79,0,0,0,.6.178,3.15,3.15,0,0,0,.581-.048v1.5a4.067,4.067,0,0,1-1.2.178,1.886,1.886,0,0,1-2.119-2.1V9.053h-1.08V7.6h1.08V5.785Zm1.853,5.448a4.387,4.387,0,0,1,.424-1.962,3.1,3.1,0,0,1,1.22-1.333,3.56,3.56,0,0,1,1.849-.472,3.368,3.368,0,0,1,2.444.916,3.676,3.676,0,0,1,1.056,2.488l.014.506a3.866,3.866,0,0,1-.95,2.731,3.683,3.683,0,0,1-5.1,0,3.934,3.934,0,0,1-.954-2.789Zm1.976.14a2.765,2.765,0,0,0,.4,1.612,1.424,1.424,0,0,0,2.256.007,3.025,3.025,0,0,0,.4-1.763,2.737,2.737,0,0,0-.4-1.6,1.311,1.311,0,0,0-1.135-.568,1.29,1.29,0,0,0-1.121.565A3.076,3.076,0,0,0,43.839,11.374ZM51.905,7.6l.062.854a2.582,2.582,0,0,1,2.126-.991,2.146,2.146,0,0,1,1.75.69,3.221,3.221,0,0,1,.588,2.064V15H54.455V10.27a1.282,1.282,0,0,0-.273-.913,1.224,1.224,0,0,0-.909-.284,1.359,1.359,0,0,0-1.251.711V15H50.046V7.6Zm8.832-2.557,2.557,7.219,2.543-7.219H68.53V15H66.473V12.279l.205-4.7L63.991,15H62.583L59.9,7.59l.205,4.689V15H58.058V5.047ZM73.6,15.137a3.631,3.631,0,0,1-2.649-1,3.548,3.548,0,0,1-1.022-2.659v-.191A4.468,4.468,0,0,1,70.355,9.3a3.161,3.161,0,0,1,1.22-1.354,3.425,3.425,0,0,1,1.8-.475,3.07,3.07,0,0,1,2.389.957,3.889,3.889,0,0,1,.872,2.714v.807h-4.71a1.835,1.835,0,0,0,.578,1.162,1.746,1.746,0,0,0,1.22.438,2.132,2.132,0,0,0,1.784-.827L76.48,13.8a2.966,2.966,0,0,1-1.2.981A3.947,3.947,0,0,1,73.6,15.137ZM73.37,9.06a1.234,1.234,0,0,0-.954.4,2.062,2.062,0,0,0-.468,1.14H74.7V10.44a1.471,1.471,0,0,0-.355-1.02A1.274,1.274,0,0,0,73.37,9.06ZM79.577,7.6l.062.854a2.582,2.582,0,0,1,2.126-.991,2.146,2.146,0,0,1,1.75.69,3.221,3.221,0,0,1,.588,2.064V15H82.127V10.27a1.282,1.282,0,0,0-.273-.913,1.224,1.224,0,0,0-.909-.284,1.359,1.359,0,0,0-1.251.711V15H77.718V7.6Zm10.452,6.645a2.477,2.477,0,0,1-2.023.889,2.337,2.337,0,0,1-1.815-.684,2.918,2.918,0,0,1-.639-2V7.6h1.976v4.784q0,1.157,1.053,1.157a1.426,1.426,0,0,0,1.381-.7V7.6h1.982V15H90.084Z" transform="translate(1039 2137.209)" fill="#12263f"/>
    <path id="Trazado_629089" data-name="Trazado 629089" d="M5.045,15a2.194,2.194,0,0,1-.2-.663,2.39,2.39,0,0,1-1.866.8,2.626,2.626,0,0,1-1.8-.629,2.023,2.023,0,0,1-.714-1.586,2.09,2.09,0,0,1,.872-1.8,4.3,4.3,0,0,1,2.519-.636h.909v-.424a1.219,1.219,0,0,0-.263-.82,1.035,1.035,0,0,0-.831-.308,1.177,1.177,0,0,0-.783.239.813.813,0,0,0-.284.656H.629a1.984,1.984,0,0,1,.4-1.189,2.621,2.621,0,0,1,1.121-.858,4.086,4.086,0,0,1,1.627-.311,3.228,3.228,0,0,1,2.17.687,2.4,2.4,0,0,1,.8,1.931v3.206a3.536,3.536,0,0,0,.294,1.593V15ZM3.411,13.626a1.7,1.7,0,0,0,.807-.195,1.28,1.28,0,0,0,.547-.523V11.637H4.026q-1.483,0-1.579,1.025l-.007.116a.791.791,0,0,0,.26.608A1.009,1.009,0,0,0,3.411,13.626ZM14.923,11.37a4.436,4.436,0,0,1-.776,2.738,2.488,2.488,0,0,1-2.1,1.029,2.3,2.3,0,0,1-1.812-.779v3.486H8.265V7.6H10.1l.068.725a2.322,2.322,0,0,1,1.873-.861,2.5,2.5,0,0,1,2.126,1.012,4.556,4.556,0,0,1,.759,2.789Zm-1.976-.144a2.911,2.911,0,0,0-.366-1.593,1.191,1.191,0,0,0-1.063-.561,1.294,1.294,0,0,0-1.278.711v3.028a1.316,1.316,0,0,0,1.292.731Q12.947,13.544,12.947,11.227ZM18.457,15H16.406V5.047h2.051ZM22.08,7.6l.062.827a2.6,2.6,0,0,1,2.126-.964,1.973,1.973,0,0,1,1.962,1.128,2.54,2.54,0,0,1,2.222-1.128,2.206,2.206,0,0,1,1.791.7,3.221,3.221,0,0,1,.588,2.109V15H28.848V10.283a1.408,1.408,0,0,0-.246-.919,1.091,1.091,0,0,0-.868-.291,1.233,1.233,0,0,0-1.23.848L26.51,15H24.534V10.29a1.391,1.391,0,0,0-.253-.93,1.1,1.1,0,0,0-.861-.287,1.28,1.28,0,0,0-1.217.7V15H20.228V7.6ZM36.634,15a2.194,2.194,0,0,1-.2-.663,2.39,2.39,0,0,1-1.866.8,2.626,2.626,0,0,1-1.8-.629,2.023,2.023,0,0,1-.714-1.586,2.09,2.09,0,0,1,.872-1.8,4.3,4.3,0,0,1,2.519-.636h.909v-.424a1.219,1.219,0,0,0-.263-.82,1.035,1.035,0,0,0-.831-.308,1.177,1.177,0,0,0-.783.239.813.813,0,0,0-.284.656H32.218a1.984,1.984,0,0,1,.4-1.189,2.621,2.621,0,0,1,1.121-.858,4.086,4.086,0,0,1,1.627-.311,3.228,3.228,0,0,1,2.17.687,2.4,2.4,0,0,1,.8,1.931v3.206a3.536,3.536,0,0,0,.294,1.593V15ZM35,13.626a1.7,1.7,0,0,0,.807-.195,1.28,1.28,0,0,0,.547-.523V11.637h-.738q-1.483,0-1.579,1.025l-.007.116a.791.791,0,0,0,.26.608A1.009,1.009,0,0,0,35,13.626Zm4.566-2.379a4.335,4.335,0,0,1,.81-2.741,2.625,2.625,0,0,1,2.184-1.039,2.3,2.3,0,0,1,1.894.834l.082-.7h1.791v7.15a3.161,3.161,0,0,1-.441,1.688,2.832,2.832,0,0,1-1.241,1.094,4.362,4.362,0,0,1-1.873.376,4.056,4.056,0,0,1-1.586-.325,2.815,2.815,0,0,1-1.169-.837l.875-1.2a2.314,2.314,0,0,0,1.791.827,1.694,1.694,0,0,0,1.224-.42,1.577,1.577,0,0,0,.438-1.193v-.4a2.285,2.285,0,0,1-1.8.772,2.618,2.618,0,0,1-2.157-1.042,4.334,4.334,0,0,1-.824-2.765Zm1.976.147a2.7,2.7,0,0,0,.4,1.578,1.283,1.283,0,0,0,1.107.572,1.372,1.372,0,0,0,1.292-.678V9.751a1.369,1.369,0,0,0-1.278-.678,1.291,1.291,0,0,0-1.118.582A3.042,3.042,0,0,0,41.542,11.394Zm9.707,3.743a3.631,3.631,0,0,1-2.649-1,3.548,3.548,0,0,1-1.022-2.659v-.191A4.468,4.468,0,0,1,48.009,9.3a3.161,3.161,0,0,1,1.22-1.354,3.425,3.425,0,0,1,1.8-.475,3.07,3.07,0,0,1,2.389.957,3.889,3.889,0,0,1,.872,2.714v.807h-4.71a1.835,1.835,0,0,0,.578,1.162,1.746,1.746,0,0,0,1.22.438,2.132,2.132,0,0,0,1.784-.827l.971,1.087a2.966,2.966,0,0,1-1.2.981A3.947,3.947,0,0,1,51.249,15.137ZM51.023,9.06a1.234,1.234,0,0,0-.954.4A2.062,2.062,0,0,0,49.6,10.6H52.35V10.44a1.471,1.471,0,0,0-.355-1.02A1.274,1.274,0,0,0,51.023,9.06Zm7.2-4.013,2.557,7.219,2.543-7.219h2.693V15H63.957V12.279l.205-4.7L61.476,15H60.067l-2.68-7.41.205,4.689V15H55.542V5.047ZM71.08,15.137a3.631,3.631,0,0,1-2.649-1,3.548,3.548,0,0,1-1.022-2.659v-.191A4.468,4.468,0,0,1,67.84,9.3a3.161,3.161,0,0,1,1.22-1.354,3.425,3.425,0,0,1,1.8-.475,3.07,3.07,0,0,1,2.389.957,3.889,3.889,0,0,1,.872,2.714v.807h-4.71a1.835,1.835,0,0,0,.578,1.162,1.746,1.746,0,0,0,1.22.438,2.132,2.132,0,0,0,1.784-.827l.971,1.087a2.966,2.966,0,0,1-1.2.981A3.947,3.947,0,0,1,71.08,15.137ZM70.854,9.06a1.234,1.234,0,0,0-.954.4,2.062,2.062,0,0,0-.468,1.14h2.748V10.44a1.471,1.471,0,0,0-.355-1.02A1.274,1.274,0,0,0,70.854,9.06ZM77.062,7.6l.062.854a2.582,2.582,0,0,1,2.126-.991,2.146,2.146,0,0,1,1.75.69,3.221,3.221,0,0,1,.588,2.064V15H79.611V10.27a1.282,1.282,0,0,0-.273-.913,1.224,1.224,0,0,0-.909-.284,1.359,1.359,0,0,0-1.251.711V15H75.2V7.6Zm10.452,6.645a2.477,2.477,0,0,1-2.023.889,2.337,2.337,0,0,1-1.815-.684,2.918,2.918,0,0,1-.639-2V7.6h1.976v4.784q0,1.157,1.053,1.157a1.426,1.426,0,0,0,1.381-.7V7.6h1.982V15H87.568Z" transform="translate(1039 2159.132)" fill="#12263f"/>
    <path id="Trazado_35" data-name="Trazado 35" d="M1243.7,347.8l-6.75,9.87h13.5Z" transform="translate(1505.805 857.91) rotate(90)" fill="#12263f" stroke="#fff" stroke-miterlimit="10" stroke-width="0.985"/>
    <path id="Trazado_35-2" data-name="Trazado 35" d="M1243.7,347.8l-6.75,9.87h13.5Z" transform="translate(1505.805 879.833) rotate(90)" fill="#12263f" stroke="#fff" stroke-miterlimit="10" stroke-width="0.985"/>
    <path id="Trazado_35-3" data-name="Trazado 35" d="M1243.7,347.8l-6.75,9.87h13.5Z" transform="translate(1505.805 901.756) rotate(90)" fill="#12263f" stroke="#fff" stroke-miterlimit="10" stroke-width="0.985"/>
    <path id="Trazado_35-4" data-name="Trazado 35" d="M1243.7,347.8l-6.75,9.87h13.5Z" transform="translate(1505.805 923.679) rotate(90)" fill="#12263f" stroke="#fff" stroke-miterlimit="10" stroke-width="0.985"/>
  </g>
</svg>
