<svg xmlns="http://www.w3.org/2000/svg" width="1068.696" height="998.182" viewBox="0 0 1068.696 998.182">
  <g id="Grupo_901627" data-name="Grupo 901627" transform="translate(-266 -368.913)">
    <path id="Trazado_629081" data-name="Trazado 629081" d="M17,0H204.916a17,17,0,0,1,17,17V57.183a17,17,0,0,1-17,17H17a17,17,0,0,1-17-17V17A17,17,0,0,1,17,0Z" transform="translate(835.779 1015.913)" fill="#21cbae"/>
    <g id="Grupo_901574" data-name="Grupo 901574" transform="translate(117.779 -206)">
      <rect id="Rectángulo_302886" data-name="Rectángulo 302886" width="221.916" height="74.183" rx="17" transform="translate(718.042 1012.913)" fill="#21cbae"/>
      <rect id="Rectángulo_302887" data-name="Rectángulo 302887" width="221.916" height="74.183" rx="17" transform="translate(718 1108.913)" fill="#21cbae"/>
      <text id="Arquitectónico_" data-name="Arquitectónico " transform="translate(733.042 1037.913)" fill="#12263f" font-size="20" font-family="Roboto-Black, Roboto" font-weight="800"><tspan x="-66.689" y="19">Arquitectónico </tspan></text>
      <text id="Usabilidad" transform="translate(733 1133.913)" fill="#12263f" font-size="20" font-family="Roboto-Black, Roboto" font-weight="800"><tspan x="-47.51" y="19">Usabilidad</tspan></text>
    </g>
    <g id="Grupo_901575" data-name="Grupo 901575" transform="translate(117.779 -206)">
      <rect id="Rectángulo_302890" data-name="Rectángulo 302890" width="221.916" height="74.183" rx="17" transform="translate(718 1324.913)" fill="#21cbae"/>
      <rect id="Rectángulo_302889" data-name="Rectángulo 302889" width="221.916" height="74.183" rx="17" transform="translate(718 1411.913)" fill="#21cbae"/>
      <rect id="Rectángulo_302891" data-name="Rectángulo 302891" width="221.916" height="74.183" rx="17" transform="translate(718 1498.913)" fill="#21cbae"/>
      <text id="Campos_de_texto" data-name="Campos de texto" transform="translate(733 1349.913)" fill="#12263f" font-size="20" font-family="Roboto-Black, Roboto" font-weight="800"><tspan x="-75.825" y="19">Campos de texto</tspan></text>
      <text id="Botones" transform="translate(733 1436.913)" fill="#12263f" font-size="20" font-family="Roboto-Black, Roboto" font-weight="800"><tspan x="-37.173" y="19">Botones</tspan></text>
      <text id="Lienzos" transform="translate(733 1523.913)" fill="#12263f" font-size="20" font-family="Roboto-Black, Roboto" font-weight="800"><tspan x="-35.059" y="19">Lienzos</tspan></text>
    </g>
    <path id="Trazado_629083" data-name="Trazado 629083" d="M41.874,12.965H36.484v3.4h6.367V19H33.056V4.781h9.814V7.428H36.484v3h5.391Zm7.754,3.066a.76.76,0,0,0-.439-.674,6.685,6.685,0,0,0-1.67-.527,7.615,7.615,0,0,1-2.031-.718,3.4,3.4,0,0,1-1.221-1.079,2.577,2.577,0,0,1-.42-1.455,2.92,2.92,0,0,1,1.2-2.4,4.948,4.948,0,0,1,3.145-.942,5.482,5.482,0,0,1,3.359.947,2.962,2.962,0,0,1,1.27,2.49h-3.3q0-1.27-1.338-1.27a1.326,1.326,0,0,0-.869.288.892.892,0,0,0-.352.718.819.819,0,0,0,.43.713,4.06,4.06,0,0,0,1.372.449,11.857,11.857,0,0,1,1.655.42A3.007,3.007,0,0,1,52.8,15.934a2.767,2.767,0,0,1-1.284,2.354,5.632,5.632,0,0,1-3.325.908,5.747,5.747,0,0,1-2.422-.488,4.05,4.05,0,0,1-1.66-1.328,3.007,3.007,0,0,1-.6-1.768h3.076a1.272,1.272,0,0,0,.488,1.069,2.009,2.009,0,0,0,1.2.337,1.58,1.58,0,0,0,1.011-.273A.875.875,0,0,0,49.628,16.031ZM58.173,5.807V8.434h1.738v2.285H58.173v4.834a1.234,1.234,0,0,0,.215.83,1.152,1.152,0,0,0,.85.234,4.828,4.828,0,0,0,.82-.059v2.354A6.074,6.074,0,0,1,58.2,19.2a3.448,3.448,0,0,1-2.51-.8,3.282,3.282,0,0,1-.811-2.432V10.719H53.535V8.434h1.348V5.807ZM67.158,19a3.716,3.716,0,0,1-.312-.947A3.06,3.06,0,0,1,64.306,19.2a3.749,3.749,0,0,1-2.539-.9,2.875,2.875,0,0,1-1.045-2.271,2.955,2.955,0,0,1,1.27-2.6,6.468,6.468,0,0,1,3.691-.879H66.7v-.559q0-1.462-1.26-1.462a1.03,1.03,0,0,0-1.172,1.158H60.976a2.95,2.95,0,0,1,1.3-2.487A5.479,5.479,0,0,1,65.6,8.238a4.8,4.8,0,0,1,3.193.986A3.429,3.429,0,0,1,70,11.93v4.678a4.79,4.79,0,0,0,.449,2.227V19ZM65.1,16.852a1.836,1.836,0,0,0,1.021-.264,1.653,1.653,0,0,0,.581-.6V14.3h-.957q-1.719,0-1.719,1.543a.942.942,0,0,0,.3.728A1.1,1.1,0,0,0,65.1,16.852Zm9.746-8.418.107,1.24a3.583,3.583,0,0,1,3.018-1.436,3.015,3.015,0,0,1,2.466.986,4.7,4.7,0,0,1,.845,2.969V19h-3.3V12.33a1.783,1.783,0,0,0-.322-1.177,1.491,1.491,0,0,0-1.172-.376,1.569,1.569,0,0,0-1.436.762V19H71.757V8.434Zm7.842,5.205a6.455,6.455,0,0,1,1.084-3.955A3.568,3.568,0,0,1,86.8,8.238a3.035,3.035,0,0,1,2.383,1.113V4h3.3V19H89.521l-.166-1.133A3.116,3.116,0,0,1,86.777,19.2a3.562,3.562,0,0,1-2.988-1.445A6.659,6.659,0,0,1,82.685,13.639Zm3.291.205q0,2.813,1.641,2.813a1.62,1.62,0,0,0,1.563-.918V11.715a1.576,1.576,0,0,0-1.543-.937q-1.523,0-1.65,2.461ZM100.3,19a3.716,3.716,0,0,1-.312-.947A3.06,3.06,0,0,1,97.451,19.2a3.749,3.749,0,0,1-2.539-.9,2.875,2.875,0,0,1-1.045-2.271,2.955,2.955,0,0,1,1.27-2.6,6.468,6.468,0,0,1,3.691-.879h1.016v-.559q0-1.462-1.26-1.462a1.03,1.03,0,0,0-1.172,1.158H94.121a2.95,2.95,0,0,1,1.3-2.487,5.479,5.479,0,0,1,3.325-.956,4.8,4.8,0,0,1,3.193.986,3.429,3.429,0,0,1,1.2,2.705v4.678a4.79,4.79,0,0,0,.449,2.227V19Zm-2.061-2.148a1.836,1.836,0,0,0,1.021-.264,1.653,1.653,0,0,0,.581-.6V14.3h-.957q-1.719,0-1.719,1.543a.942.942,0,0,0,.3.728A1.1,1.1,0,0,0,98.242,16.852Zm13.115-5.439-1.084-.078a1.947,1.947,0,0,0-1.992.977V19H104.99V8.434h3.086l.107,1.357A2.548,2.548,0,0,1,110.5,8.238a3.209,3.209,0,0,1,.918.117ZM117.47,19.2a5.432,5.432,0,0,1-3.936-1.45,5.008,5.008,0,0,1-1.5-3.774V13.7a6.489,6.489,0,0,1,.6-2.861,4.395,4.395,0,0,1,1.753-1.919,5.292,5.292,0,0,1,2.734-.679,4.574,4.574,0,0,1,3.516,1.382,5.43,5.43,0,0,1,1.289,3.853v1.279H115.38a2.372,2.372,0,0,0,.771,1.4,2.3,2.3,0,0,0,1.543.508,2.958,2.958,0,0,0,2.441-1.094l1.5,1.777a4.2,4.2,0,0,1-1.743,1.353A5.891,5.891,0,0,1,117.47,19.2Zm-.371-8.418q-1.445,0-1.719,1.914h3.32v-.254a1.63,1.63,0,0,0-.4-1.226A1.593,1.593,0,0,0,117.1,10.777Zm11.68,5.254a.76.76,0,0,0-.439-.674,6.685,6.685,0,0,0-1.67-.527,7.615,7.615,0,0,1-2.031-.718,3.4,3.4,0,0,1-1.221-1.079,2.577,2.577,0,0,1-.42-1.455,2.92,2.92,0,0,1,1.2-2.4,4.948,4.948,0,0,1,3.145-.942,5.482,5.482,0,0,1,3.359.947,2.962,2.962,0,0,1,1.27,2.49h-3.3q0-1.27-1.338-1.27a1.326,1.326,0,0,0-.869.288.892.892,0,0,0-.352.718.819.819,0,0,0,.43.713,4.06,4.06,0,0,0,1.372.449,11.857,11.857,0,0,1,1.655.42,3.007,3.007,0,0,1,2.383,2.939,2.767,2.767,0,0,1-1.284,2.354,5.632,5.632,0,0,1-3.325.908,5.747,5.747,0,0,1-2.422-.488,4.05,4.05,0,0,1-1.66-1.328,3.007,3.007,0,0,1-.6-1.768h3.076a1.272,1.272,0,0,0,.488,1.069,2.009,2.009,0,0,0,1.2.337,1.58,1.58,0,0,0,1.011-.273A.875.875,0,0,0,128.779,16.031Zm9.277-2.393a6.455,6.455,0,0,1,1.084-3.955,3.568,3.568,0,0,1,3.027-1.445,3.035,3.035,0,0,1,2.383,1.113V4h3.3V19h-2.959l-.166-1.133a3.116,3.116,0,0,1-2.578,1.328,3.562,3.562,0,0,1-2.988-1.445A6.659,6.659,0,0,1,138.056,13.639Zm3.291.205q0,2.813,1.641,2.813a1.62,1.62,0,0,0,1.563-.918V11.715a1.576,1.576,0,0,0-1.543-.937q-1.523,0-1.65,2.461ZM154.833,19.2a5.432,5.432,0,0,1-3.936-1.45,5.008,5.008,0,0,1-1.5-3.774V13.7a6.489,6.489,0,0,1,.6-2.861,4.395,4.395,0,0,1,1.753-1.919,5.292,5.292,0,0,1,2.734-.679A4.574,4.574,0,0,1,158,9.62a5.43,5.43,0,0,1,1.289,3.853v1.279h-6.543a2.372,2.372,0,0,0,.771,1.4,2.3,2.3,0,0,0,1.543.508,2.958,2.958,0,0,0,2.441-1.094L159,17.34a4.2,4.2,0,0,1-1.743,1.353A5.891,5.891,0,0,1,154.833,19.2Zm-.371-8.418q-1.445,0-1.719,1.914h3.32v-.254a1.63,1.63,0,0,0-.4-1.226A1.593,1.593,0,0,0,154.462,10.777ZM48.1,35.434l.107,1.24a3.583,3.583,0,0,1,3.018-1.436,3.015,3.015,0,0,1,2.466.986,4.7,4.7,0,0,1,.845,2.969V46h-3.3V39.33a1.783,1.783,0,0,0-.322-1.177,1.491,1.491,0,0,0-1.172-.376,1.569,1.569,0,0,0-1.436.762V46H45.014V35.434ZM62.309,46A3.716,3.716,0,0,1,62,45.053,3.06,3.06,0,0,1,59.457,46.2a3.749,3.749,0,0,1-2.539-.9,2.875,2.875,0,0,1-1.045-2.271,2.955,2.955,0,0,1,1.27-2.6,6.468,6.468,0,0,1,3.691-.879H61.85v-.559q0-1.462-1.26-1.462a1.03,1.03,0,0,0-1.172,1.158H56.127a2.95,2.95,0,0,1,1.3-2.487,5.479,5.479,0,0,1,3.325-.956,4.8,4.8,0,0,1,3.193.986,3.429,3.429,0,0,1,1.2,2.705v4.678a4.79,4.79,0,0,0,.449,2.227V46Zm-2.061-2.148a1.836,1.836,0,0,0,1.021-.264,1.653,1.653,0,0,0,.581-.6V41.3h-.957q-1.719,0-1.719,1.543a.942.942,0,0,0,.3.728A1.1,1.1,0,0,0,60.248,43.852Zm10.791-1.768,1.67-6.65h3.467L72.729,46H69.37L65.922,35.434H69.4Zm11.1,4.111a5.432,5.432,0,0,1-3.936-1.45,5.008,5.008,0,0,1-1.5-3.774V40.7a6.489,6.489,0,0,1,.6-2.861,4.395,4.395,0,0,1,1.753-1.919,5.292,5.292,0,0,1,2.734-.679,4.574,4.574,0,0,1,3.516,1.382A5.43,5.43,0,0,1,86.6,40.473v1.279H80.053a2.372,2.372,0,0,0,.771,1.4,2.3,2.3,0,0,0,1.543.508,2.958,2.958,0,0,0,2.441-1.094l1.5,1.777a4.2,4.2,0,0,1-1.743,1.353A5.891,5.891,0,0,1,82.143,46.2Zm-.371-8.418q-1.445,0-1.719,1.914h3.32v-.254a1.63,1.63,0,0,0-.4-1.226A1.593,1.593,0,0,0,81.772,37.777Zm5.762,2.861a7.134,7.134,0,0,1,.527-2.832,4.245,4.245,0,0,1,1.514-1.9,3.99,3.99,0,0,1,2.295-.669,3.173,3.173,0,0,1,2.578,1.113l.117-.918h2.988V45.6a4.455,4.455,0,0,1-.649,2.427,4.167,4.167,0,0,1-1.88,1.582,6.91,6.91,0,0,1-2.852.552,5.961,5.961,0,0,1-2.251-.439,4.063,4.063,0,0,1-1.665-1.143l1.377-1.934a3.018,3.018,0,0,0,2.422,1.084,1.96,1.96,0,0,0,2.188-2.246V45.15A3.09,3.09,0,0,1,91.85,46.2a3.819,3.819,0,0,1-3.125-1.479,6.13,6.13,0,0,1-1.191-3.96Zm3.3.205a3.759,3.759,0,0,0,.488,2.056,1.541,1.541,0,0,0,1.367.757,1.748,1.748,0,0,0,1.553-.713V38.5a1.7,1.7,0,0,0-1.533-.723,1.551,1.551,0,0,0-1.377.786A4.287,4.287,0,0,0,90.834,40.844ZM105.375,46a3.716,3.716,0,0,1-.312-.947,3.06,3.06,0,0,1-2.539,1.143,3.749,3.749,0,0,1-2.539-.9,2.875,2.875,0,0,1-1.045-2.271,2.955,2.955,0,0,1,1.27-2.6,6.468,6.468,0,0,1,3.691-.879h1.016v-.559q0-1.462-1.26-1.462a1.03,1.03,0,0,0-1.172,1.158H99.194a2.95,2.95,0,0,1,1.3-2.487,5.479,5.479,0,0,1,3.325-.956,4.8,4.8,0,0,1,3.193.986,3.429,3.429,0,0,1,1.2,2.705v4.678a4.79,4.79,0,0,0,.449,2.227V46Zm-2.061-2.148a1.836,1.836,0,0,0,1.021-.264,1.653,1.653,0,0,0,.581-.6V41.3h-.957q-1.719,0-1.719,1.543a.942.942,0,0,0,.3.728A1.1,1.1,0,0,0,103.315,43.852Zm11.191-.2a1.464,1.464,0,0,0,1.074-.376,1.379,1.379,0,0,0,.371-1.05h3.086a3.653,3.653,0,0,1-1.245,2.852,4.631,4.631,0,0,1-3.208,1.113,4.689,4.689,0,0,1-3.633-1.445,5.7,5.7,0,0,1-1.328-4v-.137a6.436,6.436,0,0,1,.591-2.827,4.3,4.3,0,0,1,1.7-1.885,5.081,5.081,0,0,1,2.637-.659,4.573,4.573,0,0,1,3.271,1.143,4.053,4.053,0,0,1,1.211,3.1h-3.086a1.806,1.806,0,0,0-.4-1.26,1.382,1.382,0,0,0-1.074-.439q-1.279,0-1.494,1.631a11.508,11.508,0,0,0-.068,1.426,4.52,4.52,0,0,0,.381,2.207A1.319,1.319,0,0,0,114.506,43.656ZM123.9,46h-3.3V35.434h3.3Zm-3.5-13.3a1.482,1.482,0,0,1,.508-1.159,2.149,2.149,0,0,1,2.637,0,1.577,1.577,0,0,1,0,2.319,2.149,2.149,0,0,1-2.637,0A1.482,1.482,0,0,1,120.4,32.7Zm5.107,7.92a6.236,6.236,0,0,1,.615-2.817,4.4,4.4,0,0,1,1.768-1.9,5.323,5.323,0,0,1,2.705-.664,4.858,4.858,0,0,1,3.74,1.47,5.64,5.64,0,0,1,1.367,4v.117a5.472,5.472,0,0,1-1.372,3.921,4.871,4.871,0,0,1-3.716,1.45A4.927,4.927,0,0,1,127,44.843a5.29,5.29,0,0,1-1.475-3.667Zm3.291.205a3.932,3.932,0,0,0,.459,2.148,1.529,1.529,0,0,0,1.357.684q1.758,0,1.8-2.705v-.332q0-2.842-1.816-2.842-1.65,0-1.787,2.451ZM131.049,31h3.477l-2.715,3.066-2.686,0Zm9.131,4.434.107,1.24a3.583,3.583,0,0,1,3.018-1.436,3.015,3.015,0,0,1,2.466.986,4.7,4.7,0,0,1,.845,2.969V46h-3.3V39.33a1.783,1.783,0,0,0-.322-1.177,1.491,1.491,0,0,0-1.172-.376,1.569,1.569,0,0,0-1.436.762V46h-3.291V35.434Z" transform="translate(850.779 1027.913)" fill="#12263f"/>
    <g id="Grupo_901573" data-name="Grupo 901573" transform="translate(117.779 -206.092)">
      <rect id="Rectángulo_302892" data-name="Rectángulo 302892" width="221.916" height="74.183" rx="17" transform="translate(995 943.005)" fill="#fecb2f"/>
      <rect id="Rectángulo_302893" data-name="Rectángulo 302893" width="221.916" height="74.183" rx="17" transform="translate(994.042 857.005)" fill="#fecb2f"/>
      <text id="Teoría_del_color" data-name="Teoría del color" transform="translate(1010 969.004)" fill="#12263f" font-size="18" font-family="Roboto-Black, Roboto" font-weight="800"><tspan x="-63.576" y="17">Teoría del color</tspan></text>
      <text id="Menús" transform="translate(1009.042 883.004)" fill="#12263f" font-size="18" font-family="Roboto-Black, Roboto" font-weight="800"><tspan x="-27.549" y="17">Menús</tspan></text>
    </g>
    <g id="Grupo_901572" data-name="Grupo 901572" transform="translate(117.779 -188.908)">
      <rect id="Rectángulo_302894" data-name="Rectángulo 302894" width="221.916" height="74.183" rx="17" transform="translate(994 737.821)" fill="#fecb2f"/>
      <rect id="Rectángulo_302895" data-name="Rectángulo 302895" width="221.916" height="74.183" rx="17" transform="translate(994 647.821)" fill="#fecb2f"/>
      <rect id="Rectángulo_302896" data-name="Rectángulo 302896" width="221.916" height="74.183" rx="17" transform="translate(994 557.821)" fill="#fecb2f"/>
      <text id="Apps" transform="translate(1009 763.82)" fill="#12263f" font-size="18" font-family="Roboto-Black, Roboto" font-weight="800"><tspan x="-20.663" y="17">Apps</tspan></text>
      <text id="Wireframe" transform="translate(1009 673.82)" fill="#12263f" font-size="18" font-family="Roboto-BlackItalic, Roboto" font-weight="800" font-style="italic"><tspan x="-41.695" y="19">Wireframe</tspan></text>
      <text id="Prototipo" transform="translate(1009 583.82)" fill="#12263f" font-size="18" font-family="Roboto-Black, Roboto" font-weight="800"><tspan x="-37.859" y="17">Prototipo</tspan></text>
    </g>
    <g id="Grupo_897588" data-name="Grupo 897588" transform="translate(804.964 486.502)">
      <path id="Trazado_183765" data-name="Trazado 183765" d="M0,0V22.707H234.773V0" transform="translate(22.707 8.092) rotate(90)" fill="none" stroke="#707070" stroke-width="1"/>
      <g id="Polígono_26" data-name="Polígono 26" transform="translate(29.815) rotate(90)" fill="#707070">
        <path d="M 15.3069896697998 13.12977981567383 L 0.8783723711967468 13.12977981567383 L 8.092680931091309 0.9793622493743896 L 15.3069896697998 13.12977981567383 Z" stroke="none"/>
        <path d="M 8.092680931091309 1.958707809448242 L 1.756733894348145 12.62977981567383 L 14.42862796783447 12.62977981567383 L 8.092680931091309 1.958707809448242 M 8.092680931091309 -9.5367431640625e-07 L 16.18536186218262 13.62977981567383 L 0 13.62977981567383 L 8.092680931091309 -9.5367431640625e-07 Z" stroke="none" fill="#707070"/>
      </g>
      <g id="Polígono_27" data-name="Polígono 27" transform="translate(29.815 235.559) rotate(90)" fill="#707070">
        <path d="M 15.3069896697998 13.12977981567383 L 0.8783723711967468 13.12977981567383 L 8.092680931091309 0.9793622493743896 L 15.3069896697998 13.12977981567383 Z" stroke="none"/>
        <path d="M 8.092680931091309 1.958707809448242 L 1.756733894348145 12.62977981567383 L 14.42862796783447 12.62977981567383 L 8.092680931091309 1.958707809448242 M 8.092680931091309 -9.5367431640625e-07 L 16.18536186218262 13.62977981567383 L 0 13.62977981567383 L 8.092680931091309 -9.5367431640625e-07 Z" stroke="none" fill="#707070"/>
      </g>
    </g>
    <g id="Grupo_901577" data-name="Grupo 901577" transform="translate(805.964 838.246)">
      <path id="Trazado_183765-2" data-name="Trazado 183765" d="M0,0V22.707H90.44V0" transform="translate(22.707 8.092) rotate(90)" fill="none" stroke="#707070" stroke-width="1"/>
      <g id="Polígono_26-2" data-name="Polígono 26" transform="translate(29.815) rotate(90)" fill="#707070">
        <path d="M 15.3069896697998 13.12977981567383 L 0.8783723711967468 13.12977981567383 L 8.092680931091309 0.9793622493743896 L 15.3069896697998 13.12977981567383 Z" stroke="none"/>
        <path d="M 8.092680931091309 1.958707809448242 L 1.756733894348145 12.62977981567383 L 14.42862796783447 12.62977981567383 L 8.092680931091309 1.958707809448242 M 8.092680931091309 -9.5367431640625e-07 L 16.18536186218262 13.62977981567383 L 0 13.62977981567383 L 8.092680931091309 -9.5367431640625e-07 Z" stroke="none" fill="#707070"/>
      </g>
      <g id="Polígono_27-2" data-name="Polígono 27" transform="translate(29.815 91.226) rotate(90)" fill="#707070">
        <path d="M 15.3069896697998 13.12977981567383 L 0.8783723711967468 13.12977981567383 L 8.092680931091309 0.9793622493743896 L 15.3069896697998 13.12977981567383 Z" stroke="none"/>
        <path d="M 8.092680931091309 1.958707809448242 L 1.756733894348145 12.62977981567383 L 14.42862796783447 12.62977981567383 L 8.092680931091309 1.958707809448242 M 8.092680931091309 -9.5367431640625e-07 L 16.18536186218262 13.62977981567383 L 0 13.62977981567383 L 8.092680931091309 -9.5367431640625e-07 Z" stroke="none" fill="#707070"/>
      </g>
    </g>
    <g id="Grupo_901585" data-name="Grupo 901585" transform="translate(1082.006 681.707)">
      <path id="Trazado_183765-3" data-name="Trazado 183765" d="M0,0V22.707H90.44V0" transform="translate(22.707 8.092) rotate(90)" fill="none" stroke="#707070" stroke-width="1"/>
      <g id="Polígono_26-3" data-name="Polígono 26" transform="translate(29.815) rotate(90)" fill="#707070">
        <path d="M 15.3069896697998 13.12977981567383 L 0.8783723711967468 13.12977981567383 L 8.092680931091309 0.9793622493743896 L 15.3069896697998 13.12977981567383 Z" stroke="none"/>
        <path d="M 8.092680931091309 1.958707809448242 L 1.756733894348145 12.62977981567383 L 14.42862796783447 12.62977981567383 L 8.092680931091309 1.958707809448242 M 8.092680931091309 -9.5367431640625e-07 L 16.18536186218262 13.62977981567383 L 0 13.62977981567383 L 8.092680931091309 -9.5367431640625e-07 Z" stroke="none" fill="#707070"/>
      </g>
      <g id="Polígono_27-3" data-name="Polígono 27" transform="translate(29.815 91.226) rotate(90)" fill="#707070">
        <path d="M 15.3069896697998 13.12977981567383 L 0.8783723711967468 13.12977981567383 L 8.092680931091309 0.9793622493743896 L 15.3069896697998 13.12977981567383 Z" stroke="none"/>
        <path d="M 8.092680931091309 1.958707809448242 L 1.756733894348145 12.62977981567383 L 14.42862796783447 12.62977981567383 L 8.092680931091309 1.958707809448242 M 8.092680931091309 -9.5367431640625e-07 L 16.18536186218262 13.62977981567383 L 0 13.62977981567383 L 8.092680931091309 -9.5367431640625e-07 Z" stroke="none" fill="#707070"/>
      </g>
    </g>
    <g id="Grupo_901580" data-name="Grupo 901580" transform="translate(805.964 1147.502)">
      <path id="Trazado_183765-4" data-name="Trazado 183765" d="M0,0V22.707H176.44V0" transform="translate(22.707 8.092) rotate(90)" fill="none" stroke="#707070" stroke-width="1"/>
      <g id="Polígono_26-4" data-name="Polígono 26" transform="translate(29.815) rotate(90)" fill="#707070">
        <path d="M 15.3069896697998 13.12977981567383 L 0.8783723711967468 13.12977981567383 L 8.092680931091309 0.9793622493743896 L 15.3069896697998 13.12977981567383 Z" stroke="none"/>
        <path d="M 8.092680931091309 1.958707809448242 L 1.756733894348145 12.62977981567383 L 14.42862796783447 12.62977981567383 L 8.092680931091309 1.958707809448242 M 8.092680931091309 -9.5367431640625e-07 L 16.18536186218262 13.62977981567383 L 0 13.62977981567383 L 8.092680931091309 -9.5367431640625e-07 Z" stroke="none" fill="#707070"/>
      </g>
      <g id="Polígono_27-4" data-name="Polígono 27" transform="translate(29.815 177.226) rotate(90)" fill="#707070">
        <path d="M 15.3069896697998 13.12977981567383 L 0.8783723711967468 13.12977981567383 L 8.092680931091309 0.9793622493743896 L 15.3069896697998 13.12977981567383 Z" stroke="none"/>
        <path d="M 8.092680931091309 1.958707809448242 L 1.756733894348145 12.62977981567383 L 14.42862796783447 12.62977981567383 L 8.092680931091309 1.958707809448242 M 8.092680931091309 -9.5367431640625e-07 L 16.18536186218262 13.62977981567383 L 0 13.62977981567383 L 8.092680931091309 -9.5367431640625e-07 Z" stroke="none" fill="#707070"/>
      </g>
    </g>
    <g id="Grupo_901583" data-name="Grupo 901583" transform="translate(1081.964 399.208)">
      <path id="Trazado_183765-5" data-name="Trazado 183765" d="M0,0V22.707H176.44V0" transform="translate(22.707 8.092) rotate(90)" fill="none" stroke="#707070" stroke-width="1"/>
      <g id="Polígono_26-5" data-name="Polígono 26" transform="translate(29.815) rotate(90)" fill="#707070">
        <path d="M 15.3069896697998 13.12977981567383 L 0.8783723711967468 13.12977981567383 L 8.092680931091309 0.9793622493743896 L 15.3069896697998 13.12977981567383 Z" stroke="none"/>
        <path d="M 8.092680931091309 1.958707809448242 L 1.756733894348145 12.62977981567383 L 14.42862796783447 12.62977981567383 L 8.092680931091309 1.958707809448242 M 8.092680931091309 -9.5367431640625e-07 L 16.18536186218262 13.62977981567383 L 0 13.62977981567383 L 8.092680931091309 -9.5367431640625e-07 Z" stroke="none" fill="#707070"/>
      </g>
      <g id="Polígono_27-5" data-name="Polígono 27" transform="translate(29.815 177.226) rotate(90)" fill="#707070">
        <path d="M 15.3069896697998 13.12977981567383 L 0.8783723711967468 13.12977981567383 L 8.092680931091309 0.9793622493743896 L 15.3069896697998 13.12977981567383 Z" stroke="none"/>
        <path d="M 8.092680931091309 1.958707809448242 L 1.756733894348145 12.62977981567383 L 14.42862796783447 12.62977981567383 L 8.092680931091309 1.958707809448242 M 8.092680931091309 -9.5367431640625e-07 L 16.18536186218262 13.62977981567383 L 0 13.62977981567383 L 8.092680931091309 -9.5367431640625e-07 Z" stroke="none" fill="#707070"/>
      </g>
    </g>
    <g id="Grupo_897588-2" data-name="Grupo 897588" transform="translate(528.186 651.413)">
      <path id="Trazado_183765-6" data-name="Trazado 183765" d="M0,0V22.707H235.529V0" transform="translate(22.707 8.092) rotate(90)" fill="none" stroke="#707070" stroke-width="1"/>
      <g id="Polígono_26-6" data-name="Polígono 26" transform="translate(29.815) rotate(90)" fill="#707070">
        <path d="M 15.3069896697998 13.12977981567383 L 0.8783723711967468 13.12977981567383 L 8.092680931091309 0.9793622493743896 L 15.3069896697998 13.12977981567383 Z" stroke="none"/>
        <path d="M 8.092680931091309 1.958707809448242 L 1.756733894348145 12.62977981567383 L 14.42862796783447 12.62977981567383 L 8.092680931091309 1.958707809448242 M 8.092680931091309 -9.5367431640625e-07 L 16.18536186218262 13.62977981567383 L 0 13.62977981567383 L 8.092680931091309 -9.5367431640625e-07 Z" stroke="none" fill="#707070"/>
      </g>
      <g id="Polígono_27-6" data-name="Polígono 27" transform="translate(29.815 236.315) rotate(90)" fill="#707070">
        <path d="M 15.3069896697998 13.12977981567383 L 0.8783723711967468 13.12977981567383 L 8.092680931091309 0.9793622493743896 L 15.3069896697998 13.12977981567383 Z" stroke="none"/>
        <path d="M 8.092680931091309 1.958707809448242 L 1.756733894348145 12.62977981567383 L 14.42862796783447 12.62977981567383 L 8.092680931091309 1.958707809448242 M 8.092680931091309 -9.5367431640625e-07 L 16.18536186218262 13.62977981567383 L 0 13.62977981567383 L 8.092680931091309 -9.5367431640625e-07 Z" stroke="none" fill="#707070"/>
      </g>
    </g>
    <path id="Trazado_183774" data-name="Trazado 183774" d="M0,0V170.908" transform="translate(528.186 892.005)" fill="none" stroke="#707070" stroke-width="1"/>
    <g id="Grupo_897588-3" data-name="Grupo 897588" transform="translate(528.186 1052.913)">
      <path id="Trazado_183765-7" data-name="Trazado 183765" d="M0,0V22.707H185.029V0" transform="translate(22.707 8.092) rotate(90)" fill="none" stroke="#707070" stroke-width="1"/>
      <g id="Polígono_26-7" data-name="Polígono 26" transform="translate(29.815) rotate(90)" fill="#707070">
        <path d="M 15.3069896697998 13.12977981567383 L 0.8783723711967468 13.12977981567383 L 8.092680931091309 0.9793622493743896 L 15.3069896697998 13.12977981567383 Z" stroke="none"/>
        <path d="M 8.092680931091309 1.958707809448242 L 1.756733894348145 12.62977981567383 L 14.42862796783447 12.62977981567383 L 8.092680931091309 1.958707809448242 M 8.092680931091309 -9.5367431640625e-07 L 16.18536186218262 13.62977981567383 L 0 13.62977981567383 L 8.092680931091309 -9.5367431640625e-07 Z" stroke="none" fill="#707070"/>
      </g>
      <g id="Polígono_27-7" data-name="Polígono 27" transform="translate(29.815 185.815) rotate(90)" fill="#707070">
        <path d="M 15.3069896697998 13.12977981567383 L 0.8783723711967468 13.12977981567383 L 8.092680931091309 0.9793622493743896 L 15.3069896697998 13.12977981567383 Z" stroke="none"/>
        <path d="M 8.092680931091309 1.958707809448242 L 1.756733894348145 12.62977981567383 L 14.42862796783447 12.62977981567383 L 8.092680931091309 1.958707809448242 M 8.092680931091309 -9.5367431640625e-07 L 16.18536186218262 13.62977981567383 L 0 13.62977981567383 L 8.092680931091309 -9.5367431640625e-07 Z" stroke="none" fill="#707070"/>
      </g>
    </g>
    <g id="Grupo_897602" data-name="Grupo 897602" transform="translate(498.796 940.321)">
      <g id="Polígono_28" data-name="Polígono 28" transform="translate(29.389) rotate(90)" fill="#707070">
        <path d="M 15.3069896697998 13.12977981567383 L 0.8783723711967468 13.12977981567383 L 8.092680931091309 0.9793622493743896 L 15.3069896697998 13.12977981567383 Z" stroke="none"/>
        <path d="M 8.092680931091309 1.958707809448242 L 1.756733894348145 12.62977981567383 L 14.42862796783447 12.62977981567383 L 8.092680931091309 1.958707809448242 M 8.092680931091309 -9.5367431640625e-07 L 16.18536186218262 13.62977981567383 L 0 13.62977981567383 L 8.092680931091309 -9.5367431640625e-07 Z" stroke="none" fill="#707070"/>
      </g>
      <path id="Trazado_183774-2" data-name="Trazado 183774" d="M0,0V64.48" transform="translate(-39.35 8.093) rotate(-90)" fill="none" stroke="#707070" stroke-width="1"/>
    </g>
    <path id="Trazado_629087" data-name="Trazado 629087" d="M13,0H191.916a13,13,0,0,1,13,13V115.094a13,13,0,0,1-13,13H13a13,13,0,0,1-13-13V13A13,13,0,0,1,13,0Z" transform="translate(266 884.367)" fill="#ef3c79"/>
    <path id="Trazado_629088" data-name="Trazado 629088" d="M12.948,19H9.53V4.781h3.418ZM18.2,8.434l.107,1.24a3.583,3.583,0,0,1,3.018-1.436,3.015,3.015,0,0,1,2.466.986,4.7,4.7,0,0,1,.845,2.969V19h-3.3V12.33a1.783,1.783,0,0,0-.322-1.177,1.491,1.491,0,0,0-1.172-.376,1.569,1.569,0,0,0-1.436.762V19H15.116V8.434Zm12.09-2.627V8.434H32.03v2.285H30.292v4.834a1.234,1.234,0,0,0,.215.83,1.152,1.152,0,0,0,.85.234,4.828,4.828,0,0,0,.82-.059v2.354a6.074,6.074,0,0,1-1.855.283,3.448,3.448,0,0,1-2.51-.8A3.282,3.282,0,0,1,27,15.963V10.719H25.653V8.434H27V5.807ZM38.437,19.2a5.432,5.432,0,0,1-3.936-1.45A5.008,5.008,0,0,1,33,13.971V13.7a6.489,6.489,0,0,1,.6-2.861,4.395,4.395,0,0,1,1.753-1.919,5.292,5.292,0,0,1,2.734-.679A4.574,4.574,0,0,1,41.6,9.62a5.43,5.43,0,0,1,1.289,3.853v1.279H36.347a2.372,2.372,0,0,0,.771,1.4,2.3,2.3,0,0,0,1.543.508A2.958,2.958,0,0,0,41.1,15.563l1.5,1.777a4.2,4.2,0,0,1-1.743,1.353A5.891,5.891,0,0,1,38.437,19.2Zm-.371-8.418q-1.445,0-1.719,1.914h3.32v-.254a1.63,1.63,0,0,0-.4-1.226A1.593,1.593,0,0,0,38.065,10.777Zm12.539.635-1.084-.078a1.947,1.947,0,0,0-1.992.977V19H44.237V8.434h3.086l.107,1.357a2.548,2.548,0,0,1,2.314-1.553,3.209,3.209,0,0,1,.918.117ZM52.714,19V10.719H51.181V8.434h1.533v-.84a3.651,3.651,0,0,1,1.064-2.8,4.206,4.206,0,0,1,2.988-1A6.544,6.544,0,0,1,58.31,4l.01,2.422a3.007,3.007,0,0,0-.811-.088q-1.494,0-1.494,1.289v.811h2.061v2.285H56.015V19Zm12.471,0a3.716,3.716,0,0,1-.312-.947A3.06,3.06,0,0,1,62.333,19.2a3.749,3.749,0,0,1-2.539-.9,2.875,2.875,0,0,1-1.045-2.271,2.955,2.955,0,0,1,1.27-2.6,6.468,6.468,0,0,1,3.691-.879h1.016v-.559q0-1.462-1.26-1.462a1.03,1.03,0,0,0-1.172,1.158H59a2.95,2.95,0,0,1,1.3-2.487,5.479,5.479,0,0,1,3.325-.956,4.8,4.8,0,0,1,3.193.986,3.429,3.429,0,0,1,1.2,2.705v4.678a4.79,4.79,0,0,0,.449,2.227V19Zm-2.061-2.148a1.836,1.836,0,0,0,1.021-.264,1.653,1.653,0,0,0,.581-.6V14.3h-.957q-1.719,0-1.719,1.543a.942.942,0,0,0,.3.728A1.1,1.1,0,0,0,63.124,16.852Zm11.191-.2a1.464,1.464,0,0,0,1.074-.376,1.379,1.379,0,0,0,.371-1.05h3.086A3.653,3.653,0,0,1,77.6,18.082,4.631,4.631,0,0,1,74.394,19.2a4.689,4.689,0,0,1-3.633-1.445,5.7,5.7,0,0,1-1.328-4v-.137a6.436,6.436,0,0,1,.591-2.827,4.3,4.3,0,0,1,1.7-1.885,5.081,5.081,0,0,1,2.637-.659,4.573,4.573,0,0,1,3.271,1.143,4.053,4.053,0,0,1,1.211,3.1H75.761a1.806,1.806,0,0,0-.4-1.26,1.382,1.382,0,0,0-1.074-.439q-1.279,0-1.494,1.631a11.508,11.508,0,0,0-.068,1.426,4.52,4.52,0,0,0,.381,2.207A1.319,1.319,0,0,0,74.315,16.656ZM85.351,19.2a5.432,5.432,0,0,1-3.936-1.45,5.008,5.008,0,0,1-1.5-3.774V13.7a6.489,6.489,0,0,1,.6-2.861,4.395,4.395,0,0,1,1.753-1.919A5.292,5.292,0,0,1,85,8.238,4.574,4.574,0,0,1,88.515,9.62,5.43,5.43,0,0,1,89.8,13.473v1.279H83.261a2.372,2.372,0,0,0,.771,1.4,2.3,2.3,0,0,0,1.543.508,2.958,2.958,0,0,0,2.441-1.094l1.5,1.777a4.2,4.2,0,0,1-1.743,1.353A5.891,5.891,0,0,1,85.351,19.2Zm-.371-8.418q-1.445,0-1.719,1.914h3.32v-.254a1.63,1.63,0,0,0-.4-1.226A1.593,1.593,0,0,0,84.979,10.777Zm11.68,5.254a.76.76,0,0,0-.439-.674,6.685,6.685,0,0,0-1.67-.527,7.615,7.615,0,0,1-2.031-.718A3.4,3.4,0,0,1,91.3,13.033a2.577,2.577,0,0,1-.42-1.455,2.92,2.92,0,0,1,1.2-2.4,4.948,4.948,0,0,1,3.145-.942,5.482,5.482,0,0,1,3.359.947,2.962,2.962,0,0,1,1.27,2.49h-3.3q0-1.27-1.338-1.27a1.326,1.326,0,0,0-.869.288.892.892,0,0,0-.352.718.819.819,0,0,0,.43.713,4.06,4.06,0,0,0,1.372.449,11.857,11.857,0,0,1,1.655.42,3.007,3.007,0,0,1,2.383,2.939,2.767,2.767,0,0,1-1.284,2.354,5.631,5.631,0,0,1-3.325.908,5.747,5.747,0,0,1-2.422-.488,4.05,4.05,0,0,1-1.66-1.328,3.007,3.007,0,0,1-.6-1.768h3.076a1.272,1.272,0,0,0,.488,1.069,2.009,2.009,0,0,0,1.2.337,1.58,1.58,0,0,0,1.011-.273A.875.875,0,0,0,96.659,16.031Zm14.287-2.393a7.134,7.134,0,0,1,.527-2.832,4.245,4.245,0,0,1,1.514-1.9,3.99,3.99,0,0,1,2.295-.669,3.173,3.173,0,0,1,2.578,1.113l.117-.918h2.988V18.6a4.455,4.455,0,0,1-.649,2.427,4.167,4.167,0,0,1-1.88,1.582,6.91,6.91,0,0,1-2.852.552,5.961,5.961,0,0,1-2.251-.439,4.063,4.063,0,0,1-1.665-1.143l1.377-1.934a3.018,3.018,0,0,0,2.422,1.084,1.96,1.96,0,0,0,2.188-2.246V18.15a3.09,3.09,0,0,1-2.393,1.045,3.819,3.819,0,0,1-3.125-1.479,6.13,6.13,0,0,1-1.191-3.96Zm3.3.205a3.759,3.759,0,0,0,.488,2.056,1.541,1.541,0,0,0,1.367.757,1.748,1.748,0,0,0,1.553-.713V11.5a1.7,1.7,0,0,0-1.533-.723,1.551,1.551,0,0,0-1.377.786A4.287,4.287,0,0,0,114.247,13.844Zm14.98-2.432-1.084-.078a1.947,1.947,0,0,0-1.992.977V19H122.86V8.434h3.086l.107,1.357a2.548,2.548,0,0,1,2.314-1.553,3.209,3.209,0,0,1,.918.117ZM136.073,19a3.716,3.716,0,0,1-.312-.947,3.06,3.06,0,0,1-2.539,1.143,3.749,3.749,0,0,1-2.539-.9,2.875,2.875,0,0,1-1.045-2.271,2.955,2.955,0,0,1,1.27-2.6,6.468,6.468,0,0,1,3.691-.879h1.016v-.559q0-1.462-1.26-1.462a1.03,1.03,0,0,0-1.172,1.158h-3.291a2.95,2.95,0,0,1,1.3-2.487,5.479,5.479,0,0,1,3.325-.956,4.8,4.8,0,0,1,3.193.986,3.429,3.429,0,0,1,1.2,2.705v4.678a4.79,4.79,0,0,0,.449,2.227V19Zm-2.061-2.148a1.836,1.836,0,0,0,1.021-.264,1.653,1.653,0,0,0,.581-.6V14.3h-.957q-1.719,0-1.719,1.543a.942.942,0,0,0,.3.728A1.1,1.1,0,0,0,134.013,16.852ZM134.833,4h3.477l-2.715,3.066-2.686,0Zm6.67,15V10.719H139.97V8.434H141.5V8.082A4.034,4.034,0,0,1,142.89,4.85a5.541,5.541,0,0,1,3.6-1.055,12.787,12.787,0,0,1,3.438.566l-.449,2.6-.547-.146a8.7,8.7,0,0,0-2.246-.283q-1.885,0-1.885,1.719v.186h2.07v2.285H144.8V19Zm9.941,0h-3.311V8.434h3.311Zm6.475-2.344a1.464,1.464,0,0,0,1.074-.376,1.379,1.379,0,0,0,.371-1.05h3.086a3.653,3.653,0,0,1-1.245,2.852A4.631,4.631,0,0,1,158,19.2a4.689,4.689,0,0,1-3.633-1.445,5.7,5.7,0,0,1-1.328-4v-.137a6.436,6.436,0,0,1,.591-2.827,4.3,4.3,0,0,1,1.7-1.885,5.081,5.081,0,0,1,2.637-.659,4.573,4.573,0,0,1,3.271,1.143,4.053,4.053,0,0,1,1.211,3.1h-3.086a1.807,1.807,0,0,0-.4-1.26,1.382,1.382,0,0,0-1.074-.439q-1.279,0-1.494,1.631a11.507,11.507,0,0,0-.068,1.426,4.52,4.52,0,0,0,.381,2.207A1.319,1.319,0,0,0,157.919,16.656ZM169.794,19a3.716,3.716,0,0,1-.312-.947,3.06,3.06,0,0,1-2.539,1.143,3.749,3.749,0,0,1-2.539-.9,2.875,2.875,0,0,1-1.045-2.271,2.955,2.955,0,0,1,1.27-2.6,6.468,6.468,0,0,1,3.691-.879h1.016v-.559q0-1.462-1.26-1.462a1.03,1.03,0,0,0-1.172,1.158h-3.291a2.95,2.95,0,0,1,1.3-2.487,5.479,5.479,0,0,1,3.325-.956,4.8,4.8,0,0,1,3.193.986,3.429,3.429,0,0,1,1.2,2.705v4.678a4.79,4.79,0,0,0,.449,2.227V19Zm-2.061-2.148a1.836,1.836,0,0,0,1.021-.264,1.653,1.653,0,0,0,.581-.6V14.3h-.957q-1.719,0-1.719,1.543a.942.942,0,0,0,.3.728A1.1,1.1,0,0,0,167.733,16.852Zm12.256-.82a.76.76,0,0,0-.439-.674,6.685,6.685,0,0,0-1.67-.527,7.615,7.615,0,0,1-2.031-.718,3.4,3.4,0,0,1-1.221-1.079,2.577,2.577,0,0,1-.42-1.455,2.92,2.92,0,0,1,1.2-2.4,4.948,4.948,0,0,1,3.145-.942,5.482,5.482,0,0,1,3.359.947,2.962,2.962,0,0,1,1.27,2.49h-3.3q0-1.27-1.338-1.27a1.326,1.326,0,0,0-.869.288.892.892,0,0,0-.352.718.819.819,0,0,0,.43.713,4.06,4.06,0,0,0,1.372.449,11.857,11.857,0,0,1,1.655.42,3.007,3.007,0,0,1,2.383,2.939,2.767,2.767,0,0,1-1.284,2.354,5.632,5.632,0,0,1-3.325.908,5.747,5.747,0,0,1-2.422-.488,4.05,4.05,0,0,1-1.66-1.328,3.007,3.007,0,0,1-.6-1.768h3.076a1.272,1.272,0,0,0,.488,1.069,2.009,2.009,0,0,0,1.2.337,1.58,1.58,0,0,0,1.011-.273A.875.875,0,0,0,179.989,16.031ZM41.415,40.639A6.455,6.455,0,0,1,42.5,36.684a3.568,3.568,0,0,1,3.027-1.445,3.035,3.035,0,0,1,2.383,1.113V31h3.3V46H48.251l-.166-1.133A3.116,3.116,0,0,1,45.507,46.2a3.562,3.562,0,0,1-2.988-1.445A6.659,6.659,0,0,1,41.415,40.639Zm3.291.205q0,2.813,1.641,2.813a1.62,1.62,0,0,0,1.563-.918V38.715a1.576,1.576,0,0,0-1.543-.937q-1.523,0-1.65,2.461ZM58.192,46.2a5.432,5.432,0,0,1-3.936-1.45,5.008,5.008,0,0,1-1.5-3.774V40.7a6.489,6.489,0,0,1,.6-2.861,4.395,4.395,0,0,1,1.753-1.919,5.292,5.292,0,0,1,2.734-.679,4.574,4.574,0,0,1,3.516,1.382,5.43,5.43,0,0,1,1.289,3.853v1.279H56.1a2.372,2.372,0,0,0,.771,1.4,2.3,2.3,0,0,0,1.543.508,2.958,2.958,0,0,0,2.441-1.094l1.5,1.777a4.2,4.2,0,0,1-1.743,1.353A5.891,5.891,0,0,1,58.192,46.2Zm-.371-8.418q-1.445,0-1.719,1.914h3.32v-.254a1.63,1.63,0,0,0-.4-1.226A1.593,1.593,0,0,0,57.821,37.777Zm17.422,7.08A3.393,3.393,0,0,1,72.421,46.2a3.328,3.328,0,0,1-2.632-1.011,4.251,4.251,0,0,1-.894-2.905V35.434h3.291V42.3A1.183,1.183,0,0,0,73.5,43.656a1.72,1.72,0,0,0,1.611-.811V35.434h3.311V46H75.341Zm10.518-1.826a.76.76,0,0,0-.439-.674,6.685,6.685,0,0,0-1.67-.527,7.615,7.615,0,0,1-2.031-.718A3.4,3.4,0,0,1,80.4,40.033a2.577,2.577,0,0,1-.42-1.455,2.92,2.92,0,0,1,1.2-2.4,4.948,4.948,0,0,1,3.145-.942,5.482,5.482,0,0,1,3.359.947,2.962,2.962,0,0,1,1.27,2.49h-3.3q0-1.27-1.338-1.27a1.326,1.326,0,0,0-.869.288.892.892,0,0,0-.352.718.819.819,0,0,0,.43.713,4.06,4.06,0,0,0,1.372.449,11.856,11.856,0,0,1,1.655.42,3.007,3.007,0,0,1,2.383,2.939,2.767,2.767,0,0,1-1.284,2.354,5.631,5.631,0,0,1-3.325.908,5.747,5.747,0,0,1-2.422-.488,4.05,4.05,0,0,1-1.66-1.328,3.007,3.007,0,0,1-.6-1.768h3.076a1.272,1.272,0,0,0,.488,1.069,2.009,2.009,0,0,0,1.2.337,1.58,1.58,0,0,0,1.011-.273A.875.875,0,0,0,85.761,43.031Zm11.006,1.826A3.393,3.393,0,0,1,93.944,46.2a3.328,3.328,0,0,1-2.632-1.011,4.251,4.251,0,0,1-.894-2.905V35.434H93.71V42.3a1.183,1.183,0,0,0,1.318,1.357,1.72,1.72,0,0,0,1.611-.811V35.434H99.95V46H96.864ZM107.7,46a3.716,3.716,0,0,1-.312-.947,3.06,3.06,0,0,1-2.539,1.143,3.749,3.749,0,0,1-2.539-.9,2.875,2.875,0,0,1-1.045-2.271,2.955,2.955,0,0,1,1.27-2.6,6.468,6.468,0,0,1,3.691-.879h1.016v-.559q0-1.462-1.26-1.462a1.03,1.03,0,0,0-1.172,1.158h-3.291a2.95,2.95,0,0,1,1.3-2.487,5.479,5.479,0,0,1,3.325-.956,4.8,4.8,0,0,1,3.193.986,3.429,3.429,0,0,1,1.2,2.705v4.678A4.79,4.79,0,0,0,111,45.834V46Zm-2.061-2.148a1.836,1.836,0,0,0,1.021-.264,1.653,1.653,0,0,0,.581-.6V41.3h-.957q-1.719,0-1.719,1.543a.942.942,0,0,0,.3.728A1.1,1.1,0,0,0,105.644,43.852Zm13.115-5.439-1.084-.078a1.947,1.947,0,0,0-1.992.977V46h-3.291V35.434h3.086l.107,1.357a2.548,2.548,0,0,1,2.314-1.553,3.209,3.209,0,0,1,.918.117ZM123.417,46h-3.3V35.434h3.3Zm-3.5-13.3a1.482,1.482,0,0,1,.508-1.159,2.149,2.149,0,0,1,2.637,0,1.577,1.577,0,0,1,0,2.319,2.149,2.149,0,0,1-2.637,0A1.482,1.482,0,0,1,119.921,32.7Zm5.107,7.92a6.236,6.236,0,0,1,.615-2.817,4.4,4.4,0,0,1,1.768-1.9,5.323,5.323,0,0,1,2.705-.664,4.858,4.858,0,0,1,3.74,1.47,5.64,5.64,0,0,1,1.367,4v.117a5.472,5.472,0,0,1-1.372,3.921,4.871,4.871,0,0,1-3.716,1.45,4.927,4.927,0,0,1-3.623-1.353,5.29,5.29,0,0,1-1.475-3.667Zm3.291.205a3.932,3.932,0,0,0,.459,2.148,1.529,1.529,0,0,0,1.357.684q1.758,0,1.8-2.705v-.332q0-2.842-1.816-2.842-1.65,0-1.787,2.451Zm17.559.566,1.758-5.957h3.525l-4.307,12.334-.186.449a3.272,3.272,0,0,1-3.242,2.051,5.158,5.158,0,0,1-1.357-.195V47.729h.43a2.251,2.251,0,0,0,1.06-.2,1.216,1.216,0,0,0,.542-.718l.264-.7-3.672-10.673h3.516ZM35.937,73.2A5.432,5.432,0,0,1,32,71.745a5.008,5.008,0,0,1-1.5-3.774V67.7a6.489,6.489,0,0,1,.6-2.861,4.395,4.395,0,0,1,1.753-1.919,5.292,5.292,0,0,1,2.734-.679A4.574,4.574,0,0,1,39.1,63.62a5.43,5.43,0,0,1,1.289,3.853v1.279H33.847a2.372,2.372,0,0,0,.771,1.4,2.3,2.3,0,0,0,1.543.508A2.958,2.958,0,0,0,38.6,69.563l1.5,1.777a4.2,4.2,0,0,1-1.743,1.353A5.891,5.891,0,0,1,35.937,73.2Zm-.371-8.418q-1.445,0-1.719,1.914h3.32v-.254a1.63,1.63,0,0,0-.4-1.226A1.593,1.593,0,0,0,35.565,64.777ZM46,65.344l1.533-2.91h3.418L48.163,67.58,51.083,73H47.646l-1.66-3.125L44.354,73H40.9l2.93-5.42-2.773-5.146h3.457Zm15.82,2.451a6.372,6.372,0,0,1-1.108,3.931,3.554,3.554,0,0,1-2.993,1.47,3.046,3.046,0,0,1-2.393-1.064v4.932H52.03V62.434h3.076l.1.977a3.046,3.046,0,0,1,2.49-1.172,3.582,3.582,0,0,1,3.037,1.44,6.45,6.45,0,0,1,1.084,3.96Zm-3.291-.205q0-2.812-1.641-2.812a1.549,1.549,0,0,0-1.562.84v4.16a1.6,1.6,0,0,0,1.582.879q1.572,0,1.621-2.715ZM68.378,73.2a5.432,5.432,0,0,1-3.936-1.45,5.008,5.008,0,0,1-1.5-3.774V67.7a6.489,6.489,0,0,1,.6-2.861,4.395,4.395,0,0,1,1.753-1.919,5.292,5.292,0,0,1,2.734-.679,4.574,4.574,0,0,1,3.516,1.382,5.43,5.43,0,0,1,1.289,3.853v1.279H66.288a2.372,2.372,0,0,0,.771,1.4,2.3,2.3,0,0,0,1.543.508,2.958,2.958,0,0,0,2.441-1.094l1.5,1.777A4.2,4.2,0,0,1,70.8,72.692,5.891,5.891,0,0,1,68.378,73.2Zm-.371-8.418q-1.445,0-1.719,1.914h3.32v-.254a1.63,1.63,0,0,0-.4-1.226A1.593,1.593,0,0,0,68.007,64.777Zm12.539.635-1.084-.078a1.947,1.947,0,0,0-1.992.977V73H74.179V62.434h3.086l.107,1.357a2.548,2.548,0,0,1,2.314-1.553,3.209,3.209,0,0,1,.918.117ZM85.2,73H81.9V62.434h3.3Zm-3.5-13.3a1.482,1.482,0,0,1,.508-1.159,2.149,2.149,0,0,1,2.637,0,1.577,1.577,0,0,1,0,2.319,2.149,2.149,0,0,1-2.637,0A1.482,1.482,0,0,1,81.708,59.7ZM92.343,73.2a5.432,5.432,0,0,1-3.936-1.45,5.008,5.008,0,0,1-1.5-3.774V67.7a6.489,6.489,0,0,1,.6-2.861,4.395,4.395,0,0,1,1.753-1.919,5.292,5.292,0,0,1,2.734-.679,4.574,4.574,0,0,1,3.516,1.382A5.43,5.43,0,0,1,96.8,67.473v1.279H90.253a2.372,2.372,0,0,0,.771,1.4,2.3,2.3,0,0,0,1.543.508,2.958,2.958,0,0,0,2.441-1.094l1.5,1.777a4.2,4.2,0,0,1-1.743,1.353A5.891,5.891,0,0,1,92.343,73.2Zm-.371-8.418q-1.445,0-1.719,1.914h3.32v-.254a1.63,1.63,0,0,0-.4-1.226A1.593,1.593,0,0,0,91.972,64.777Zm9.17-2.344.107,1.24a3.583,3.583,0,0,1,3.018-1.436,3.015,3.015,0,0,1,2.466.986,4.7,4.7,0,0,1,.845,2.969V73h-3.3V66.33a1.783,1.783,0,0,0-.322-1.177,1.491,1.491,0,0,0-1.172-.376,1.569,1.569,0,0,0-1.436.762V73H98.056V62.434Zm12.725,8.223a1.464,1.464,0,0,0,1.074-.376,1.379,1.379,0,0,0,.371-1.05H118.4a3.653,3.653,0,0,1-1.245,2.852,4.631,4.631,0,0,1-3.208,1.113,4.689,4.689,0,0,1-3.633-1.445,5.7,5.7,0,0,1-1.328-4v-.137a6.436,6.436,0,0,1,.591-2.827,4.3,4.3,0,0,1,1.7-1.885,5.081,5.081,0,0,1,2.637-.659,4.573,4.573,0,0,1,3.271,1.143,4.053,4.053,0,0,1,1.211,3.1h-3.086a1.806,1.806,0,0,0-.4-1.26,1.382,1.382,0,0,0-1.074-.439q-1.279,0-1.494,1.631a11.508,11.508,0,0,0-.068,1.426,4.52,4.52,0,0,0,.381,2.207A1.319,1.319,0,0,0,113.866,70.656ZM123.261,73h-3.3V62.434h3.3Zm-3.5-13.3a1.482,1.482,0,0,1,.508-1.159,2.149,2.149,0,0,1,2.637,0,1.577,1.577,0,0,1,0,2.319,2.149,2.149,0,0,1-2.637,0A1.482,1.482,0,0,1,119.765,59.7ZM131.239,73a3.716,3.716,0,0,1-.312-.947,3.06,3.06,0,0,1-2.539,1.143,3.749,3.749,0,0,1-2.539-.9,2.875,2.875,0,0,1-1.045-2.271,2.955,2.955,0,0,1,1.27-2.6,6.468,6.468,0,0,1,3.691-.879h1.016v-.559q0-1.462-1.26-1.462a1.03,1.03,0,0,0-1.172,1.158h-3.291a2.95,2.95,0,0,1,1.3-2.487,5.479,5.479,0,0,1,3.325-.956,4.8,4.8,0,0,1,3.193.986,3.429,3.429,0,0,1,1.2,2.705v4.678a4.79,4.79,0,0,0,.449,2.227V73Zm-2.061-2.148a1.836,1.836,0,0,0,1.021-.264,1.653,1.653,0,0,0,.581-.6V68.3h-.957q-1.719,0-1.719,1.543a.942.942,0,0,0,.3.728A1.1,1.1,0,0,0,129.179,70.852Zm11.289-3.213a6.455,6.455,0,0,1,1.084-3.955,3.568,3.568,0,0,1,3.027-1.445,3.035,3.035,0,0,1,2.383,1.113V58h3.3V73H147.3l-.166-1.133A3.116,3.116,0,0,1,144.56,73.2a3.562,3.562,0,0,1-2.988-1.445A6.659,6.659,0,0,1,140.468,67.639Zm3.291.205q0,2.813,1.641,2.813a1.62,1.62,0,0,0,1.563-.918V65.715a1.576,1.576,0,0,0-1.543-.937q-1.523,0-1.65,2.461ZM157.245,73.2a5.432,5.432,0,0,1-3.936-1.45,5.008,5.008,0,0,1-1.5-3.774V67.7a6.489,6.489,0,0,1,.6-2.861,4.395,4.395,0,0,1,1.753-1.919,5.292,5.292,0,0,1,2.734-.679,4.574,4.574,0,0,1,3.516,1.382,5.43,5.43,0,0,1,1.289,3.853v1.279h-6.543a2.372,2.372,0,0,0,.771,1.4,2.3,2.3,0,0,0,1.543.508,2.958,2.958,0,0,0,2.441-1.094l1.5,1.777a4.2,4.2,0,0,1-1.743,1.353A5.891,5.891,0,0,1,157.245,73.2Zm-.371-8.418q-1.445,0-1.719,1.914h3.32v-.254a1.63,1.63,0,0,0-.4-1.226A1.593,1.593,0,0,0,156.874,64.777Zm-87.52,34.08a3.393,3.393,0,0,1-2.822,1.338A3.328,3.328,0,0,1,63.9,99.185a4.251,4.251,0,0,1-.894-2.905V89.434H66.3V96.3a1.183,1.183,0,0,0,1.318,1.357,1.72,1.72,0,0,0,1.611-.811V89.434h3.311V100H69.452Zm10.518-1.826a.76.76,0,0,0-.439-.674,6.684,6.684,0,0,0-1.67-.527,7.615,7.615,0,0,1-2.031-.718,3.4,3.4,0,0,1-1.221-1.079,2.577,2.577,0,0,1-.42-1.455,2.92,2.92,0,0,1,1.2-2.4,4.948,4.948,0,0,1,3.145-.942,5.482,5.482,0,0,1,3.359.947,2.962,2.962,0,0,1,1.27,2.49h-3.3q0-1.27-1.338-1.27a1.326,1.326,0,0,0-.869.288.892.892,0,0,0-.352.718.819.819,0,0,0,.43.713,4.06,4.06,0,0,0,1.372.449,11.857,11.857,0,0,1,1.655.42,3.007,3.007,0,0,1,2.383,2.939,2.767,2.767,0,0,1-1.284,2.354,5.631,5.631,0,0,1-3.325.908,5.747,5.747,0,0,1-2.422-.488,4.05,4.05,0,0,1-1.66-1.328,3.007,3.007,0,0,1-.6-1.768h3.076a1.272,1.272,0,0,0,.488,1.069,2.009,2.009,0,0,0,1.2.337,1.58,1.58,0,0,0,1.011-.273A.875.875,0,0,0,79.872,97.031Zm11.006,1.826a3.393,3.393,0,0,1-2.822,1.338,3.328,3.328,0,0,1-2.632-1.011,4.251,4.251,0,0,1-.894-2.905V89.434h3.291V96.3a1.183,1.183,0,0,0,1.318,1.357,1.72,1.72,0,0,0,1.611-.811V89.434h3.311V100H90.976ZM101.815,100a3.716,3.716,0,0,1-.312-.947,3.06,3.06,0,0,1-2.539,1.143,3.749,3.749,0,0,1-2.539-.9,2.875,2.875,0,0,1-1.045-2.271,2.955,2.955,0,0,1,1.27-2.6,6.468,6.468,0,0,1,3.691-.879h1.016v-.559q0-1.462-1.26-1.462a1.03,1.03,0,0,0-1.172,1.158H95.634a2.95,2.95,0,0,1,1.3-2.487,5.479,5.479,0,0,1,3.325-.956,4.8,4.8,0,0,1,3.193.986,3.429,3.429,0,0,1,1.2,2.705v4.678a4.79,4.79,0,0,0,.449,2.227V100Zm-2.061-2.148a1.836,1.836,0,0,0,1.021-.264,1.653,1.653,0,0,0,.581-.6V95.3H100.4q-1.719,0-1.719,1.543a.942.942,0,0,0,.3.728A1.1,1.1,0,0,0,99.755,97.852Zm13.115-5.439-1.084-.078a1.947,1.947,0,0,0-1.992.977V100H106.5V89.434h3.086l.107,1.357a2.548,2.548,0,0,1,2.314-1.553,3.209,3.209,0,0,1,.918.117ZM117.528,100h-3.3V89.434h3.3Zm-3.5-13.3a1.482,1.482,0,0,1,.508-1.159,2.149,2.149,0,0,1,2.637,0,1.577,1.577,0,0,1,0,2.319,2.149,2.149,0,0,1-2.637,0A1.482,1.482,0,0,1,114.032,86.7Zm5.107,7.92a6.236,6.236,0,0,1,.615-2.817,4.4,4.4,0,0,1,1.768-1.9,5.323,5.323,0,0,1,2.705-.664,4.858,4.858,0,0,1,3.74,1.47,5.64,5.64,0,0,1,1.367,4v.117a5.472,5.472,0,0,1-1.372,3.921,4.871,4.871,0,0,1-3.716,1.45,4.927,4.927,0,0,1-3.623-1.353,5.29,5.29,0,0,1-1.475-3.667Zm3.291.205a3.932,3.932,0,0,0,.459,2.148,1.529,1.529,0,0,0,1.357.684q1.758,0,1.8-2.705v-.332q0-2.842-1.816-2.842-1.65,0-1.787,2.451Z" transform="translate(272.186 896.293)" fill="#fff"/>
    <g id="Grupo_901576" data-name="Grupo 901576" transform="translate(775.574 642.82)">
      <g id="Polígono_28-2" data-name="Polígono 28" transform="translate(29.389) rotate(90)" fill="#707070">
        <path d="M 15.3069896697998 13.12977981567383 L 0.8783723711967468 13.12977981567383 L 8.092680931091309 0.9793622493743896 L 15.3069896697998 13.12977981567383 Z" stroke="none"/>
        <path d="M 8.092680931091309 1.958707809448242 L 1.756733894348145 12.62977981567383 L 14.42862796783447 12.62977981567383 L 8.092680931091309 1.958707809448242 M 8.092680931091309 -9.5367431640625e-07 L 16.18536186218262 13.62977981567383 L 0 13.62977981567383 L 8.092680931091309 -9.5367431640625e-07 Z" stroke="none" fill="#707070"/>
      </g>
      <path id="Trazado_183774-3" data-name="Trazado 183774" d="M0,0V64.48" transform="translate(-39.35 8.093) rotate(-90)" fill="none" stroke="#707070" stroke-width="1"/>
    </g>
    <g id="Grupo_901578" data-name="Grupo 901578" transform="translate(776.574 883.858)">
      <g id="Polígono_28-3" data-name="Polígono 28" transform="translate(29.389) rotate(90)" fill="#707070">
        <path d="M 15.3069896697998 13.12977981567383 L 0.8783723711967468 13.12977981567383 L 8.092680931091309 0.9793622493743896 L 15.3069896697998 13.12977981567383 Z" stroke="none"/>
        <path d="M 8.092680931091309 1.958707809448242 L 1.756733894348145 12.62977981567383 L 14.42862796783447 12.62977981567383 L 8.092680931091309 1.958707809448242 M 8.092680931091309 -9.5367431640625e-07 L 16.18536186218262 13.62977981567383 L 0 13.62977981567383 L 8.092680931091309 -9.5367431640625e-07 Z" stroke="none" fill="#707070"/>
      </g>
      <path id="Trazado_183774-4" data-name="Trazado 183774" d="M0,0V64.48" transform="translate(-39.35 8.093) rotate(-90)" fill="none" stroke="#707070" stroke-width="1"/>
    </g>
    <g id="Grupo_901584" data-name="Grupo 901584" transform="translate(1052.616 727.319)">
      <g id="Polígono_28-4" data-name="Polígono 28" transform="translate(29.389) rotate(90)" fill="#707070">
        <path d="M 15.3069896697998 13.12977981567383 L 0.8783723711967468 13.12977981567383 L 8.092680931091309 0.9793622493743896 L 15.3069896697998 13.12977981567383 Z" stroke="none"/>
        <path d="M 8.092680931091309 1.958707809448242 L 1.756733894348145 12.62977981567383 L 14.42862796783447 12.62977981567383 L 8.092680931091309 1.958707809448242 M 8.092680931091309 -9.5367431640625e-07 L 16.18536186218262 13.62977981567383 L 0 13.62977981567383 L 8.092680931091309 -9.5367431640625e-07 Z" stroke="none" fill="#707070"/>
      </g>
      <path id="Trazado_183774-5" data-name="Trazado 183774" d="M0,0V64.48" transform="translate(-39.35 8.093) rotate(-90)" fill="none" stroke="#707070" stroke-width="1"/>
    </g>
    <g id="Grupo_901579" data-name="Grupo 901579" transform="translate(805.129 1044.821)">
      <g id="Polígono_28-5" data-name="Polígono 28" transform="translate(29.389) rotate(90)" fill="#707070">
        <path d="M 15.3069896697998 13.12977981567383 L 0.8783723711967468 13.12977981567383 L 8.092680931091309 0.9793622493743896 L 15.3069896697998 13.12977981567383 Z" stroke="none"/>
        <path d="M 8.092680931091309 1.958707809448242 L 1.756733894348145 12.62977981567383 L 14.42862796783447 12.62977981567383 L 8.092680931091309 1.958707809448242 M 8.092680931091309 -9.5367431640625e-07 L 16.18536186218262 13.62977981567383 L 0 13.62977981567383 L 8.092680931091309 -9.5367431640625e-07 Z" stroke="none" fill="#707070"/>
      </g>
      <path id="Trazado_183774-6" data-name="Trazado 183774" d="M0,0V64.48" transform="translate(-39.35 8.093) rotate(-90)" fill="none" stroke="#707070" stroke-width="1"/>
    </g>
    <g id="Grupo_901581" data-name="Grupo 901581" transform="translate(805.129 1234.913)">
      <g id="Polígono_28-6" data-name="Polígono 28" transform="translate(29.389) rotate(90)" fill="#707070">
        <path d="M 15.3069896697998 13.12977981567383 L 0.8783723711967468 13.12977981567383 L 8.092680931091309 0.9793622493743896 L 15.3069896697998 13.12977981567383 Z" stroke="none"/>
        <path d="M 8.092680931091309 1.958707809448242 L 1.756733894348145 12.62977981567383 L 14.42862796783447 12.62977981567383 L 8.092680931091309 1.958707809448242 M 8.092680931091309 -9.5367431640625e-07 L 16.18536186218262 13.62977981567383 L 0 13.62977981567383 L 8.092680931091309 -9.5367431640625e-07 Z" stroke="none" fill="#707070"/>
      </g>
      <g id="Trazado_629072" data-name="Trazado 629072" transform="translate(1.389) rotate(90)" fill="#707070">
        <path d="M16.185,13.63h0Z" stroke="none"/>
        <path d="M 0 13.62977886199951 L 16.18536186218262 13.62977886199951 L 0 13.62977886199951 Z" stroke="none" fill="#707070"/>
      </g>
      <path id="Trazado_183774-7" data-name="Trazado 183774" d="M0,0V64.48" transform="translate(-39.35 8.093) rotate(-90)" fill="none" stroke="#707070" stroke-width="1"/>
    </g>
    <g id="Grupo_901582" data-name="Grupo 901582" transform="translate(1081.129 486.619)">
      <g id="Polígono_28-7" data-name="Polígono 28" transform="translate(29.389) rotate(90)" fill="#707070">
        <path d="M 15.3069896697998 13.12977981567383 L 0.8783723711967468 13.12977981567383 L 8.092680931091309 0.9793622493743896 L 15.3069896697998 13.12977981567383 Z" stroke="none"/>
        <path d="M 8.092680931091309 1.958707809448242 L 1.756733894348145 12.62977981567383 L 14.42862796783447 12.62977981567383 L 8.092680931091309 1.958707809448242 M 8.092680931091309 -9.5367431640625e-07 L 16.18536186218262 13.62977981567383 L 0 13.62977981567383 L 8.092680931091309 -9.5367431640625e-07 Z" stroke="none" fill="#707070"/>
      </g>
      <path id="Trazado_183774-8" data-name="Trazado 183774" d="M0,0V64.48" transform="translate(-39.35 8.093) rotate(-90)" fill="none" stroke="#707070" stroke-width="1"/>
    </g>
    <path id="Trazado_629077" data-name="Trazado 629077" d="M17,0H204.916a17,17,0,0,1,17,17V57.183a17,17,0,0,1-17,17H17a17,17,0,0,1-17-17V17A17,17,0,0,1,17,0Z" transform="translate(558.779 613.913)" fill="#0b5999"/>
    <path id="Trazado_629079" data-name="Trazado 629079" d="M8.572,18V4.492h4.351a6.4,6.4,0,0,1,3.219.812A5.706,5.706,0,0,1,18.373,7.6a6.919,6.919,0,0,1,.812,3.317v.622A6.959,6.959,0,0,1,18.4,14.86a5.731,5.731,0,0,1-2.208,2.3,6.26,6.26,0,0,1-3.177.84ZM11.828,7.006V15.5H12.96a2.533,2.533,0,0,0,2.152-1,4.887,4.887,0,0,0,.751-2.964v-.584A4.847,4.847,0,0,0,15.112,8a2.577,2.577,0,0,0-2.189-.993ZM24.009,18H20.873V7.962h3.136ZM20.688,5.364a1.408,1.408,0,0,1,.482-1.1,2.041,2.041,0,0,1,2.5,0,1.408,1.408,0,0,1,.482,1.1,1.408,1.408,0,0,1-.482,1.1,2.041,2.041,0,0,1-2.5,0A1.408,1.408,0,0,1,20.688,5.364Zm10.5,9.815a.722.722,0,0,0-.417-.64,6.35,6.35,0,0,0-1.586-.5,7.234,7.234,0,0,1-1.93-.682,3.232,3.232,0,0,1-1.16-1.025,2.448,2.448,0,0,1-.4-1.382,2.774,2.774,0,0,1,1.141-2.278,4.7,4.7,0,0,1,2.987-.9,5.208,5.208,0,0,1,3.191.9,2.814,2.814,0,0,1,1.206,2.366H31.088q0-1.206-1.271-1.206a1.26,1.26,0,0,0-.826.274.847.847,0,0,0-.334.682.778.778,0,0,0,.408.677,3.857,3.857,0,0,0,1.3.427,11.264,11.264,0,0,1,1.573.4A2.857,2.857,0,0,1,34.2,15.087a2.629,2.629,0,0,1-1.22,2.236,5.35,5.35,0,0,1-3.159.863,5.46,5.46,0,0,1-2.3-.464,3.847,3.847,0,0,1-1.577-1.262,2.857,2.857,0,0,1-.566-1.679H28.3a1.208,1.208,0,0,0,.464,1.016,1.908,1.908,0,0,0,1.141.32,1.5,1.5,0,0,0,.96-.26A.831.831,0,0,0,31.19,15.18Zm9.333,3.006a5.16,5.16,0,0,1-3.739-1.378,4.757,4.757,0,0,1-1.429-3.586v-.26a6.165,6.165,0,0,1,.571-2.718,4.175,4.175,0,0,1,1.665-1.823,5.027,5.027,0,0,1,2.6-.645,4.345,4.345,0,0,1,3.34,1.313,5.159,5.159,0,0,1,1.225,3.66v1.215H38.538a2.253,2.253,0,0,0,.733,1.327,2.181,2.181,0,0,0,1.466.482,2.81,2.81,0,0,0,2.319-1.039l1.429,1.688a3.994,3.994,0,0,1-1.656,1.285A5.6,5.6,0,0,1,40.523,18.186Zm-.353-8q-1.373,0-1.633,1.818h3.154v-.241a1.549,1.549,0,0,0-.38-1.164A1.514,1.514,0,0,0,40.17,10.188Zm8.711-2.227.1,1.178A3.4,3.4,0,0,1,51.85,7.776a2.864,2.864,0,0,1,2.343.937,4.461,4.461,0,0,1,.8,2.82V18H51.86V11.664a1.694,1.694,0,0,0-.306-1.118,1.416,1.416,0,0,0-1.113-.357,1.491,1.491,0,0,0-1.364.724V18H45.95V7.962Zm5.186-4.138a2.7,2.7,0,0,1-.617,1.8,1.914,1.914,0,0,1-1.526.738,3.011,3.011,0,0,1-1.364-.39,2.844,2.844,0,0,0-1.215-.39.7.7,0,0,0-.506.2.848.848,0,0,0-.209.631L46.9,6.32a2.719,2.719,0,0,1,.617-1.781,1.892,1.892,0,0,1,1.517-.751,3.131,3.131,0,0,1,1.215.343,7.463,7.463,0,0,0,.951.39,1.837,1.837,0,0,0,.422.047.708.708,0,0,0,.51-.206.852.852,0,0,0,.213-.638Zm2.264,9.064a5.925,5.925,0,0,1,.584-2.677,4.18,4.18,0,0,1,1.679-1.8,5.057,5.057,0,0,1,2.57-.631,4.616,4.616,0,0,1,3.553,1.4,5.358,5.358,0,0,1,1.3,3.8v.111a5.2,5.2,0,0,1-1.3,3.725,4.628,4.628,0,0,1-3.53,1.378A4.681,4.681,0,0,1,57.742,16.9a5.026,5.026,0,0,1-1.4-3.484Zm3.126.195a3.735,3.735,0,0,0,.436,2.041,1.453,1.453,0,0,0,1.29.649q1.67,0,1.707-2.57v-.315q0-2.7-1.726-2.7-1.568,0-1.7,2.329Zm12.274-.176a6.132,6.132,0,0,1,1.03-3.757,3.39,3.39,0,0,1,2.876-1.373A2.883,2.883,0,0,1,77.9,8.834V3.75h3.136V18H78.226l-.158-1.076a2.96,2.96,0,0,1-2.449,1.262,3.383,3.383,0,0,1-2.839-1.373A6.326,6.326,0,0,1,71.732,12.907Zm3.126.195q0,2.672,1.559,2.672A1.539,1.539,0,0,0,77.9,14.9V11.079a1.5,1.5,0,0,0-1.466-.891q-1.447,0-1.568,2.338ZM87.67,18.186a5.16,5.16,0,0,1-3.739-1.378A4.757,4.757,0,0,1,82.5,13.222v-.26a6.165,6.165,0,0,1,.571-2.718,4.175,4.175,0,0,1,1.665-1.823,5.027,5.027,0,0,1,2.6-.645,4.345,4.345,0,0,1,3.34,1.313,5.159,5.159,0,0,1,1.225,3.66v1.215H85.685a2.253,2.253,0,0,0,.733,1.327,2.181,2.181,0,0,0,1.466.482A2.81,2.81,0,0,0,90.2,14.734l1.429,1.688a3.994,3.994,0,0,1-1.656,1.285A5.6,5.6,0,0,1,87.67,18.186Zm-.353-8q-1.373,0-1.633,1.818h3.154v-.241a1.549,1.549,0,0,0-.38-1.164A1.514,1.514,0,0,0,87.318,10.188ZM101.187,18H98.052V7.962h3.136ZM97.866,5.364a1.408,1.408,0,0,1,.482-1.1,2.041,2.041,0,0,1,2.5,0,1.408,1.408,0,0,1,.482,1.1,1.408,1.408,0,0,1-.482,1.1,2.041,2.041,0,0,1-2.5,0A1.408,1.408,0,0,1,97.866,5.364Zm8.118,2.6.1,1.178a3.4,3.4,0,0,1,2.867-1.364,2.864,2.864,0,0,1,2.343.937,4.461,4.461,0,0,1,.8,2.82V18h-3.136V11.664a1.694,1.694,0,0,0-.306-1.118,1.416,1.416,0,0,0-1.113-.357,1.491,1.491,0,0,0-1.364.724V18h-3.126V7.962Zm11.485-2.5v2.5h1.651v2.171h-1.651v4.592a1.172,1.172,0,0,0,.2.789,1.1,1.1,0,0,0,.807.223,4.587,4.587,0,0,0,.779-.056v2.236a5.77,5.77,0,0,1-1.763.269,3.275,3.275,0,0,1-2.384-.761,3.118,3.118,0,0,1-.77-2.31V10.133h-1.28V7.962h1.28v-2.5Zm7.737,12.719a5.16,5.16,0,0,1-3.739-1.378,4.757,4.757,0,0,1-1.429-3.586v-.26a6.165,6.165,0,0,1,.571-2.718,4.175,4.175,0,0,1,1.665-1.823,5.027,5.027,0,0,1,2.6-.645,4.345,4.345,0,0,1,3.34,1.313,5.159,5.159,0,0,1,1.225,3.66v1.215h-6.216a2.253,2.253,0,0,0,.733,1.327,2.181,2.181,0,0,0,1.466.482,2.81,2.81,0,0,0,2.319-1.039l1.429,1.688a3.994,3.994,0,0,1-1.656,1.285A5.6,5.6,0,0,1,125.206,18.186Zm-.353-8q-1.373,0-1.633,1.818h3.154v-.241A1.549,1.549,0,0,0,126,10.6,1.514,1.514,0,0,0,124.854,10.188Zm11.912.6-1.03-.074a1.85,1.85,0,0,0-1.893.928V18h-3.126V7.962h2.932l.1,1.29a2.421,2.421,0,0,1,2.2-1.475,3.049,3.049,0,0,1,.872.111Zm2,7.208V10.133h-1.457V7.962h1.457v-.8A3.468,3.468,0,0,1,139.781,4.5a4,4,0,0,1,2.839-.946,6.217,6.217,0,0,1,1.466.195l.009,2.3a2.856,2.856,0,0,0-.77-.083q-1.419,0-1.419,1.225v.77h1.958v2.171h-1.958V18Zm11.847,0a3.53,3.53,0,0,1-.3-.9,2.907,2.907,0,0,1-2.412,1.085,3.562,3.562,0,0,1-2.412-.858,2.731,2.731,0,0,1-.993-2.157,2.807,2.807,0,0,1,1.206-2.468,6.144,6.144,0,0,1,3.507-.835h.965v-.531q0-1.389-1.2-1.389a.978.978,0,0,0-1.113,1.1h-3.126a2.8,2.8,0,0,1,1.239-2.363,5.2,5.2,0,0,1,3.159-.908,4.563,4.563,0,0,1,3.034.937,3.258,3.258,0,0,1,1.141,2.57v4.444a4.551,4.551,0,0,0,.427,2.115V18Zm-1.958-2.041a1.744,1.744,0,0,0,.969-.25,1.57,1.57,0,0,0,.552-.566v-1.6h-.909q-1.633,0-1.633,1.466a.9.9,0,0,0,.288.691A1.041,1.041,0,0,0,148.66,15.959Zm10.632-.186a1.391,1.391,0,0,0,1.021-.357,1.31,1.31,0,0,0,.353-1H163.6a3.47,3.47,0,0,1-1.183,2.709,4.4,4.4,0,0,1-3.048,1.058,4.455,4.455,0,0,1-3.451-1.373,5.41,5.41,0,0,1-1.262-3.8v-.13a6.114,6.114,0,0,1,.561-2.686A4.087,4.087,0,0,1,156.833,8.4a4.827,4.827,0,0,1,2.5-.626,4.344,4.344,0,0,1,3.108,1.085A3.85,3.85,0,0,1,163.6,11.8h-2.932a1.716,1.716,0,0,0-.38-1.2,1.313,1.313,0,0,0-1.021-.417q-1.215,0-1.419,1.549a10.933,10.933,0,0,0-.065,1.354,4.294,4.294,0,0,0,.362,2.1A1.253,1.253,0,0,0,159.291,15.773Zm10.483,2.412a5.16,5.16,0,0,1-3.739-1.378,4.758,4.758,0,0,1-1.429-3.586v-.26a6.165,6.165,0,0,1,.571-2.718,4.175,4.175,0,0,1,1.665-1.823,5.027,5.027,0,0,1,2.6-.645,4.345,4.345,0,0,1,3.34,1.313,5.159,5.159,0,0,1,1.225,3.66v1.215h-6.216a2.253,2.253,0,0,0,.733,1.327,2.181,2.181,0,0,0,1.466.482,2.81,2.81,0,0,0,2.319-1.039l1.429,1.688a3.994,3.994,0,0,1-1.656,1.285A5.6,5.6,0,0,1,169.775,18.186Zm-.353-8q-1.373,0-1.633,1.818h3.154v-.241a1.549,1.549,0,0,0-.38-1.164A1.514,1.514,0,0,0,169.422,10.188Zm11.1,4.991a.722.722,0,0,0-.417-.64,6.35,6.35,0,0,0-1.586-.5,7.234,7.234,0,0,1-1.93-.682,3.232,3.232,0,0,1-1.16-1.025,2.448,2.448,0,0,1-.4-1.382,2.774,2.774,0,0,1,1.141-2.278,4.7,4.7,0,0,1,2.987-.9,5.208,5.208,0,0,1,3.191.9,2.814,2.814,0,0,1,1.206,2.366h-3.136q0-1.206-1.271-1.206a1.26,1.26,0,0,0-.826.274.847.847,0,0,0-.334.682.778.778,0,0,0,.408.677,3.857,3.857,0,0,0,1.3.427,11.264,11.264,0,0,1,1.573.4,2.857,2.857,0,0,1,2.264,2.792,2.629,2.629,0,0,1-1.22,2.236,5.35,5.35,0,0,1-3.159.863,5.46,5.46,0,0,1-2.3-.464,3.847,3.847,0,0,1-1.577-1.262,2.857,2.857,0,0,1-.566-1.679h2.922A1.208,1.208,0,0,0,178.1,15.8a1.908,1.908,0,0,0,1.141.32,1.5,1.5,0,0,0,.96-.26A.831.831,0,0,0,180.518,15.18Z" transform="translate(573.779 639.913)" fill="#fff"/>
    <path id="Trazado_629078" data-name="Trazado 629078" d="M17,0H204.916a17,17,0,0,1,17,17V57.183a17,17,0,0,1-17,17H17a17,17,0,0,1-17-17V17A17,17,0,0,1,17,0Z" transform="translate(558.779 854.913)" fill="#0b5999"/>
    <path id="Trazado_629080" data-name="Trazado 629080" d="M17.58,13.417V18H14.324V4.492h5.39a6.278,6.278,0,0,1,2.741.571A4.3,4.3,0,0,1,24.3,6.686a4.434,4.434,0,0,1,.654,2.389,3.909,3.909,0,0,1-1.415,3.159,5.87,5.87,0,0,1-3.883,1.183Zm0-2.514h2.134a2.012,2.012,0,0,0,1.443-.473,1.758,1.758,0,0,0,.5-1.336,2.173,2.173,0,0,0-.51-1.512,1.807,1.807,0,0,0-1.392-.575H17.58ZM32.1,18a3.53,3.53,0,0,1-.3-.9,2.907,2.907,0,0,1-2.412,1.085,3.562,3.562,0,0,1-2.412-.858,2.731,2.731,0,0,1-.993-2.157A2.807,2.807,0,0,1,27.191,12.7a6.144,6.144,0,0,1,3.507-.835h.965v-.531q0-1.389-1.2-1.389a.978.978,0,0,0-1.113,1.1H26.226a2.8,2.8,0,0,1,1.239-2.363,5.2,5.2,0,0,1,3.159-.908,4.563,4.563,0,0,1,3.034.937,3.258,3.258,0,0,1,1.141,2.57v4.444a4.551,4.551,0,0,0,.427,2.115V18Zm-1.958-2.041a1.744,1.744,0,0,0,.969-.25,1.57,1.57,0,0,0,.552-.566v-1.6h-.909q-1.633,0-1.633,1.466a.9.9,0,0,0,.288.691A1.041,1.041,0,0,0,30.142,15.959ZM40.17,5.466v2.5h1.651v2.171H40.17v4.592a1.173,1.173,0,0,0,.2.789,1.1,1.1,0,0,0,.807.223,4.586,4.586,0,0,0,.779-.056v2.236a5.77,5.77,0,0,1-1.763.269,3.275,3.275,0,0,1-2.384-.761,3.118,3.118,0,0,1-.77-2.31V10.133h-1.28V7.962h1.28v-2.5Zm8.953,5.325-1.03-.074a1.85,1.85,0,0,0-1.893.928V18H43.074V7.962h2.932l.1,1.29a2.421,2.421,0,0,1,2.2-1.475,3.049,3.049,0,0,1,.872.111Zm.4,2.1a5.925,5.925,0,0,1,.584-2.677,4.18,4.18,0,0,1,1.679-1.8,5.057,5.057,0,0,1,2.57-.631,4.616,4.616,0,0,1,3.553,1.4,5.358,5.358,0,0,1,1.3,3.8v.111a5.2,5.2,0,0,1-1.3,3.725,4.628,4.628,0,0,1-3.53,1.378A4.681,4.681,0,0,1,50.932,16.9a5.026,5.026,0,0,1-1.4-3.484Zm3.126.195a3.735,3.735,0,0,0,.436,2.041,1.453,1.453,0,0,0,1.29.649q1.67,0,1.707-2.57v-.315q0-2.7-1.726-2.7-1.568,0-1.7,2.329ZM63.456,7.962l.1,1.178a3.4,3.4,0,0,1,2.867-1.364,2.864,2.864,0,0,1,2.343.937,4.461,4.461,0,0,1,.8,2.82V18H66.434V11.664a1.694,1.694,0,0,0-.306-1.118,1.416,1.416,0,0,0-1.113-.357,1.491,1.491,0,0,0-1.364.724V18H60.525V7.962Zm12.7,10.224a5.16,5.16,0,0,1-3.739-1.378,4.757,4.757,0,0,1-1.429-3.586v-.26a6.165,6.165,0,0,1,.571-2.718,4.175,4.175,0,0,1,1.665-1.823,5.027,5.027,0,0,1,2.6-.645,4.345,4.345,0,0,1,3.34,1.313,5.159,5.159,0,0,1,1.225,3.66v1.215H74.172a2.253,2.253,0,0,0,.733,1.327,2.181,2.181,0,0,0,1.466.482,2.81,2.81,0,0,0,2.319-1.039l1.429,1.688a3.994,3.994,0,0,1-1.656,1.285A5.6,5.6,0,0,1,76.157,18.186Zm-.353-8q-1.373,0-1.633,1.818h3.154v-.241a1.549,1.549,0,0,0-.38-1.164A1.514,1.514,0,0,0,75.8,10.188ZM86.9,15.18a.722.722,0,0,0-.417-.64,6.35,6.35,0,0,0-1.586-.5,7.234,7.234,0,0,1-1.93-.682,3.232,3.232,0,0,1-1.16-1.025,2.448,2.448,0,0,1-.4-1.382,2.774,2.774,0,0,1,1.141-2.278,4.7,4.7,0,0,1,2.987-.9,5.208,5.208,0,0,1,3.191.9,2.814,2.814,0,0,1,1.206,2.366H86.8q0-1.206-1.271-1.206a1.26,1.26,0,0,0-.826.274.847.847,0,0,0-.334.682.778.778,0,0,0,.408.677,3.857,3.857,0,0,0,1.3.427,11.264,11.264,0,0,1,1.573.4,2.857,2.857,0,0,1,2.264,2.792,2.629,2.629,0,0,1-1.22,2.236,5.35,5.35,0,0,1-3.159.863,5.46,5.46,0,0,1-2.3-.464,3.847,3.847,0,0,1-1.577-1.262,2.857,2.857,0,0,1-.566-1.679h2.922a1.208,1.208,0,0,0,.464,1.016,1.908,1.908,0,0,0,1.141.32,1.5,1.5,0,0,0,.96-.26A.831.831,0,0,0,86.9,15.18Zm8.813-2.273a6.132,6.132,0,0,1,1.03-3.757A3.39,3.39,0,0,1,99.62,7.776a2.883,2.883,0,0,1,2.264,1.058V3.75h3.136V18h-2.811l-.158-1.076A2.96,2.96,0,0,1,99.6,18.186a3.383,3.383,0,0,1-2.839-1.373A6.326,6.326,0,0,1,95.714,12.907Zm3.126.195q0,2.672,1.559,2.672a1.539,1.539,0,0,0,1.484-.872V11.079a1.5,1.5,0,0,0-1.466-.891q-1.447,0-1.568,2.338Zm12.812,5.084a5.16,5.16,0,0,1-3.739-1.378,4.757,4.757,0,0,1-1.429-3.586v-.26a6.165,6.165,0,0,1,.571-2.718,4.175,4.175,0,0,1,1.665-1.823,5.027,5.027,0,0,1,2.6-.645,4.345,4.345,0,0,1,3.34,1.313,5.159,5.159,0,0,1,1.225,3.66v1.215h-6.216a2.253,2.253,0,0,0,.733,1.327,2.181,2.181,0,0,0,1.466.482,2.81,2.81,0,0,0,2.319-1.039l1.429,1.688a3.994,3.994,0,0,1-1.656,1.285A5.6,5.6,0,0,1,111.652,18.186Zm-.353-8q-1.373,0-1.633,1.818h3.154v-.241a1.549,1.549,0,0,0-.38-1.164A1.514,1.514,0,0,0,111.3,10.188Zm10.177,2.718a6.132,6.132,0,0,1,1.03-3.757,3.39,3.39,0,0,1,2.876-1.373,2.883,2.883,0,0,1,2.264,1.058V3.75h3.136V18h-2.811l-.158-1.076a2.96,2.96,0,0,1-2.449,1.262,3.383,3.383,0,0,1-2.839-1.373A6.326,6.326,0,0,1,121.477,12.907Zm3.126.195q0,2.672,1.559,2.672a1.539,1.539,0,0,0,1.484-.872V11.079a1.5,1.5,0,0,0-1.466-.891q-1.447,0-1.568,2.338ZM135.857,18h-3.136V7.962h3.136ZM132.536,5.364a1.408,1.408,0,0,1,.482-1.1,2.041,2.041,0,0,1,2.5,0,1.408,1.408,0,0,1,.482,1.1,1.408,1.408,0,0,1-.482,1.1,2.041,2.041,0,0,1-2.5,0A1.408,1.408,0,0,1,132.536,5.364Zm10.5,9.815a.722.722,0,0,0-.417-.64,6.35,6.35,0,0,0-1.586-.5,7.234,7.234,0,0,1-1.93-.682,3.232,3.232,0,0,1-1.16-1.025,2.448,2.448,0,0,1-.4-1.382,2.774,2.774,0,0,1,1.141-2.278,4.7,4.7,0,0,1,2.987-.9,5.208,5.208,0,0,1,3.191.9,2.814,2.814,0,0,1,1.206,2.366h-3.136q0-1.206-1.271-1.206a1.26,1.26,0,0,0-.826.274.847.847,0,0,0-.334.682.778.778,0,0,0,.408.677,3.857,3.857,0,0,0,1.3.427,11.264,11.264,0,0,1,1.573.4,2.857,2.857,0,0,1,2.264,2.792,2.629,2.629,0,0,1-1.22,2.236,5.35,5.35,0,0,1-3.159.863,5.46,5.46,0,0,1-2.3-.464A3.847,3.847,0,0,1,137.8,16.46a2.857,2.857,0,0,1-.566-1.679h2.922a1.208,1.208,0,0,0,.464,1.016,1.908,1.908,0,0,0,1.141.32,1.5,1.5,0,0,0,.96-.26A.831.831,0,0,0,143.038,15.18Zm9.333,3.006a5.16,5.16,0,0,1-3.739-1.378,4.758,4.758,0,0,1-1.429-3.586v-.26a6.165,6.165,0,0,1,.571-2.718,4.175,4.175,0,0,1,1.665-1.823,5.027,5.027,0,0,1,2.6-.645,4.345,4.345,0,0,1,3.34,1.313,5.159,5.159,0,0,1,1.225,3.66v1.215h-6.216a2.253,2.253,0,0,0,.733,1.327,2.181,2.181,0,0,0,1.466.482,2.81,2.81,0,0,0,2.319-1.039l1.429,1.688a3.994,3.994,0,0,1-1.656,1.285A5.6,5.6,0,0,1,152.371,18.186Zm-.353-8q-1.373,0-1.633,1.818h3.154v-.241a1.549,1.549,0,0,0-.38-1.164A1.514,1.514,0,0,0,152.018,10.188Zm8.711-2.227.1,1.178A3.4,3.4,0,0,1,163.7,7.776a2.864,2.864,0,0,1,2.343.937,4.461,4.461,0,0,1,.8,2.82V18h-3.136V11.664a1.694,1.694,0,0,0-.306-1.118,1.416,1.416,0,0,0-1.113-.357,1.491,1.491,0,0,0-1.364.724V18H157.8V7.962Zm5.186-4.138a2.7,2.7,0,0,1-.617,1.8,1.914,1.914,0,0,1-1.526.738,3.011,3.011,0,0,1-1.364-.39,2.844,2.844,0,0,0-1.215-.39.7.7,0,0,0-.506.2.848.848,0,0,0-.209.631l-1.735-.093a2.719,2.719,0,0,1,.617-1.781,1.892,1.892,0,0,1,1.517-.751,3.131,3.131,0,0,1,1.215.343,7.463,7.463,0,0,0,.951.39,1.837,1.837,0,0,0,.422.047.708.708,0,0,0,.51-.206.851.851,0,0,0,.213-.638Zm2.264,9.064a5.925,5.925,0,0,1,.584-2.677,4.18,4.18,0,0,1,1.679-1.8,5.057,5.057,0,0,1,2.57-.631,4.616,4.616,0,0,1,3.553,1.4,5.358,5.358,0,0,1,1.3,3.8v.111a5.2,5.2,0,0,1-1.3,3.725,4.628,4.628,0,0,1-3.53,1.378,4.681,4.681,0,0,1-3.442-1.285,5.026,5.026,0,0,1-1.4-3.484Zm3.126.195a3.735,3.735,0,0,0,.436,2.041,1.453,1.453,0,0,0,1.29.649q1.67,0,1.707-2.57v-.315q0-2.7-1.726-2.7-1.568,0-1.7,2.329Z" transform="translate(573.779 880.913)" fill="#fff"/>
    <path id="Trazado_629082" data-name="Trazado 629082" d="M17,0H204.916a17,17,0,0,1,17,17V57.183a17,17,0,0,1-17,17H17a17,17,0,0,1-17-17V17A17,17,0,0,1,17,0Z" transform="translate(558.779 1015.913)" fill="#0b5999"/>
    <path id="Trazado_629084" data-name="Trazado 629084" d="M48.631,13.417V18H45.375V4.492h5.39a6.278,6.278,0,0,1,2.741.571,4.3,4.3,0,0,1,1.846,1.624,4.434,4.434,0,0,1,.654,2.389,3.909,3.909,0,0,1-1.415,3.159,5.87,5.87,0,0,1-3.883,1.183Zm0-2.514h2.134a2.012,2.012,0,0,0,1.443-.473,1.758,1.758,0,0,0,.5-1.336,2.173,2.173,0,0,0-.51-1.512A1.807,1.807,0,0,0,50.8,7.006H48.631ZM63.15,18a3.53,3.53,0,0,1-.3-.9,2.907,2.907,0,0,1-2.412,1.085,3.562,3.562,0,0,1-2.412-.858,2.731,2.731,0,0,1-.993-2.157A2.807,2.807,0,0,1,58.243,12.7a6.144,6.144,0,0,1,3.507-.835h.965v-.531q0-1.389-1.2-1.389a.978.978,0,0,0-1.113,1.1H57.278a2.8,2.8,0,0,1,1.239-2.363,5.2,5.2,0,0,1,3.159-.908,4.563,4.563,0,0,1,3.034.937,3.258,3.258,0,0,1,1.141,2.57v4.444a4.551,4.551,0,0,0,.427,2.115V18Zm-1.958-2.041a1.744,1.744,0,0,0,.969-.25,1.57,1.57,0,0,0,.552-.566v-1.6h-.909q-1.633,0-1.633,1.466a.9.9,0,0,0,.288.691A1.041,1.041,0,0,0,61.193,15.959ZM71.222,5.466v2.5h1.651v2.171H71.222v4.592a1.172,1.172,0,0,0,.2.789,1.1,1.1,0,0,0,.807.223,4.587,4.587,0,0,0,.779-.056v2.236a5.77,5.77,0,0,1-1.763.269,3.275,3.275,0,0,1-2.384-.761,3.118,3.118,0,0,1-.77-2.31V10.133h-1.28V7.962H68.1v-2.5Zm8.953,5.325-1.03-.074a1.85,1.85,0,0,0-1.893.928V18H74.125V7.962h2.932l.1,1.29a2.421,2.421,0,0,1,2.2-1.475,3.049,3.049,0,0,1,.872.111Zm.4,2.1a5.925,5.925,0,0,1,.584-2.677,4.18,4.18,0,0,1,1.679-1.8,5.057,5.057,0,0,1,2.57-.631,4.616,4.616,0,0,1,3.553,1.4,5.358,5.358,0,0,1,1.3,3.8v.111a5.2,5.2,0,0,1-1.3,3.725,4.628,4.628,0,0,1-3.53,1.378A4.681,4.681,0,0,1,81.983,16.9a5.026,5.026,0,0,1-1.4-3.484Zm3.126.195a3.735,3.735,0,0,0,.436,2.041,1.453,1.453,0,0,0,1.29.649q1.67,0,1.707-2.57v-.315q0-2.7-1.726-2.7-1.568,0-1.7,2.329ZM94.508,7.962l.1,1.178a3.4,3.4,0,0,1,2.867-1.364,2.864,2.864,0,0,1,2.343.937,4.461,4.461,0,0,1,.8,2.82V18H97.486V11.664a1.694,1.694,0,0,0-.306-1.118,1.416,1.416,0,0,0-1.113-.357,1.491,1.491,0,0,0-1.364.724V18H91.576V7.962Zm12.7,10.224a5.16,5.16,0,0,1-3.739-1.378,4.757,4.757,0,0,1-1.429-3.586v-.26a6.165,6.165,0,0,1,.571-2.718,4.175,4.175,0,0,1,1.665-1.823,5.027,5.027,0,0,1,2.6-.645,4.345,4.345,0,0,1,3.34,1.313,5.159,5.159,0,0,1,1.225,3.66v1.215h-6.216a2.253,2.253,0,0,0,.733,1.327,2.181,2.181,0,0,0,1.466.482,2.81,2.81,0,0,0,2.319-1.039l1.429,1.688a3.994,3.994,0,0,1-1.656,1.285A5.6,5.6,0,0,1,107.208,18.186Zm-.353-8q-1.373,0-1.633,1.818h3.154v-.241A1.549,1.549,0,0,0,108,10.6,1.514,1.514,0,0,0,106.856,10.188Zm11.1,4.991a.722.722,0,0,0-.417-.64,6.35,6.35,0,0,0-1.586-.5,7.234,7.234,0,0,1-1.93-.682,3.232,3.232,0,0,1-1.16-1.025,2.448,2.448,0,0,1-.4-1.382A2.774,2.774,0,0,1,113.6,8.672a4.7,4.7,0,0,1,2.987-.9,5.208,5.208,0,0,1,3.191.9,2.814,2.814,0,0,1,1.206,2.366H117.85q0-1.206-1.271-1.206a1.26,1.26,0,0,0-.826.274.847.847,0,0,0-.334.682.778.778,0,0,0,.408.677,3.857,3.857,0,0,0,1.3.427,11.264,11.264,0,0,1,1.573.4,2.857,2.857,0,0,1,2.264,2.792,2.629,2.629,0,0,1-1.22,2.236,5.35,5.35,0,0,1-3.159.863,5.46,5.46,0,0,1-2.3-.464,3.847,3.847,0,0,1-1.577-1.262,2.857,2.857,0,0,1-.566-1.679h2.922a1.208,1.208,0,0,0,.464,1.016,1.908,1.908,0,0,0,1.141.32,1.5,1.5,0,0,0,.96-.26A.831.831,0,0,0,117.952,15.18Zm8.813-2.273a6.132,6.132,0,0,1,1.03-3.757,3.39,3.39,0,0,1,2.876-1.373,2.883,2.883,0,0,1,2.264,1.058V3.75h3.136V18h-2.811l-.158-1.076a2.96,2.96,0,0,1-2.449,1.262,3.383,3.383,0,0,1-2.839-1.373A6.326,6.326,0,0,1,126.765,12.907Zm3.126.195q0,2.672,1.559,2.672a1.539,1.539,0,0,0,1.484-.872V11.079a1.5,1.5,0,0,0-1.466-.891q-1.447,0-1.568,2.338ZM142.7,18.186a5.16,5.16,0,0,1-3.739-1.378,4.758,4.758,0,0,1-1.429-3.586v-.26a6.165,6.165,0,0,1,.571-2.718,4.175,4.175,0,0,1,1.665-1.823,5.027,5.027,0,0,1,2.6-.645,4.345,4.345,0,0,1,3.34,1.313,5.159,5.159,0,0,1,1.225,3.66v1.215h-6.216a2.253,2.253,0,0,0,.733,1.327,2.181,2.181,0,0,0,1.466.482,2.81,2.81,0,0,0,2.319-1.039l1.429,1.688a3.994,3.994,0,0,1-1.656,1.285A5.6,5.6,0,0,1,142.7,18.186Zm-.353-8q-1.373,0-1.633,1.818h3.154v-.241a1.549,1.549,0,0,0-.38-1.164A1.514,1.514,0,0,0,142.351,10.188ZM39.813,34.962l.1,1.178a3.4,3.4,0,0,1,2.867-1.364,2.864,2.864,0,0,1,2.343.937,4.461,4.461,0,0,1,.8,2.82V45H42.791V38.664a1.694,1.694,0,0,0-.306-1.118,1.416,1.416,0,0,0-1.113-.357,1.491,1.491,0,0,0-1.364.724V45H36.882V34.962ZM53.312,45a3.53,3.53,0,0,1-.3-.9A2.907,2.907,0,0,1,50.6,45.186a3.562,3.562,0,0,1-2.412-.858A2.731,2.731,0,0,1,47.2,42.17,2.807,2.807,0,0,1,48.4,39.7a6.144,6.144,0,0,1,3.507-.835h.965v-.531q0-1.389-1.2-1.389a.978.978,0,0,0-1.113,1.1H47.439a2.8,2.8,0,0,1,1.239-2.363,5.2,5.2,0,0,1,3.159-.908,4.563,4.563,0,0,1,3.034.937,3.258,3.258,0,0,1,1.141,2.57v4.444a4.551,4.551,0,0,0,.427,2.115V45Zm-1.958-2.041a1.744,1.744,0,0,0,.969-.25,1.57,1.57,0,0,0,.552-.566v-1.6h-.909q-1.633,0-1.633,1.466a.9.9,0,0,0,.288.691A1.041,1.041,0,0,0,51.354,42.959ZM61.606,41.28l1.586-6.318h3.293L63.211,45H60.019L56.744,34.962h3.3Zm10.548,3.906a5.16,5.16,0,0,1-3.739-1.378,4.757,4.757,0,0,1-1.429-3.586v-.26a6.165,6.165,0,0,1,.571-2.718,4.175,4.175,0,0,1,1.665-1.823,5.027,5.027,0,0,1,2.6-.645,4.345,4.345,0,0,1,3.34,1.313,5.159,5.159,0,0,1,1.225,3.66v1.215H70.169a2.253,2.253,0,0,0,.733,1.327,2.181,2.181,0,0,0,1.466.482,2.81,2.81,0,0,0,2.319-1.039l1.429,1.688a3.994,3.994,0,0,1-1.656,1.285A5.6,5.6,0,0,1,72.154,45.186Zm-.353-8q-1.373,0-1.633,1.818h3.154v-.241a1.549,1.549,0,0,0-.38-1.164A1.514,1.514,0,0,0,71.8,37.188Zm5.474,2.718a6.778,6.778,0,0,1,.5-2.69,4.033,4.033,0,0,1,1.438-1.8,3.791,3.791,0,0,1,2.18-.635,3.014,3.014,0,0,1,2.449,1.058l.111-.872h2.839V44.62a4.232,4.232,0,0,1-.617,2.305,3.959,3.959,0,0,1-1.786,1.5,6.564,6.564,0,0,1-2.709.524,5.663,5.663,0,0,1-2.138-.417,3.86,3.86,0,0,1-1.582-1.085l1.308-1.837a2.867,2.867,0,0,0,2.3,1.03,1.862,1.862,0,0,0,2.078-2.134v-.315a2.936,2.936,0,0,1-2.273.993,3.628,3.628,0,0,1-2.969-1.406,5.823,5.823,0,0,1-1.132-3.762Zm3.136.195a3.571,3.571,0,0,0,.464,1.953,1.464,1.464,0,0,0,1.3.719,1.661,1.661,0,0,0,1.475-.677V37.875a1.619,1.619,0,0,0-1.457-.687,1.473,1.473,0,0,0-1.308.747A4.072,4.072,0,0,0,80.411,40.1ZM94.225,45a3.53,3.53,0,0,1-.3-.9,2.907,2.907,0,0,1-2.412,1.085,3.562,3.562,0,0,1-2.412-.858,2.731,2.731,0,0,1-.993-2.157A2.807,2.807,0,0,1,89.317,39.7a6.144,6.144,0,0,1,3.507-.835h.965v-.531q0-1.389-1.2-1.389a.978.978,0,0,0-1.113,1.1H88.352a2.8,2.8,0,0,1,1.239-2.363,5.2,5.2,0,0,1,3.159-.908,4.563,4.563,0,0,1,3.034.937,3.258,3.258,0,0,1,1.141,2.57v4.444a4.551,4.551,0,0,0,.427,2.115V45Zm-1.958-2.041a1.744,1.744,0,0,0,.969-.25,1.57,1.57,0,0,0,.552-.566v-1.6H92.88q-1.633,0-1.633,1.466a.9.9,0,0,0,.288.691A1.041,1.041,0,0,0,92.267,42.959Zm15.707-2.895a6.118,6.118,0,0,1-1.021,3.794,3.418,3.418,0,0,1-2.876,1.327,2.966,2.966,0,0,1-2.468-1.215L101.48,45h-2.8V30.75H101.8v5.019a2.862,2.862,0,0,1,2.254-.993,3.419,3.419,0,0,1,2.895,1.345,6.15,6.15,0,0,1,1.021,3.785Zm-3.136-.2a4.081,4.081,0,0,0-.385-2.061,1.3,1.3,0,0,0-1.183-.616,1.5,1.5,0,0,0-1.466.806v3.983a1.505,1.505,0,0,0,1.484.8,1.328,1.328,0,0,0,1.4-1.074A7.715,7.715,0,0,0,104.838,39.865ZM112.65,45h-3.136V34.962h3.136Zm-3.321-12.636a1.408,1.408,0,0,1,.482-1.1,2.041,2.041,0,0,1,2.5,0,1.5,1.5,0,0,1,0,2.2,2.041,2.041,0,0,1-2.5,0A1.408,1.408,0,0,1,109.328,32.364ZM117.873,45h-3.136V30.75h3.136Zm5.223,0H119.96V34.962H123.1Zm-3.321-12.636a1.408,1.408,0,0,1,.482-1.1,2.041,2.041,0,0,1,2.5,0,1.5,1.5,0,0,1,0,2.2,2.041,2.041,0,0,1-2.5,0A1.408,1.408,0,0,1,119.775,32.364Zm4.852,7.542a6.132,6.132,0,0,1,1.03-3.757,3.39,3.39,0,0,1,2.876-1.373,2.883,2.883,0,0,1,2.264,1.058V30.75h3.136V45h-2.811l-.158-1.076a2.96,2.96,0,0,1-2.449,1.262,3.383,3.383,0,0,1-2.839-1.373A6.326,6.326,0,0,1,124.627,39.907Zm3.126.195q0,2.672,1.559,2.672A1.539,1.539,0,0,0,130.8,41.9V38.079a1.5,1.5,0,0,0-1.466-.891q-1.447,0-1.568,2.338Zm13.61,4.9a3.53,3.53,0,0,1-.3-.9,2.907,2.907,0,0,1-2.412,1.085,3.562,3.562,0,0,1-2.412-.858,2.731,2.731,0,0,1-.993-2.157,2.807,2.807,0,0,1,1.206-2.468,6.144,6.144,0,0,1,3.507-.835h.965v-.531q0-1.389-1.2-1.389a.978.978,0,0,0-1.113,1.1H135.49a2.8,2.8,0,0,1,1.239-2.363,5.2,5.2,0,0,1,3.159-.908,4.563,4.563,0,0,1,3.034.937,3.258,3.258,0,0,1,1.141,2.57v4.444a4.551,4.551,0,0,0,.427,2.115V45Zm-1.958-2.041a1.744,1.744,0,0,0,.969-.25,1.57,1.57,0,0,0,.552-.566v-1.6h-.909q-1.633,0-1.633,1.466a.9.9,0,0,0,.288.691A1.041,1.041,0,0,0,139.405,42.959Zm5.993-3.052a6.132,6.132,0,0,1,1.03-3.757,3.39,3.39,0,0,1,2.876-1.373,2.883,2.883,0,0,1,2.264,1.058V30.75H154.7V45h-2.811l-.158-1.076a2.96,2.96,0,0,1-2.449,1.262,3.383,3.383,0,0,1-2.839-1.373A6.326,6.326,0,0,1,145.4,39.907Zm3.126.195q0,2.672,1.559,2.672a1.539,1.539,0,0,0,1.484-.872V38.079a1.5,1.5,0,0,0-1.466-.891q-1.447,0-1.568,2.338Z" transform="translate(573.779 1027.913)" fill="#fff"/>
    <path id="Trazado_629085" data-name="Trazado 629085" d="M17,0H204.916a17,17,0,0,1,17,17V57.183a17,17,0,0,1-17,17H17a17,17,0,0,1-17-17V17A17,17,0,0,1,17,0Z" transform="translate(558.779 1205.913)" fill="#0b5999"/>
    <path id="Trazado_629086" data-name="Trazado 629086" d="M48.163,13.426a4.933,4.933,0,0,1-.761,2.491,4.591,4.591,0,0,1-1.953,1.675,6.647,6.647,0,0,1-2.871.594,5.3,5.3,0,0,1-4.193-1.735,7.163,7.163,0,0,1-1.531-4.9v-.668a8.176,8.176,0,0,1,.691-3.474,5.237,5.237,0,0,1,1.99-2.3A5.552,5.552,0,0,1,42.541,4.3a5.822,5.822,0,0,1,3.952,1.294,5.113,5.113,0,0,1,1.7,3.567H44.944a2.419,2.419,0,0,0-.622-1.772,2.556,2.556,0,0,0-1.781-.538,1.945,1.945,0,0,0-1.781.909,5.843,5.843,0,0,0-.594,2.9v.956a6.466,6.466,0,0,0,.543,3.089,1.986,1.986,0,0,0,1.869.928,2.5,2.5,0,0,0,1.716-.529,2.244,2.244,0,0,0,.631-1.679Zm1-.538a5.925,5.925,0,0,1,.584-2.677,4.18,4.18,0,0,1,1.679-1.8A5.057,5.057,0,0,1,54,7.776a4.616,4.616,0,0,1,3.553,1.4,5.358,5.358,0,0,1,1.3,3.8v.111a5.2,5.2,0,0,1-1.3,3.725,4.628,4.628,0,0,1-3.53,1.378A4.681,4.681,0,0,1,50.575,16.9a5.026,5.026,0,0,1-1.4-3.484Zm3.126.195a3.735,3.735,0,0,0,.436,2.041,1.453,1.453,0,0,0,1.29.649q1.67,0,1.707-2.57v-.315q0-2.7-1.726-2.7-1.568,0-1.7,2.329ZM63.183,7.962l.1,1.178a3.451,3.451,0,0,1,2.867-1.364,2.541,2.541,0,0,1,2.57,1.512,3.341,3.341,0,0,1,2.95-1.512q3.052,0,3.136,3.692V18H71.672V11.664a1.914,1.914,0,0,0-.26-1.123,1.106,1.106,0,0,0-.946-.353,1.481,1.481,0,0,0-1.382.826l.009.13V18H65.957V11.682a2.011,2.011,0,0,0-.25-1.141,1.1,1.1,0,0,0-.956-.353,1.5,1.5,0,0,0-1.373.826V18H60.251V7.962Zm22.729,5.093a6.053,6.053,0,0,1-1.053,3.734,3.376,3.376,0,0,1-2.844,1.4,2.894,2.894,0,0,1-2.273-1.011v4.685H76.616V7.962h2.922l.093.928A2.894,2.894,0,0,1,82,7.776a3.4,3.4,0,0,1,2.885,1.368,6.128,6.128,0,0,1,1.03,3.762Zm-3.126-.195q0-2.672-1.559-2.672a1.471,1.471,0,0,0-1.484.8v3.952a1.519,1.519,0,0,0,1.5.835q1.494,0,1.54-2.579Zm4.11.028a5.925,5.925,0,0,1,.584-2.677,4.18,4.18,0,0,1,1.679-1.8,5.057,5.057,0,0,1,2.57-.631,4.616,4.616,0,0,1,3.553,1.4,5.358,5.358,0,0,1,1.3,3.8v.111a5.2,5.2,0,0,1-1.3,3.725,4.628,4.628,0,0,1-3.53,1.378A4.681,4.681,0,0,1,88.306,16.9a5.026,5.026,0,0,1-1.4-3.484Zm3.126.195a3.735,3.735,0,0,0,.436,2.041,1.453,1.453,0,0,0,1.29.649q1.67,0,1.707-2.57v-.315q0-2.7-1.726-2.7-1.568,0-1.7,2.329ZM100.83,7.962l.1,1.178A3.4,3.4,0,0,1,103.8,7.776a2.864,2.864,0,0,1,2.343.937,4.461,4.461,0,0,1,.8,2.82V18h-3.136V11.664a1.694,1.694,0,0,0-.306-1.118,1.416,1.416,0,0,0-1.113-.357,1.491,1.491,0,0,0-1.364.724V18H97.9V7.962Zm12.7,10.224a5.16,5.16,0,0,1-3.739-1.378,4.757,4.757,0,0,1-1.429-3.586v-.26a6.165,6.165,0,0,1,.571-2.718A4.175,4.175,0,0,1,110.6,8.421a5.027,5.027,0,0,1,2.6-.645,4.345,4.345,0,0,1,3.34,1.313,5.159,5.159,0,0,1,1.225,3.66v1.215h-6.216a2.253,2.253,0,0,0,.733,1.327,2.181,2.181,0,0,0,1.466.482,2.81,2.81,0,0,0,2.319-1.039l1.429,1.688a3.994,3.994,0,0,1-1.656,1.285A5.6,5.6,0,0,1,113.531,18.186Zm-.353-8q-1.373,0-1.633,1.818H114.7v-.241a1.549,1.549,0,0,0-.38-1.164A1.514,1.514,0,0,0,113.178,10.188Zm8.711-2.227.1,1.178a3.4,3.4,0,0,1,2.867-1.364,2.864,2.864,0,0,1,2.343.937,4.461,4.461,0,0,1,.8,2.82V18h-3.136V11.664a1.694,1.694,0,0,0-.306-1.118,1.416,1.416,0,0,0-1.113-.357,1.491,1.491,0,0,0-1.364.724V18h-3.126V7.962Zm11.485-2.5v2.5h1.651v2.171h-1.651v4.592a1.173,1.173,0,0,0,.2.789,1.1,1.1,0,0,0,.807.223,4.586,4.586,0,0,0,.779-.056v2.236a5.77,5.77,0,0,1-1.763.269,3.275,3.275,0,0,1-2.384-.761,3.118,3.118,0,0,1-.77-2.31V10.133h-1.28V7.962h1.28v-2.5Zm7.737,12.719a5.16,5.16,0,0,1-3.739-1.378,4.758,4.758,0,0,1-1.429-3.586v-.26a6.165,6.165,0,0,1,.571-2.718,4.175,4.175,0,0,1,1.665-1.823,5.027,5.027,0,0,1,2.6-.645,4.345,4.345,0,0,1,3.34,1.313,5.159,5.159,0,0,1,1.225,3.66v1.215h-6.216a2.253,2.253,0,0,0,.733,1.327,2.181,2.181,0,0,0,1.466.482,2.81,2.81,0,0,0,2.319-1.039l1.429,1.688a3.994,3.994,0,0,1-1.656,1.285A5.6,5.6,0,0,1,141.112,18.186Zm-.353-8q-1.373,0-1.633,1.818h3.154v-.241a1.549,1.549,0,0,0-.38-1.164A1.514,1.514,0,0,0,140.76,10.188Zm11.1,4.991a.722.722,0,0,0-.417-.64,6.35,6.35,0,0,0-1.586-.5,7.234,7.234,0,0,1-1.93-.682,3.232,3.232,0,0,1-1.16-1.025,2.448,2.448,0,0,1-.4-1.382A2.774,2.774,0,0,1,147.5,8.672a4.7,4.7,0,0,1,2.987-.9,5.208,5.208,0,0,1,3.191.9,2.814,2.814,0,0,1,1.206,2.366h-3.136q0-1.206-1.271-1.206a1.26,1.26,0,0,0-.826.274.847.847,0,0,0-.334.682.778.778,0,0,0,.408.677,3.857,3.857,0,0,0,1.3.427,11.264,11.264,0,0,1,1.573.4,2.857,2.857,0,0,1,2.264,2.792,2.629,2.629,0,0,1-1.22,2.236,5.35,5.35,0,0,1-3.159.863,5.46,5.46,0,0,1-2.3-.464,3.847,3.847,0,0,1-1.577-1.262,2.857,2.857,0,0,1-.566-1.679h2.922a1.208,1.208,0,0,0,.464,1.016,1.908,1.908,0,0,0,1.141.32,1.5,1.5,0,0,0,.96-.26A.831.831,0,0,0,151.856,15.18Z" transform="translate(573.779 1231.913)" fill="#fff"/>
    <path id="Trazado_629073" data-name="Trazado 629073" d="M17,0H204.916a17,17,0,0,1,17,17V57.183a17,17,0,0,1-17,17H17a17,17,0,0,1-17-17V17A17,17,0,0,1,17,0Z" transform="translate(835.779 458.913)" fill="#21cbae"/>
    <path id="Trazado_629074" data-name="Trazado 629074" d="M47.275,19H43.867V13.063H38.818V19H35.39V4.781h3.428v5.645h5.049V4.781h3.408Zm7.129.2a5.432,5.432,0,0,1-3.936-1.45,5.008,5.008,0,0,1-1.5-3.774V13.7a6.489,6.489,0,0,1,.6-2.861,4.395,4.395,0,0,1,1.753-1.919,5.292,5.292,0,0,1,2.734-.679A4.574,4.574,0,0,1,57.568,9.62a5.43,5.43,0,0,1,1.289,3.853v1.279H52.314a2.372,2.372,0,0,0,.771,1.4,2.3,2.3,0,0,0,1.543.508,2.958,2.958,0,0,0,2.441-1.094l1.5,1.777a4.2,4.2,0,0,1-1.743,1.353A5.891,5.891,0,0,1,54.4,19.2Zm-.371-8.418q-1.445,0-1.719,1.914h3.32v-.254a1.63,1.63,0,0,0-.4-1.226A1.593,1.593,0,0,0,54.033,10.777Zm12.539.635-1.084-.078a1.947,1.947,0,0,0-1.992.977V19H60.2V8.434H63.29L63.4,9.791a2.548,2.548,0,0,1,2.314-1.553,3.209,3.209,0,0,1,.918.117Zm7.578,0-1.084-.078a1.947,1.947,0,0,0-1.992.977V19H67.783V8.434h3.086l.107,1.357A2.548,2.548,0,0,1,73.29,8.238a3.209,3.209,0,0,1,.918.117ZM81,19a3.716,3.716,0,0,1-.312-.947A3.06,3.06,0,0,1,78.144,19.2a3.749,3.749,0,0,1-2.539-.9,2.875,2.875,0,0,1-1.045-2.271,2.955,2.955,0,0,1,1.27-2.6,6.468,6.468,0,0,1,3.691-.879h1.016v-.559q0-1.462-1.26-1.462A1.03,1.03,0,0,0,78.1,11.681H74.814a2.95,2.95,0,0,1,1.3-2.487,5.479,5.479,0,0,1,3.325-.956,4.8,4.8,0,0,1,3.193.986,3.429,3.429,0,0,1,1.2,2.705v4.678a4.79,4.79,0,0,0,.449,2.227V19Zm-2.061-2.148a1.836,1.836,0,0,0,1.021-.264,1.653,1.653,0,0,0,.581-.6V14.3h-.957q-1.719,0-1.719,1.543a.942.942,0,0,0,.3.728A1.1,1.1,0,0,0,78.935,16.852Zm9.834-8.418.107,1.24a3.633,3.633,0,0,1,3.018-1.436A2.675,2.675,0,0,1,94.6,9.83,3.517,3.517,0,0,1,97.7,8.238q3.213,0,3.3,3.887V19H97.7V12.33a2.014,2.014,0,0,0-.273-1.182,1.164,1.164,0,0,0-1-.371,1.559,1.559,0,0,0-1.455.869l.01.137V19h-3.3V12.35a2.117,2.117,0,0,0-.264-1.2,1.161,1.161,0,0,0-1.006-.371,1.578,1.578,0,0,0-1.445.869V19H85.683V8.434ZM106.357,19h-3.3V8.434h3.3Zm-3.5-13.3a1.482,1.482,0,0,1,.508-1.159,2.149,2.149,0,0,1,2.637,0,1.482,1.482,0,0,1,.508,1.159,1.482,1.482,0,0,1-.508,1.159,2.149,2.149,0,0,1-2.637,0A1.482,1.482,0,0,1,102.861,5.7ZM113.5,19.2a5.432,5.432,0,0,1-3.936-1.45,5.008,5.008,0,0,1-1.5-3.774V13.7a6.489,6.489,0,0,1,.6-2.861,4.395,4.395,0,0,1,1.753-1.919,5.292,5.292,0,0,1,2.734-.679A4.574,4.574,0,0,1,116.66,9.62a5.43,5.43,0,0,1,1.289,3.853v1.279h-6.543a2.372,2.372,0,0,0,.771,1.4,2.3,2.3,0,0,0,1.543.508,2.958,2.958,0,0,0,2.441-1.094l1.5,1.777a4.2,4.2,0,0,1-1.743,1.353A5.891,5.891,0,0,1,113.5,19.2Zm-.371-8.418q-1.445,0-1.719,1.914h3.32v-.254a1.63,1.63,0,0,0-.4-1.226A1.593,1.593,0,0,0,113.124,10.777Zm9.17-2.344.107,1.24a3.583,3.583,0,0,1,3.018-1.436,3.015,3.015,0,0,1,2.466.986,4.7,4.7,0,0,1,.845,2.969V19h-3.3V12.33a1.783,1.783,0,0,0-.322-1.177,1.491,1.491,0,0,0-1.172-.376,1.569,1.569,0,0,0-1.436.762V19h-3.291V8.434Zm12.09-2.627V8.434h1.738v2.285h-1.738v4.834a1.234,1.234,0,0,0,.215.83,1.152,1.152,0,0,0,.85.234,4.828,4.828,0,0,0,.82-.059v2.354a6.074,6.074,0,0,1-1.855.283,3.448,3.448,0,0,1-2.51-.8,3.282,3.282,0,0,1-.811-2.432V10.719h-1.348V8.434h1.348V5.807ZM143.369,19a3.716,3.716,0,0,1-.312-.947,3.06,3.06,0,0,1-2.539,1.143,3.749,3.749,0,0,1-2.539-.9,2.875,2.875,0,0,1-1.045-2.271,2.955,2.955,0,0,1,1.27-2.6,6.468,6.468,0,0,1,3.691-.879h1.016v-.559q0-1.462-1.26-1.462a1.03,1.03,0,0,0-1.172,1.158h-3.291a2.95,2.95,0,0,1,1.3-2.487,5.479,5.479,0,0,1,3.325-.956,4.8,4.8,0,0,1,3.193.986,3.429,3.429,0,0,1,1.2,2.705v4.678a4.79,4.79,0,0,0,.449,2.227V19Zm-2.061-2.148a1.836,1.836,0,0,0,1.021-.264,1.653,1.653,0,0,0,.581-.6V14.3h-.957q-1.719,0-1.719,1.543a.942.942,0,0,0,.3.728A1.1,1.1,0,0,0,141.308,16.852Zm12.256-.82a.76.76,0,0,0-.439-.674,6.685,6.685,0,0,0-1.67-.527,7.615,7.615,0,0,1-2.031-.718,3.4,3.4,0,0,1-1.221-1.079,2.577,2.577,0,0,1-.42-1.455,2.92,2.92,0,0,1,1.2-2.4,4.948,4.948,0,0,1,3.145-.942,5.482,5.482,0,0,1,3.359.947,2.962,2.962,0,0,1,1.27,2.49h-3.3q0-1.27-1.338-1.27a1.326,1.326,0,0,0-.869.288.892.892,0,0,0-.352.718.819.819,0,0,0,.43.713,4.06,4.06,0,0,0,1.372.449,11.857,11.857,0,0,1,1.655.42,3.007,3.007,0,0,1,2.383,2.939,2.767,2.767,0,0,1-1.284,2.354,5.632,5.632,0,0,1-3.325.908,5.747,5.747,0,0,1-2.422-.488,4.05,4.05,0,0,1-1.66-1.328,3.007,3.007,0,0,1-.6-1.768h3.076a1.272,1.272,0,0,0,.488,1.069,2.009,2.009,0,0,0,1.2.337,1.58,1.58,0,0,0,1.011-.273A.875.875,0,0,0,153.564,16.031Z" transform="translate(850.779 483.913)" fill="#12263f"/>
    <path id="Trazado_629075" data-name="Trazado 629075" d="M17,0H204.916a17,17,0,0,1,17,17V57.183a17,17,0,0,1-17,17H17a17,17,0,0,1-17-17V17A17,17,0,0,1,17,0Z" transform="translate(834.779 693.913)" fill="#21cbae"/>
    <path id="Trazado_629076" data-name="Trazado 629076" d="M33.867,12.658V17H30.782V4.2h5.106a5.948,5.948,0,0,1,2.6.541,4.074,4.074,0,0,1,1.749,1.538,4.2,4.2,0,0,1,.62,2.263,3.7,3.7,0,0,1-1.34,2.993,5.561,5.561,0,0,1-3.678,1.121Zm0-2.382h2.021a1.906,1.906,0,0,0,1.367-.448,1.665,1.665,0,0,0,.47-1.266,2.059,2.059,0,0,0-.483-1.433,1.712,1.712,0,0,0-1.318-.545H33.867Zm14.247-.105-.976-.07a1.752,1.752,0,0,0-1.793.879V17H42.384V7.49h2.777l.1,1.222a2.294,2.294,0,0,1,2.083-1.4,2.888,2.888,0,0,1,.826.105Zm5.5,7a4.889,4.889,0,0,1-3.542-1.305,4.507,4.507,0,0,1-1.354-3.4v-.246a5.84,5.84,0,0,1,.541-2.575,3.955,3.955,0,0,1,1.578-1.727A4.763,4.763,0,0,1,53.3,7.314a4.117,4.117,0,0,1,3.164,1.244,4.887,4.887,0,0,1,1.16,3.467v1.151H51.735a2.135,2.135,0,0,0,.694,1.257,2.066,2.066,0,0,0,1.389.457,2.662,2.662,0,0,0,2.2-.984l1.354,1.6A3.784,3.784,0,0,1,55.8,16.723,5.3,5.3,0,0,1,53.616,17.176ZM53.282,9.6q-1.3,0-1.547,1.723h2.988v-.229a1.467,1.467,0,0,0-.36-1.1A1.434,1.434,0,0,0,53.282,9.6Zm10.512,4.729a.684.684,0,0,0-.4-.606,6.016,6.016,0,0,0-1.5-.475,6.853,6.853,0,0,1-1.828-.646,3.062,3.062,0,0,1-1.1-.971,2.319,2.319,0,0,1-.378-1.31,2.628,2.628,0,0,1,1.081-2.158,4.453,4.453,0,0,1,2.83-.848,4.934,4.934,0,0,1,3.023.853,2.666,2.666,0,0,1,1.143,2.241H63.7q0-1.143-1.2-1.143a1.194,1.194,0,0,0-.782.259.8.8,0,0,0-.316.646.737.737,0,0,0,.387.642,3.654,3.654,0,0,0,1.235.4,10.671,10.671,0,0,1,1.49.378A2.706,2.706,0,0,1,66.65,14.24a2.491,2.491,0,0,1-1.156,2.118,5.068,5.068,0,0,1-2.993.817,5.172,5.172,0,0,1-2.18-.439,3.645,3.645,0,0,1-1.494-1.2,2.707,2.707,0,0,1-.536-1.591H61.06a1.145,1.145,0,0,0,.439.962,1.808,1.808,0,0,0,1.081.3,1.422,1.422,0,0,0,.91-.246A.787.787,0,0,0,63.794,14.328Zm8.842,2.848a4.889,4.889,0,0,1-3.542-1.305,4.507,4.507,0,0,1-1.354-3.4v-.246a5.84,5.84,0,0,1,.541-2.575,3.955,3.955,0,0,1,1.578-1.727,4.763,4.763,0,0,1,2.461-.611,4.117,4.117,0,0,1,3.164,1.244,4.887,4.887,0,0,1,1.16,3.467v1.151H70.755a2.135,2.135,0,0,0,.694,1.257,2.066,2.066,0,0,0,1.389.457,2.662,2.662,0,0,0,2.2-.984l1.354,1.6a3.784,3.784,0,0,1-1.569,1.217A5.3,5.3,0,0,1,72.636,17.176ZM72.3,9.6q-1.3,0-1.547,1.723h2.988v-.229a1.467,1.467,0,0,0-.36-1.1A1.434,1.434,0,0,0,72.3,9.6ZM80.555,7.49l.1,1.116a3.225,3.225,0,0,1,2.716-1.292,2.713,2.713,0,0,1,2.219.888,4.226,4.226,0,0,1,.76,2.672V17H83.376V11a1.6,1.6,0,0,0-.29-1.059A1.342,1.342,0,0,0,82.031,9.6a1.413,1.413,0,0,0-1.292.686V17H77.777V7.49ZM91.435,5.126V7.49H93V9.547H91.435V13.9a1.111,1.111,0,0,0,.193.747,1.037,1.037,0,0,0,.765.211,4.345,4.345,0,0,0,.738-.053v2.118a5.466,5.466,0,0,1-1.67.255,3.1,3.1,0,0,1-2.259-.721,2.954,2.954,0,0,1-.729-2.188V9.547H87.261V7.49h1.213V5.126ZM99.521,17a3.344,3.344,0,0,1-.281-.853,2.754,2.754,0,0,1-2.285,1.028,3.374,3.374,0,0,1-2.285-.813,2.588,2.588,0,0,1-.94-2.043,2.66,2.66,0,0,1,1.143-2.338,5.821,5.821,0,0,1,3.322-.791h.914v-.5q0-1.316-1.134-1.316a.927.927,0,0,0-1.055,1.042H93.958a2.655,2.655,0,0,1,1.173-2.239,4.931,4.931,0,0,1,2.993-.86A4.323,4.323,0,0,1,101,8.2a3.086,3.086,0,0,1,1.081,2.435v4.21a4.311,4.311,0,0,0,.4,2V17Zm-1.854-1.934a1.652,1.652,0,0,0,.918-.237,1.487,1.487,0,0,0,.523-.536V12.772h-.861q-1.547,0-1.547,1.389a.848.848,0,0,0,.272.655A.986.986,0,0,0,97.667,15.066Zm10.072-.176a1.317,1.317,0,0,0,.967-.338,1.241,1.241,0,0,0,.334-.945h2.777a3.288,3.288,0,0,1-1.121,2.566,4.168,4.168,0,0,1-2.887,1,4.22,4.22,0,0,1-3.27-1.3,5.125,5.125,0,0,1-1.2-3.6v-.123a5.792,5.792,0,0,1,.532-2.544,3.872,3.872,0,0,1,1.534-1.7,4.573,4.573,0,0,1,2.373-.593,4.116,4.116,0,0,1,2.944,1.028,3.647,3.647,0,0,1,1.09,2.786H109.04A1.626,1.626,0,0,0,108.68,10a1.244,1.244,0,0,0-.967-.4q-1.151,0-1.345,1.468a10.357,10.357,0,0,0-.062,1.283,4.068,4.068,0,0,0,.343,1.986A1.187,1.187,0,0,0,107.739,14.891ZM116.194,17h-2.971V7.49h2.971ZM113.048,5.029a1.334,1.334,0,0,1,.457-1.043,1.934,1.934,0,0,1,2.373,0,1.334,1.334,0,0,1,.457,1.043,1.334,1.334,0,0,1-.457,1.043,1.934,1.934,0,0,1-2.373,0A1.334,1.334,0,0,1,113.048,5.029Zm4.6,7.128a5.613,5.613,0,0,1,.554-2.536,3.96,3.96,0,0,1,1.591-1.709,4.791,4.791,0,0,1,2.435-.6,4.373,4.373,0,0,1,3.366,1.323,5.076,5.076,0,0,1,1.23,3.6v.105a4.925,4.925,0,0,1-1.235,3.529,4.384,4.384,0,0,1-3.344,1.305,4.434,4.434,0,0,1-3.261-1.217,4.761,4.761,0,0,1-1.327-3.3Zm2.962.185a3.538,3.538,0,0,0,.413,1.934,1.376,1.376,0,0,0,1.222.615q1.582,0,1.617-2.435v-.3q0-2.558-1.635-2.558-1.485,0-1.608,2.206ZM122.628,3.5h3.129l-2.443,2.76-2.417,0Zm8.218,3.99.1,1.116a3.225,3.225,0,0,1,2.716-1.292,2.713,2.713,0,0,1,2.219.888,4.226,4.226,0,0,1,.76,2.672V17h-2.971V11a1.6,1.6,0,0,0-.29-1.059,1.342,1.342,0,0,0-1.055-.338,1.413,1.413,0,0,0-1.292.686V17h-2.962V7.49Zm11.54,4.685a5.809,5.809,0,0,1,.976-3.56,3.211,3.211,0,0,1,2.725-1.3,2.731,2.731,0,0,1,2.145,1V3.5H151.2V17h-2.663l-.149-1.02a2.8,2.8,0,0,1-2.32,1.2,3.205,3.205,0,0,1-2.689-1.3A5.993,5.993,0,0,1,142.386,12.175Zm2.962.185q0,2.531,1.477,2.531a1.458,1.458,0,0,0,1.406-.826V10.443a1.419,1.419,0,0,0-1.389-.844q-1.371,0-1.485,2.215Zm12.138,4.816a4.889,4.889,0,0,1-3.542-1.305,4.507,4.507,0,0,1-1.354-3.4v-.246a5.84,5.84,0,0,1,.541-2.575,3.955,3.955,0,0,1,1.578-1.727,4.763,4.763,0,0,1,2.461-.611,4.117,4.117,0,0,1,3.164,1.244,4.887,4.887,0,0,1,1.16,3.467v1.151H155.6a2.135,2.135,0,0,0,.694,1.257,2.066,2.066,0,0,0,1.389.457,2.662,2.662,0,0,0,2.2-.984l1.354,1.6a3.784,3.784,0,0,1-1.569,1.217A5.3,5.3,0,0,1,157.485,17.176ZM157.151,9.6q-1.3,0-1.547,1.723h2.988v-.229a1.467,1.467,0,0,0-.36-1.1A1.434,1.434,0,0,0,157.151,9.6ZM50.707,42H47.736V32.49h2.971ZM47.56,30.029a1.334,1.334,0,0,1,.457-1.043,1.934,1.934,0,0,1,2.373,0,1.42,1.42,0,0,1,0,2.087,1.934,1.934,0,0,1-2.373,0A1.334,1.334,0,0,1,47.56,30.029Zm7.69,2.461.1,1.116a3.225,3.225,0,0,1,2.716-1.292,2.713,2.713,0,0,1,2.219.888,4.226,4.226,0,0,1,.76,2.672V42H58.072V36a1.6,1.6,0,0,0-.29-1.059,1.342,1.342,0,0,0-1.055-.338,1.413,1.413,0,0,0-1.292.686V42H52.474V32.49ZM63.337,42V34.547h-1.38V32.49h1.38v-.756a3.286,3.286,0,0,1,.958-2.522,3.785,3.785,0,0,1,2.689-.9,5.89,5.89,0,0,1,1.389.185l.009,2.18a2.706,2.706,0,0,0-.729-.079q-1.345,0-1.345,1.16v.729h1.854v2.057H66.308V42Zm5.493-4.843a5.613,5.613,0,0,1,.554-2.536,3.96,3.96,0,0,1,1.591-1.709,4.791,4.791,0,0,1,2.435-.6,4.373,4.373,0,0,1,3.366,1.323,5.076,5.076,0,0,1,1.23,3.6v.105a4.925,4.925,0,0,1-1.235,3.529,4.384,4.384,0,0,1-3.344,1.305,4.434,4.434,0,0,1-3.261-1.217,4.761,4.761,0,0,1-1.327-3.3Zm2.962.185a3.538,3.538,0,0,0,.413,1.934,1.376,1.376,0,0,0,1.222.615q1.582,0,1.617-2.435v-.3q0-2.558-1.635-2.558-1.485,0-1.608,2.206Zm13.271-2.171-.976-.07a1.752,1.752,0,0,0-1.793.879V42H79.333V32.49H82.11l.1,1.222a2.294,2.294,0,0,1,2.083-1.4,2.888,2.888,0,0,1,.826.105Zm3.867-2.681.1,1.116a3.27,3.27,0,0,1,2.716-1.292,2.407,2.407,0,0,1,2.435,1.433,3.165,3.165,0,0,1,2.795-1.433q2.892,0,2.971,3.5V42H96.973V36a1.813,1.813,0,0,0-.246-1.063,1.048,1.048,0,0,0-.9-.334,1.4,1.4,0,0,0-1.31.782l.009.123V42H91.559V36.015a1.906,1.906,0,0,0-.237-1.081,1.045,1.045,0,0,0-.905-.334,1.42,1.42,0,0,0-1.3.782V42H86.153V32.49ZM106.992,42a3.344,3.344,0,0,1-.281-.853,2.754,2.754,0,0,1-2.285,1.028,3.374,3.374,0,0,1-2.285-.813,2.588,2.588,0,0,1-.94-2.043,2.66,2.66,0,0,1,1.143-2.338,5.821,5.821,0,0,1,3.322-.791h.914v-.5q0-1.316-1.134-1.316a.927.927,0,0,0-1.055,1.042h-2.962a2.655,2.655,0,0,1,1.173-2.239,4.931,4.931,0,0,1,2.993-.86,4.323,4.323,0,0,1,2.874.888,3.086,3.086,0,0,1,1.081,2.435v4.21a4.311,4.311,0,0,0,.4,2V42Zm-1.854-1.934a1.652,1.652,0,0,0,.918-.237,1.487,1.487,0,0,0,.523-.536V37.772h-.861q-1.547,0-1.547,1.389a.848.848,0,0,0,.272.655A.986.986,0,0,0,105.138,40.066Zm10.072-.176a1.317,1.317,0,0,0,.967-.338,1.241,1.241,0,0,0,.334-.945h2.777a3.288,3.288,0,0,1-1.121,2.566,4.168,4.168,0,0,1-2.887,1,4.22,4.22,0,0,1-3.27-1.3,5.125,5.125,0,0,1-1.2-3.6v-.123a5.792,5.792,0,0,1,.532-2.544,3.872,3.872,0,0,1,1.534-1.7,4.573,4.573,0,0,1,2.373-.593,4.116,4.116,0,0,1,2.944,1.028,3.647,3.647,0,0,1,1.09,2.786h-2.777A1.626,1.626,0,0,0,116.15,35a1.244,1.244,0,0,0-.967-.4q-1.151,0-1.345,1.468a10.357,10.357,0,0,0-.062,1.283,4.068,4.068,0,0,0,.343,1.986A1.187,1.187,0,0,0,115.21,39.891ZM123.665,42h-2.971V32.49h2.971Zm-3.146-11.971a1.334,1.334,0,0,1,.457-1.043,1.934,1.934,0,0,1,2.373,0,1.42,1.42,0,0,1,0,2.087,1.934,1.934,0,0,1-2.373,0A1.334,1.334,0,0,1,120.518,30.029Zm4.6,7.128a5.613,5.613,0,0,1,.554-2.536,3.96,3.96,0,0,1,1.591-1.709,4.791,4.791,0,0,1,2.435-.6,4.373,4.373,0,0,1,3.366,1.323,5.076,5.076,0,0,1,1.23,3.6v.105a4.925,4.925,0,0,1-1.235,3.529,4.384,4.384,0,0,1-3.344,1.305,4.434,4.434,0,0,1-3.261-1.217,4.761,4.761,0,0,1-1.327-3.3Zm2.962.185a3.538,3.538,0,0,0,.413,1.934,1.376,1.376,0,0,0,1.222.615q1.582,0,1.617-2.435v-.3q0-2.558-1.635-2.558-1.485,0-1.608,2.206ZM130.1,28.5h3.129l-2.443,2.76-2.417,0Zm8.218,3.99.1,1.116a3.225,3.225,0,0,1,2.716-1.292,2.713,2.713,0,0,1,2.219.888,4.226,4.226,0,0,1,.76,2.672V42h-2.971V36a1.6,1.6,0,0,0-.29-1.059,1.342,1.342,0,0,0-1.055-.338,1.413,1.413,0,0,0-1.292.686V42h-2.962V32.49Z" transform="translate(849.779 707.913)" fill="#12263f"/>
  </g>
</svg>
