<svg xmlns="http://www.w3.org/2000/svg" xmlns:xlink="http://www.w3.org/1999/xlink" width="505" height="401" viewBox="0 0 505 401">
  <defs>
    <clipPath id="clip-path">
      <rect id="BG" width="505" height="401" transform="translate(0 0)" fill="#e8e8e8" opacity="0.949"/>
    </clipPath>
  </defs>
  <g id="Grupo_901590" data-name="Grupo 901590" transform="translate(-915 -3661.978)">
    <g id="Enmascarar_grupo_171" data-name="Enmascarar grupo 171" transform="translate(915 3661.978)" clip-path="url(#clip-path)">
      <path id="coding-man" d="M0,0H521.032V520.206H0Z" transform="translate(-9.619 -75.514)" fill="#f3f9ff"/>
      <g id="Grupo_898035" data-name="Grupo 898035" transform="translate(387.167 103.584)">
        <g id="Grupo_898012" data-name="Grupo 898012" transform="translate(0 130.735)">
          <g id="Grupo_898011" data-name="Grupo 898011" transform="translate(0 0)">
            <path id="Trazado_624855" data-name="Trazado 624855" d="M.416.416,4.778-.45,3.912,3.912-.45,4.778Z" transform="matrix(0.707, -0.707, 0.707, 0.707, 0, 3.697)" fill="#fff"/>
            <path id="Trazado_624856" data-name="Trazado 624856" d="M.395.395l4.14-.822-.822,4.14-4.14.822Z" transform="translate(9.966 18.366) rotate(-44.999)" fill="#fff"/>
            <path id="Trazado_624857" data-name="Trazado 624857" d="M.374.374,4.291-.4,3.514,3.514-.4,4.291Z" transform="matrix(0.707, -0.707, 0.707, 0.707, 19.931, 33.034)" fill="#fff"/>
            <path id="Trazado_624858" data-name="Trazado 624858" d="M.352.352l3.7-.734-.734,3.7-3.7.734Z" transform="translate(29.897 47.703) rotate(-44.999)" fill="#fff"/>
            <path id="Trazado_624859" data-name="Trazado 624859" d="M.331.331,3.8-.358l-.69,3.474L-.358,3.8Z" transform="matrix(0.707, -0.707, 0.707, 0.707, 39.863, 62.372)" fill="#fff"/>
            <path id="Trazado_624860" data-name="Trazado 624860" d="M.31.31,3.562-.335,2.916,2.916l-3.252.645Z" transform="translate(49.829 77.041) rotate(-45)" fill="#fff"/>
            <path id="Trazado_624861" data-name="Trazado 624861" d="M.289.289l3.029-.6-.6,3.029-3.029.6Z" transform="translate(59.794 91.71) rotate(-45)" fill="#fff"/>
            <path id="Trazado_624862" data-name="Trazado 624862" d="M.268.268,3.075-.29,2.518,2.518-.29,3.075Z" transform="translate(69.76 106.379) rotate(-45)" fill="#fff"/>
            <path id="Trazado_624863" data-name="Trazado 624863" d="M.247.247,2.832-.267,2.319,2.319l-2.585.513Z" transform="translate(79.726 121.048) rotate(-45)" fill="#fff"/>
            <path id="Trazado_624864" data-name="Trazado 624864" d="M.225.225,2.588-.244,2.119,2.119l-2.363.469Z" transform="translate(89.691 135.717) rotate(-45)" fill="#fff"/>
            <path id="Trazado_624865" data-name="Trazado 624865" d="M.2.2,2.345-.221,1.92,1.92l-2.141.425Z" transform="translate(99.657 150.386) rotate(-45)" fill="#fff"/>
            <path id="Trazado_624866" data-name="Trazado 624866" d="M.183.183,2.1-.2,1.721,1.721-.2,2.1Z" transform="translate(109.623 165.055) rotate(-45)" fill="#fff"/>
          </g>
        </g>
        <g id="Grupo_898014" data-name="Grupo 898014" transform="translate(7.948 118.85)">
          <g id="Grupo_898013" data-name="Grupo 898013" transform="translate(0 0)">
            <path id="Trazado_624867" data-name="Trazado 624867" d="M.416.416,4.778-.45,3.912,3.912-.45,4.778Z" transform="matrix(0.707, -0.707, 0.707, 0.707, 0, 3.697)" fill="#fff"/>
            <path id="Trazado_624868" data-name="Trazado 624868" d="M.395.395l4.14-.822-.822,4.14-4.14.822Z" transform="translate(9.966 18.366) rotate(-44.999)" fill="#fff"/>
            <path id="Trazado_624869" data-name="Trazado 624869" d="M.374.374,4.291-.4,3.514,3.514-.4,4.291Z" transform="translate(19.931 33.034) rotate(-45)" fill="#fff"/>
            <path id="Trazado_624870" data-name="Trazado 624870" d="M.352.352l3.7-.734-.734,3.7-3.7.734Z" transform="translate(29.897 47.703) rotate(-45)" fill="#fff"/>
            <path id="Trazado_624871" data-name="Trazado 624871" d="M.331.331,3.8-.358l-.69,3.474L-.358,3.8Z" transform="translate(39.863 62.372) rotate(-45)" fill="#fff"/>
            <path id="Trazado_624872" data-name="Trazado 624872" d="M.31.31,3.562-.335,2.916,2.916l-3.252.645Z" transform="translate(49.829 77.041) rotate(-45)" fill="#fff"/>
            <path id="Trazado_624873" data-name="Trazado 624873" d="M.289.289l3.029-.6-.6,3.029-3.029.6Z" transform="translate(59.794 91.71) rotate(-45)" fill="#fff"/>
            <path id="Trazado_624874" data-name="Trazado 624874" d="M.268.268,3.075-.29,2.518,2.518-.29,3.075Z" transform="translate(69.76 106.379) rotate(-45)" fill="#fff"/>
            <path id="Trazado_624875" data-name="Trazado 624875" d="M.246.247,2.832-.267,2.319,2.319l-2.585.513Z" transform="matrix(0.707, -0.707, 0.707, 0.707, 79.726, 121.048)" fill="#fff"/>
            <path id="Trazado_624876" data-name="Trazado 624876" d="M.225.225,2.588-.244,2.119,2.119l-2.363.469Z" transform="translate(89.691 135.717) rotate(-45)" fill="#fff"/>
            <path id="Trazado_624877" data-name="Trazado 624877" d="M.2.2,2.345-.221,1.92,1.92l-2.141.425Z" transform="translate(99.657 150.386) rotate(-44.998)" fill="#fff"/>
            <path id="Trazado_624878" data-name="Trazado 624878" d="M.183.183,2.1-.2,1.721,1.721-.2,2.1Z" transform="translate(109.623 165.055) rotate(-45)" fill="#fff"/>
          </g>
        </g>
        <g id="Grupo_898016" data-name="Grupo 898016" transform="translate(15.896 106.965)">
          <g id="Grupo_898015" data-name="Grupo 898015" transform="translate(0 0)">
            <path id="Trazado_624879" data-name="Trazado 624879" d="M.416.416,4.778-.45,3.912,3.912-.45,4.778Z" transform="translate(0 3.697) rotate(-44.999)" fill="#fff"/>
            <path id="Trazado_624880" data-name="Trazado 624880" d="M.395.395l4.14-.822-.822,4.14-4.14.822Z" transform="translate(9.966 18.366) rotate(-45)" fill="#fff"/>
            <path id="Trazado_624881" data-name="Trazado 624881" d="M.374.374,4.291-.4,3.514,3.514-.4,4.291Z" transform="translate(19.931 33.034) rotate(-45)" fill="#fff"/>
            <path id="Trazado_624882" data-name="Trazado 624882" d="M.352.352l3.7-.734-.734,3.7-3.7.734Z" transform="translate(29.897 47.703) rotate(-44.999)" fill="#fff"/>
            <path id="Trazado_624883" data-name="Trazado 624883" d="M.331.331,3.8-.358l-.69,3.474L-.358,3.8Z" transform="translate(39.863 62.372) rotate(-45)" fill="#fff"/>
            <path id="Trazado_624884" data-name="Trazado 624884" d="M.31.31,3.562-.335,2.916,2.916l-3.252.645Z" transform="translate(49.829 77.041) rotate(-45)" fill="#fff"/>
            <path id="Trazado_624885" data-name="Trazado 624885" d="M.289.289l3.029-.6-.6,3.029-3.029.6Z" transform="translate(59.794 91.71) rotate(-45)" fill="#fff"/>
            <path id="Trazado_624886" data-name="Trazado 624886" d="M.268.268,3.075-.29,2.518,2.518-.29,3.075Z" transform="translate(69.76 106.379) rotate(-45)" fill="#fff"/>
            <path id="Trazado_624887" data-name="Trazado 624887" d="M.247.247,2.832-.267,2.319,2.319l-2.585.513Z" transform="translate(79.726 121.048) rotate(-45)" fill="#fff"/>
            <path id="Trazado_624888" data-name="Trazado 624888" d="M.225.225,2.588-.244,2.119,2.119l-2.363.469Z" transform="translate(89.691 135.717) rotate(-45)" fill="#fff"/>
            <path id="Trazado_624889" data-name="Trazado 624889" d="M.2.2,2.345-.221,1.92,1.92l-2.141.425Z" transform="translate(99.657 150.386) rotate(-44.998)" fill="#fff"/>
            <path id="Trazado_624890" data-name="Trazado 624890" d="M.183.183,2.1-.2,1.721,1.721-.2,2.1Z" transform="translate(109.623 165.055) rotate(-45)" fill="#fff"/>
          </g>
        </g>
        <g id="Grupo_898018" data-name="Grupo 898018" transform="translate(23.844 95.08)">
          <g id="Grupo_898017" data-name="Grupo 898017" transform="translate(0 0)">
            <path id="Trazado_624891" data-name="Trazado 624891" d="M.416.416,4.778-.45,3.912,3.912-.45,4.778Z" transform="translate(0 3.697) rotate(-45.001)" fill="#fff"/>
            <path id="Trazado_624892" data-name="Trazado 624892" d="M.395.395l4.14-.822-.822,4.14-4.14.822Z" transform="translate(9.966 18.366) rotate(-45.001)" fill="#fff"/>
            <path id="Trazado_624893" data-name="Trazado 624893" d="M.374.374,4.291-.4,3.514,3.514-.4,4.291Z" transform="translate(19.931 33.035) rotate(-45.001)" fill="#fff"/>
            <path id="Trazado_624894" data-name="Trazado 624894" d="M.352.352l3.7-.734-.734,3.7-3.7.734Z" transform="translate(29.897 47.703) rotate(-45)" fill="#fff"/>
            <path id="Trazado_624895" data-name="Trazado 624895" d="M.331.331,3.8-.358l-.69,3.474L-.358,3.8Z" transform="translate(39.863 62.372) rotate(-45)" fill="#fff"/>
            <path id="Trazado_624896" data-name="Trazado 624896" d="M.31.31,3.562-.335,2.916,2.916l-3.251.645Z" transform="translate(49.828 77.041) rotate(-45)" fill="#fff"/>
            <path id="Trazado_624897" data-name="Trazado 624897" d="M.289.289l3.029-.6-.6,3.029-3.029.6Z" transform="translate(59.794 91.71) rotate(-45)" fill="#fff"/>
            <path id="Trazado_624898" data-name="Trazado 624898" d="M.268.268,3.075-.29,2.518,2.518-.29,3.075Z" transform="translate(69.76 106.379) rotate(-45)" fill="#fff"/>
            <path id="Trazado_624899" data-name="Trazado 624899" d="M.247.247,2.832-.267,2.319,2.319l-2.585.513Z" transform="translate(79.726 121.048) rotate(-45)" fill="#fff"/>
            <path id="Trazado_624900" data-name="Trazado 624900" d="M.225.225,2.588-.244,2.119,2.119l-2.363.469Z" transform="translate(89.691 135.717) rotate(-45)" fill="#fff"/>
            <path id="Trazado_624901" data-name="Trazado 624901" d="M.2.2,2.345-.221,1.92,1.92l-2.141.425Z" transform="translate(99.657 150.386) rotate(-45.002)" fill="#fff"/>
            <path id="Trazado_624902" data-name="Trazado 624902" d="M.183.183,2.1-.2,1.721,1.721-.2,2.1Z" transform="translate(109.623 165.055) rotate(-45)" fill="#fff"/>
          </g>
        </g>
        <g id="Grupo_898020" data-name="Grupo 898020" transform="translate(31.792 83.195)">
          <g id="Grupo_898019" data-name="Grupo 898019" transform="translate(0 0)">
            <path id="Trazado_624903" data-name="Trazado 624903" d="M.416.416,4.778-.45,3.912,3.912-.45,4.778Z" transform="translate(0 3.697) rotate(-45.001)" fill="#fff"/>
            <path id="Trazado_624904" data-name="Trazado 624904" d="M.395.395l4.14-.822-.822,4.14-4.14.822Z" transform="translate(9.966 18.366) rotate(-45.001)" fill="#fff"/>
            <path id="Trazado_624905" data-name="Trazado 624905" d="M.374.374,4.291-.4,3.514,3.514-.4,4.291Z" transform="translate(19.931 33.035) rotate(-45.001)" fill="#fff"/>
            <path id="Trazado_624906" data-name="Trazado 624906" d="M.352.352l3.7-.734-.734,3.7-3.7.734Z" transform="translate(29.897 47.703) rotate(-45.001)" fill="#fff"/>
            <path id="Trazado_624907" data-name="Trazado 624907" d="M.331.331,3.8-.358l-.69,3.474L-.358,3.8Z" transform="matrix(0.707, -0.707, 0.707, 0.707, 39.863, 62.372)" fill="#fff"/>
            <path id="Trazado_624908" data-name="Trazado 624908" d="M.31.31,3.562-.335,2.916,2.916l-3.252.645Z" transform="translate(49.828 77.041) rotate(-45.001)" fill="#fff"/>
            <path id="Trazado_624909" data-name="Trazado 624909" d="M.289.289l3.029-.6-.6,3.029-3.029.6Z" transform="matrix(0.707, -0.707, 0.707, 0.707, 59.794, 91.71)" fill="#fff"/>
            <path id="Trazado_624910" data-name="Trazado 624910" d="M.268.268,3.075-.29,2.518,2.518-.29,3.075Z" transform="translate(69.76 106.379) rotate(-45)" fill="#fff"/>
            <path id="Trazado_624911" data-name="Trazado 624911" d="M.247.246,2.832-.267,2.319,2.319l-2.585.513Z" transform="matrix(0.707, -0.707, 0.707, 0.707, 79.726, 121.048)" fill="#fff"/>
            <path id="Trazado_624912" data-name="Trazado 624912" d="M.225.225,2.588-.244,2.119,2.119l-2.363.469Z" transform="translate(89.691 135.717) rotate(-45)" fill="#fff"/>
            <path id="Trazado_624913" data-name="Trazado 624913" d="M.2.2,2.345-.221,1.92,1.92l-2.141.425Z" transform="translate(99.657 150.386) rotate(-45.002)" fill="#fff"/>
            <path id="Trazado_624914" data-name="Trazado 624914" d="M.183.183,2.1-.2,1.721,1.721-.2,2.1Z" transform="translate(109.623 165.055) rotate(-45)" fill="#fff"/>
          </g>
        </g>
        <g id="Grupo_898022" data-name="Grupo 898022" transform="translate(39.741 71.31)">
          <g id="Grupo_898021" data-name="Grupo 898021" transform="translate(0 0)">
            <path id="Trazado_624915" data-name="Trazado 624915" d="M.416.416,4.778-.45,3.912,3.912-.45,4.778Z" transform="translate(0 3.697) rotate(-45.001)" fill="#fff"/>
            <path id="Trazado_624916" data-name="Trazado 624916" d="M.395.395l4.14-.822-.822,4.14-4.14.822Z" transform="translate(9.966 18.366) rotate(-45.001)" fill="#fff"/>
            <path id="Trazado_624917" data-name="Trazado 624917" d="M.374.374,4.291-.4,3.514,3.514-.4,4.291Z" transform="translate(19.931 33.035) rotate(-45.001)" fill="#fff"/>
            <path id="Trazado_624918" data-name="Trazado 624918" d="M.352.352l3.7-.734-.734,3.7-3.7.734Z" transform="translate(29.897 47.703) rotate(-45.001)" fill="#fff"/>
            <path id="Trazado_624919" data-name="Trazado 624919" d="M.331.331,3.8-.358l-.69,3.474L-.358,3.8Z" transform="translate(39.863 62.372) rotate(-45.001)" fill="#fff"/>
            <path id="Trazado_624920" data-name="Trazado 624920" d="M.31.31,3.562-.335,2.916,2.916l-3.252.645Z" transform="matrix(0.707, -0.707, 0.707, 0.707, 49.828, 77.041)" fill="#fff"/>
            <path id="Trazado_624921" data-name="Trazado 624921" d="M.289.289l3.029-.6-.6,3.029-3.029.6Z" transform="translate(59.794 91.71) rotate(-45)" fill="#fff"/>
            <path id="Trazado_624922" data-name="Trazado 624922" d="M.268.268,3.075-.29,2.518,2.518-.29,3.075Z" transform="translate(69.76 106.379) rotate(-45.001)" fill="#fff"/>
            <path id="Trazado_624923" data-name="Trazado 624923" d="M.247.247,2.832-.267,2.319,2.319l-2.585.513Z" transform="translate(79.726 121.048) rotate(-45)" fill="#fff"/>
            <path id="Trazado_624924" data-name="Trazado 624924" d="M.225.225,2.588-.244,2.119,2.119l-2.363.469Z" transform="translate(89.691 135.717) rotate(-45)" fill="#fff"/>
            <path id="Trazado_624925" data-name="Trazado 624925" d="M.2.2,2.345-.221,1.92,1.92l-2.141.425Z" transform="translate(99.657 150.386) rotate(-45)" fill="#fff"/>
            <path id="Trazado_624926" data-name="Trazado 624926" d="M.183.183,2.1-.2,1.721,1.721-.2,2.1Z" transform="translate(109.623 165.055) rotate(-45)" fill="#fff"/>
          </g>
        </g>
        <g id="Grupo_898024" data-name="Grupo 898024" transform="translate(47.689 59.425)">
          <g id="Grupo_898023" data-name="Grupo 898023" transform="translate(0 0)">
            <path id="Trazado_624927" data-name="Trazado 624927" d="M.416.416,4.778-.45,3.912,3.912-.45,4.778Z" transform="translate(0 3.697) rotate(-44.999)" fill="#fff"/>
            <path id="Trazado_624928" data-name="Trazado 624928" d="M.395.395l4.14-.822-.822,4.14-4.14.822Z" transform="translate(9.966 18.365) rotate(-44.999)" fill="#fff"/>
            <path id="Trazado_624929" data-name="Trazado 624929" d="M.374.374,4.291-.4,3.514,3.514-.4,4.291Z" transform="matrix(0.707, -0.707, 0.707, 0.707, 19.931, 33.034)" fill="#fff"/>
            <path id="Trazado_624930" data-name="Trazado 624930" d="M.352.352l3.7-.734-.734,3.7-3.7.734Z" transform="translate(29.897 47.703) rotate(-44.999)" fill="#fff"/>
            <path id="Trazado_624931" data-name="Trazado 624931" d="M.331.331,3.8-.358l-.69,3.474L-.358,3.8Z" transform="matrix(0.707, -0.707, 0.707, 0.707, 39.863, 62.372)" fill="#fff"/>
            <path id="Trazado_624932" data-name="Trazado 624932" d="M.31.31,3.561-.335,2.916,2.916l-3.251.645Z" transform="matrix(0.707, -0.707, 0.707, 0.707, 49.829, 77.041)" fill="#fff"/>
            <path id="Trazado_624933" data-name="Trazado 624933" d="M.289.289l3.029-.6-.6,3.029-3.029.6Z" transform="matrix(0.707, -0.707, 0.707, 0.707, 59.794, 91.71)" fill="#fff"/>
            <path id="Trazado_624934" data-name="Trazado 624934" d="M.268.268,3.075-.29,2.518,2.518-.29,3.075Z" transform="translate(69.76 106.379) rotate(-45)" fill="#fff"/>
            <path id="Trazado_624935" data-name="Trazado 624935" d="M.247.247,2.832-.267,2.319,2.319l-2.585.513Z" transform="matrix(0.707, -0.707, 0.707, 0.707, 79.726, 121.048)" fill="#fff"/>
            <path id="Trazado_624936" data-name="Trazado 624936" d="M.225.225,2.588-.244,2.119,2.119l-2.363.469Z" transform="translate(89.691 135.717) rotate(-45)" fill="#fff"/>
            <path id="Trazado_624937" data-name="Trazado 624937" d="M.2.2,2.345-.221,1.92,1.92l-2.141.425Z" transform="translate(99.657 150.386) rotate(-45)" fill="#fff"/>
            <path id="Trazado_624938" data-name="Trazado 624938" d="M.183.183,2.1-.2,1.721,1.721-.2,2.1Z" transform="translate(109.623 165.055) rotate(-45)" fill="#fff"/>
          </g>
        </g>
        <g id="Grupo_898026" data-name="Grupo 898026" transform="translate(55.637 47.54)">
          <g id="Grupo_898025" data-name="Grupo 898025" transform="translate(0 0)">
            <path id="Trazado_624939" data-name="Trazado 624939" d="M.416.416,4.778-.45,3.912,3.912-.45,4.778Z" transform="translate(0 3.697) rotate(-44.999)" fill="#fff"/>
            <path id="Trazado_624940" data-name="Trazado 624940" d="M.395.395l4.14-.822-.822,4.14-4.14.822Z" transform="translate(9.966 18.366) rotate(-45)" fill="#fff"/>
            <path id="Trazado_624941" data-name="Trazado 624941" d="M.374.374,4.291-.4,3.514,3.514-.4,4.291Z" transform="translate(19.931 33.035) rotate(-45)" fill="#fff"/>
            <path id="Trazado_624942" data-name="Trazado 624942" d="M.352.352l3.7-.734-.734,3.7-3.7.734Z" transform="translate(29.897 47.703) rotate(-45)" fill="#fff"/>
            <path id="Trazado_624943" data-name="Trazado 624943" d="M.331.331,3.8-.358l-.69,3.474L-.358,3.8Z" transform="translate(39.863 62.372) rotate(-45)" fill="#fff"/>
            <path id="Trazado_624944" data-name="Trazado 624944" d="M.31.31,3.561-.335,2.916,2.916l-3.251.645Z" transform="translate(49.829 77.041) rotate(-45)" fill="#fff"/>
            <path id="Trazado_624945" data-name="Trazado 624945" d="M.289.289l3.029-.6-.6,3.029-3.029.6Z" transform="translate(59.794 91.71) rotate(-45)" fill="#fff"/>
            <path id="Trazado_624946" data-name="Trazado 624946" d="M.268.268,3.075-.29,2.518,2.518-.29,3.075Z" transform="translate(69.76 106.379) rotate(-44.999)" fill="#fff"/>
            <path id="Trazado_624947" data-name="Trazado 624947" d="M.247.247,2.832-.267,2.319,2.319l-2.585.513Z" transform="translate(79.726 121.048) rotate(-45)" fill="#fff"/>
            <path id="Trazado_624948" data-name="Trazado 624948" d="M.225.225,2.588-.244,2.119,2.119l-2.363.469Z" transform="translate(89.691 135.717) rotate(-45)" fill="#fff"/>
            <path id="Trazado_624949" data-name="Trazado 624949" d="M.2.2,2.345-.221,1.92,1.92l-2.141.425Z" transform="translate(99.657 150.386) rotate(-45)" fill="#fff"/>
            <path id="Trazado_624950" data-name="Trazado 624950" d="M.183.183,2.1-.2,1.721,1.721-.2,2.1Z" transform="translate(109.623 165.055) rotate(-45)" fill="#fff"/>
          </g>
        </g>
        <g id="Grupo_898028" data-name="Grupo 898028" transform="translate(63.585 35.655)">
          <g id="Grupo_898027" data-name="Grupo 898027" transform="translate(0 0)">
            <path id="Trazado_624951" data-name="Trazado 624951" d="M.416.416,4.778-.45,3.912,3.912-.45,4.778Z" transform="matrix(0.707, -0.707, 0.707, 0.707, 0, 3.697)" fill="#fff"/>
            <path id="Trazado_624952" data-name="Trazado 624952" d="M.395.395l4.14-.822-.822,4.14-4.14.822Z" transform="translate(9.966 18.366) rotate(-45)" fill="#fff"/>
            <path id="Trazado_624953" data-name="Trazado 624953" d="M.374.374,4.291-.4,3.514,3.514-.4,4.291Z" transform="matrix(0.707, -0.707, 0.707, 0.707, 19.931, 33.034)" fill="#fff"/>
            <path id="Trazado_624954" data-name="Trazado 624954" d="M.352.352l3.7-.734-.734,3.7-3.7.734Z" transform="translate(29.897 47.703) rotate(-45)" fill="#fff"/>
            <path id="Trazado_624955" data-name="Trazado 624955" d="M.331.331,3.8-.358l-.69,3.474L-.358,3.8Z" transform="translate(39.863 62.372) rotate(-45)" fill="#fff"/>
            <path id="Trazado_624956" data-name="Trazado 624956" d="M.31.31,3.562-.335,2.916,2.916l-3.251.645Z" transform="translate(49.829 77.041) rotate(-45)" fill="#fff"/>
            <path id="Trazado_624957" data-name="Trazado 624957" d="M.289.289l3.029-.6-.6,3.029-3.029.6Z" transform="translate(59.794 91.71) rotate(-45)" fill="#fff"/>
            <path id="Trazado_624958" data-name="Trazado 624958" d="M.268.268,3.075-.29,2.518,2.518-.29,3.075Z" transform="translate(69.76 106.379) rotate(-44.999)" fill="#fff"/>
            <path id="Trazado_624959" data-name="Trazado 624959" d="M.247.247,2.832-.267,2.319,2.319l-2.585.513Z" transform="translate(79.726 121.048) rotate(-45)" fill="#fff"/>
            <path id="Trazado_624960" data-name="Trazado 624960" d="M.225.225,2.588-.244,2.119,2.119l-2.363.469Z" transform="translate(89.691 135.717) rotate(-45)" fill="#fff"/>
            <path id="Trazado_624961" data-name="Trazado 624961" d="M.2.2,2.345-.221,1.92,1.92l-2.141.425Z" transform="translate(99.657 150.386) rotate(-45)" fill="#fff"/>
            <path id="Trazado_624962" data-name="Trazado 624962" d="M.183.183,2.1-.2,1.721,1.721-.2,2.1Z" transform="translate(109.623 165.055) rotate(-45)" fill="#fff"/>
          </g>
        </g>
        <g id="Grupo_898030" data-name="Grupo 898030" transform="translate(71.533 23.77)">
          <g id="Grupo_898029" data-name="Grupo 898029" transform="translate(0 0)">
            <path id="Trazado_624963" data-name="Trazado 624963" d="M.416.416,4.778-.45,3.912,3.912-.45,4.778Z" transform="translate(0 3.697) rotate(-45.001)" fill="#fff"/>
            <path id="Trazado_624964" data-name="Trazado 624964" d="M.395.395l4.14-.822-.822,4.14-4.14.822Z" transform="translate(9.966 18.366) rotate(-45.001)" fill="#fff"/>
            <path id="Trazado_624965" data-name="Trazado 624965" d="M.374.374,4.291-.4,3.514,3.514-.4,4.291Z" transform="translate(19.931 33.035) rotate(-45.001)" fill="#fff"/>
            <path id="Trazado_624966" data-name="Trazado 624966" d="M.352.352l3.7-.734-.734,3.7-3.7.734Z" transform="translate(29.897 47.703) rotate(-45.001)" fill="#fff"/>
            <path id="Trazado_624967" data-name="Trazado 624967" d="M.331.331,3.8-.358l-.69,3.474L-.358,3.8Z" transform="translate(39.863 62.372) rotate(-45)" fill="#fff"/>
            <path id="Trazado_624968" data-name="Trazado 624968" d="M.31.31,3.562-.335,2.916,2.916l-3.252.645Z" transform="translate(49.828 77.041) rotate(-45.001)" fill="#fff"/>
            <path id="Trazado_624969" data-name="Trazado 624969" d="M.289.289l3.029-.6-.6,3.029-3.029.6Z" transform="translate(59.794 91.71) rotate(-45)" fill="#fff"/>
            <path id="Trazado_624970" data-name="Trazado 624970" d="M.268.268,3.075-.29,2.518,2.518-.29,3.075Z" transform="translate(69.76 106.379) rotate(-45)" fill="#fff"/>
            <path id="Trazado_624971" data-name="Trazado 624971" d="M.247.247,2.832-.267,2.319,2.319l-2.585.513Z" transform="matrix(0.707, -0.707, 0.707, 0.707, 79.726, 121.048)" fill="#fff"/>
            <path id="Trazado_624972" data-name="Trazado 624972" d="M.225.225,2.588-.244,2.119,2.119l-2.363.469Z" transform="translate(89.691 135.717) rotate(-45)" fill="#fff"/>
            <path id="Trazado_624973" data-name="Trazado 624973" d="M.2.2,2.345-.221,1.92,1.92l-2.141.425Z" transform="translate(99.657 150.386) rotate(-45)" fill="#fff"/>
            <path id="Trazado_624974" data-name="Trazado 624974" d="M.183.183,2.1-.2,1.721,1.721-.2,2.1Z" transform="matrix(0.707, -0.707, 0.707, 0.707, 109.623, 165.055)" fill="#fff"/>
          </g>
        </g>
        <g id="Grupo_898032" data-name="Grupo 898032" transform="translate(79.481 11.885)">
          <g id="Grupo_898031" data-name="Grupo 898031" transform="translate(0 0)">
            <path id="Trazado_624975" data-name="Trazado 624975" d="M.416.416,4.778-.45,3.912,3.912-.45,4.778Z" transform="translate(0 3.697) rotate(-45.001)" fill="#fff"/>
            <path id="Trazado_624976" data-name="Trazado 624976" d="M.395.395l4.14-.822-.822,4.14-4.14.822Z" transform="translate(9.966 18.366) rotate(-45.001)" fill="#fff"/>
            <path id="Trazado_624977" data-name="Trazado 624977" d="M.374.374,4.291-.4,3.514,3.514-.4,4.291Z" transform="translate(19.931 33.035) rotate(-45.001)" fill="#fff"/>
            <path id="Trazado_624978" data-name="Trazado 624978" d="M.352.352l3.7-.734-.734,3.7-3.7.734Z" transform="translate(29.897 47.703) rotate(-45.001)" fill="#fff"/>
            <path id="Trazado_624979" data-name="Trazado 624979" d="M.331.331,3.8-.358l-.69,3.474L-.358,3.8Z" transform="matrix(0.707, -0.707, 0.707, 0.707, 39.863, 62.372)" fill="#fff"/>
            <path id="Trazado_624980" data-name="Trazado 624980" d="M.31.31,3.562-.335,2.916,2.916l-3.252.645Z" transform="translate(49.828 77.041) rotate(-45.001)" fill="#fff"/>
            <path id="Trazado_624981" data-name="Trazado 624981" d="M.289.289l3.029-.6-.6,3.029-3.029.6Z" transform="matrix(0.707, -0.707, 0.707, 0.707, 59.794, 91.71)" fill="#fff"/>
            <path id="Trazado_624982" data-name="Trazado 624982" d="M.268.268,3.075-.29,2.518,2.518-.29,3.075Z" transform="translate(69.76 106.379) rotate(-45.001)" fill="#fff"/>
            <path id="Trazado_624983" data-name="Trazado 624983" d="M.247.246,2.832-.267,2.319,2.319l-2.585.513Z" transform="matrix(0.707, -0.707, 0.707, 0.707, 79.726, 121.048)" fill="#fff"/>
            <path id="Trazado_624984" data-name="Trazado 624984" d="M.225.225,2.588-.244,2.119,2.119l-2.363.469Z" transform="translate(89.691 135.717) rotate(-45)" fill="#fff"/>
            <path id="Trazado_624985" data-name="Trazado 624985" d="M.2.2,2.345-.221,1.92,1.92l-2.141.425Z" transform="translate(99.657 150.386) rotate(-45.002)" fill="#fff"/>
            <path id="Trazado_624986" data-name="Trazado 624986" d="M.183.183,2.1-.2,1.721,1.721-.2,2.1Z" transform="translate(109.623 165.055) rotate(-45)" fill="#fff"/>
          </g>
        </g>
        <g id="Grupo_898034" data-name="Grupo 898034" transform="translate(87.429 0)">
          <g id="Grupo_898033" data-name="Grupo 898033" transform="translate(0)">
            <path id="Trazado_624987" data-name="Trazado 624987" d="M.416.416,4.778-.45,3.912,3.912-.45,4.778Z" transform="matrix(0.707, -0.707, 0.707, 0.707, 0, 3.697)" fill="#fff"/>
            <path id="Trazado_624988" data-name="Trazado 624988" d="M.395.395l4.14-.822-.822,4.14-4.14.822Z" transform="translate(9.966 18.366) rotate(-45.001)" fill="#fff"/>
            <path id="Trazado_624989" data-name="Trazado 624989" d="M.374.374,4.291-.4,3.514,3.514-.4,4.291Z" transform="translate(19.931 33.035) rotate(-45.001)" fill="#fff"/>
            <path id="Trazado_624990" data-name="Trazado 624990" d="M.352.352l3.7-.734-.734,3.7-3.7.734Z" transform="translate(29.897 47.703) rotate(-45.001)" fill="#fff"/>
            <path id="Trazado_624991" data-name="Trazado 624991" d="M.331.331,3.8-.358l-.69,3.474L-.358,3.8Z" transform="translate(39.863 62.372) rotate(-45)" fill="#fff"/>
            <path id="Trazado_624992" data-name="Trazado 624992" d="M.31.31,3.562-.335,2.916,2.916l-3.252.645Z" transform="translate(49.828 77.041) rotate(-45.001)" fill="#fff"/>
            <path id="Trazado_624993" data-name="Trazado 624993" d="M.289.289l3.029-.6-.6,3.029-3.029.6Z" transform="translate(59.794 91.71) rotate(-45)" fill="#fff"/>
            <path id="Trazado_624994" data-name="Trazado 624994" d="M.268.268,3.075-.29,2.518,2.518-.29,3.075Z" transform="translate(69.76 106.379) rotate(-45.001)" fill="#fff"/>
            <path id="Trazado_624995" data-name="Trazado 624995" d="M.247.247,2.832-.267,2.319,2.319l-2.585.513Z" transform="translate(79.726 121.048) rotate(-45)" fill="#fff"/>
            <path id="Trazado_624996" data-name="Trazado 624996" d="M.225.225,2.589-.244,2.119,2.119l-2.363.469Z" transform="translate(89.691 135.717) rotate(-45.002)" fill="#fff"/>
            <path id="Trazado_624997" data-name="Trazado 624997" d="M.2.2,2.345-.221,1.92,1.92l-2.141.425Z" transform="translate(99.657 150.386) rotate(-45.001)" fill="#fff"/>
            <path id="Trazado_624998" data-name="Trazado 624998" d="M.183.183,2.1-.2,1.721,1.721-.2,2.1Z" transform="matrix(0.707, -0.707, 0.707, 0.707, 109.623, 165.055)" fill="#fff"/>
          </g>
        </g>
      </g>
      <g id="Grupo_898036" data-name="Grupo 898036" transform="translate(-27.724 126.814)">
        <path id="Trazado_624999" data-name="Trazado 624999" d="M40.124,324.176-113.828,554.383c-5.253,7.856-13.77,7.856-19.023,0h0c-5.253-7.855-5.253-20.59,0-28.445L21.1,295.731c5.253-7.855,13.77-7.855,19.023,0h0C45.376,303.586,45.376,316.321,40.124,324.176Z" transform="translate(136.79 -289.84)" fill="none" stroke="#fff" stroke-miterlimit="10" stroke-width="2"/>
        <path id="Trazado_625000" data-name="Trazado 625000" d="M43.022,414.371-74.487,590.085c-4.009,6-10.51,6-14.52,0h0c-4.01-6-4.01-15.717,0-21.712L28.5,392.658c4.01-6,10.511-6,14.52,0h0C47.032,398.655,47.032,408.375,43.022,414.371Z" transform="translate(124.519 -281.432)" fill="none" stroke="#fff" stroke-miterlimit="10" stroke-width="2"/>
      </g>
      <g id="Grupo_898037" data-name="Grupo 898037" transform="translate(214.584 -136.852)">
        <path id="Trazado_625001" data-name="Trazado 625001" d="M3.94,236.1,157.891,5.892c5.253-7.856,13.77-7.856,19.023,0h0c5.253,7.855,5.253,20.59,0,28.445L22.962,264.544c-5.253,7.855-13.77,7.855-19.023,0h0C-1.313,256.689-1.313,243.954,3.94,236.1Z" transform="translate(0 42.715)" fill="none" stroke="#fff" stroke-miterlimit="10" stroke-width="2"/>
        <path id="Trazado_625002" data-name="Trazado 625002" d="M3.007,180.21,120.516,4.5c4.009-6,10.51-6,14.52,0h0c4.01,6,4.01,15.717,0,21.712L17.527,201.923c-4.01,6-10.511,6-14.52,0h0C-1,195.926-1,186.206,3.007,180.21Z" transform="translate(10.305)" fill="none" stroke="#fff" stroke-miterlimit="10" stroke-width="2"/>
      </g>
    </g>
    <g id="Grupo_900901" data-name="Grupo 900901" transform="translate(783.025 3132.979)">
      <g id="Grupo_900832" data-name="Grupo 900832" transform="translate(227.447 720.065)">
        <path id="Trazado_628757" data-name="Trazado 628757" d="M376.108,1804.761l61.938,15.836s5.118-30.768-6.58-44.757-2.543-21.118-2.525-37.916-19.421-19.629-21.475-24.737-1.953-24.023-13.16-29.179-12.618-9.794-12.4-17.833-13.212-19.417-26.642-18.268c-14.339,10.081-11.31,20.937-9.049,27.625s-13.394,21.32-4.557,33.355,18.448,27.018,14.168,35.394-.965,19.3,6.958,27.746S353.628,1793.515,376.108,1804.761Z" transform="translate(-338.932 -1647.827)" fill="#afafaf"/>
        <path id="Trazado_628758" data-name="Trazado 628758" d="M528.046,1890.121c-.073-.423-3.538-20-10.833-46.464a68.556,68.556,0,0,0,7.313-16.168.756.756,0,1,0-1.458-.4,68.205,68.205,0,0,1-6.411,14.563c-2.733-9.781-5.979-20.438-9.758-31.375a.735.735,0,0,0-.171-.5c-2.643-7.622-5.548-15.374-8.716-23.057.641-1.779,4.14-11.6,5.265-17.108a.756.756,0,1,0-1.482-.3,149.122,149.122,0,0,1-4.648,15.324c-6.418-15.3-13.9-30.251-22.5-43.248a.756.756,0,1,0-1.261.835,236.493,236.493,0,0,1,16.178,29.109,124.159,124.159,0,0,0-16.472-7.12.756.756,0,0,0-.5,1.427,113.474,113.474,0,0,1,17.844,7.9.754.754,0,0,0,.2.081h.009c5.4,11.64,10.15,23.742,14.279,35.557-9.438-2.239-21.959-3.656-22.091-3.67a.757.757,0,0,0-.272,1.484.811.811,0,0,0,.1.019,215.9,215.9,0,0,1,22.851,3.867,581.757,581.757,0,0,1,21.049,79.51.756.756,0,1,0,1.49-.259Z" transform="translate(-450.039 -1725.612)" fill="#353e45" style="mix-blend-mode: screen;isolation: isolate"/>
      </g>
      <g id="Grupo_900833" data-name="Grupo 900833" transform="translate(205.327 817.727)">
        <path id="Trazado_628759" data-name="Trazado 628759" d="M273.533,2319.216l57.886-2.533s-26.645-29.242-37.947-32.733-8.831-10.6-14.745-19.752-17.495-3.839-20.415-5.895-9.535-12.389-17.454-11.245-10.323-.883-13.037-5.338-14.04-5.912-20.946-.551c-4.252,10.545,1.225,15.387,4.815,18.231s.226,16.33,9.281,19.766,19.571,8.2,20.194,14.273,6.282,10.85,13.573,12.652S257.328,2321.02,273.533,2319.216Z" transform="translate(-205.327 -2237.727)" fill="#636363"/>
        <path id="Trazado_628760" data-name="Trazado 628760" d="M353.362,2354.444c-.189-.2-8.98-9.643-22.283-21.476a44.488,44.488,0,0,0-1.72-11.382.491.491,0,0,0-.936.3,44.255,44.255,0,0,1,1.645,10.189c-4.937-4.361-10.462-9.019-16.377-13.64a.479.479,0,0,0-.269-.212c-4.127-3.217-8.442-6.414-12.876-9.479a106.887,106.887,0,0,0-3.166-11.171.491.491,0,1,0-.914.358,96.734,96.734,0,0,1,2.873,9.982,171.564,171.564,0,0,0-27.5-15.612.491.491,0,1,0-.392.9,153.5,153.5,0,0,1,19.073,10.143,80.579,80.579,0,0,0-11.479,1.933.491.491,0,0,0,.229.954,73.653,73.653,0,0,1,12.5-1.994.475.475,0,0,0,.135-.025l.005,0c7.045,4.433,13.9,9.347,20.312,14.323-5.928,2.109-13.244,5.753-13.321,5.792a.491.491,0,0,0,.375.9.455.455,0,0,0,.063-.026,140.062,140.062,0,0,1,13.8-5.952,377.356,377.356,0,0,1,39.5,35.865.491.491,0,1,0,.72-.666Z" transform="translate(-260.256 -2283.229)" fill="#353e45" style="mix-blend-mode: screen;isolation: isolate"/>
      </g>
      <g id="Grupo_900837" data-name="Grupo 900837" transform="translate(494.841 560.795)">
        <g id="Grupo_900836" data-name="Grupo 900836" transform="translate(0 0)">
          <g id="Grupo_900835" data-name="Grupo 900835">
            <g id="Grupo_900834" data-name="Grupo 900834">
              <path id="Trazado_628761" data-name="Trazado 628761" d="M2108.317,673.587c-.521,0-1.048-.014-1.566-.041l.042-.788a29.126,29.126,0,0,0,3.077,0l.042.788C2109.385,673.572,2108.849,673.587,2108.317,673.587Zm-4.71-.378a29.159,29.159,0,0,1-3.089-.675l.21-.76a28.376,28.376,0,0,0,3.005.657Zm9.448,0-.127-.779a28.378,28.378,0,0,0,3-.66l.211.76A29.147,29.147,0,0,1,2113.056,673.2Zm-15.536-1.678a29.2,29.2,0,0,1-2.871-1.328l.37-.7a28.318,28.318,0,0,0,2.792,1.292Zm21.622-.011-.293-.733a28.355,28.355,0,0,0,2.791-1.294l.37.7A29.142,29.142,0,0,1,2119.142,671.516Zm-27.2-2.949a29.439,29.439,0,0,1-2.518-1.914l.511-.6a28.6,28.6,0,0,0,2.449,1.862Zm32.779-.015-.444-.652a28.731,28.731,0,0,0,2.448-1.864l.511.6A29.443,29.443,0,0,1,2124.718,668.552Zm-37.593-4.073a29.512,29.512,0,0,1-2.05-2.408l.628-.478a28.641,28.641,0,0,0,1.995,2.343Zm42.4-.018-.573-.543a28.685,28.685,0,0,0,1.993-2.345l.627.478A29.465,29.465,0,0,1,2129.527,664.461Zm-46.231-5a29.347,29.347,0,0,1-1.485-2.79l.716-.332a28.5,28.5,0,0,0,1.445,2.715Zm50.056-.023-.676-.407a28.5,28.5,0,0,0,1.444-2.718l.716.332A29.212,29.212,0,0,1,2133.352,659.435Zm-52.715-5.7a29.058,29.058,0,0,1-.847-3.047l.771-.17a28.364,28.364,0,0,0,.824,2.964Zm55.37-.028-.748-.252a28.266,28.266,0,0,0,.821-2.966l.771.169A29.072,29.072,0,0,1,2136.007,653.7Zm-56.728-6.139a29.558,29.558,0,0,1-.172-3.157h.789a28.871,28.871,0,0,0,.167,3.072Zm58.08-.031-.784-.084a28.85,28.85,0,0,0,.164-3.072v-.061h.789v.061A29.534,29.534,0,0,1,2137.359,647.533Zm-57.3-6.2-.785-.083a29.287,29.287,0,0,1,.5-3.121l.771.168A28.4,28.4,0,0,0,2080.057,641.334Zm56.511-.089a28.521,28.521,0,0,0-.5-3.035l.77-.17a29.212,29.212,0,0,1,.514,3.12Zm-55.2-5.914-.748-.251a29.134,29.134,0,0,1,1.168-2.94l.716.331A28.448,28.448,0,0,0,2081.366,635.33Zm53.875-.084a28.192,28.192,0,0,0-1.145-2.855l.715-.333a29.152,29.152,0,0,1,1.177,2.935Zm-51.3-5.495-.676-.407a29.42,29.42,0,0,1,1.774-2.618l.628.477A28.706,28.706,0,0,0,2083.943,629.751Zm48.7-.074a28.55,28.55,0,0,0-1.733-2.541l.627-.479a29.345,29.345,0,0,1,1.781,2.612Zm-44.988-4.821-.573-.542a29.461,29.461,0,0,1,2.292-2.178l.512.6A28.687,28.687,0,0,0,2087.66,624.857Zm41.257-.062a28.719,28.719,0,0,0-2.237-2.113l.51-.6a29.466,29.466,0,0,1,2.3,2.171Zm-36.581-3.924-.444-.652a29.282,29.282,0,0,1,2.705-1.636l.371.7A28.516,28.516,0,0,0,2092.336,620.871Zm31.892-.048a28.554,28.554,0,0,0-2.638-1.585l.369-.7a29.313,29.313,0,0,1,2.711,1.628Zm-26.47-2.841-.293-.732a29.094,29.094,0,0,1,3-1.014l.212.76A28.264,28.264,0,0,0,2097.758,617.981Zm21.038-.032a28.364,28.364,0,0,0-2.918-.977l.209-.761a29.1,29.1,0,0,1,3,1Zm-15.119-1.617-.128-.778a29.363,29.363,0,0,1,3.143-.343l.043.788A28.663,28.663,0,0,0,2103.676,616.332Zm9.2-.014a28.65,28.65,0,0,0-3.06-.324l.041-.788a29.405,29.405,0,0,1,3.144.333Z" transform="translate(-2079.107 -615.206)" fill="#9b9be0"/>
            </g>
          </g>
        </g>
      </g>
      <g id="Grupo_900841" data-name="Grupo 900841" transform="translate(531.432 577.777)">
        <g id="Grupo_900838" data-name="Grupo 900838" transform="translate(0 0)">
          <path id="Trazado_628762" data-name="Trazado 628762" d="M2302.387,723.741h-9.948a1.266,1.266,0,0,1-1.265-1.265v-3.43a1.266,1.266,0,0,1,1.265-1.265h9.948a1.266,1.266,0,0,1,1.265,1.265v3.43A1.266,1.266,0,0,1,2302.387,723.741Zm-9.948-5.763a1.069,1.069,0,0,0-1.068,1.068v3.43a1.069,1.069,0,0,0,1.068,1.068h9.948a1.069,1.069,0,0,0,1.068-1.068v-3.43a1.069,1.069,0,0,0-1.068-1.068Z" transform="translate(-2291.174 -717.78)" fill="#9b9be0"/>
        </g>
        <g id="Grupo_900839" data-name="Grupo 900839" transform="translate(6.724 9.251)">
          <path id="Trazado_628763" data-name="Trazado 628763" d="M2334.042,782.087h-2.256v-8.43h2.256Zm-2.058-.2h1.861v-8.036h-1.861Z" transform="translate(-2331.786 -773.657)" fill="#9b9be0"/>
        </g>
        <g id="Grupo_900840" data-name="Grupo 900840" transform="translate(7.71 2.539)">
          <path id="Trazado_628764" data-name="Trazado 628764" d="M2337.941,739.9h-.2v-1.461l6.7-2.213v-2.917h-2.028v-.2h2.226v3.257l-6.7,2.213Z" transform="translate(-2337.744 -733.114)" fill="#9b9be0"/>
        </g>
      </g>
      <g id="Grupo_900846" data-name="Grupo 900846" transform="translate(442.663 550)">
        <g id="Grupo_900842" data-name="Grupo 900842" transform="translate(0 3.483)">
          <path id="Trazado_628765" data-name="Trazado 628765" d="M1727.568,586.414h-12.845v-.2a3.489,3.489,0,0,0,3.485-3.485v-9.9h.2v9.9a3.689,3.689,0,0,1-2.492,3.485h11.656a3.489,3.489,0,0,0,3.484-3.485v-11.7h.2v11.7A3.686,3.686,0,0,1,1727.568,586.414Z" transform="translate(-1714.722 -571.037)" fill="#9b9be0"/>
        </g>
        <g id="Grupo_900843" data-name="Grupo 900843" transform="translate(12.946 0)">
          <path id="Trazado_628766" data-name="Trazado 628766" d="M1794.759,555.373c-1.015,0-1.841-1.205-1.841-2.687s.826-2.687,1.841-2.687,1.84,1.205,1.84,2.687S1795.773,555.373,1794.759,555.373Zm0-5.176c-.906,0-1.643,1.117-1.643,2.489s.737,2.489,1.643,2.489,1.643-1.117,1.643-2.489S1795.664,550.2,1794.759,550.2Z" transform="translate(-1792.918 -550)" fill="#9b9be0"/>
        </g>
        <g id="Grupo_900844" data-name="Grupo 900844" transform="translate(0.1 0)">
          <path id="Trazado_628767" data-name="Trazado 628767" d="M1730.015,555.373h-12.846c-1.015,0-1.84-1.205-1.84-2.687s.826-2.687,1.84-2.687h12.846v.2h-12.846c-.906,0-1.643,1.117-1.643,2.489s.737,2.489,1.643,2.489h12.846Z" transform="translate(-1715.329 -550)" fill="#9b9be0"/>
        </g>
        <g id="Grupo_900845" data-name="Grupo 900845" transform="translate(13.742 1.183)">
          <path id="Trazado_628768" data-name="Trazado 628768" d="M1798.771,560.153c-.576,0-1.044-.674-1.044-1.5s.468-1.5,1.044-1.5,1.044.674,1.044,1.5S1799.347,560.153,1798.771,560.153Zm0-2.81c-.467,0-.847.586-.847,1.306s.38,1.306.847,1.306.847-.586.847-1.306S1799.238,557.343,1798.771,557.343Z" transform="translate(-1797.727 -557.146)" fill="#9b9be0"/>
        </g>
      </g>
      <g id="Grupo_900881" data-name="Grupo 900881" transform="translate(549.701 653.32)">
        <g id="Grupo_900880" data-name="Grupo 900880" transform="translate(0 0)">
          <g id="Grupo_900849" data-name="Grupo 900849">
            <g id="Grupo_900848" data-name="Grupo 900848">
              <g id="Grupo_900847" data-name="Grupo 900847">
                <path id="Trazado_628769" data-name="Trazado 628769" d="M2429.5,1217.528h-19.03V1195.89h19.03Zm-18.833-.2h18.636v-21.243H2410.67Z" transform="translate(-2410.473 -1195.89)" fill="#9b9be0"/>
              </g>
            </g>
          </g>
          <g id="Grupo_900852" data-name="Grupo 900852" transform="translate(1.235 1.235)">
            <g id="Grupo_900851" data-name="Grupo 900851">
              <g id="Grupo_900850" data-name="Grupo 900850">
                <path id="Trazado_628770" data-name="Trazado 628770" d="M2434.492,1206.325h-16.561v-2.976h16.561Zm-16.364-.2H2434.3v-2.581h-16.166Z" transform="translate(-2417.932 -1203.349)" fill="#9b9be0"/>
              </g>
            </g>
          </g>
          <g id="Grupo_900855" data-name="Grupo 900855" transform="translate(7.873 5.42)">
            <g id="Grupo_900854" data-name="Grupo 900854">
              <g id="Grupo_900853" data-name="Grupo 900853">
                <path id="Trazado_628771" data-name="Trazado 628771" d="M2461.312,1231.913h-3.284v-3.285h3.284Zm-3.087-.2h2.89v-2.89h-2.89Z" transform="translate(-2458.027 -1228.628)" fill="#9b9be0"/>
              </g>
            </g>
          </g>
          <g id="Grupo_900858" data-name="Grupo 900858" transform="translate(13.396 5.42)">
            <g id="Grupo_900857" data-name="Grupo 900857">
              <g id="Grupo_900856" data-name="Grupo 900856">
                <path id="Trazado_628772" data-name="Trazado 628772" d="M2494.671,1231.913h-3.284v-3.285h3.284Zm-3.087-.2h2.89v-2.89h-2.89Z" transform="translate(-2491.387 -1228.628)" fill="#9b9be0"/>
              </g>
            </g>
          </g>
          <g id="Grupo_900861" data-name="Grupo 900861" transform="translate(2.613 5.42)">
            <g id="Grupo_900860" data-name="Grupo 900860">
              <g id="Grupo_900859" data-name="Grupo 900859">
                <path id="Trazado_628773" data-name="Trazado 628773" d="M2429.54,1231.913h-3.285v-3.285h3.285Zm-3.087-.2h2.89v-2.89h-2.89Z" transform="translate(-2426.255 -1228.628)" fill="#9b9be0"/>
              </g>
            </g>
          </g>
          <g id="Grupo_900864" data-name="Grupo 900864" transform="translate(7.873 10.943)">
            <g id="Grupo_900863" data-name="Grupo 900863">
              <g id="Grupo_900862" data-name="Grupo 900862">
                <path id="Trazado_628774" data-name="Trazado 628774" d="M2461.312,1265.274h-3.284v-3.285h3.284Zm-3.087-.2h2.89v-2.89h-2.89Z" transform="translate(-2458.027 -1261.989)" fill="#9b9be0"/>
              </g>
            </g>
          </g>
          <g id="Grupo_900867" data-name="Grupo 900867" transform="translate(13.396 10.943)">
            <g id="Grupo_900866" data-name="Grupo 900866">
              <g id="Grupo_900865" data-name="Grupo 900865">
                <path id="Trazado_628775" data-name="Trazado 628775" d="M2494.671,1265.274h-3.284v-3.285h3.284Zm-3.087-.2h2.89v-2.89h-2.89Z" transform="translate(-2491.387 -1261.989)" fill="#9b9be0"/>
              </g>
            </g>
          </g>
          <g id="Grupo_900870" data-name="Grupo 900870" transform="translate(2.613 10.943)">
            <g id="Grupo_900869" data-name="Grupo 900869">
              <g id="Grupo_900868" data-name="Grupo 900868">
                <path id="Trazado_628776" data-name="Trazado 628776" d="M2429.54,1265.274h-3.285v-3.285h3.285Zm-3.087-.2h2.89v-2.89h-2.89Z" transform="translate(-2426.255 -1261.989)" fill="#9b9be0"/>
              </g>
            </g>
          </g>
          <g id="Grupo_900873" data-name="Grupo 900873" transform="translate(7.873 16.466)">
            <g id="Grupo_900872" data-name="Grupo 900872">
              <g id="Grupo_900871" data-name="Grupo 900871">
                <path id="Trazado_628777" data-name="Trazado 628777" d="M2461.312,1298.634h-3.284v-3.285h3.284Zm-3.087-.2h2.89v-2.89h-2.89Z" transform="translate(-2458.027 -1295.349)" fill="#9b9be0"/>
              </g>
            </g>
          </g>
          <g id="Grupo_900876" data-name="Grupo 900876" transform="translate(13.396 16.466)">
            <g id="Grupo_900875" data-name="Grupo 900875">
              <g id="Grupo_900874" data-name="Grupo 900874">
                <path id="Trazado_628778" data-name="Trazado 628778" d="M2494.671,1298.634h-3.284v-3.285h3.284Zm-3.087-.2h2.89v-2.89h-2.89Z" transform="translate(-2491.387 -1295.349)" fill="#9b9be0"/>
              </g>
            </g>
          </g>
          <g id="Grupo_900879" data-name="Grupo 900879" transform="translate(2.613 16.466)">
            <g id="Grupo_900878" data-name="Grupo 900878">
              <g id="Grupo_900877" data-name="Grupo 900877">
                <path id="Trazado_628779" data-name="Trazado 628779" d="M2429.54,1298.634h-3.285v-3.285h3.285Zm-3.087-.2h2.89v-2.89h-2.89Z" transform="translate(-2426.255 -1295.349)" fill="#9b9be0"/>
              </g>
            </g>
          </g>
        </g>
      </g>
      <g id="Grupo_900885" data-name="Grupo 900885" transform="translate(224.118 694.376)">
        <g id="Grupo_900882" data-name="Grupo 900882" transform="translate(0.013)">
          <path id="Trazado_628780" data-name="Trazado 628780" d="M335.224,1466.892H318.906v-14.945h16.318Zm-16.055-.263h15.792V1452.21H319.169Z" transform="translate(-318.906 -1451.947)" fill="#9b9be0"/>
        </g>
        <g id="Grupo_900883" data-name="Grupo 900883" transform="translate(9.756 2.127)">
          <path id="Trazado_628781" data-name="Trazado 628781" d="M380.011,1469.31a2.258,2.258,0,1,1,2.258-2.259A2.261,2.261,0,0,1,380.011,1469.31Zm0-4.254a2,2,0,1,0,2,2A2,2,0,0,0,380.011,1465.056Z" transform="translate(-377.753 -1464.793)" fill="#9b9be0"/>
        </g>
        <g id="Grupo_900884" data-name="Grupo 900884" transform="translate(0 6.414)">
          <path id="Trazado_628782" data-name="Trazado 628782" d="M328.355,1494.995l-4.589-3.973-4.787,3.371-.152-.215,4.955-3.49,4.6,3.986,4.246-2.4,2.469,1.764-.153.214-2.333-1.667Z" transform="translate(-318.828 -1490.689)" fill="#9b9be0"/>
        </g>
      </g>
      <path id="Trazado_628828" data-name="Trazado 628828" d="M12.525,0H368.8c6.917,0,12.525,5.912,12.525,13.2H0C0,5.912,5.607,0,12.525,0Z" transform="translate(231.986 892.817)" fill="#0b5999"/>
      <g id="Grupo_900886" data-name="Grupo 900886" transform="translate(543.437 677.526)">
        <rect id="Rectángulo_302828" data-name="Rectángulo 302828" width="36.194" height="187.376" transform="translate(0 27.466)" fill="#0b5999"/>
        <rect id="Rectángulo_302829" data-name="Rectángulo 302829" width="10.57" height="187.376" transform="translate(25.624 27.466)" fill="#d4d4d4" style="mix-blend-mode: multiply;isolation: isolate"/>
        <path id="Trazado_628783" data-name="Trazado 628783" d="M2390.815,1390.887l-18.177,27.466h36.194Z" transform="translate(-2372.638 -1390.887)" fill="#afafaf"/>
        <path id="Trazado_628784" data-name="Trazado 628784" d="M2447.669,1403.859l-8.51-12.972-8.585,12.972Z" transform="translate(-2420.983 -1390.887)" fill="#12263f"/>
      </g>
      <g id="Grupo_900887" data-name="Grupo 900887" transform="translate(395.384 799.816)">
        <path id="Trazado_628785" data-name="Trazado 628785" d="M1682.4,2192.323a72.712,72.712,0,0,0-144.061,0h-30.306v30.429H1712.7v-30.429Zm-72.031-26.834a36.842,36.842,0,0,1,35.449,26.834h-70.9A36.843,36.843,0,0,1,1610.368,2165.489Z" transform="translate(-1503.121 -2129.544)" fill="#b1174b"/>
        <path id="Trazado_628786" data-name="Trazado 628786" d="M1652.734,2192.323a72.712,72.712,0,0,0-144.061,0h-30.305v30.429h204.672v-30.429Zm-72.031-26.834a36.842,36.842,0,0,1,35.449,26.834h-70.9A36.843,36.843,0,0,1,1580.7,2165.489Z" transform="translate(-1478.367 -2129.544)" fill="#ef3c79"/>
        <rect id="Rectángulo_302830" data-name="Rectángulo 302830" width="3.417" height="10.89" transform="translate(100.628 80.609)" fill="#b484db"/>
        <rect id="Rectángulo_302831" data-name="Rectángulo 302831" width="3.417" height="10.89" transform="translate(117.817 80.609)" fill="#b484db"/>
        <rect id="Rectángulo_302832" data-name="Rectángulo 302832" width="3.417" height="10.89" transform="translate(135.007 80.609)" fill="#b1174b"/>
        <rect id="Rectángulo_302833" data-name="Rectángulo 302833" width="3.417" height="10.89" transform="translate(152.196 80.609)" fill="#b1174b"/>
        <rect id="Rectángulo_302834" data-name="Rectángulo 302834" width="3.417" height="10.89" transform="translate(169.386 80.609)" fill="#b1174b"/>
        <rect id="Rectángulo_302835" data-name="Rectángulo 302835" width="3.417" height="10.89" transform="translate(186.575 80.609)" fill="#b1174b"/>
        <rect id="Rectángulo_302836" data-name="Rectángulo 302836" width="3.417" height="10.89" transform="translate(11.406 80.609)" fill="#b484db"/>
        <rect id="Rectángulo_302837" data-name="Rectángulo 302837" width="3.417" height="10.89" transform="translate(28.596 80.609)" fill="#b484db"/>
        <rect id="Rectángulo_302838" data-name="Rectángulo 302838" width="3.417" height="10.89" transform="translate(45.785 80.609)" fill="#b484db"/>
        <rect id="Rectángulo_302839" data-name="Rectángulo 302839" width="3.417" height="10.89" transform="translate(62.975 80.609)" fill="#b484db"/>
        <rect id="Rectángulo_302840" data-name="Rectángulo 302840" width="3.417" height="10.89" transform="translate(80.164 80.609)" fill="#b484db"/>
      </g>
      <g id="Grupo_900889" data-name="Grupo 900889" transform="translate(302.954 580.378)">
        <g id="Grupo_900888" data-name="Grupo 900888" transform="translate(0 0)">
          <rect id="Rectángulo_302841" data-name="Rectángulo 302841" width="312.448" height="236.514" rx="16.32" transform="translate(236.514) rotate(90)" fill="#404040"/>
          <rect id="Rectángulo_302842" data-name="Rectángulo 302842" width="286.664" height="224.667" rx="11" transform="translate(230.59 5.923) rotate(90)" fill="#737373"/>
          <rect id="Rectángulo_302843" data-name="Rectángulo 302843" width="217.046" height="279.196" transform="translate(9.732 9.686)" fill="#afafaf"/>
          <rect id="Rectángulo_302844" data-name="Rectángulo 302844" width="191.399" height="253.396" transform="translate(22.557 22.558)" fill="#fff"/>
        </g>
      </g>
      <g id="Grupo_900890" data-name="Grupo 900890" transform="translate(441.355 627.435)">
        <circle id="Elipse_6473" data-name="Elipse 6473" cx="26.672" cy="26.672" r="26.672" transform="translate(9.143 12.953)" fill="#ebe2df" style="mix-blend-mode: multiply;isolation: isolate"/>
        <path id="Trazado_628827" data-name="Trazado 628827" d="M26.672,0A26.672,26.672,0,1,1,0,26.672,26.672,26.672,0,0,1,26.672,0Z" transform="translate(0 37.719) rotate(-45)" fill="#21cbae"/>
        <path id="Trazado_628787" data-name="Trazado 628787" d="M1880.752,1196.195c-3.356-1.179-5.54-3.534-6.015-9.745,3.522-1.688,6.019-5.91,6.019-10.855,0-6.43-4.222-11.643-9.431-11.643s-9.43,5.213-9.43,11.643c0,4.945,2.5,9.166,6.02,10.855-.476,6.211-2.659,8.566-6.016,9.745-3.036,1.067-4.917,2.582-5.7,4.2a25.077,25.077,0,0,0,30.257,0C1885.669,1198.777,1883.789,1197.262,1880.752,1196.195Z" transform="translate(-1833.606 -1142.968)" fill="#fff"/>
      </g>
      <g id="Grupo_900891" data-name="Grupo 900891" transform="translate(345.003 648.626)">
        <path id="Trazado_628788" data-name="Trazado 628788" d="M1210.887,1223.243l-14.344-7.91a18.875,18.875,0,0,0,3.467-10.925h0a18.968,18.968,0,0,0-18.968-18.968H1125.6a18.968,18.968,0,0,0-18.968,18.968h0a18.968,18.968,0,0,0,18.968,18.968h55.446a19.16,19.16,0,0,0,2.213-.133Z" transform="translate(-1106.628 -1182.521)" fill="#ebe2df" style="mix-blend-mode: multiply;isolation: isolate"/>
        <path id="Trazado_628789" data-name="Trazado 628789" d="M1214.626,1205.616l-14.344-7.91a18.875,18.875,0,0,0,3.467-10.925h0a18.968,18.968,0,0,0-18.968-18.968h-55.446a18.968,18.968,0,0,0-18.968,18.968h0a18.968,18.968,0,0,0,18.968,18.968h55.446a19.132,19.132,0,0,0,2.213-.133Z" transform="translate(-1109.748 -1167.812)" fill="#21cbae"/>
        <rect id="Rectángulo_302845" data-name="Rectángulo 302845" width="25.998" height="4.908" rx="2.454" transform="translate(12.822 7.826)" fill="#fff"/>
        <rect id="Rectángulo_302846" data-name="Rectángulo 302846" width="25.998" height="4.908" rx="2.454" transform="translate(54.738 28.651)" fill="#fff"/>
        <rect id="Rectángulo_302847" data-name="Rectángulo 302847" width="68.975" height="4.908" rx="2.454" transform="translate(12.822 18.335)" fill="#fff"/>
      </g>
      <g id="Grupo_900892" data-name="Grupo 900892" transform="translate(337.192 761.261)">
        <circle id="Elipse_6475" data-name="Elipse 6475" cx="26.672" cy="26.672" r="26.672" transform="translate(0 37.719) rotate(-45)" fill="#ebe2df" style="mix-blend-mode: multiply;isolation: isolate"/>
        <path id="Trazado_628829" data-name="Trazado 628829" d="M26.672,0A26.672,26.672,0,1,1,0,26.672,26.672,26.672,0,0,1,26.672,0Z" transform="translate(9.143 9.143)" fill="#ef3c79"/>
        <path id="Trazado_628790" data-name="Trazado 628790" d="M1182.051,2026.7c3.356-1.179,5.54-3.534,6.015-9.745-3.521-1.688-6.019-5.91-6.019-10.855,0-6.43,4.222-11.643,9.43-11.643s9.431,5.213,9.431,11.643c0,4.945-2.5,9.166-6.019,10.855.476,6.211,2.659,8.566,6.015,9.745,3.036,1.067,4.917,2.582,5.7,4.2a25.077,25.077,0,0,1-30.258,0C1177.133,2029.279,1179.014,2027.765,1182.051,2026.7Z" transform="translate(-1155.663 -1975.376)" fill="#fff"/>
      </g>
      <g id="Grupo_900893" data-name="Grupo 900893" transform="translate(402.121 781.204)">
        <path id="Trazado_628791" data-name="Trazado 628791" d="M1478.934,2053.746l14.344-7.91a18.874,18.874,0,0,1-3.467-10.925h0a18.968,18.968,0,0,1,18.968-18.968h55.446a18.968,18.968,0,0,1,18.968,18.968h0a18.968,18.968,0,0,1-18.968,18.968h-55.446a19.078,19.078,0,0,1-2.213-.133Z" transform="translate(-1478.315 -2013.024)" fill="#ebe2df" style="mix-blend-mode: multiply;isolation: isolate"/>
        <path id="Trazado_628792" data-name="Trazado 628792" d="M1475.195,2036.119l14.344-7.91a18.876,18.876,0,0,1-3.467-10.926h0a18.968,18.968,0,0,1,18.968-18.968h55.446a18.968,18.968,0,0,1,18.968,18.968h0a18.968,18.968,0,0,1-18.968,18.968H1505.04a19.132,19.132,0,0,1-2.213-.133Z" transform="translate(-1475.195 -1998.315)" fill="#ef3c79"/>
        <rect id="Rectángulo_302848" data-name="Rectángulo 302848" width="25.998" height="4.908" rx="2.454" transform="translate(92.056 12.734) rotate(180)" fill="#fff"/>
        <rect id="Rectángulo_302849" data-name="Rectángulo 302849" width="25.998" height="4.908" rx="2.454" transform="translate(50.14 33.559) rotate(180)" fill="#fff"/>
        <rect id="Rectángulo_302850" data-name="Rectángulo 302850" width="68.975" height="4.908" rx="2.454" transform="translate(92.056 23.242) rotate(180)" fill="#fff"/>
      </g>
      <g id="Grupo_900894" data-name="Grupo 900894" transform="translate(345.003 699.371)">
        <path id="Trazado_628793" data-name="Trazado 628793" d="M1210.887,1541.125l-14.344-7.91a18.875,18.875,0,0,0,3.467-10.925h0a18.968,18.968,0,0,0-18.968-18.968H1125.6a18.968,18.968,0,0,0-18.968,18.968h0a18.968,18.968,0,0,0,18.968,18.968h55.446a19.132,19.132,0,0,0,2.213-.133Z" transform="translate(-1106.628 -1500.403)" fill="#ebe2df" style="mix-blend-mode: multiply;isolation: isolate"/>
        <path id="Trazado_628794" data-name="Trazado 628794" d="M1214.626,1523.5l-14.344-7.91a18.874,18.874,0,0,0,3.467-10.925h0a18.968,18.968,0,0,0-18.968-18.968h-55.446a18.968,18.968,0,0,0-18.968,18.968h0a18.968,18.968,0,0,0,18.968,18.968h55.446a19.132,19.132,0,0,0,2.213-.133Z" transform="translate(-1109.748 -1485.694)" fill="#fecb2f"/>
        <rect id="Rectángulo_302851" data-name="Rectángulo 302851" width="25.998" height="4.908" rx="2.454" transform="translate(12.822 7.826)" fill="#fff"/>
        <rect id="Rectángulo_302852" data-name="Rectángulo 302852" width="25.998" height="4.908" rx="2.454" transform="translate(54.738 28.651)" fill="#fff"/>
        <rect id="Rectángulo_302853" data-name="Rectángulo 302853" width="68.975" height="4.908" rx="2.454" transform="translate(12.822 18.335)" fill="#fff"/>
      </g>
      <g id="Grupo_900896" data-name="Grupo 900896" transform="translate(263.424 569.992)">
        <path id="Trazado_628795" data-name="Trazado 628795" d="M616.552,738.981a.621.621,0,1,1,0-1.243,3.881,3.881,0,0,0,3.876-3.877V707.483a11.94,11.94,0,0,1,11.927-11.927,10.7,10.7,0,0,0,10.684-10.684v-2.188A10.7,10.7,0,0,0,632.355,672H568.169a10.7,10.7,0,0,0-10.684,10.684v44.087a10.7,10.7,0,0,0,10.684,10.684H594.71a.621.621,0,0,1,0,1.243H568.169a11.94,11.94,0,0,1-11.927-11.927V682.684a11.94,11.94,0,0,1,11.927-11.927h64.186a11.94,11.94,0,0,1,11.927,11.927v2.188A11.94,11.94,0,0,1,632.355,696.8a10.7,10.7,0,0,0-10.684,10.684v26.379A5.125,5.125,0,0,1,616.552,738.981Z" transform="translate(-556.242 -670.757)" fill="#21cbae"/>
        <g id="Grupo_900895" data-name="Grupo 900895" transform="translate(2.728 65.779)">
          <rect id="Rectángulo_302854" data-name="Rectángulo 302854" width="94.009" height="57.054" rx="8.087" transform="translate(6.321 10.617)" fill="#d4d4d4" style="mix-blend-mode: multiply;isolation: isolate"/>
          <rect id="Rectángulo_302855" data-name="Rectángulo 302855" width="94.009" height="57.054" transform="translate(0 4.538)" fill="#f1f1fe"/>
          <path id="Trazado_628796" data-name="Trazado 628796" d="M950.637,1122.074c4.491,11.932,8.056,22.035.588,30.472H979.65v-57.054H953.126C946.1,1101.742,946.665,1111.518,950.637,1122.074Z" transform="translate(-885.641 -1090.953)" fill="#ef3c79"/>
          <circle id="Elipse_6477" data-name="Elipse 6477" cx="7.456" cy="7.456" r="7.456" transform="translate(71.796 12.677)" fill="#716ac7"/>
          <circle id="Elipse_6478" data-name="Elipse 6478" cx="7.456" cy="7.456" r="7.456" transform="translate(70.669 11.832)" fill="#e6e6fe"/>
          <rect id="Rectángulo_302856" data-name="Rectángulo 302856" width="20.909" height="9.239" transform="translate(36.55)" fill="#ef3c79"/>
        </g>
      </g>
      <g id="Grupo_900898" data-name="Grupo 900898" transform="translate(294.968 752.315)">
        <rect id="Rectángulo_302857" data-name="Rectángulo 302857" width="138.37" height="44.202" transform="translate(0 138.37) rotate(-90)" fill="#21cbae"/>
        <g id="Grupo_900897" data-name="Grupo 900897" transform="translate(5.872 8.435)">
          <rect id="Rectángulo_302858" data-name="Rectángulo 302858" width="27.683" height="33.098" transform="translate(0 103.35) rotate(-90)" fill="#0b5999"/>
          <rect id="Rectángulo_302859" data-name="Rectángulo 302859" width="27.683" height="33.098" transform="translate(0 65.517) rotate(-90)" fill="#0b5999"/>
          <rect id="Rectángulo_302860" data-name="Rectángulo 302860" width="27.683" height="33.098" transform="translate(0 27.683) rotate(-90)" fill="#0b5999"/>
          <rect id="Rectángulo_302861" data-name="Rectángulo 302861" width="138.37" height="44.202" transform="translate(17.189 85.947)" fill="#fecb2f"/>
          <circle id="Elipse_6479" data-name="Elipse 6479" cx="5.765" cy="5.765" r="5.765" transform="matrix(0.16, -0.987, 0.987, 0.16, 21.038, 124.453)" fill="#0b5999"/>
          <rect id="Rectángulo_302862" data-name="Rectángulo 302862" width="27.683" height="33.098" transform="translate(43.668 91.499)" fill="#ef3c79"/>
          <rect id="Rectángulo_302863" data-name="Rectángulo 302863" width="27.683" height="33.098" transform="translate(81.501 91.499)" fill="#ef3c79"/>
          <rect id="Rectángulo_302864" data-name="Rectángulo 302864" width="27.683" height="33.098" transform="translate(119.335 91.499)" fill="#ef3c79"/>
        </g>
      </g>
      <g id="Grupo_900899" data-name="Grupo 900899" transform="translate(251.552 725.294)">
        <path id="Trazado_628797" data-name="Trazado 628797" d="M563.616,2619.607a6.52,6.52,0,0,1-.513,3.775,10.636,10.636,0,0,0-.707,5.736c.247.98,21.741.489,21.741.489-2.482-4.676-7.032-6.712-9.493-7.643a6.84,6.84,0,0,1-3.73-3.765C570.9,2617.895,563.616,2619.607,563.616,2619.607Z" transform="translate(-549.4 -2462.747)" fill="#ff8762"/>
        <path id="Trazado_628798" data-name="Trazado 628798" d="M574.645,2635.076a6.1,6.1,0,0,1-1.924-1.2c-2.31,1.1-2.555,2.5-5.015,3.217a5.279,5.279,0,0,1-4.475-.856c-.039.086-.081.172-.127.256a10.637,10.637,0,0,0-.707,5.736c.247.98,21.741.489,21.741.489C581.655,2638.043,577.106,2636.007,574.645,2635.076Z" transform="translate(-549.4 -2475.859)" fill="#12263f"/>
        <rect id="Rectángulo_302865" data-name="Rectángulo 302865" width="0.146" height="18.899" transform="matrix(0.012, -1, 1, 0.012, 13.405, 164.892)" fill="#4a2d23"/>
        <path id="Trazado_628799" data-name="Trazado 628799" d="M631.388,2641.383l-.144-.025a1.928,1.928,0,0,1,1.9-1.464l.008.146A1.779,1.779,0,0,0,631.388,2641.383Z" transform="translate(-606.955 -2480.88)" fill="#4a2d23"/>
        <path id="Trazado_628800" data-name="Trazado 628800" d="M650.874,2651.132l-.144-.026a1.928,1.928,0,0,1,1.9-1.464l.008.146A1.78,1.78,0,0,0,650.874,2651.132Z" transform="translate(-623.215 -2489.015)" fill="#4a2d23"/>
        <path id="Trazado_628801" data-name="Trazado 628801" d="M650.883,2619.607a6.521,6.521,0,0,1-.513,3.775,10.636,10.636,0,0,0-.708,5.736c.247.98,21.741.489,21.741.489-2.482-4.676-7.032-6.712-9.493-7.643a6.841,6.841,0,0,1-3.73-3.765C658.164,2617.895,650.883,2619.607,650.883,2619.607Z" transform="translate(-622.219 -2462.747)" fill="#ff8762"/>
        <path id="Trazado_628802" data-name="Trazado 628802" d="M661.912,2635.076a6.1,6.1,0,0,1-1.924-1.2c-2.31,1.1-2.555,2.5-5.015,3.217a5.279,5.279,0,0,1-4.475-.856c-.039.086-.081.172-.127.256a10.637,10.637,0,0,0-.708,5.736c.247.98,21.741.489,21.741.489C668.922,2638.043,664.373,2636.007,661.912,2635.076Z" transform="translate(-622.219 -2475.859)" fill="#12263f"/>
        <rect id="Rectángulo_302866" data-name="Rectángulo 302866" width="0.146" height="18.899" transform="matrix(0.012, -1, 1, 0.012, 27.853, 164.892)" fill="#4a2d23"/>
        <path id="Trazado_628803" data-name="Trazado 628803" d="M718.655,2641.383l-.144-.025a1.928,1.928,0,0,1,1.9-1.464l.008.146A1.78,1.78,0,0,0,718.655,2641.383Z" transform="translate(-679.774 -2480.88)" fill="#4a2d23"/>
        <path id="Trazado_628804" data-name="Trazado 628804" d="M738.141,2651.132l-.144-.026a1.928,1.928,0,0,1,1.9-1.464l.008.146A1.78,1.78,0,0,0,738.141,2651.132Z" transform="translate(-696.034 -2489.015)" fill="#4a2d23"/>
        <path id="Trazado_628805" data-name="Trazado 628805" d="M891.607,1857.679s.448.037,1.455-1.679a12.155,12.155,0,0,1,4.515-4.851c2.127-1.119,2.239-1.418,4.1-1.6s3.023-.6,3.135-.56c.448.56-.448,1.679-2.015,2.2s-2.538,1.269-1.53,1.045,2.239.261,2.015.97a2.471,2.471,0,0,0,0,1.642c.149.821.037,2.687-1.082,2.948a3.306,3.306,0,0,0-2.388,2.127c-.56,1.232-2.836,1.866-3.545,2.314s-1.082.709-1.082.709-3.246.485-3.359.187A36.037,36.037,0,0,1,891.607,1857.679Z" transform="translate(-824.176 -1820.909)" fill="#ff8762"/>
        <path id="Trazado_628806" data-name="Trazado 628806" d="M551.917,2046.2s-1.978,7.948-1.381,13.77,1.269,21.046.6,26.2-1.12,18.658-1.045,26.2,1.791,27.39,2.09,28.137c6.791,1.343,10.3-.522,10.3-.522l1.791-15.524,1.12,15.673c7.986.9,10.672.821,12.613-.6.97-9.553,1.9-53.474,1.9-59.52s.784-22.614-1.008-27.315-1.791-6.12-1.791-6.12l-20.263-3.732Z" transform="translate(-539.228 -1982.671)" fill="#0b5999"/>
        <path id="Trazado_628807" data-name="Trazado 628807" d="M560.247,2043.148a21.74,21.74,0,0,0,.149,2.65c1.679.485,11.941-.037,16.121.485s8.62.187,9.068-.112a12.2,12.2,0,0,0,0-3.806C585.473,2042.29,560.247,2043.148,560.247,2043.148Z" transform="translate(-547.708 -1982.272)" fill="#2b1710"/>
        <path id="Trazado_628808" data-name="Trazado 628808" d="M501.811,1810.227s-.672,1.008-1.343,1.008-8.172,3.358-10.859,8.62-6.045,26.644-4.814,28.435,12.091,1.679,12.091,1.679c1.679-.224,14.777.112,18.7.56s7.277-.336,7.5-1.9.427-10.194.427-10.194,8.081,5.156,11.887,5.6,17.128-7.277,20.151-13.434c-3.806-2.015-3.582-5.261-3.582-5.261-.784,0-14.889,7.613-16.345,6.829s-10.859-14.889-12.874-16.345-10.187-3.806-10.859-4.142a14.2,14.2,0,0,1-1.791-1.231Z" transform="translate(-484.532 -1788.57)" fill="#fecb2f"/>
        <path id="Trazado_628809" data-name="Trazado 628809" d="M570.848,1695.531c-.867-.308-1.2-.2-1.511-1.288a25.536,25.536,0,0,0-2.071-4.506c-.84-1.483,1.231-4.59,1.287-4.982s-.28-1.231.7-1.791,1.064-.7,2.043-2.155,3.554-1.735,5.6-1.008,2.771-.42,3.974,0,3.722,3.275,1.539,5.821a21.622,21.622,0,0,0-3.471,6.689c-.112.308-3.5,3.078-3.582,3.19a8.495,8.495,0,0,1-1.511,1.316c-.2,0-.979.028-1.063,0s-1.091-.224-1.091-.224Z" transform="translate(-553.401 -1679.415)" fill="#2b1710"/>
        <path id="Trazado_628810" data-name="Trazado 628810" d="M598.918,1695.95c.5,1.791.224,2.239-1.511,2.743a3.543,3.543,0,0,0-2.295,3.023c0,.56.839.448.616,1.344s-.728,2.071-.392,2.407-1.645.7-1.959.616c-.5-.14-.784-2.239-.784-2.463-.9-1.288-3.246-.056-3.023,1.623s1.9,1.959,2.183,2.967-.224,1.623-.952,1.455-1.735-.336-1.735-.336a21.738,21.738,0,0,1-.168,5.542c5.094,1.847,8.4.56,8.4.56-.392-1.344-.392-2.743,1.567-2.967s2.743-.5,2.631-1.175a8.756,8.756,0,0,1-.224-1.735,1.044,1.044,0,0,0-.056-.532c.364-.308-.14-1.343.224-1.483s2.015-.9,1.9-1.092-2.267-1.791-2.351-2.967.532-2.407.42-2.827S600.149,1696.538,598.918,1695.95Z" transform="translate(-571.619 -1693.212)" fill="#ff8762"/>
        <ellipse id="Elipse_6480" data-name="Elipse 6480" cx="0.56" cy="0.924" rx="0.56" ry="0.924" transform="translate(27.158 9.734)" fill="#2b1710"/>
        <path id="Trazado_628811" data-name="Trazado 628811" d="M641.472,1729.412a11.058,11.058,0,0,1,3.121-.9C643.823,1727.439,642.186,1727.565,641.472,1729.412Z" transform="translate(-615.489 -1719.818)" fill="#2b1710"/>
        <path id="Trazado_628812" data-name="Trazado 628812" d="M598.6,1747.523c-.76,0-1.167-.394-1.236-.832-.087-.545.33-1.213,1.27-1.4a2.092,2.092,0,0,0-.821-.811,1.51,1.51,0,0,0-1.463.012.072.072,0,0,1-.065-.128,1.827,1.827,0,0,1,2.349.658c.222.309.162.367.14.389a.082.082,0,0,1-.09.015c-.868.161-1.256.756-1.179,1.239.064.4.477.823,1.433.687a.072.072,0,0,1,.02.142A2.526,2.526,0,0,1,598.6,1747.523Z" transform="translate(-577.748 -1733.438)" fill="#e0b3a8" style="mix-blend-mode: multiply;isolation: isolate"/>
        <path id="Trazado_628813" data-name="Trazado 628813" d="M648.128,1771.57a3.463,3.463,0,0,1-1.816-.525.071.071,0,1,1,.081-.118,3.343,3.343,0,0,0,2.352.437.072.072,0,0,1,.029.14A3.168,3.168,0,0,1,648.128,1771.57Z" transform="translate(-619.502 -1755.766)" fill="#2b1710"/>
        <path id="Trazado_628814" data-name="Trazado 628814" d="M618.651,1758.942a.072.072,0,0,1,0-.143c.843-.056,1.252-.527,1.277-.94a.191.191,0,0,0,0-.045,1.606,1.606,0,0,0-.341.191,3.966,3.966,0,0,1-1.62.685.072.072,0,0,1-.019-.142,3.843,3.843,0,0,0,1.562-.664c.255-.164.4-.254.495-.2.076.044.07.146.068.18-.028.474-.481,1.013-1.41,1.075Z" transform="translate(-595.804 -1744.714)" fill="#2b1710"/>
        <path id="Trazado_628815" data-name="Trazado 628815" d="M623.394,1783.214h-.014c-.026-.005-2.749-.778-3.629-2.216a.072.072,0,0,1,.122-.075c.852,1.393,3.51,2.145,3.535,2.15a.071.071,0,0,1-.014.142Z" transform="translate(-597.355 -1764.088)" fill="#e0b3a8" style="mix-blend-mode: multiply;isolation: isolate"/>
        <path id="Trazado_628816" data-name="Trazado 628816" d="M589.9,1822.694a16.4,16.4,0,0,1-5.445-.927.072.072,0,1,1,.048-.135,15.645,15.645,0,0,0,8.911.5.071.071,0,1,1,.042.137A13.568,13.568,0,0,1,589.9,1822.694Z" transform="translate(-567.873 -1798.084)" fill="#c2c2c2" style="mix-blend-mode: multiply;isolation: isolate"/>
        <path id="Trazado_628817" data-name="Trazado 628817" d="M680.472,1850.615a.072.072,0,0,1-.069-.052c-.017-.061-1.637-6.078,3.161-9.648a.071.071,0,1,1,.085.115c-4.718,3.511-3.125,9.436-3.108,9.5a.072.072,0,0,1-.05.088Z" transform="translate(-647.745 -1814.165)" fill="#c2c2c2" style="mix-blend-mode: multiply;isolation: isolate"/>
        <path id="Trazado_628818" data-name="Trazado 628818" d="M534.987,1918.411a.071.071,0,0,1-.071-.063c-.006-.049-.634-4.944-2.238-11.635-.382-1.594-.741-2.973-1.057-4.19-1.031-3.963-1.652-6.355-1.352-9.492a.072.072,0,1,1,.142.014c-.3,3.112.321,5.494,1.348,9.442.317,1.217.675,2.6,1.058,4.192,1.606,6.7,2.234,11.6,2.24,11.651a.072.072,0,0,1-.062.08Z" transform="translate(-522.635 -1857.612)" fill="#c2c2c2" style="mix-blend-mode: multiply;isolation: isolate"/>
        <path id="Trazado_628819" data-name="Trazado 628819" d="M697.658,1966.572a.069.069,0,0,1-.035-.01c-.016-.009-1.6-.919-4.315-2.8a.072.072,0,0,1,.082-.118c2.708,1.879,4.289,2.787,4.3,2.8a.071.071,0,0,1-.035.134Z" transform="translate(-658.717 -1916.576)" fill="#c2c2c2" style="mix-blend-mode: multiply;isolation: isolate"/>
        <path id="Trazado_628820" data-name="Trazado 628820" d="M795.168,1949.722h-.005c-.407-.014-.941-2.163-.978-2.756a.622.622,0,0,0-.032-.188,4.841,4.841,0,0,0-.385,2.474.072.072,0,1,1-.143.01,4.428,4.428,0,0,1,.464-2.614.118.118,0,0,1,.122-.012c.069.034.1.133.116.322a6.329,6.329,0,0,0,.84,2.622s.049-.028.081-.276a7.3,7.3,0,0,0-.388-2.821.071.071,0,1,1,.135-.048,7.3,7.3,0,0,1,.4,2.888C795.368,1949.494,795.321,1949.722,795.168,1949.722Z" transform="translate(-742.441 -1902.187)" fill="#c2c2c2" style="mix-blend-mode: multiply;isolation: isolate"/>
        <path id="Trazado_628821" data-name="Trazado 628821" d="M888.124,1912.462a.07.07,0,0,1-.031-.007,8.4,8.4,0,0,1-3.787-4.856.072.072,0,1,1,.136-.043,8.257,8.257,0,0,0,3.713,4.771.071.071,0,0,1-.031.136Z" transform="translate(-818.117 -1869.743)" fill="#c2c2c2" style="mix-blend-mode: multiply;isolation: isolate"/>
        <path id="Trazado_628822" data-name="Trazado 628822" d="M603.117,2154.751a.072.072,0,0,1-.071-.067c-.553-8.189-.342-30.315-.224-33.033,0-1.862-1.608-12.2-4.022-27.146-1.722-.592-2.327-5.356-1.8-14.165a.072.072,0,1,1,.143.008c-.658,10.969.583,13.686,1.74,14.033a.071.071,0,0,1,.05.057c2.42,14.979,4.031,25.339,4.031,27.215-.118,2.719-.329,24.835.224,33.02a.071.071,0,0,1-.066.076Z" transform="translate(-578.226 -2013.908)" fill="#a8a8a8" style="mix-blend-mode: multiply;isolation: isolate"/>
        <path id="Trazado_628823" data-name="Trazado 628823" d="M650.338,2614.171a23.849,23.849,0,0,1-5.694-.689.071.071,0,1,1,.034-.139,22.312,22.312,0,0,0,11.937-.222.072.072,0,0,1,.05.134A20.218,20.218,0,0,1,650.338,2614.171Z" transform="translate(-618.092 -2458.535)" fill="#c2c2c2" style="mix-blend-mode: multiply;isolation: isolate"/>
        <path id="Trazado_628824" data-name="Trazado 628824" d="M624.237,2106.831c-.193,0-3.2-2.241-3.262-2.92-.055-.609-.444-6.491-.448-6.551a.072.072,0,0,1,.143-.01c0,.06.392,5.94.448,6.547.051.564,2.94,2.741,3.128,2.791a49.743,49.743,0,0,0,6.194-2.7c.077-.233.139-4.693.162-7.682l-10.282.167a.072.072,0,1,1,0-.143l10.355-.168a.067.067,0,0,1,.052.021.072.072,0,0,1,.021.052c-.006.763-.059,7.466-.172,7.8-.021.062-.084.251-3.154,1.541C626.071,2106.146,624.35,2106.831,624.237,2106.831Z" transform="translate(-597.778 -2027.168)" fill="#c2c2c2" style="mix-blend-mode: multiply;isolation: isolate"/>
        <rect id="Rectángulo_302867" data-name="Rectángulo 302867" width="1.231" height="3.06" transform="translate(13.957 61.1)" fill="#6d2c94"/>
        <rect id="Rectángulo_302868" data-name="Rectángulo 302868" width="1.231" height="3.06" transform="translate(26.197 61.362)" fill="#6d2c94"/>
        <rect id="Rectángulo_302869" data-name="Rectángulo 302869" width="1.231" height="3.06" transform="translate(35.713 61.287)" fill="#6d2c94"/>
      </g>
      <g id="Grupo_900900" data-name="Grupo 900900" transform="translate(325.704 603.011)">
        <path id="Trazado_628826" data-name="Trazado 628826" d="M0,0H191.773V15.09H0Z" transform="translate(0 0)" fill="#0b5999"/>
        <rect id="Rectángulo_302871" data-name="Rectángulo 302871" width="8.411" height="1.869" transform="translate(155.179 8.483)" fill="#fff"/>
        <rect id="Rectángulo_302872" data-name="Rectángulo 302872" width="8.411" height="1.869" transform="translate(169.294 3.986) rotate(45)" fill="#fff"/>
        <rect id="Rectángulo_302873" data-name="Rectángulo 302873" width="8.411" height="1.869" transform="translate(175.241 5.308) rotate(135)" fill="#fff"/>
        <path id="Trazado_628825" data-name="Trazado 628825" d="M2081.608,891.86v7.668h7.668V891.86Zm6.183,6.183h-4.7v-4.7h4.7Z" transform="translate(-1902.88 -888.273)" fill="#fff"/>
        <circle id="Elipse_6481" data-name="Elipse 6481" cx="2.396" cy="2.396" r="2.396" transform="translate(24.276 9.65) rotate(-80.783)" fill="#fff"/>
        <circle id="Elipse_6482" data-name="Elipse 6482" cx="2.396" cy="2.396" r="2.396" transform="translate(14.319 9.65) rotate(-80.783)" fill="#fff"/>
        <circle id="Elipse_6483" data-name="Elipse 6483" cx="2.396" cy="2.396" r="2.396" transform="translate(4.229 9.45) rotate(-76.718)" fill="#fff"/>
      </g>
    </g>
  </g>
</svg>
