<svg xmlns="http://www.w3.org/2000/svg" width="57.369" height="129.965" viewBox="0 0 57.369 129.965">
  <g id="Grupo_901554" data-name="Grupo 901554" transform="translate(-273.373 -415.12)">
    <g id="Grupo_901543" data-name="Grupo 901543" transform="translate(273.373 415.12)">
      <g id="Grupo_901539" data-name="Grupo 901539" transform="translate(0.77)">
        <g id="Grupo_901506" data-name="Grupo 901506" transform="translate(11.165)">
          <path id="Trazado_629016" data-name="Trazado 629016" d="M327.357,560.9l-38.414-22.171c-.822-.474-.719-1.3.23-1.851l2.18-1.259a3.564,3.564,0,0,1,3.208-.132l38.415,22.17c.822.474.718,1.3-.23,1.851l-2.181,1.259A3.567,3.567,0,0,1,327.357,560.9Z" transform="translate(-288.388 -431.26)" fill="#f2f2f2"/>
          <path id="Trazado_629017" data-name="Trazado 629017" d="M331.474,435.839,296.127,415.43a1.693,1.693,0,0,0-1.73-.129l-3.486,2.018,4.1,3.191,1-.254V504.02a6.391,6.391,0,0,0,2.668,5.1L329.68,531.8v1.4l3.607-2.107v-.014a2.414,2.414,0,0,0,.855-2.1V440.936A6.388,6.388,0,0,0,331.474,435.839Z" transform="translate(-288.727 -415.12)" fill="#999"/>
          <path id="Trazado_629018" data-name="Trazado 629018" d="M326.069,443.317v-3.953l-3.476,2.611L307.4,435.609l-11.383-8.285v-7.069l-1.008.252-4.1-3.188L294.4,415.3a1.711,1.711,0,0,1,1.729.126l35.346,20.415a5.77,5.77,0,0,1,2.278,3.035Z" transform="translate(-288.727 -415.12)" fill="#e6e6e6"/>
          <g id="Grupo_901501" data-name="Grupo 901501" transform="translate(1.222 2.036)">
            <path id="Trazado_629019" data-name="Trazado 629019" d="M327.817,533.359l-35.348-20.408a6.39,6.39,0,0,1-2.668-5.1V419.809c0-1.965,1.194-2.868,2.668-2.017L327.817,438.2a6.389,6.389,0,0,1,2.668,5.1v88.044C330.485,533.307,329.29,534.21,327.817,533.359Z" transform="translate(-289.8 -417.472)" fill="#ccc"/>
            <path id="Trazado_629020" data-name="Trazado 629020" d="M290.7,508.531V420.346c0-1.432.87-2.089,1.944-1.47l35.236,20.343a4.657,4.657,0,0,1,1.944,3.715V531.12c0,1.432-.871,2.089-1.944,1.47l-35.236-20.343A4.656,4.656,0,0,1,290.7,508.531Z" transform="translate(-289.921 -417.629)" fill="#333"/>
            <path id="Trazado_629021" data-name="Trazado 629021" d="M328.952,444.246v85.419c0,1.271-.9,1.773-2,1.138L293.9,511.716a4.415,4.415,0,0,1-2-3.457V422.85c0-1.271.9-1.782,2-1.143l6.039,3.486a1.26,1.26,0,0,1,.544.783l.28,1.276a5.057,5.057,0,0,0,2.293,3.23l14.74,8.51c1.123.648,2.09.4,2.293-.583l.28-.953c.07-.238.292-.3.544-.156l6.048,3.492A4.412,4.412,0,0,1,328.952,444.246Z" transform="translate(-290.081 -418.004)" fill="#d1cdcd"/>
            <g id="Grupo_901493" data-name="Grupo 901493" transform="translate(9.203 35.064)">
              <path id="Trazado_629022" data-name="Trazado 629022" d="M322.687,470.364a2.294,2.294,0,0,1,1.043,1.809l-.01,3.616c0,.666-.472.935-1.051.6l-21.195-12.236a2.3,2.3,0,0,1-1.043-1.81l.01-3.616c0-.667.472-.935,1.051-.6Z" transform="translate(-300.432 -457.983)" fill="#873a54"/>
            </g>
            <g id="Grupo_901494" data-name="Grupo 901494" transform="translate(9.203 47.713)">
              <path id="Trazado_629023" data-name="Trazado 629023" d="M322.687,484.976a2.3,2.3,0,0,1,1.043,1.81l-.01,3.619c0,.665-.472.932-1.051.6l-21.195-12.237a2.293,2.293,0,0,1-1.043-1.807l.01-3.618c0-.666.472-.936,1.051-.6Z" transform="translate(-300.432 -472.596)" fill="#873a54"/>
            </g>
            <g id="Grupo_901495" data-name="Grupo 901495" transform="translate(0 56.518)">
              <path id="Trazado_629024" data-name="Trazado 629024" d="M291.614,483.817v6.12l-1.814-1.048v-6.12Z" transform="translate(-289.799 -482.768)" fill="#148f7a" style="mix-blend-mode: multiply;isolation: isolate"/>
              <path id="Trazado_629025" data-name="Trazado 629025" d="M322.586,503.309l-.008,2.887c-.008.887-.637,1.25-1.411.807l-29.272-16.9v-6.12l29.288,16.9A3.1,3.1,0,0,1,322.586,503.309Z" transform="translate(-290.081 -482.931)" fill="#148f7a"/>
            </g>
            <g id="Grupo_901496" data-name="Grupo 901496" transform="translate(5.811 76.505)">
              <path id="Trazado_629026" data-name="Trazado 629026" d="M306.178,510.978a2.222,2.222,0,0,1,1.008,1.746l-.029,9.91c0,.641-.456.9-1.014.576l-8.624-4.98a2.214,2.214,0,0,1-1.006-1.742l.029-9.91c0-.641.454-.9,1.012-.58Z" transform="translate(-296.513 -505.86)" fill="#873a54"/>
            </g>
            <g id="Grupo_901497" data-name="Grupo 901497" transform="translate(21.829 85.738)">
              <path id="Trazado_629027" data-name="Trazado 629027" d="M324.686,521.645a2.214,2.214,0,0,1,1.006,1.744l-.028,9.91c0,.641-.454.9-1.013.577l-8.624-4.98a2.219,2.219,0,0,1-1.008-1.743l.028-9.91c0-.641.457-.9,1.014-.578Z" transform="translate(-315.019 -516.527)" fill="#1a5587"/>
            </g>
            <g id="Grupo_901498" data-name="Grupo 901498" transform="translate(4.74 13.326)">
              <path id="Trazado_629028" data-name="Trazado 629028" d="M321.412,447.223a3.582,3.582,0,0,1,1.625,2.817l-.023,8.482c0,1.034-.736,1.452-1.636.932L296.9,445.322a3.581,3.581,0,0,1-1.625-2.814l.024-8.483c0-1.036.735-1.454,1.635-.934Z" transform="translate(-295.275 -432.868)" fill="#a17c0c"/>
            </g>
            <g id="Grupo_901499" data-name="Grupo 901499" transform="translate(0 30.036)">
              <path id="Trazado_629029" data-name="Trazado 629029" d="M291.614,453.222v16.619l-1.814-1.048V452.174Z" transform="translate(-289.799 -452.174)" fill="#873a54" style="mix-blend-mode: multiply;isolation: isolate"/>
              <path id="Trazado_629030" data-name="Trazado 629030" d="M294.605,456.57l-.041,13.362c0,.887-.628,1.242-1.411.8L291.895,470v-16.62l1.307.758A3.1,3.1,0,0,1,294.605,456.57Z" transform="translate(-290.081 -452.337)" fill="#873a54"/>
            </g>
            <g id="Grupo_901500" data-name="Grupo 901500" transform="translate(12.175 9.244)">
              <path id="Trazado_629031" data-name="Trazado 629031" d="M306.01,430.149c0,.679-.48.954-1.072.612a2.364,2.364,0,0,1-1.072-1.85c0-.679.48-.954,1.072-.612A2.364,2.364,0,0,1,306.01,430.149Z" transform="translate(-303.865 -428.152)" fill="#666"/>
              <path id="Trazado_629032" data-name="Trazado 629032" d="M305.6,429.966c0,.372-.263.523-.588.335a1.294,1.294,0,0,1-.588-1.014c0-.372.263-.523.588-.335A1.3,1.3,0,0,1,305.6,429.966Z" transform="translate(-303.94 -428.249)" fill="#333"/>
            </g>
            <path id="Trazado_629033" data-name="Trazado 629033" d="M317.575,435.026l-10.488-6.055a.747.747,0,0,1-.312-.6v-.424c0-.23.139-.337.312-.236l10.488,6.055a.751.751,0,0,1,.313.6v.424C317.888,435.02,317.748,435.126,317.575,435.026Z" transform="translate(-292.082 -418.844)"/>
          </g>
          <g id="Grupo_901505" data-name="Grupo 901505" transform="translate(42.481 39.308)">
            <g id="Grupo_901504" data-name="Grupo 901504" style="isolation: isolate">
              <path id="Trazado_629034" data-name="Trazado 629034" d="M339.422,460.61a.81.81,0,0,0-.814.081,2.511,2.511,0,0,0-1.141,1.975l.029,10.465a.8.8,0,0,0,.335.733l.635.369a.8.8,0,0,1-.335-.732l-.03-10.465a2.512,2.512,0,0,1,1.141-1.975.81.81,0,0,1,.814-.081Z" transform="translate(-337.467 -460.533)" fill="#e6e6e6"/>
              <g id="Grupo_901502" data-name="Grupo 901502" transform="translate(0.634 0.369)">
                <path id="Trazado_629035" data-name="Trazado 629035" d="M339.341,461.117c.633-.365,1.146-.073,1.148.654l.029,10.465a2.519,2.519,0,0,1-1.14,1.975c-.633.365-1.146.066-1.148-.654l-.03-10.465A2.511,2.511,0,0,1,339.341,461.117Z" transform="translate(-338.2 -460.959)" fill="#bfbfbf"/>
              </g>
              <g id="Grupo_901503" data-name="Grupo 901503" transform="translate(1.026 1.573)">
                <path id="Trazado_629036" data-name="Trazado 629036" d="M339.588,462.48c.519-.3.94-.06.942.537l.024,8.585a2.068,2.068,0,0,1-.936,1.62c-.518.3-.94.054-.941-.537l-.025-8.585A2.061,2.061,0,0,1,339.588,462.48Z" transform="translate(-338.652 -462.351)" fill="#ccc"/>
              </g>
            </g>
          </g>
        </g>
        <g id="Grupo_901511" data-name="Grupo 901511" transform="translate(0 7.157)">
          <g id="Grupo_901510" data-name="Grupo 901510" style="isolation: isolate">
            <path id="Trazado_629037" data-name="Trazado 629037" d="M286.824,428.505l-8.624-4.979a.708.708,0,0,0-.717-.07l-1.621.942a.71.71,0,0,1,.717.07l8.624,4.98a2.223,2.223,0,0,1,1.008,1.746l-.029,9.91a.706.706,0,0,1-.293.647l1.621-.942a.706.706,0,0,0,.293-.647l.029-9.911A2.224,2.224,0,0,0,286.824,428.505Z" transform="translate(-275.538 -423.388)" fill="#ecd899"/>
            <g id="Grupo_901507" data-name="Grupo 901507" transform="translate(0 0.942)">
              <path id="Trazado_629038" data-name="Trazado 629038" d="M285.153,429.594a2.223,2.223,0,0,1,1.008,1.746l-.029,9.91c0,.641-.456.9-1.014.576l-8.624-4.98a2.214,2.214,0,0,1-1.006-1.741l.029-9.911c0-.641.454-.9,1.012-.579Z" transform="translate(-275.488 -424.476)" fill="#fecb2f"/>
            </g>
            <g id="Grupo_901509" data-name="Grupo 901509" transform="translate(0.534 4.932)">
              <g id="Grupo_901508" data-name="Grupo 901508" transform="translate(0 2.167)">
                <path id="Trazado_629039" data-name="Trazado 629039" d="M280.291,434.724l-.81,2.175-3.376-1.949,2.1-2.956c.294-.415,1.03.01,1.324.765Z" transform="translate(-276.105 -431.623)" fill="#fff"/>
                <path id="Trazado_629040" data-name="Trazado 629040" d="M282.145,438.584l-2.14-1.236.81-2.175Z" transform="translate(-276.629 -432.072)" fill="#e6e6e6"/>
                <path id="Trazado_629041" data-name="Trazado 629041" d="M285.646,440.051,282.27,438.1l-1.329-3.41,1.024-2.746c.307-.822,1.54-.111,1.846,1.066Z" transform="translate(-276.755 -431.59)" fill="#fff"/>
              </g>
              <path id="Trazado_629042" data-name="Trazado 629042" d="M280.725,430.49c0,.478-.338.67-.754.429a1.66,1.66,0,0,1-.753-1.3c0-.478.337-.67.753-.429A1.661,1.661,0,0,1,280.725,430.49Z" transform="translate(-276.524 -429.086)" fill="#e6e6e6"/>
            </g>
          </g>
        </g>
        <g id="Grupo_901514" data-name="Grupo 901514" transform="translate(19.137 37.603)">
          <g id="Grupo_901513" data-name="Grupo 901513" style="isolation: isolate">
            <path id="Trazado_629043" data-name="Trazado 629043" d="M321.523,470.944l-21.195-12.236a.736.736,0,0,0-.744-.074l-1.621.942a.738.738,0,0,1,.744.074L319.9,471.887a2.3,2.3,0,0,1,1.044,1.81l-.01,3.615a.736.736,0,0,1-.306.674l1.621-.943a.734.734,0,0,0,.306-.673l.01-3.616A2.3,2.3,0,0,0,321.523,470.944Z" transform="translate(-297.647 -458.563)" fill="#eea6be"/>
            <g id="Grupo_901512" data-name="Grupo 901512" transform="translate(0 0.942)">
              <path id="Trazado_629044" data-name="Trazado 629044" d="M319.853,472.033a2.3,2.3,0,0,1,1.044,1.81l-.01,3.615c0,.666-.472.936-1.05.6l-21.2-12.236a2.3,2.3,0,0,1-1.043-1.81l.01-3.616c0-.667.471-.935,1.05-.6Z" transform="translate(-297.598 -459.652)" fill="#ef3c79"/>
            </g>
            <path id="Trazado_629045" data-name="Trazado 629045" d="M319.415,474.754l-19.438-11.277c-.222-.129-.4.008-.4.3h0a.967.967,0,0,0,.4.77l19.438,11.277c.222.129.4-.008.4-.3h0A.967.967,0,0,0,319.415,474.754Z" transform="translate(-297.864 -459.217)" fill="#fff"/>
          </g>
        </g>
        <g id="Grupo_901517" data-name="Grupo 901517" transform="translate(19.137 50.251)">
          <g id="Grupo_901516" data-name="Grupo 901516" style="isolation: isolate">
            <path id="Trazado_629046" data-name="Trazado 629046" d="M321.523,485.557,300.329,473.32a.737.737,0,0,0-.744-.073l-1.621.943a.737.737,0,0,1,.744.073L319.9,486.5a2.3,2.3,0,0,1,1.044,1.81l-.01,3.619a.733.733,0,0,1-.306.672l1.621-.942a.735.735,0,0,0,.306-.673l.01-3.618A2.3,2.3,0,0,0,321.523,485.557Z" transform="translate(-297.647 -473.176)" fill="#eea6be"/>
            <g id="Grupo_901515" data-name="Grupo 901515" transform="translate(0 0.943)">
              <path id="Trazado_629047" data-name="Trazado 629047" d="M319.853,486.645a2.3,2.3,0,0,1,1.044,1.81l-.01,3.619c0,.665-.472.932-1.05.6l-21.2-12.236a2.3,2.3,0,0,1-1.043-1.807l.01-3.619c0-.666.471-.935,1.05-.6Z" transform="translate(-297.598 -474.265)" fill="#ef3c79"/>
            </g>
            <path id="Trazado_629048" data-name="Trazado 629048" d="M319.415,489.132l-19.438-11.277c-.222-.129-.4.008-.4.3h0a.966.966,0,0,0,.4.77l19.438,11.277c.222.129.4-.008.4-.3h0A.967.967,0,0,0,319.415,489.132Z" transform="translate(-297.864 -473.799)" fill="#fff"/>
          </g>
        </g>
        <g id="Grupo_901521" data-name="Grupo 901521" transform="translate(0 69.97)">
          <g id="Grupo_901520" data-name="Grupo 901520" style="isolation: isolate">
            <path id="Trazado_629049" data-name="Trazado 629049" d="M286.824,501.076,278.2,496.1a.71.71,0,0,0-.717-.07l-1.621.943a.708.708,0,0,1,.717.07l8.624,4.979a2.224,2.224,0,0,1,1.008,1.746l-.029,9.911a.706.706,0,0,1-.293.647l1.621-.943a.7.7,0,0,0,.293-.647l.029-9.91A2.223,2.223,0,0,0,286.824,501.076Z" transform="translate(-275.538 -495.958)" fill="#ecd899"/>
            <g id="Grupo_901518" data-name="Grupo 901518" transform="translate(0 0.942)">
              <path id="Trazado_629050" data-name="Trazado 629050" d="M285.153,502.164a2.224,2.224,0,0,1,1.008,1.746l-.029,9.911c0,.641-.456.9-1.014.576l-8.624-4.98a2.216,2.216,0,0,1-1.006-1.742l.029-9.91c0-.641.454-.9,1.012-.579Z" transform="translate(-275.488 -497.047)" fill="#fecb2f"/>
            </g>
            <g id="Grupo_901519" data-name="Grupo 901519" transform="translate(1.104 4.467)">
              <path id="Trazado_629051" data-name="Trazado 629051" d="M285.042,506.079v.014l-4.109.345-4.17-5.139h0c0-.161.114-.226.254-.145l7.77,4.486A.562.562,0,0,1,285.042,506.079Z" transform="translate(-276.763 -501.119)" fill="#fff"/>
              <path id="Trazado_629052" data-name="Trazado 629052" d="M280.933,506.841l4.109-.346v5c0,.161-.114.226-.254.145l-7.77-4.485a.562.562,0,0,1-.254-.44V501.7l4.109,5.065Z" transform="translate(-276.763 -501.197)" fill="#fff"/>
            </g>
          </g>
        </g>
        <g id="Grupo_901524" data-name="Grupo 901524" transform="translate(1.249 54.662)">
          <g id="Grupo_901523" data-name="Grupo 901523" style="isolation: isolate">
            <path id="Trazado_629053" data-name="Trazado 629053" d="M318.4,500.619l-38.372-22.155a.991.991,0,0,0-1-.1l-1.621.943a.989.989,0,0,1,1,.1l38.373,22.154a3.081,3.081,0,0,1,1.4,2.424l-.009,2.887a.985.985,0,0,1-.409.9l1.62-.942a.985.985,0,0,0,.41-.9l.009-2.888A3.08,3.08,0,0,0,318.4,500.619Z" transform="translate(-276.996 -478.272)" fill="#7fdbcb"/>
            <g id="Grupo_901522" data-name="Grupo 901522" transform="translate(0 0.942)">
              <path id="Trazado_629054" data-name="Trazado 629054" d="M316.72,501.707a3.081,3.081,0,0,1,1.4,2.424l-.009,2.887c0,.892-.632,1.253-1.407.805L278.33,485.668a3.084,3.084,0,0,1-1.4-2.425l.008-2.887c0-.892.634-1.25,1.408-.8Z" transform="translate(-276.931 -479.36)" fill="#21cbae"/>
            </g>
            <path id="Trazado_629055" data-name="Trazado 629055" d="M315.931,504.354,279,482.9c-.222-.129-.4.008-.4.3h0a.967.967,0,0,0,.4.77l36.936,21.454c.222.128.4-.008.4-.3h0A.966.966,0,0,0,315.931,504.354Z" transform="translate(-277.154 -478.888)" fill="#fff"/>
          </g>
        </g>
        <g id="Grupo_901531" data-name="Grupo 901531" transform="translate(15.745 79.044)">
          <g id="Grupo_901530" data-name="Grupo 901530" style="isolation: isolate">
            <path id="Trazado_629056" data-name="Trazado 629056" d="M305.015,511.559l-8.624-4.98a.71.71,0,0,0-.717-.07l-1.621.943a.71.71,0,0,1,.717.07l8.625,4.979a2.225,2.225,0,0,1,1.008,1.746l-.029,9.911a.706.706,0,0,1-.293.647l1.621-.943a.7.7,0,0,0,.293-.646l.029-9.91A2.223,2.223,0,0,0,305.015,511.559Z" transform="translate(-293.729 -506.441)" fill="#eea6be"/>
            <g id="Grupo_901525" data-name="Grupo 901525" transform="translate(0 0.942)">
              <path id="Trazado_629057" data-name="Trazado 629057" d="M303.344,512.647a2.224,2.224,0,0,1,1.008,1.746l-.029,9.911c0,.641-.456.9-1.014.576l-8.624-4.98a2.216,2.216,0,0,1-1.006-1.742l.029-9.91c0-.641.454-.9,1.012-.579Z" transform="translate(-293.679 -507.53)" fill="#ef3c79"/>
            </g>
            <g id="Grupo_901529" data-name="Grupo 901529" transform="translate(0.989 4.901)">
              <g id="Grupo_901526" data-name="Grupo 901526" transform="translate(0 0.134)">
                <path id="Trazado_629058" data-name="Trazado 629058" d="M302.725,522.191l-7.124-4.112a1.722,1.722,0,0,1-.779-1.345v-3.925c0-.492.35-.693.779-.444l7.124,4.112a1.722,1.722,0,0,1,.779,1.344v3.925C303.5,522.24,303.154,522.439,302.725,522.191Zm-7.124-9.455c-.251-.145-.454-.028-.454.26v3.925a1,1,0,0,0,.454.784l7.124,4.112c.25.144.454.029.454-.259v-3.925a1,1,0,0,0-.454-.784Z" transform="translate(-294.822 -512.258)" fill="#fff"/>
              </g>
              <g id="Grupo_901527" data-name="Grupo 901527" transform="translate(2.446 2.764)">
                <path id="Trazado_629059" data-name="Trazado 629059" d="M299.543,519.9a4.18,4.18,0,0,1-1.895-3.267c0-1.2.85-1.684,1.895-1.08a4.18,4.18,0,0,1,1.895,3.267C301.437,520.022,300.587,520.507,299.543,519.9Zm0-3.975c-.866-.5-1.57-.1-1.57.894a3.466,3.466,0,0,0,1.57,2.708c.866.5,1.569.1,1.569-.9A3.462,3.462,0,0,0,299.543,515.929Z" transform="translate(-297.648 -515.296)" fill="#fff"/>
              </g>
              <g id="Grupo_901528" data-name="Grupo 901528" transform="translate(2.092)">
                <path id="Trazado_629060" data-name="Trazado 629060" d="M301.736,516l-4.5-2.6v-.941c0-.324.229-.454.512-.292l3.474,2.006a1.128,1.128,0,0,1,.512.882Zm-4.173-2.782,3.848,2.222v-.568a.413.413,0,0,0-.187-.323l-3.474-2.005c-.1-.06-.187-.012-.187.106Z" transform="translate(-297.239 -512.103)" fill="#fff"/>
              </g>
            </g>
          </g>
        </g>
        <g id="Grupo_901534" data-name="Grupo 901534" transform="translate(31.763 88.276)">
          <g id="Grupo_901533" data-name="Grupo 901533" style="isolation: isolate">
            <path id="Trazado_629061" data-name="Trazado 629061" d="M323.524,522.225l-8.624-4.979a.713.713,0,0,0-.719-.071l-1.621.943a.712.712,0,0,1,.719.07l8.624,4.979a2.219,2.219,0,0,1,1.006,1.744l-.029,9.911a.707.707,0,0,1-.293.647l1.62-.942a.707.707,0,0,0,.294-.648l.029-9.91A2.221,2.221,0,0,0,323.524,522.225Z" transform="translate(-312.235 -517.107)" fill="#6cabdf"/>
            <g id="Grupo_901532" data-name="Grupo 901532" transform="translate(0 0.942)">
              <path id="Trazado_629062" data-name="Trazado 629062" d="M321.852,523.314a2.219,2.219,0,0,1,1.006,1.744l-.029,9.911c0,.641-.454.9-1.012.577l-8.624-4.98a2.218,2.218,0,0,1-1.008-1.743l.029-9.91c0-.641.456-.9,1.014-.578Z" transform="translate(-312.185 -518.196)" fill="#0b5999"/>
            </g>
            <path id="Trazado_629063" data-name="Trazado 629063" d="M317.84,523.769c-1.971-1.138-3.569-.544-3.569,1.328a6.412,6.412,0,0,0,1.68,3.841c-.047.316-.252.979-1.154.47,0,0,1.245,1.372,2.424.727a6.486,6.486,0,0,0,.618.41c1.971,1.138,3.57.544,3.57-1.328S319.811,524.907,317.84,523.769Z" transform="translate(-312.465 -517.925)" fill="#fff"/>
          </g>
        </g>
        <g id="Grupo_901538" data-name="Grupo 901538" transform="translate(14.674 15.865)">
          <g id="Grupo_901537" data-name="Grupo 901537" style="isolation: isolate">
            <path id="Trazado_629064" data-name="Trazado 629064" d="M320.278,447.8,295.8,433.672a1.149,1.149,0,0,0-1.159-.113l-1.621.942a1.148,1.148,0,0,1,1.159.113l24.479,14.133a3.584,3.584,0,0,1,1.625,2.817l-.024,8.482a1.139,1.139,0,0,1-.476,1.046l1.621-.942a1.142,1.142,0,0,0,.476-1.046l.024-8.483A3.587,3.587,0,0,0,320.278,447.8Z" transform="translate(-292.519 -433.449)" fill="#ecd899"/>
            <g id="Grupo_901535" data-name="Grupo 901535" transform="translate(0 0.942)">
              <path id="Trazado_629065" data-name="Trazado 629065" d="M318.579,448.893a3.584,3.584,0,0,1,1.625,2.817l-.024,8.482c0,1.034-.736,1.452-1.635.932l-24.479-14.133a3.583,3.583,0,0,1-1.625-2.814l.024-8.483c0-1.036.736-1.453,1.635-.934Z" transform="translate(-292.441 -434.537)" fill="#fecb2f"/>
            </g>
            <g id="Grupo_901536" data-name="Grupo 901536" transform="translate(2.039 3.906)">
              <path id="Trazado_629066" data-name="Trazado 629066" d="M318.28,451.389,295.2,438.01c-.222-.129-.4.008-.4.3h0a.967.967,0,0,0,.4.77l23.08,13.379c.222.129.4-.008.4-.3h0A.966.966,0,0,0,318.28,451.389Z" transform="translate(-294.797 -437.962)" fill="#fff"/>
              <path id="Trazado_629067" data-name="Trazado 629067" d="M318.28,455.09,295.2,441.711c-.222-.129-.4.008-.4.3h0a.966.966,0,0,0,.4.77l23.08,13.379c.222.129.4-.008.4-.3h0A.966.966,0,0,0,318.28,455.09Z" transform="translate(-294.797 -438.459)" fill="#fff"/>
              <path id="Trazado_629068" data-name="Trazado 629068" d="M318.28,458.792l-23.08-13.38c-.222-.128-.4.008-.4.3h0a.966.966,0,0,0,.4.77l23.08,13.38c.222.128.4-.008.4-.3h0A.965.965,0,0,0,318.28,458.792Z" transform="translate(-294.797 -438.957)" fill="#fff"/>
            </g>
          </g>
        </g>
      </g>
      <g id="Grupo_901542" data-name="Grupo 901542" transform="translate(0 27.045)">
        <g id="Grupo_901541" data-name="Grupo 901541" style="isolation: isolate">
          <path id="Trazado_629069" data-name="Trazado 629069" d="M290.116,453.706l-12.379-7.148a.993.993,0,0,0-1-.1l-1.621.943a.991.991,0,0,1,1,.1l12.379,7.147a3.087,3.087,0,0,1,1.4,2.424l-.038,13.357a.981.981,0,0,1-.409.9l1.621-.943a.98.98,0,0,0,.409-.9l.038-13.357A3.086,3.086,0,0,0,290.116,453.706Z" transform="translate(-274.667 -446.365)" fill="#eea6be"/>
          <g id="Grupo_901540" data-name="Grupo 901540" transform="translate(0 0.942)">
            <path id="Trazado_629070" data-name="Trazado 629070" d="M288.425,454.794a3.087,3.087,0,0,1,1.4,2.424l-.038,13.357c0,.89-.634,1.249-1.41.8L276,464.229a3.087,3.087,0,0,1-1.4-2.424l.038-13.357c0-.889.634-1.249,1.41-.8Z" transform="translate(-274.598 -447.454)" fill="#ef3c79"/>
          </g>
          <path id="Trazado_629071" data-name="Trazado 629071" d="M282.3,456.123c-2.179-1.258-3.943-.252-3.943,2.249a8.689,8.689,0,0,0,3.943,6.8c2.177,1.257,3.943.249,3.943-2.249A8.69,8.69,0,0,0,282.3,456.123Zm-.962,6.055v-4.068l3.07,3.808Z" transform="translate(-275.103 -447.604)" fill="#fff"/>
        </g>
      </g>
    </g>
  </g>
</svg>
