<svg xmlns="http://www.w3.org/2000/svg" xmlns:xlink="http://www.w3.org/1999/xlink" width="79.641" height="103.686" viewBox="0 0 79.641 103.686">
  <defs>
    <linearGradient id="linear-gradient" x1="0.235" y1="0.798" x2="0.765" y2="0.202" gradientUnits="objectBoundingBox">
      <stop offset="0" stop-color="#0b5999"/>
      <stop offset="0.506" stop-color="#1460a1"/>
      <stop offset="1" stop-color="#7baefa"/>
    </linearGradient>
  </defs>
  <g id="Grupo_901589" data-name="Grupo 901589" transform="translate(-1297.916 -225.676)">
    <g id="Grupo_901492" data-name="Grupo 901492" transform="translate(1250.458 -18.497)">
      <g id="Grupo_899365" data-name="Grupo 899365" transform="translate(28.875 244.173)">
        <g id="Grupo_899331" data-name="Grupo 899331" transform="translate(18.583 4.09)">
          <g id="Grupo_899330" data-name="Grupo 899330" style="isolation: isolate">
            <g id="Grupo_899318" data-name="Grupo 899318" transform="translate(1.203 4.111)">
              <rect id="Rectángulo_302546" data-name="Rectángulo 302546" width="32.253" height="1.026" transform="translate(0 27.932) rotate(-60)" fill="#074477"/>
            </g>
            <g id="Grupo_899319" data-name="Grupo 899319" transform="translate(0 32.043)">
              <path id="Trazado_626323" data-name="Trazado 626323" d="M44.912,276.9l-.516,1.759c-2.808-1.622-3.429-5.8-1.387-9.343l.888.513C42.339,272.535,42.816,275.7,44.912,276.9Z" transform="translate(-41.807 -269.319)" fill="#074477"/>
            </g>
            <g id="Grupo_899320" data-name="Grupo 899320" transform="translate(17.33)">
              <path id="Trazado_626324" data-name="Trazado 626324" d="M54.755,251.644l-.888-.513c2.043-3.539,5.975-5.09,8.783-3.469l-1.265,1.325C59.291,247.774,56.317,248.941,54.755,251.644Z" transform="translate(-53.867 -247.02)" fill="#074477"/>
            </g>
            <g id="Grupo_899321" data-name="Grupo 899321" transform="translate(2.59 39.627)">
              <path id="Trazado_626325" data-name="Trazado 626325" d="M93.431,303.064l-.515,1.758L43.609,276.355l.515-1.758Z" transform="translate(-43.609 -274.597)" fill="#074477"/>
            </g>
            <g id="Grupo_899322" data-name="Grupo 899322" transform="translate(24.848 0.643)">
              <path id="Trazado_626326" data-name="Trazado 626326" d="M59.1,248.792l1.265-1.325,49.306,28.467-1.265,1.325Z" transform="translate(-59.099 -247.467)" fill="#074477"/>
            </g>
            <g id="Grupo_899323" data-name="Grupo 899323" transform="translate(1.17 1.489)">
              <path id="Trazado_626327" data-name="Trazado 626327" d="M115.6,277c2.1,1.206,2.572,4.366,1.013,7.068L100.491,312c-1.561,2.7-4.536,3.87-6.629,2.658L44.556,286.194c-2.1-1.207-2.574-4.368-1.014-7.071l16.127-27.931c1.562-2.7,4.536-3.87,6.63-2.657Z" transform="translate(-42.622 -248.056)" fill="#074477"/>
            </g>
            <g id="Grupo_899324" data-name="Grupo 899324" transform="translate(51.895 66.382)">
              <path id="Trazado_626328" data-name="Trazado 626328" d="M86.7,293.216l1.634.943c-2.043,3.538-5.975,5.091-8.783,3.472l-1.634-.944C80.73,298.307,84.661,296.754,86.7,293.216Z" transform="translate(-77.922 -293.216)" fill="#074477"/>
            </g>
            <g id="Grupo_899325" data-name="Grupo 899325" transform="translate(51.895 65.436)">
              <path id="Trazado_626329" data-name="Trazado 626329" d="M85.067,292.558l1.638.946c-2.043,3.538-5.975,5.091-8.783,3.47l.516-1.758C80.53,296.428,83.506,295.259,85.067,292.558Z" transform="translate(-77.922 -292.558)" fill="#074477"/>
            </g>
            <g id="Grupo_899326" data-name="Grupo 899326" transform="translate(60.678 38.449)">
              <rect id="Rectángulo_302547" data-name="Rectángulo 302547" width="32.253" height="1.886" transform="matrix(0.5, -0.866, 0.866, 0.5, 0, 27.932)" fill="#074477"/>
            </g>
            <g id="Grupo_899327" data-name="Grupo 899327" transform="translate(59.041 37.503)">
              <rect id="Rectángulo_302548" data-name="Rectángulo 302548" width="32.253" height="1.891" transform="translate(0 27.932) rotate(-60)" fill="#074477"/>
            </g>
            <g id="Grupo_899328" data-name="Grupo 899328" transform="translate(75.418 29.11)">
              <path id="Trazado_626330" data-name="Trazado 626330" d="M94.292,267.278l1.634.943c2.808,1.621,3.429,5.8,1.387,9.339l-1.634-.943C97.721,273.079,97.1,268.9,94.292,267.278Z" transform="translate(-94.292 -267.278)" fill="#074477"/>
            </g>
            <g id="Grupo_899329" data-name="Grupo 899329" transform="translate(74.154 29.11)">
              <path id="Trazado_626331" data-name="Trazado 626331" d="M93.412,268.6l1.265-1.325c2.808,1.621,3.429,5.8,1.387,9.339l-1.638-.946C95.984,272.968,95.509,269.808,93.412,268.6Z" transform="translate(-93.412 -267.278)" fill="#074477"/>
            </g>
          </g>
        </g>
        <g id="Grupo_899345" data-name="Grupo 899345" transform="translate(19.773 5.358)">
          <g id="Grupo_899344" data-name="Grupo 899344" style="isolation: isolate">
            <g id="Grupo_899332" data-name="Grupo 899332" transform="translate(1.085 3.759)">
              <rect id="Rectángulo_302549" data-name="Rectángulo 302549" width="29.867" height="1.246" transform="translate(0 25.865) rotate(-59.996)" fill="#fecb2f"/>
            </g>
            <g id="Grupo_899333" data-name="Grupo 899333" transform="translate(0 29.624)">
              <path id="Trazado_626332" data-name="Trazado 626332" d="M45.885,275.742l-.729,1.513c-2.684-1.55-3.327-5.462-1.436-8.737l1.079.624C43.372,271.613,43.858,274.572,45.885,275.742Z" transform="translate(-42.635 -268.518)" fill="#3385ff"/>
            </g>
            <g id="Grupo_899334" data-name="Grupo 899334" transform="translate(16.019)">
              <path id="Trazado_626333" data-name="Trazado 626333" d="M54.862,252.283l-1.079-.622c1.892-3.278,5.6-4.677,8.285-3.127l-.947,1.387C59.1,248.75,56.29,249.809,54.862,252.283Z" transform="translate(-53.783 -247.902)" fill="#fecb2f"/>
            </g>
            <g id="Grupo_899335" data-name="Grupo 899335" transform="translate(2.521 36.847)">
              <path id="Trazado_626334" data-name="Trazado 626334" d="M92.244,300.753l-.728,1.513L44.39,275.058l.728-1.513Z" transform="translate(-44.39 -273.545)" fill="#fecb2f"/>
            </g>
            <g id="Grupo_899336" data-name="Grupo 899336" transform="translate(23.358 0.632)">
              <path id="Trazado_626335" data-name="Trazado 626335" d="M58.891,249.729l.946-1.387,47.126,27.208-.946,1.387Z" transform="translate(-58.891 -248.342)" fill="#fecb2f"/>
            </g>
            <g id="Grupo_899337" data-name="Grupo 899337" transform="translate(1.345 1.542)">
              <path id="Trazado_626336" data-name="Trazado 626336" d="M112.71,276.661c2.028,1.17,2.513,4.127,1.083,6.6L98.86,309.129c-1.427,2.472-4.232,3.531-6.258,2.359L45.476,284.281c-2.028-1.17-2.513-4.128-1.085-6.6l14.933-25.867c1.428-2.474,4.233-3.533,6.259-2.362Z" transform="translate(-43.571 -248.975)" fill="url(#linear-gradient)"/>
            </g>
            <g id="Grupo_899338" data-name="Grupo 899338" transform="translate(49.647 62.444)">
              <path id="Trazado_626337" data-name="Trazado 626337" d="M85.47,291.358l.474.274c-1.891,3.275-5.6,4.674-8.284,3.124l-.474-.274C79.87,296.032,83.579,294.633,85.47,291.358Z" transform="translate(-77.186 -291.358)" fill="#d1a726"/>
            </g>
            <g id="Grupo_899339" data-name="Grupo 899339" transform="translate(49.647 61.695)">
              <path id="Trazado_626338" data-name="Trazado 626338" d="M84.172,290.837l1.3.749c-1.891,3.275-5.6,4.674-8.284,3.124l.729-1.513C79.941,294.368,82.746,293.309,84.172,290.837Z" transform="translate(-77.186 -290.837)" fill="#fecb2f"/>
            </g>
            <g id="Grupo_899340" data-name="Grupo 899340" transform="translate(57.932 36.578)">
              <rect id="Rectángulo_302550" data-name="Rectángulo 302550" width="29.867" height="0.549" transform="translate(0 25.867) rotate(-60.004)" fill="#d1a726"/>
            </g>
            <g id="Grupo_899341" data-name="Grupo 899341" transform="translate(56.634 35.829)">
              <rect id="Rectángulo_302551" data-name="Rectángulo 302551" width="29.867" height="1.498" transform="matrix(0.5, -0.866, 0.866, 0.5, 0, 25.866)" fill="#fecb2f"/>
            </g>
            <g id="Grupo_899342" data-name="Grupo 899342" transform="translate(71.43 27.839)">
              <path id="Trazado_626339" data-name="Trazado 626339" d="M92.345,267.276l.474.274c2.684,1.55,3.327,5.462,1.436,8.738l-.476-.274C95.672,272.738,95.029,268.826,92.345,267.276Z" transform="translate(-92.345 -267.276)" fill="#d1a726"/>
            </g>
            <g id="Grupo_899343" data-name="Grupo 899343" transform="translate(70.483 27.839)">
              <path id="Trazado_626340" data-name="Trazado 626340" d="M91.686,268.664l.947-1.388c2.684,1.55,3.327,5.462,1.434,8.738l-1.3-.749C94.2,272.791,93.714,269.834,91.686,268.664Z" transform="translate(-91.686 -267.276)" fill="#fecb2f"/>
            </g>
          </g>
        </g>
        <g id="Grupo_899351" data-name="Grupo 899351" transform="translate(32.316 31.237)">
          <g id="Grupo_899350" data-name="Grupo 899350" style="isolation: isolate">
            <g id="Grupo_899346" data-name="Grupo 899346" transform="translate(0.423 0.516)">
              <path id="Trazado_626341" data-name="Trazado 626341" d="M63.819,268.684c1.808,1.043,2.242,3.681.967,5.887l-2.405,4.169c-1.273,2.206-3.778,3.151-5.585,2.107l-3.44-1.986c-1.808-1.043-2.239-3.683-.966-5.889L54.8,268.8c1.273-2.207,3.775-3.15,5.581-2.107Z" transform="translate(-51.658 -266.271)" fill="#21cbae"/>
            </g>
            <g id="Grupo_899347" data-name="Grupo 899347" transform="translate(5.356 13.281)">
              <path id="Trazado_626342" data-name="Trazado 626342" d="M61.395,275.154l.405.234c-1.438,2.492-4.262,3.558-6.3,2.38l-.405-.234C57.133,278.712,59.957,277.646,61.395,275.154Z" transform="translate(-55.091 -275.154)" fill="#0d9f86"/>
            </g>
            <g id="Grupo_899348" data-name="Grupo 899348" transform="translate(11.66 9.113)">
              <rect id="Rectángulo_302552" data-name="Rectángulo 302552" width="4.812" height="0.468" transform="translate(0 4.168) rotate(-60.008)" fill="#0d9f86"/>
            </g>
            <g id="Grupo_899349" data-name="Grupo 899349" transform="translate(12.973 2.467)">
              <path id="Trazado_626343" data-name="Trazado 626343" d="M60.392,267.629l.405.233c2.04,1.178,2.53,4.156,1.092,6.647l-.405-.234C62.924,271.783,62.432,268.807,60.392,267.629Z" transform="translate(-60.392 -267.629)" fill="#0d9f86"/>
            </g>
            <path id="Trazado_626344" data-name="Trazado 626344" d="M64.337,268.379l-3.44-1.987c-2.042-1.178-4.863-.114-6.3,2.378l-2.405,4.167c-1.438,2.492-.951,5.469,1.089,6.649l3.44,1.986c2.042,1.178,4.866.112,6.3-2.38l2.407-4.167C66.869,272.534,66.377,269.558,64.337,268.379Zm.578,6.348L62.509,278.9c-1.273,2.206-3.778,3.151-5.584,2.107l-3.441-1.986c-1.808-1.043-2.239-3.683-.964-5.889l2.405-4.169c1.273-2.207,3.775-3.15,5.581-2.107l3.442,1.987C65.755,269.884,66.189,272.522,64.915,274.728Z" transform="translate(-51.364 -265.912)" fill="#0d9f86"/>
          </g>
        </g>
        <g id="Grupo_899357" data-name="Grupo 899357" transform="translate(51.782 36.693)">
          <g id="Grupo_899356" data-name="Grupo 899356" style="isolation: isolate">
            <g id="Grupo_899352" data-name="Grupo 899352" transform="translate(0.423 0.516)">
              <path id="Trazado_626345" data-name="Trazado 626345" d="M91.057,280.384c1.809,1.045,2.243,3.681.967,5.89l-2.405,4.166c-1.275,2.209-3.775,3.153-5.584,2.108L66.9,282.657c-1.808-1.043-2.242-3.681-.966-5.89l2.4-4.166c1.275-2.209,3.778-3.153,5.585-2.108Z" transform="translate(-65.205 -270.068)" fill="#ef3c79"/>
            </g>
            <g id="Grupo_899353" data-name="Grupo 899353" transform="translate(19.049 21.185)">
              <path id="Trazado_626346" data-name="Trazado 626346" d="M84.469,284.452l.405.233c-1.44,2.494-4.261,3.559-6.3,2.38l-.4-.234C80.209,288.01,83.03,286.945,84.469,284.452Z" transform="translate(-78.167 -284.452)" fill="#ef3c79"/>
            </g>
            <g id="Grupo_899354" data-name="Grupo 899354" transform="translate(25.352 17.019)">
              <rect id="Rectángulo_302553" data-name="Rectángulo 302553" width="4.81" height="0.467" transform="matrix(0.5, -0.866, 0.866, 0.5, 0, 4.166)" fill="#ef3c79"/>
            </g>
            <g id="Grupo_899355" data-name="Grupo 899355" transform="translate(26.666 10.371)">
              <path id="Trazado_626347" data-name="Trazado 626347" d="M83.468,276.926l.4.234c2.043,1.178,2.532,4.154,1.092,6.647l-.405-.233C86,281.08,85.51,278.106,83.468,276.926Z" transform="translate(-83.468 -276.926)" fill="#ef3c79"/>
            </g>
            <path id="Trazado_626348" data-name="Trazado 626348" d="M91.577,280.08l-17.131-9.891c-2.04-1.178-4.864-.115-6.3,2.38l-2.4,4.164c-1.44,2.495-.95,5.47,1.091,6.649l17.131,9.891c2.042,1.18,4.863.115,6.3-2.378l2.405-4.166C94.107,284.234,93.619,281.259,91.577,280.08Zm.576,6.351L89.747,290.6c-1.275,2.209-3.775,3.153-5.584,2.108l-17.131-9.89c-1.808-1.043-2.242-3.682-.967-5.89l2.405-4.166c1.275-2.209,3.778-3.153,5.585-2.108l17.13,9.891C92.995,281.586,93.429,284.222,92.153,286.431Z" transform="translate(-64.911 -269.709)" fill="#ef3c79"/>
          </g>
        </g>
        <g id="Grupo_899363" data-name="Grupo 899363" transform="translate(39.01)">
          <g id="Grupo_899362" data-name="Grupo 899362" style="isolation: isolate">
            <g id="Grupo_899358" data-name="Grupo 899358" transform="translate(0.423 0.515)">
              <path id="Trazado_626349" data-name="Trazado 626349" d="M87.565,254.848c1.808,1.043,2.243,3.683.967,5.89l-7.8,13.513c-1.273,2.207-3.776,3.15-5.584,2.107l-17.13-9.891c-1.811-1.045-2.243-3.681-.969-5.889l7.8-13.513c1.276-2.209,3.776-3.153,5.585-2.108Z" transform="translate(-56.317 -244.532)" fill="#fecb2f"/>
            </g>
            <path id="Trazado_626350" data-name="Trazado 626350" d="M84.375,264.628,60.693,250.955l2.245-3.89c1.276-2.209,3.776-3.153,5.585-2.108l17.13,9.891c1.809,1.043,2.243,3.681.967,5.89Z" transform="translate(-53.981 -244.017)" fill="#fecb2f"/>
            <g id="Grupo_899359" data-name="Grupo 899359" transform="translate(19.049 30.532)">
              <path id="Trazado_626351" data-name="Trazado 626351" d="M75.581,265.421l.405.234c-1.438,2.492-4.262,3.555-6.3,2.377l-.405-.234C71.321,268.976,74.143,267.913,75.581,265.421Z" transform="translate(-69.279 -265.421)" fill="#f988af"/>
            </g>
            <g id="Grupo_899360" data-name="Grupo 899360" transform="translate(25.35 17.02)">
              <rect id="Rectángulo_302554" data-name="Rectángulo 302554" width="15.603" height="0.467" transform="matrix(0.5, -0.866, 0.866, 0.5, 0, 13.51)" fill="#f988af"/>
            </g>
            <g id="Grupo_899361" data-name="Grupo 899361" transform="translate(32.062 10.37)">
              <path id="Trazado_626352" data-name="Trazado 626352" d="M78.335,251.39l.4.234c2.042,1.178,2.532,4.154,1.092,6.649l-.405-.234C80.865,255.546,80.375,252.57,78.335,251.39Z" transform="translate(-78.335 -251.39)" fill="#f988af"/>
            </g>
            <path id="Trazado_626353" data-name="Trazado 626353" d="M88.085,254.543l-17.131-9.889c-2.042-1.18-4.864-.115-6.3,2.378l-7.8,13.513c-1.438,2.492-.95,5.468,1.094,6.646l17.13,9.891c2.042,1.178,4.864.115,6.3-2.377l7.8-13.513C90.615,258.7,90.125,255.723,88.085,254.543Zm.576,6.351-7.8,13.513c-1.273,2.207-3.776,3.15-5.584,2.107l-17.13-9.891c-1.811-1.045-2.243-3.682-.969-5.889l7.8-13.513c1.276-2.209,3.776-3.153,5.585-2.108L87.694,255C89.5,256.048,89.937,258.688,88.661,260.895Z" transform="translate(-56.022 -244.173)" fill="#f988af"/>
          </g>
        </g>
        <path id="Trazado_626355" data-name="Trazado 626355" d="M93.189,328.515l22.451-12.961c2.71-1.565,2.37-4.3-.759-6.1L76.9,287.522c-3.128-1.808-7.862-2-10.572-.438L43.877,300.045c-2.71,1.565-2.37,4.3.759,6.1l37.981,21.928C85.746,329.883,90.479,330.08,93.189,328.515Z" transform="translate(-23.119 -225.885)" fill="#e1dde4" style="mix-blend-mode: multiply;isolation: isolate"/>
      </g>
    </g>
  </g>
</svg>
