<svg xmlns="http://www.w3.org/2000/svg" xmlns:xlink="http://www.w3.org/1999/xlink" width="231.033" height="244" viewBox="0 0 231.033 244">
  <defs>
    <linearGradient id="linear-gradient" x1="0.485" y1="-0.732" x2="0.503" y2="0.759" gradientUnits="objectBoundingBox">
      <stop offset="0" stop-color="#dbcece"/>
      <stop offset="1" stop-color="#efefef"/>
    </linearGradient>
    <linearGradient id="linear-gradient-2" x1="0.454" y1="-0.96" x2="0.509" y2="0.788" xlink:href="#linear-gradient"/>
    <linearGradient id="linear-gradient-3" x1="0.492" y1="-0.495" x2="0.505" y2="1.114" xlink:href="#linear-gradient"/>
  </defs>
  <g id="Grupo_901613" data-name="Grupo 901613" transform="translate(-239 -1598)">
    <g id="Grupo_900816" data-name="Grupo 900816" transform="translate(-3899 11893)">
      <g id="Grupo_900814" data-name="Grupo 900814" transform="translate(4093.603 -10332.04)">
        <rect id="Rectángulo_302792" data-name="Rectángulo 302792" width="244" height="231.033" rx="1.577" transform="translate(275.431 37.04) rotate(90)" fill="#e6e6e6"/>
        <rect id="Rectángulo_302793" data-name="Rectángulo 302793" width="230.016" height="225.258" transform="translate(44.906 49.153)" fill="#fff"/>
        <g id="Grupo_900769" data-name="Grupo 900769" transform="translate(75.529 40.033)">
          <rect id="Rectángulo_302794" data-name="Rectángulo 302794" width="174.307" height="6.519" rx="0.596" transform="translate(0.122 0.142)" fill="#fff"/>
          <path id="Trazado_628706" data-name="Trazado 628706" d="M256.478,46.987H83.145a.666.666,0,0,1-.609-.709V40.895a.666.666,0,0,1,.609-.71H256.478a.666.666,0,0,1,.609.71v5.384A.665.665,0,0,1,256.478,46.987ZM83.145,40.469a.4.4,0,0,0-.366.426v5.384a.4.4,0,0,0,.366.425H256.478a.4.4,0,0,0,.366-.425V40.895a.4.4,0,0,0-.366-.426Z" transform="translate(-82.536 -40.185)" fill="#ccc"/>
        </g>
        <g id="Grupo_900776" data-name="Grupo 900776" transform="translate(49.57 41.955)">
          <g id="Grupo_900770" data-name="Grupo 900770" transform="translate(0.763 0.908)">
            <path id="Trazado_628707" data-name="Trazado 628707" d="M54.4,43.625h0Z" transform="translate(-51.668 -43.181)" fill="#fff"/>
            <rect id="Rectángulo_302795" data-name="Rectángulo 302795" width="2.727" height="0.889" transform="translate(0)" fill="#b3b3b3"/>
          </g>
          <g id="Grupo_900775" data-name="Grupo 900775">
            <g id="Grupo_900772" data-name="Grupo 900772" transform="translate(1.1 0.835)">
              <g id="Grupo_900771" data-name="Grupo 900771">
                <rect id="Rectángulo_302796" data-name="Rectángulo 302796" width="2.009" height="0.146" transform="translate(0.382 0.445)" fill="#0a92cf"/>
                <rect id="Rectángulo_302797" data-name="Rectángulo 302797" width="2.772" height="1.035" fill="#b3b3b3"/>
              </g>
            </g>
            <g id="Grupo_900774" data-name="Grupo 900774">
              <g id="Grupo_900773" data-name="Grupo 900773">
                <path id="Trazado_628708" data-name="Trazado 628708" d="M52.533,43.014l-.865.582.865.582Z" transform="translate(-50.905 -42.244)" fill="#0a92cf"/>
                <path id="Trazado_628709" data-name="Trazado 628709" d="M52.742,44.909l-2.009-1.352L52.742,42.2Z" transform="translate(-50.734 -42.204)" fill="#b3b3b3"/>
              </g>
            </g>
          </g>
        </g>
        <g id="Grupo_900783" data-name="Grupo 900783" transform="translate(56.093 41.955)">
          <g id="Grupo_900777" data-name="Grupo 900777" transform="translate(0.381 0.908)">
            <path id="Trazado_628710" data-name="Trazado 628710" d="M59.193,43.625h0Z" transform="translate(-59.193 -43.181)" fill="#fff"/>
            <rect id="Rectángulo_302798" data-name="Rectángulo 302798" width="2.727" height="0.889" fill="#b3b3b3"/>
          </g>
          <g id="Grupo_900782" data-name="Grupo 900782">
            <g id="Grupo_900779" data-name="Grupo 900779" transform="translate(0 0.835)">
              <g id="Grupo_900778" data-name="Grupo 900778">
                <rect id="Rectángulo_302799" data-name="Rectángulo 302799" width="2.009" height="0.146" transform="translate(0.381 0.445)" fill="#0a92cf"/>
                <rect id="Rectángulo_302800" data-name="Rectángulo 302800" width="2.771" height="1.035" fill="#b3b3b3"/>
              </g>
            </g>
            <g id="Grupo_900781" data-name="Grupo 900781" transform="translate(1.862)">
              <g id="Grupo_900780" data-name="Grupo 900780">
                <path id="Trazado_628711" data-name="Trazado 628711" d="M61.475,43.014l.865.582-.865.582Z" transform="translate(-61.093 -42.244)" fill="#0a92cf"/>
                <path id="Trazado_628712" data-name="Trazado 628712" d="M61.007,44.909V42.2l2.009,1.352Z" transform="translate(-61.007 -42.204)" fill="#b3b3b3"/>
              </g>
            </g>
          </g>
        </g>
        <rect id="Rectángulo_302801" data-name="Rectángulo 302801" width="230.016" height="65.131" transform="translate(44.906 49.153)" fill="#666"/>
        <rect id="Rectángulo_302803" data-name="Rectángulo 302803" width="66.051" height="103.013" transform="translate(54.005 161.782)" fill="#0b5999"/>
        <g id="Grupo_900807" data-name="Grupo 900807" transform="translate(0 -14)">
          <rect id="Rectángulo_302811" data-name="Rectángulo 302811" width="63.051" height="28.969" transform="translate(128.388 177.635)" fill="#666"/>
          <rect id="Rectángulo_302812" data-name="Rectángulo 302812" width="20.948" height="9.661" transform="translate(128.388 255.134)" fill="#999"/>
          <g id="Grupo_900790" data-name="Grupo 900790" transform="translate(128.388 215.075)">
            <path id="Trazado_628719" data-name="Trazado 628719" d="M147.293,209.082h0Z" transform="translate(-147.293 -207.886)" fill="#fff"/>
            <rect id="Rectángulo_302813" data-name="Rectángulo 302813" width="63.051" height="2.392" transform="translate(0)" fill="#e6e6e6"/>
          </g>
          <g id="Grupo_900791" data-name="Grupo 900791" transform="translate(128.388 220.504)">
            <path id="Trazado_628720" data-name="Trazado 628720" d="M147.293,214.29h0Z" transform="translate(-147.293 -213.094)" fill="#fff"/>
            <rect id="Rectángulo_302814" data-name="Rectángulo 302814" width="63.051" height="2.392" transform="translate(0)" fill="#e6e6e6"/>
          </g>
          <g id="Grupo_900792" data-name="Grupo 900792" transform="translate(128.388 225.933)">
            <path id="Trazado_628721" data-name="Trazado 628721" d="M147.293,219.5h0Z" transform="translate(-147.293 -218.301)" fill="#fff"/>
            <rect id="Rectángulo_302815" data-name="Rectángulo 302815" width="63.051" height="2.392" transform="translate(0)" fill="#e6e6e6"/>
          </g>
          <g id="Grupo_900793" data-name="Grupo 900793" transform="translate(128.388 231.361)">
            <path id="Trazado_628722" data-name="Trazado 628722" d="M147.293,224.705h0Z" transform="translate(-147.293 -223.509)" fill="#fff"/>
            <rect id="Rectángulo_302816" data-name="Rectángulo 302816" width="63.051" height="2.392" transform="translate(0)" fill="#e6e6e6"/>
          </g>
          <g id="Grupo_900794" data-name="Grupo 900794" transform="translate(128.388 240.436)">
            <path id="Trazado_628723" data-name="Trazado 628723" d="M147.293,229.912h0Z" transform="translate(-147.293 -228.716)" fill="#fff"/>
            <rect id="Rectángulo_302817" data-name="Rectángulo 302817" width="63.051" height="2.392" transform="translate(0)" fill="#e6e6e6"/>
          </g>
          <g id="Grupo_900795" data-name="Grupo 900795" transform="translate(128.388 245.392)">
            <path id="Trazado_628724" data-name="Trazado 628724" d="M147.293,235.12h0Z" transform="translate(-147.293 -233.924)" fill="#fff"/>
            <rect id="Rectángulo_302818" data-name="Rectángulo 302818" width="63.051" height="2.392" transform="translate(0)" fill="#e6e6e6"/>
          </g>
        </g>
        <g id="Grupo_900808" data-name="Grupo 900808" transform="translate(0 -14)">
          <rect id="Rectángulo_302819" data-name="Rectángulo 302819" width="63.051" height="28.969" transform="translate(202.772 177.635)" fill="#666"/>
          <rect id="Rectángulo_302820" data-name="Rectángulo 302820" width="20.948" height="9.661" transform="translate(202.772 255.134)" fill="#999"/>
          <g id="Grupo_900796" data-name="Grupo 900796" transform="translate(202.772 215.075)">
            <path id="Trazado_628725" data-name="Trazado 628725" d="M238.418,209.082h0Z" transform="translate(-238.418 -207.886)" fill="#fff"/>
            <rect id="Rectángulo_302821" data-name="Rectángulo 302821" width="63.051" height="2.392" transform="translate(0)" fill="#e6e6e6"/>
          </g>
          <g id="Grupo_900797" data-name="Grupo 900797" transform="translate(202.772 220.504)">
            <path id="Trazado_628726" data-name="Trazado 628726" d="M238.418,214.29h0Z" transform="translate(-238.418 -213.094)" fill="#fff"/>
            <rect id="Rectángulo_302822" data-name="Rectángulo 302822" width="63.051" height="2.392" transform="translate(0)" fill="#e6e6e6"/>
          </g>
          <g id="Grupo_900798" data-name="Grupo 900798" transform="translate(202.772 225.933)">
            <path id="Trazado_628727" data-name="Trazado 628727" d="M238.418,219.5h0Z" transform="translate(-238.418 -218.301)" fill="#fff"/>
            <rect id="Rectángulo_302823" data-name="Rectángulo 302823" width="63.051" height="2.392" transform="translate(0)" fill="#e6e6e6"/>
          </g>
          <g id="Grupo_900799" data-name="Grupo 900799" transform="translate(202.772 231.361)">
            <path id="Trazado_628728" data-name="Trazado 628728" d="M238.418,224.705h0Z" transform="translate(-238.418 -223.509)" fill="#fff"/>
            <rect id="Rectángulo_302824" data-name="Rectángulo 302824" width="63.051" height="2.392" transform="translate(0)" fill="#e6e6e6"/>
          </g>
          <g id="Grupo_900800" data-name="Grupo 900800" transform="translate(202.772 240.436)">
            <path id="Trazado_628729" data-name="Trazado 628729" d="M238.418,229.912h0Z" transform="translate(-238.418 -228.716)" fill="#fff"/>
            <rect id="Rectángulo_302825" data-name="Rectángulo 302825" width="63.051" height="2.392" transform="translate(0)" fill="#e6e6e6"/>
          </g>
          <g id="Grupo_900801" data-name="Grupo 900801" transform="translate(202.772 245.392)">
            <path id="Trazado_628730" data-name="Trazado 628730" d="M238.418,235.12h0Z" transform="translate(-238.418 -233.924)" fill="#fff"/>
            <rect id="Rectángulo_302826" data-name="Rectángulo 302826" width="63.051" height="2.392" transform="translate(0)" fill="#e6e6e6"/>
          </g>
        </g>
        <g id="Grupo_900806" data-name="Grupo 900806" transform="translate(0 -8)">
          <rect id="Rectángulo_302802" data-name="Rectángulo 302802" width="211.818" height="77.079" transform="translate(54.005 81.327)" fill="#c6c6c6"/>
          <g id="Grupo_900802" data-name="Grupo 900802" transform="translate(61.759 114.814)">
            <path id="Trazado_628731" data-name="Trazado 628731" d="M71.292,124.432l-5.625-6.558,5.625-6.558,1.079,1.258-4.546,5.3,4.546,5.3Z" transform="translate(-65.666 -111.316)" fill="#fff"/>
          </g>
          <g id="Grupo_900803" data-name="Grupo 900803" transform="translate(251.365 114.814)">
            <path id="Trazado_628732" data-name="Trazado 628732" d="M299.027,124.432l-1.079-1.258,4.546-5.3-4.546-5.3,1.079-1.258,5.625,6.558Z" transform="translate(-297.948 -111.316)" fill="#fff"/>
          </g>
          <path id="Trazado_628733" data-name="Trazado 628733" d="M181.88,147.539a1.544,1.544,0,1,1-1.526-1.779A1.667,1.667,0,0,1,181.88,147.539Z" transform="translate(-24.698 4.668)" fill="#b3b3b3"/>
          <path id="Trazado_628734" data-name="Trazado 628734" d="M187.1,147.539a1.544,1.544,0,1,1-1.526-1.779A1.667,1.667,0,0,1,187.1,147.539Z" transform="translate(-25.656 4.668)" fill="#e6e6e6"/>
          <path id="Trazado_628735" data-name="Trazado 628735" d="M192.311,147.539a1.544,1.544,0,1,1-1.526-1.779A1.667,1.667,0,0,1,192.311,147.539Z" transform="translate(-26.615 4.668)" fill="#e6e6e6"/>
        </g>
        <ellipse id="Elipse_6471" data-name="Elipse 6471" cx="1.271" cy="1.482" rx="1.271" ry="1.482" transform="translate(268.821 41.952)" fill="red"/>
        <path id="Trazado_628736" data-name="Trazado 628736" d="M316.646,43.684a1.286,1.286,0,1,1-1.272-1.482A1.389,1.389,0,0,1,316.646,43.684Z" transform="translate(-49.551 -0.25)" fill="#b3b3b3"/>
        <ellipse id="Elipse_6472" data-name="Elipse 6472" cx="1.271" cy="1.482" rx="1.271" ry="1.482" transform="translate(260.282 41.952)" fill="#b3b3b3"/>
        <path id="Trazado_628737" data-name="Trazado 628737" d="M70.661,43.626l.252-1.978-.544.249A2.1,2.1,0,0,0,68.7,41.01a2.647,2.647,0,0,0,0,5.232,2.1,2.1,0,0,0,1.582-.771l-.431-.488,0,.058a1.535,1.535,0,0,1-1.148.533,1.971,1.971,0,0,1,0-3.9,1.519,1.519,0,0,1,1.086.487l-.473.217Z" transform="translate(-4.053 -0.192)" fill="#b3b3b3"/>
        <path id="Trazado_628738" data-name="Trazado 628738" d="M76.348,41.644l1.621,1.89H77.24v2.081H75.455V43.534h-.729l1.622-1.89Zm0-.57a.454.454,0,0,0-.346.167L74.38,43.131a.643.643,0,0,0-.106.621.5.5,0,0,0,.452.351h.24v1.511a.534.534,0,0,0,.489.57H77.24a.534.534,0,0,0,.489-.57V44.1h.24a.5.5,0,0,0,.452-.351.643.643,0,0,0-.106-.621l-1.622-1.891a.454.454,0,0,0-.345-.167Z" transform="translate(-5.482 -0.195)" fill="#b3b3b3"/>
      </g>
      <g id="Grupo_900815" data-name="Grupo 900815" transform="translate(4348.082 -10264.869)">
        <g id="Grupo_900809" data-name="Grupo 900809" transform="translate(-197.082 116.163)">
          <path id="Trazado_628739" data-name="Trazado 628739" d="M-140.214,140.007h-54.07a2.8,2.8,0,0,0-2.8,2.8v6.084a2.8,2.8,0,0,0,2.8,2.8h54.07a2.8,2.8,0,0,0,2.8-2.8v-6.084A2.8,2.8,0,0,0-140.214,140.007Z" transform="translate(197.082 -140.007)" fill="url(#linear-gradient)"/>
        </g>
        <path id="Trazado_628744" data-name="Trazado 628744" d="M1.633-1.3H1.05V0H.317V-3.555H1.638a1.493,1.493,0,0,1,.972.281.969.969,0,0,1,.342.793,1.094,1.094,0,0,1-.157.607,1.074,1.074,0,0,1-.477.387L3.086-.034V0H2.3ZM1.05-1.895h.591a.6.6,0,0,0,.427-.14.5.5,0,0,0,.151-.387.537.537,0,0,0-.143-.4.594.594,0,0,0-.438-.144H1.05ZM4.678.049a1.3,1.3,0,0,1-.946-.356,1.267,1.267,0,0,1-.365-.95v-.068a1.6,1.6,0,0,1,.154-.712,1.129,1.129,0,0,1,.436-.483A1.223,1.223,0,0,1,4.6-2.69a1.1,1.1,0,0,1,.853.342,1.389,1.389,0,0,1,.311.969v.288H4.082a.655.655,0,0,0,.206.415.624.624,0,0,0,.436.156.762.762,0,0,0,.637-.3l.347.388a1.059,1.059,0,0,1-.43.35A1.41,1.41,0,0,1,4.678.049ZM4.6-2.122a.441.441,0,0,0-.341.142.736.736,0,0,0-.167.407h.981v-.056a.525.525,0,0,0-.127-.364A.455.455,0,0,0,4.6-2.122ZM7.122-.862l.491-1.78H8.35L7.458,0H6.785L5.894-2.642h.737ZM9.844.049A1.3,1.3,0,0,1,8.9-.308a1.267,1.267,0,0,1-.365-.95v-.068a1.6,1.6,0,0,1,.154-.712,1.129,1.129,0,0,1,.436-.483,1.223,1.223,0,0,1,.643-.17,1.1,1.1,0,0,1,.853.342,1.389,1.389,0,0,1,.311.969v.288H9.248a.655.655,0,0,0,.206.415A.624.624,0,0,0,9.89-.52a.762.762,0,0,0,.637-.3l.347.388a1.059,1.059,0,0,1-.43.35A1.41,1.41,0,0,1,9.844.049Zm-.081-2.17a.441.441,0,0,0-.341.142.736.736,0,0,0-.167.407h.981v-.056a.525.525,0,0,0-.127-.364A.455.455,0,0,0,9.763-2.122Zm2.217-.52L12-2.336a.922.922,0,0,1,.759-.354.766.766,0,0,1,.625.247,1.15,1.15,0,0,1,.21.737V0h-.706V-1.689a.458.458,0,0,0-.1-.326.437.437,0,0,0-.325-.1.485.485,0,0,0-.447.254V0h-.706V-2.642ZM15.713-.269a.885.885,0,0,1-.723.317A.834.834,0,0,1,14.342-.2a1.042,1.042,0,0,1-.228-.715V-2.642h.706V-.933q0,.413.376.413a.509.509,0,0,0,.493-.249V-2.642H16.4V0h-.664Zm2.432.317A1.3,1.3,0,0,1,17.2-.308a1.267,1.267,0,0,1-.365-.95v-.068a1.6,1.6,0,0,1,.154-.712,1.129,1.129,0,0,1,.436-.483,1.223,1.223,0,0,1,.643-.17,1.1,1.1,0,0,1,.853.342,1.389,1.389,0,0,1,.311.969v.288H17.549a.655.655,0,0,0,.206.415.624.624,0,0,0,.436.156.762.762,0,0,0,.637-.3l.347.388a1.059,1.059,0,0,1-.43.35A1.41,1.41,0,0,1,18.145.049Zm-.081-2.17a.441.441,0,0,0-.341.142.737.737,0,0,0-.167.407h.981v-.056a.525.525,0,0,0-.127-.364A.455.455,0,0,0,18.064-2.122Z" transform="translate(-191.33 124.342)" fill="#12263f"/>
        <g id="Grupo_900810" data-name="Grupo 900810" transform="translate(-197.082 147.793)">
          <path id="Trazado_628740" data-name="Trazado 628740" d="M-140.214,217.922h-54.07a2.8,2.8,0,0,0-2.8,2.8V226.8a2.8,2.8,0,0,0,2.8,2.8h54.07a2.8,2.8,0,0,0,2.8-2.8v-6.084A2.8,2.8,0,0,0-140.214,217.922Z" transform="translate(197.082 -217.922)" fill="url(#linear-gradient-2)"/>
        </g>
        <path id="Trazado_628746" data-name="Trazado 628746" d="M1.1,0H.364V-3.555H1.1ZM2.378-2.642l.022.305a.922.922,0,0,1,.759-.354.766.766,0,0,1,.625.247,1.15,1.15,0,0,1,.21.737V0H3.289V-1.689a.458.458,0,0,0-.1-.326.437.437,0,0,0-.325-.1.485.485,0,0,0-.447.254V0H1.714V-2.642Zm3.14,1.78.491-1.78h.737L5.854,0H5.181L4.29-2.642h.737Zm1.392-.483a1.567,1.567,0,0,1,.151-.7A1.108,1.108,0,0,1,7.5-2.522a1.271,1.271,0,0,1,.66-.168,1.2,1.2,0,0,1,.873.327,1.313,1.313,0,0,1,.377.889l0,.181a1.381,1.381,0,0,1-.339.975,1.18,1.18,0,0,1-.911.367A1.185,1.185,0,0,1,7.25-.317a1.4,1.4,0,0,1-.341-1Zm.706.05a.987.987,0,0,0,.142.576.467.467,0,0,0,.405.2.468.468,0,0,0,.4-.2,1.08,1.08,0,0,0,.144-.63.978.978,0,0,0-.144-.572.468.468,0,0,0-.405-.2.461.461,0,0,0-.4.2A1.1,1.1,0,0,0,7.615-1.3ZM10.591,0H9.883V-2.642h.708Zm-.75-3.325a.347.347,0,0,1,.106-.261.4.4,0,0,1,.289-.1.4.4,0,0,1,.288.1.345.345,0,0,1,.107.261.346.346,0,0,1-.109.264.4.4,0,0,1-.287.1.4.4,0,0,1-.287-.1A.346.346,0,0,1,9.841-3.325ZM12.271-.52a.463.463,0,0,0,.317-.107.376.376,0,0,0,.127-.286h.662a.905.905,0,0,1-.146.492.967.967,0,0,1-.394.347,1.234,1.234,0,0,1-.553.123,1.147,1.147,0,0,1-.894-.36,1.425,1.425,0,0,1-.327-.995v-.046a1.409,1.409,0,0,1,.325-.974,1.133,1.133,0,0,1,.891-.364,1.111,1.111,0,0,1,.795.282,1,1,0,0,1,.3.751h-.662a.485.485,0,0,0-.127-.335.423.423,0,0,0-.322-.129.425.425,0,0,0-.372.18,1.042,1.042,0,0,0-.126.583v.073a1.055,1.055,0,0,0,.125.587A.43.43,0,0,0,12.271-.52ZM15,.049a1.3,1.3,0,0,1-.946-.356,1.267,1.267,0,0,1-.365-.95v-.068a1.6,1.6,0,0,1,.154-.712,1.129,1.129,0,0,1,.436-.483,1.223,1.223,0,0,1,.643-.17,1.1,1.1,0,0,1,.853.342,1.389,1.389,0,0,1,.311.969v.288H14.4a.655.655,0,0,0,.206.415.624.624,0,0,0,.436.156.762.762,0,0,0,.637-.3l.347.388a1.059,1.059,0,0,1-.43.35A1.41,1.41,0,0,1,15,.049Zm-.081-2.17a.441.441,0,0,0-.341.142.736.736,0,0,0-.167.407h.981v-.056a.525.525,0,0,0-.127-.364A.455.455,0,0,0,14.915-2.122Z" transform="translate(-191.33 155.811)" fill="#12263f"/>
        <g id="Grupo_900811" data-name="Grupo 900811" transform="translate(-197.082 131.978)">
          <path id="Trazado_628741" data-name="Trazado 628741" d="M-140.214,178.965h-54.07a2.8,2.8,0,0,0-2.8,2.8v6.084a2.8,2.8,0,0,0,2.8,2.8h54.07a2.8,2.8,0,0,0,2.8-2.8v-6.084A2.8,2.8,0,0,0-140.214,178.965Z" transform="translate(197.082 -178.965)" fill="url(#linear-gradient-3)"/>
        </g>
        <path id="Trazado_628745" data-name="Trazado 628745" d="M2.161-.933a.376.376,0,0,0-.146-.319,1.921,1.921,0,0,0-.527-.234,3.738,3.738,0,0,1-.6-.243A.985.985,0,0,1,.278-2.61a.858.858,0,0,1,.162-.514,1.059,1.059,0,0,1,.466-.353A1.755,1.755,0,0,1,1.589-3.6a1.6,1.6,0,0,1,.679.138,1.081,1.081,0,0,1,.463.389A1.019,1.019,0,0,1,2.9-2.5H2.163a.479.479,0,0,0-.154-.38.632.632,0,0,0-.432-.135.675.675,0,0,0-.417.114.358.358,0,0,0-.149.3.343.343,0,0,0,.175.291A1.972,1.972,0,0,0,1.7-2.1a2.22,2.22,0,0,1,.911.466A.929.929,0,0,1,2.9-.937a.855.855,0,0,1-.349.724,1.528,1.528,0,0,1-.94.262A1.815,1.815,0,0,1,.859-.1,1.182,1.182,0,0,1,.345-.513a1.054,1.054,0,0,1-.177-.605H.9q0,.588.7.588a.684.684,0,0,0,.408-.106A.346.346,0,0,0,2.161-.933ZM4.875,0A.784.784,0,0,1,4.8-.237a.854.854,0,0,1-.667.286.938.938,0,0,1-.643-.225A.722.722,0,0,1,3.24-.742a.747.747,0,0,1,.311-.645,1.536,1.536,0,0,1,.9-.227h.325v-.151a.435.435,0,0,0-.094-.293.37.37,0,0,0-.3-.11.42.42,0,0,0-.28.085.29.29,0,0,0-.1.234H3.3a.709.709,0,0,1,.142-.425.936.936,0,0,1,.4-.306,1.459,1.459,0,0,1,.581-.111,1.153,1.153,0,0,1,.775.245.858.858,0,0,1,.287.69V-.61a1.263,1.263,0,0,0,.1.569V0ZM4.292-.491A.608.608,0,0,0,4.58-.56a.457.457,0,0,0,.2-.187V-1.2H4.512q-.53,0-.564.366l0,.042a.282.282,0,0,0,.093.217A.36.36,0,0,0,4.292-.491ZM6.77,0H6.062V-3.75H6.77Zm1.8.049a1.3,1.3,0,0,1-.946-.356,1.267,1.267,0,0,1-.365-.95v-.068a1.6,1.6,0,0,1,.154-.712,1.129,1.129,0,0,1,.436-.483,1.223,1.223,0,0,1,.643-.17,1.1,1.1,0,0,1,.853.342,1.389,1.389,0,0,1,.311.969v.288H7.971a.655.655,0,0,0,.206.415.624.624,0,0,0,.436.156.762.762,0,0,0,.637-.3L9.6-.427a1.059,1.059,0,0,1-.43.35A1.41,1.41,0,0,1,8.567.049Zm-.081-2.17a.441.441,0,0,0-.341.142.736.736,0,0,0-.167.407H8.96v-.056a.525.525,0,0,0-.127-.364A.455.455,0,0,0,8.486-2.122Zm3,1.392a.227.227,0,0,0-.128-.2,1.456,1.456,0,0,0-.411-.133q-.942-.2-.942-.8a.726.726,0,0,1,.292-.587,1.177,1.177,0,0,1,.763-.236,1.267,1.267,0,0,1,.8.237.746.746,0,0,1,.3.615h-.706a.341.341,0,0,0-.1-.25.413.413,0,0,0-.305-.1.422.422,0,0,0-.276.081.254.254,0,0,0-.1.205.217.217,0,0,0,.111.189,1.143,1.143,0,0,0,.375.125,3.061,3.061,0,0,1,.444.118.73.73,0,0,1,.559.71.689.689,0,0,1-.31.585,1.338,1.338,0,0,1-.8.223,1.4,1.4,0,0,1-.59-.118.989.989,0,0,1-.4-.325A.754.754,0,0,1,9.919-.84h.669a.368.368,0,0,0,.139.288.552.552,0,0,0,.347.1.511.511,0,0,0,.306-.077A.239.239,0,0,0,11.484-.73Z" transform="translate(-191.33 140.236)" fill="#12263f"/>
        <g id="Grupo_900812" data-name="Grupo 900812" transform="translate(-197.082 99.869)">
          <path id="Trazado_628742" data-name="Trazado 628742" d="M-140.214,99.869h-54.07a2.8,2.8,0,0,0-2.8,2.8v6.084a2.8,2.8,0,0,0,2.8,2.8h54.07a2.8,2.8,0,0,0,2.8-2.8v-6.084A2.8,2.8,0,0,0-140.214,99.869Z" transform="translate(197.082 -99.869)" fill="#fecb2f"/>
        </g>
        <path id="Trazado_628743" data-name="Trazado 628743" d="M.317,0V-3.555H1.411a1.661,1.661,0,0,1,.839.211,1.473,1.473,0,0,1,.577.6,1.852,1.852,0,0,1,.208.885v.164a1.858,1.858,0,0,1-.2.881,1.46,1.46,0,0,1-.575.6A1.674,1.674,0,0,1,1.418,0ZM1.05-2.961V-.588H1.4a.8.8,0,0,0,.657-.281,1.269,1.269,0,0,0,.232-.8V-1.86a1.289,1.289,0,0,0-.225-.822.793.793,0,0,0-.657-.28ZM5.051,0A.784.784,0,0,1,4.98-.237a.854.854,0,0,1-.667.286.938.938,0,0,1-.643-.225.722.722,0,0,1-.255-.566.747.747,0,0,1,.311-.645,1.536,1.536,0,0,1,.9-.227h.325v-.151a.435.435,0,0,0-.094-.293.37.37,0,0,0-.3-.11.42.42,0,0,0-.28.085.29.29,0,0,0-.1.234H3.474a.709.709,0,0,1,.142-.425.936.936,0,0,1,.4-.306A1.459,1.459,0,0,1,4.6-2.69a1.153,1.153,0,0,1,.775.245.858.858,0,0,1,.287.69V-.61a1.263,1.263,0,0,0,.1.569V0ZM4.468-.491a.608.608,0,0,0,.288-.07.457.457,0,0,0,.2-.187V-1.2H4.688q-.53,0-.564.366l0,.042a.282.282,0,0,0,.093.217A.36.36,0,0,0,4.468-.491ZM7.632-.73a.227.227,0,0,0-.128-.2,1.456,1.456,0,0,0-.411-.133q-.942-.2-.942-.8a.726.726,0,0,1,.292-.587A1.177,1.177,0,0,1,7.2-2.69a1.267,1.267,0,0,1,.8.237.746.746,0,0,1,.3.615H7.6a.341.341,0,0,0-.1-.25.413.413,0,0,0-.305-.1.422.422,0,0,0-.276.081.254.254,0,0,0-.1.205.217.217,0,0,0,.111.189,1.143,1.143,0,0,0,.375.125,3.061,3.061,0,0,1,.444.118.73.73,0,0,1,.559.71.689.689,0,0,1-.31.585,1.338,1.338,0,0,1-.8.223,1.4,1.4,0,0,1-.59-.118.989.989,0,0,1-.4-.325A.754.754,0,0,1,6.067-.84h.669a.368.368,0,0,0,.139.288.552.552,0,0,0,.347.1.511.511,0,0,0,.306-.077A.239.239,0,0,0,7.632-.73ZM9.46-2.354a.881.881,0,0,1,.706-.337q.859,0,.872,1V0h-.706V-1.672a.491.491,0,0,0-.1-.336.419.419,0,0,0-.325-.109.48.48,0,0,0-.449.239V0H8.755V-3.75H9.46ZM13.95-1.3a1.6,1.6,0,0,1-.271.99.9.9,0,0,1-.757.355.825.825,0,0,1-.686-.33L12.2,0H11.57V-3.75h.706V-2.4a.8.8,0,0,1,.642-.286.905.905,0,0,1,.758.355,1.6,1.6,0,0,1,.275,1Zm-.706-.051a1.051,1.051,0,0,0-.127-.585.429.429,0,0,0-.378-.184.465.465,0,0,0-.464.276V-.8a.472.472,0,0,0,.469.278.436.436,0,0,0,.449-.337A1.738,1.738,0,0,0,13.245-1.348Zm1.03,0a1.567,1.567,0,0,1,.151-.7,1.108,1.108,0,0,1,.436-.476,1.271,1.271,0,0,1,.66-.168,1.2,1.2,0,0,1,.873.327,1.313,1.313,0,0,1,.377.889l0,.181a1.381,1.381,0,0,1-.339.975,1.18,1.18,0,0,1-.911.367,1.185,1.185,0,0,1-.912-.366,1.4,1.4,0,0,1-.341-1Zm.706.05a.987.987,0,0,0,.142.576.467.467,0,0,0,.405.2.468.468,0,0,0,.4-.2,1.08,1.08,0,0,0,.144-.63.978.978,0,0,0-.144-.572.468.468,0,0,0-.405-.2.461.461,0,0,0-.4.2A1.1,1.1,0,0,0,14.98-1.3ZM18.743,0a.784.784,0,0,1-.071-.237.854.854,0,0,1-.667.286.938.938,0,0,1-.643-.225.722.722,0,0,1-.255-.566.747.747,0,0,1,.311-.645,1.536,1.536,0,0,1,.9-.227h.325v-.151a.435.435,0,0,0-.094-.293.37.37,0,0,0-.3-.11.42.42,0,0,0-.28.085.29.29,0,0,0-.1.234h-.706a.709.709,0,0,1,.142-.425.936.936,0,0,1,.4-.306,1.459,1.459,0,0,1,.581-.111,1.153,1.153,0,0,1,.775.245.858.858,0,0,1,.287.69V-.61a1.263,1.263,0,0,0,.1.569V0Zm-.583-.491a.608.608,0,0,0,.288-.07.457.457,0,0,0,.2-.187V-1.2h-.264q-.53,0-.564.366l0,.042a.282.282,0,0,0,.093.217A.36.36,0,0,0,18.159-.491ZM21.377-1.98A1.917,1.917,0,0,0,21.123-2a.517.517,0,0,0-.525.271V0h-.706V-2.642h.667l.02.315a.654.654,0,0,1,.588-.364.739.739,0,0,1,.22.032Zm.183.64a1.592,1.592,0,0,1,.277-.984A.9.9,0,0,1,22.6-2.69a.809.809,0,0,1,.637.288V-3.75h.708V0H23.3l-.034-.281a.83.83,0,0,1-.679.33.9.9,0,0,1-.748-.367A1.643,1.643,0,0,1,21.56-1.34Zm.706.053a1.043,1.043,0,0,0,.129.57.422.422,0,0,0,.376.2A.472.472,0,0,0,23.232-.8V-1.84a.465.465,0,0,0-.457-.276Q22.266-2.117,22.266-1.288Z" transform="translate(-191.33 108.207)" fill="#fff"/>
      </g>
    </g>
  </g>
</svg>
