<svg xmlns="http://www.w3.org/2000/svg" width="231.033" height="244" viewBox="0 0 231.033 244">
  <g id="Grupo_901611" data-name="Grupo 901611" transform="translate(228.6 -1600)">
    <g id="Grupo_900820" data-name="Grupo 900820" transform="translate(-272.997 1562.96)">
      <rect id="Rectángulo_302792" data-name="Rectángulo 302792" width="244" height="231.033" rx="1.577" transform="translate(275.431 37.04) rotate(90)" fill="#e6e6e6"/>
      <rect id="Rectángulo_302793" data-name="Rectángulo 302793" width="230.016" height="225.258" transform="translate(44.906 49.153)" fill="#fff"/>
      <g id="Grupo_900769" data-name="Grupo 900769" transform="translate(75.529 40.033)">
        <rect id="Rectángulo_302794" data-name="Rectángulo 302794" width="174.307" height="6.519" rx="0.596" transform="translate(0.122 0.142)" fill="#fff"/>
        <path id="Trazado_628706" data-name="Trazado 628706" d="M256.478,46.987H83.145a.666.666,0,0,1-.609-.709V40.895a.666.666,0,0,1,.609-.71H256.478a.666.666,0,0,1,.609.71v5.384A.665.665,0,0,1,256.478,46.987ZM83.145,40.469a.4.4,0,0,0-.366.426v5.384a.4.4,0,0,0,.366.425H256.478a.4.4,0,0,0,.366-.425V40.895a.4.4,0,0,0-.366-.426Z" transform="translate(-82.536 -40.185)" fill="#ccc"/>
      </g>
      <g id="Grupo_900776" data-name="Grupo 900776" transform="translate(49.57 41.955)">
        <g id="Grupo_900770" data-name="Grupo 900770" transform="translate(0.763 0.908)">
          <path id="Trazado_628707" data-name="Trazado 628707" d="M54.4,43.625h0Z" transform="translate(-51.668 -43.181)" fill="#fff"/>
          <rect id="Rectángulo_302795" data-name="Rectángulo 302795" width="2.727" height="0.889" transform="translate(0)" fill="#b3b3b3"/>
        </g>
        <g id="Grupo_900775" data-name="Grupo 900775">
          <g id="Grupo_900772" data-name="Grupo 900772" transform="translate(1.1 0.835)">
            <g id="Grupo_900771" data-name="Grupo 900771">
              <rect id="Rectángulo_302796" data-name="Rectángulo 302796" width="2.009" height="0.146" transform="translate(0.382 0.445)" fill="#0a92cf"/>
              <rect id="Rectángulo_302797" data-name="Rectángulo 302797" width="2.772" height="1.035" fill="#b3b3b3"/>
            </g>
          </g>
          <g id="Grupo_900774" data-name="Grupo 900774">
            <g id="Grupo_900773" data-name="Grupo 900773">
              <path id="Trazado_628708" data-name="Trazado 628708" d="M52.533,43.014l-.865.582.865.582Z" transform="translate(-50.905 -42.244)" fill="#0a92cf"/>
              <path id="Trazado_628709" data-name="Trazado 628709" d="M52.742,44.909l-2.009-1.352L52.742,42.2Z" transform="translate(-50.734 -42.204)" fill="#b3b3b3"/>
            </g>
          </g>
        </g>
      </g>
      <g id="Grupo_900783" data-name="Grupo 900783" transform="translate(56.093 41.955)">
        <g id="Grupo_900777" data-name="Grupo 900777" transform="translate(0.381 0.908)">
          <path id="Trazado_628710" data-name="Trazado 628710" d="M59.193,43.625h0Z" transform="translate(-59.193 -43.181)" fill="#fff"/>
          <rect id="Rectángulo_302798" data-name="Rectángulo 302798" width="2.727" height="0.889" fill="#b3b3b3"/>
        </g>
        <g id="Grupo_900782" data-name="Grupo 900782">
          <g id="Grupo_900779" data-name="Grupo 900779" transform="translate(0 0.835)">
            <g id="Grupo_900778" data-name="Grupo 900778">
              <rect id="Rectángulo_302799" data-name="Rectángulo 302799" width="2.009" height="0.146" transform="translate(0.381 0.445)" fill="#0a92cf"/>
              <rect id="Rectángulo_302800" data-name="Rectángulo 302800" width="2.771" height="1.035" fill="#b3b3b3"/>
            </g>
          </g>
          <g id="Grupo_900781" data-name="Grupo 900781" transform="translate(1.862)">
            <g id="Grupo_900780" data-name="Grupo 900780">
              <path id="Trazado_628711" data-name="Trazado 628711" d="M61.475,43.014l.865.582-.865.582Z" transform="translate(-61.093 -42.244)" fill="#0a92cf"/>
              <path id="Trazado_628712" data-name="Trazado 628712" d="M61.007,44.909V42.2l2.009,1.352Z" transform="translate(-61.007 -42.204)" fill="#b3b3b3"/>
            </g>
          </g>
        </g>
      </g>
      <rect id="Rectángulo_302801" data-name="Rectángulo 302801" width="230.016" height="65.131" transform="translate(44.906 49.153)" fill="#666"/>
      <rect id="Rectángulo_302803" data-name="Rectángulo 302803" width="211.818" height="14.013" transform="translate(54.005 154.782)" fill="#0b5999"/>
      <g id="Grupo_900807" data-name="Grupo 900807" transform="translate(72.976 177.636)">
        <rect id="Rectángulo_302811" data-name="Rectángulo 302811" width="77.43" height="28.969" transform="translate(0 0)" fill="#666"/>
        <rect id="Rectángulo_302812" data-name="Rectángulo 302812" width="25.725" height="9.661" transform="translate(0 77.499)" fill="#999"/>
        <g id="Grupo_900790" data-name="Grupo 900790" transform="translate(0 37.441)">
          <path id="Trazado_628719" data-name="Trazado 628719" d="M147.293,209.082h0Z" transform="translate(-147.293 -207.886)" fill="#fff"/>
          <rect id="Rectángulo_302813" data-name="Rectángulo 302813" width="77.43" height="2.392" transform="translate(0)" fill="#e6e6e6"/>
        </g>
        <g id="Grupo_900791" data-name="Grupo 900791" transform="translate(0 42.869)">
          <path id="Trazado_628720" data-name="Trazado 628720" d="M147.293,214.29h0Z" transform="translate(-147.293 -213.094)" fill="#fff"/>
          <rect id="Rectángulo_302814" data-name="Rectángulo 302814" width="77.43" height="2.392" transform="translate(0)" fill="#e6e6e6"/>
        </g>
        <g id="Grupo_900792" data-name="Grupo 900792" transform="translate(0 48.298)">
          <path id="Trazado_628721" data-name="Trazado 628721" d="M147.293,219.5h0Z" transform="translate(-147.293 -218.301)" fill="#fff"/>
          <rect id="Rectángulo_302815" data-name="Rectángulo 302815" width="77.43" height="2.392" transform="translate(0)" fill="#e6e6e6"/>
        </g>
        <g id="Grupo_900793" data-name="Grupo 900793" transform="translate(0 53.727)">
          <path id="Trazado_628722" data-name="Trazado 628722" d="M147.293,224.705h0Z" transform="translate(-147.293 -223.509)" fill="#fff"/>
          <rect id="Rectángulo_302816" data-name="Rectángulo 302816" width="77.43" height="2.392" transform="translate(0)" fill="#e6e6e6"/>
        </g>
        <g id="Grupo_900794" data-name="Grupo 900794" transform="translate(0 62.801)">
          <path id="Trazado_628723" data-name="Trazado 628723" d="M147.293,229.912h0Z" transform="translate(-147.293 -228.716)" fill="#fff"/>
          <rect id="Rectángulo_302817" data-name="Rectángulo 302817" width="77.43" height="2.392" transform="translate(0)" fill="#e6e6e6"/>
        </g>
        <g id="Grupo_900795" data-name="Grupo 900795" transform="translate(0 67.757)">
          <path id="Trazado_628724" data-name="Trazado 628724" d="M147.293,235.12h0Z" transform="translate(-147.293 -233.924)" fill="#fff"/>
          <rect id="Rectángulo_302818" data-name="Rectángulo 302818" width="77.43" height="2.392" transform="translate(0)" fill="#e6e6e6"/>
        </g>
      </g>
      <g id="Grupo_900808" data-name="Grupo 900808" transform="translate(160.639 177.636)">
        <rect id="Rectángulo_302819" data-name="Rectángulo 302819" width="77.429" height="28.969" transform="translate(0 0)" fill="#666"/>
        <rect id="Rectángulo_302820" data-name="Rectángulo 302820" width="25.725" height="9.661" transform="translate(0 77.499)" fill="#999"/>
        <g id="Grupo_900796" data-name="Grupo 900796" transform="translate(0 37.441)">
          <path id="Trazado_628725" data-name="Trazado 628725" d="M238.418,209.082h0Z" transform="translate(-238.418 -207.886)" fill="#fff"/>
          <rect id="Rectángulo_302821" data-name="Rectángulo 302821" width="77.429" height="2.392" transform="translate(0.001)" fill="#e6e6e6"/>
        </g>
        <g id="Grupo_900797" data-name="Grupo 900797" transform="translate(0 42.869)">
          <path id="Trazado_628726" data-name="Trazado 628726" d="M238.418,214.29h0Z" transform="translate(-238.418 -213.094)" fill="#fff"/>
          <rect id="Rectángulo_302822" data-name="Rectángulo 302822" width="77.429" height="2.392" transform="translate(0.001)" fill="#e6e6e6"/>
        </g>
        <g id="Grupo_900798" data-name="Grupo 900798" transform="translate(0 48.298)">
          <path id="Trazado_628727" data-name="Trazado 628727" d="M238.418,219.5h0Z" transform="translate(-238.418 -218.301)" fill="#fff"/>
          <rect id="Rectángulo_302823" data-name="Rectángulo 302823" width="77.429" height="2.392" transform="translate(0.001)" fill="#e6e6e6"/>
        </g>
        <g id="Grupo_900799" data-name="Grupo 900799" transform="translate(0 53.727)">
          <path id="Trazado_628728" data-name="Trazado 628728" d="M238.418,224.705h0Z" transform="translate(-238.418 -223.509)" fill="#fff"/>
          <rect id="Rectángulo_302824" data-name="Rectángulo 302824" width="77.429" height="2.392" transform="translate(0.001)" fill="#e6e6e6"/>
        </g>
        <g id="Grupo_900800" data-name="Grupo 900800" transform="translate(0 62.801)">
          <path id="Trazado_628729" data-name="Trazado 628729" d="M238.418,229.912h0Z" transform="translate(-238.418 -228.716)" fill="#fff"/>
          <rect id="Rectángulo_302825" data-name="Rectángulo 302825" width="77.429" height="2.392" transform="translate(0.001)" fill="#e6e6e6"/>
        </g>
        <g id="Grupo_900801" data-name="Grupo 900801" transform="translate(0 67.757)">
          <path id="Trazado_628730" data-name="Trazado 628730" d="M238.418,235.12h0Z" transform="translate(-238.418 -233.924)" fill="#fff"/>
          <rect id="Rectángulo_302826" data-name="Rectángulo 302826" width="77.429" height="2.392" transform="translate(0.001)" fill="#e6e6e6"/>
        </g>
      </g>
      <g id="Grupo_900806" data-name="Grupo 900806" transform="translate(0 -8)">
        <rect id="Rectángulo_302802" data-name="Rectángulo 302802" width="211.818" height="77.079" transform="translate(54.005 81.327)" fill="#c6c6c6"/>
        <g id="Grupo_900802" data-name="Grupo 900802" transform="translate(61.759 114.814)">
          <path id="Trazado_628731" data-name="Trazado 628731" d="M71.292,124.432l-5.625-6.558,5.625-6.558,1.079,1.258-4.546,5.3,4.546,5.3Z" transform="translate(-65.666 -111.316)" fill="#fff"/>
        </g>
        <g id="Grupo_900803" data-name="Grupo 900803" transform="translate(251.365 114.814)">
          <path id="Trazado_628732" data-name="Trazado 628732" d="M299.027,124.432l-1.079-1.258,4.546-5.3-4.546-5.3,1.079-1.258,5.625,6.558Z" transform="translate(-297.948 -111.316)" fill="#fff"/>
        </g>
        <path id="Trazado_628733" data-name="Trazado 628733" d="M181.88,147.539a1.544,1.544,0,1,1-1.526-1.779A1.667,1.667,0,0,1,181.88,147.539Z" transform="translate(-24.698 4.668)" fill="#b3b3b3"/>
        <path id="Trazado_628734" data-name="Trazado 628734" d="M187.1,147.539a1.544,1.544,0,1,1-1.526-1.779A1.667,1.667,0,0,1,187.1,147.539Z" transform="translate(-25.656 4.668)" fill="#e6e6e6"/>
        <path id="Trazado_628735" data-name="Trazado 628735" d="M192.311,147.539a1.544,1.544,0,1,1-1.526-1.779A1.667,1.667,0,0,1,192.311,147.539Z" transform="translate(-26.615 4.668)" fill="#e6e6e6"/>
      </g>
      <ellipse id="Elipse_6471" data-name="Elipse 6471" cx="1.271" cy="1.482" rx="1.271" ry="1.482" transform="translate(268.821 41.952)" fill="red"/>
      <path id="Trazado_628736" data-name="Trazado 628736" d="M316.646,43.684a1.286,1.286,0,1,1-1.272-1.482A1.389,1.389,0,0,1,316.646,43.684Z" transform="translate(-49.551 -0.25)" fill="#b3b3b3"/>
      <ellipse id="Elipse_6472" data-name="Elipse 6472" cx="1.271" cy="1.482" rx="1.271" ry="1.482" transform="translate(260.282 41.952)" fill="#b3b3b3"/>
      <path id="Trazado_628737" data-name="Trazado 628737" d="M70.661,43.626l.252-1.978-.544.249A2.1,2.1,0,0,0,68.7,41.01a2.647,2.647,0,0,0,0,5.232,2.1,2.1,0,0,0,1.582-.771l-.431-.488,0,.058a1.535,1.535,0,0,1-1.148.533,1.971,1.971,0,0,1,0-3.9,1.519,1.519,0,0,1,1.086.487l-.473.217Z" transform="translate(-4.053 -0.192)" fill="#b3b3b3"/>
      <path id="Trazado_628738" data-name="Trazado 628738" d="M76.348,41.644l1.621,1.89H77.24v2.081H75.455V43.534h-.729l1.622-1.89Zm0-.57a.454.454,0,0,0-.346.167L74.38,43.131a.643.643,0,0,0-.106.621.5.5,0,0,0,.452.351h.24v1.511a.534.534,0,0,0,.489.57H77.24a.534.534,0,0,0,.489-.57V44.1h.24a.5.5,0,0,0,.452-.351.643.643,0,0,0-.106-.621l-1.622-1.891a.454.454,0,0,0-.345-.167Z" transform="translate(-5.482 -0.195)" fill="#b3b3b3"/>
    </g>
    <g id="Grupo_900825" data-name="Grupo 900825" transform="translate(-186.6 1719.5)">
      <path id="Trazado_628739" data-name="Trazado 628739" d="M-166.141,140.007H-195.56c-.841,0-1.522,1.092-1.522,2.439v5.3c0,1.347.682,2.439,1.522,2.439h29.419c.841,0,1.523-1.092,1.523-2.439v-5.3C-164.618,141.1-165.3,140.007-166.141,140.007Z" transform="translate(197.082 -140.007)" fill="#f6f6f6"/>
    </g>
    <g id="Grupo_900821" data-name="Grupo 900821" transform="translate(-78.846 1719.5)">
      <path id="Trazado_628739-2" data-name="Trazado 628739" d="M-166.141,140.007H-195.56c-.841,0-1.522,1.092-1.522,2.439v5.3c0,1.347.682,2.439,1.522,2.439h29.419c.841,0,1.523-1.092,1.523-2.439v-5.3C-164.618,141.1-165.3,140.007-166.141,140.007Z" transform="translate(197.082 -140.007)" fill="#f6f6f6"/>
    </g>
    <path id="Trazado_628750" data-name="Trazado 628750" d="M1.721-1.3H1.1V0H.317V-3.555H1.727a1.669,1.669,0,0,1,1.037.281.943.943,0,0,1,.365.793,1.042,1.042,0,0,1-.168.607,1.133,1.133,0,0,1-.509.387l.82,1.453V0H2.432ZM1.1-1.895h.63a.673.673,0,0,0,.456-.14.486.486,0,0,0,.161-.387.518.518,0,0,0-.152-.4.66.66,0,0,0-.468-.144H1.1ZM4.969.049A1.436,1.436,0,0,1,3.96-.308a1.225,1.225,0,0,1-.389-.95v-.068a1.512,1.512,0,0,1,.164-.712A1.158,1.158,0,0,1,4.2-2.521a1.373,1.373,0,0,1,.686-.17,1.21,1.21,0,0,1,.91.342,1.334,1.334,0,0,1,.332.969v.288H4.334a.642.642,0,0,0,.22.415.692.692,0,0,0,.465.156.835.835,0,0,0,.68-.3l.37.388a1.118,1.118,0,0,1-.458.35A1.59,1.59,0,0,1,4.969.049Zm-.086-2.17a.486.486,0,0,0-.363.142.713.713,0,0,0-.178.407H5.389v-.056a.506.506,0,0,0-.135-.364A.5.5,0,0,0,4.883-2.122ZM7.577-.862,8.1-2.642h.787L7.936,0H7.217L6.266-2.642h.787Zm2.9.911A1.436,1.436,0,0,1,9.472-.308a1.225,1.225,0,0,1-.389-.95v-.068a1.512,1.512,0,0,1,.164-.712,1.158,1.158,0,0,1,.465-.483,1.373,1.373,0,0,1,.686-.17,1.21,1.21,0,0,1,.91.342,1.334,1.334,0,0,1,.332.969v.288H9.845a.642.642,0,0,0,.22.415.692.692,0,0,0,.465.156.835.835,0,0,0,.68-.3l.37.388a1.118,1.118,0,0,1-.458.35A1.59,1.59,0,0,1,10.481.049Zm-.086-2.17a.486.486,0,0,0-.363.142.713.713,0,0,0-.178.407H10.9v-.056a.506.506,0,0,0-.135-.364A.5.5,0,0,0,10.395-2.122Zm2.365-.52.023.305a1.011,1.011,0,0,1,.81-.354.846.846,0,0,1,.667.247,1.1,1.1,0,0,1,.224.737V0h-.753V-1.689a.439.439,0,0,0-.1-.326.487.487,0,0,0-.346-.1.525.525,0,0,0-.477.254V0h-.753V-2.642ZM16.742-.269a.972.972,0,0,1-.771.317A.923.923,0,0,1,15.28-.2a1,1,0,0,1-.244-.715V-2.642h.753V-.933a.36.36,0,0,0,.4.413.554.554,0,0,0,.526-.249V-2.642h.755V0h-.708Zm2.594.317a1.436,1.436,0,0,1-1.009-.356,1.225,1.225,0,0,1-.389-.95v-.068a1.512,1.512,0,0,1,.164-.712,1.158,1.158,0,0,1,.465-.483,1.373,1.373,0,0,1,.686-.17,1.21,1.21,0,0,1,.91.342,1.334,1.334,0,0,1,.332.969v.288H18.7a.642.642,0,0,0,.22.415.692.692,0,0,0,.465.156.835.835,0,0,0,.68-.3l.37.388a1.118,1.118,0,0,1-.458.35A1.59,1.59,0,0,1,19.337.049Zm-.086-2.17a.486.486,0,0,0-.363.142.713.713,0,0,0-.178.407h1.047v-.056a.506.506,0,0,0-.135-.364A.5.5,0,0,0,19.251-2.122Z" transform="translate(-180.516 1726.179)" fill="#636363"/>
    <path id="Trazado_628751" data-name="Trazado 628751" d="M1.721-1.3H1.1V0H.317V-3.555H1.727a1.669,1.669,0,0,1,1.037.281.943.943,0,0,1,.365.793,1.042,1.042,0,0,1-.168.607,1.133,1.133,0,0,1-.509.387l.82,1.453V0H2.432ZM1.1-1.895h.63a.673.673,0,0,0,.456-.14.486.486,0,0,0,.161-.387.518.518,0,0,0-.152-.4.66.66,0,0,0-.468-.144H1.1ZM4.969.049A1.436,1.436,0,0,1,3.96-.308a1.225,1.225,0,0,1-.389-.95v-.068a1.512,1.512,0,0,1,.164-.712A1.158,1.158,0,0,1,4.2-2.521a1.373,1.373,0,0,1,.686-.17,1.21,1.21,0,0,1,.91.342,1.334,1.334,0,0,1,.332.969v.288H4.334a.642.642,0,0,0,.22.415.692.692,0,0,0,.465.156.835.835,0,0,0,.68-.3l.37.388a1.118,1.118,0,0,1-.458.35A1.59,1.59,0,0,1,4.969.049Zm-.086-2.17a.486.486,0,0,0-.363.142.713.713,0,0,0-.178.407H5.389v-.056a.506.506,0,0,0-.135-.364A.5.5,0,0,0,4.883-2.122ZM7.577-.862,8.1-2.642h.787L7.936,0H7.217L6.266-2.642h.787Zm2.9.911A1.436,1.436,0,0,1,9.472-.308a1.225,1.225,0,0,1-.389-.95v-.068a1.512,1.512,0,0,1,.164-.712,1.158,1.158,0,0,1,.465-.483,1.373,1.373,0,0,1,.686-.17,1.21,1.21,0,0,1,.91.342,1.334,1.334,0,0,1,.332.969v.288H9.845a.642.642,0,0,0,.22.415.692.692,0,0,0,.465.156.835.835,0,0,0,.68-.3l.37.388a1.118,1.118,0,0,1-.458.35A1.59,1.59,0,0,1,10.481.049Zm-.086-2.17a.486.486,0,0,0-.363.142.713.713,0,0,0-.178.407H10.9v-.056a.506.506,0,0,0-.135-.364A.5.5,0,0,0,10.395-2.122Zm2.365-.52.023.305a1.011,1.011,0,0,1,.81-.354.846.846,0,0,1,.667.247,1.1,1.1,0,0,1,.224.737V0h-.753V-1.689a.439.439,0,0,0-.1-.326.487.487,0,0,0-.346-.1.525.525,0,0,0-.477.254V0h-.753V-2.642ZM16.742-.269a.972.972,0,0,1-.771.317A.923.923,0,0,1,15.28-.2a1,1,0,0,1-.244-.715V-2.642h.753V-.933a.36.36,0,0,0,.4.413.554.554,0,0,0,.526-.249V-2.642h.755V0h-.708Zm2.594.317a1.436,1.436,0,0,1-1.009-.356,1.225,1.225,0,0,1-.389-.95v-.068a1.512,1.512,0,0,1,.164-.712,1.158,1.158,0,0,1,.465-.483,1.373,1.373,0,0,1,.686-.17,1.21,1.21,0,0,1,.91.342,1.334,1.334,0,0,1,.332.969v.288H18.7a.642.642,0,0,0,.22.415.692.692,0,0,0,.465.156.835.835,0,0,0,.68-.3l.37.388a1.118,1.118,0,0,1-.458.35A1.59,1.59,0,0,1,19.337.049Zm-.086-2.17a.486.486,0,0,0-.363.142.713.713,0,0,0-.178.407h1.047v-.056a.506.506,0,0,0-.135-.364A.5.5,0,0,0,19.251-2.122Z" transform="translate(-72.762 1726.18)" fill="#636363"/>
    <g id="Grupo_900822" data-name="Grupo 900822" transform="translate(-116.186 1719.5)">
      <path id="Trazado_628740" data-name="Trazado 628740" d="M-163.018,217.922h-32.388c-.926,0-1.676,1.092-1.676,2.439v5.3c0,1.347.75,2.439,1.676,2.439h32.388c.926,0,1.676-1.092,1.676-2.439v-5.3C-161.342,219.014-162.092,217.922-163.018,217.922Z" transform="translate(197.082 -217.922)" fill="#f6f6f6"/>
    </g>
    <path id="Trazado_628752" data-name="Trazado 628752" d="M1.145,0H.364V-3.555h.781ZM2.513-2.642l.023.305a1.011,1.011,0,0,1,.81-.354.846.846,0,0,1,.667.247,1.1,1.1,0,0,1,.224.737V0H3.484V-1.689a.439.439,0,0,0-.1-.326.487.487,0,0,0-.346-.1.525.525,0,0,0-.477.254V0H1.8V-2.642Zm3.35,1.78.524-1.78h.787L6.222,0H5.5L4.552-2.642h.787Zm1.485-.483a1.485,1.485,0,0,1,.161-.7,1.139,1.139,0,0,1,.465-.476,1.428,1.428,0,0,1,.7-.168,1.333,1.333,0,0,1,.931.327,1.275,1.275,0,0,1,.4.889l.005.181a1.329,1.329,0,0,1-.362.975,1.3,1.3,0,0,1-.972.367A1.309,1.309,0,0,1,7.71-.317a1.352,1.352,0,0,1-.363-1ZM8.1-1.3a.94.94,0,0,0,.151.576.51.51,0,0,0,.432.2.511.511,0,0,0,.427-.2,1.027,1.027,0,0,0,.154-.63.931.931,0,0,0-.154-.572.511.511,0,0,0-.432-.2.5.5,0,0,0-.427.2A1.044,1.044,0,0,0,8.1-1.3ZM11.275,0h-.755V-2.642h.755Zm-.8-3.325a.337.337,0,0,1,.113-.261.443.443,0,0,1,.309-.1.444.444,0,0,1,.307.1.335.335,0,0,1,.115.261.336.336,0,0,1-.116.264.445.445,0,0,1-.306.1.445.445,0,0,1-.306-.1A.336.336,0,0,1,10.475-3.325ZM13.067-.52a.515.515,0,0,0,.339-.107.367.367,0,0,0,.135-.286h.706a.865.865,0,0,1-.156.492,1.013,1.013,0,0,1-.421.347,1.39,1.39,0,0,1-.59.123,1.266,1.266,0,0,1-.953-.36,1.369,1.369,0,0,1-.349-.995v-.046a1.354,1.354,0,0,1,.346-.974,1.25,1.25,0,0,1,.951-.364,1.233,1.233,0,0,1,.848.282.968.968,0,0,1,.324.751h-.706a.468.468,0,0,0-.135-.335.468.468,0,0,0-.344-.129.464.464,0,0,0-.4.18.989.989,0,0,0-.134.583v.073a1,1,0,0,0,.133.587A.471.471,0,0,0,13.067-.52Zm2.907.569a1.436,1.436,0,0,1-1.009-.356,1.225,1.225,0,0,1-.389-.95v-.068a1.512,1.512,0,0,1,.164-.712,1.158,1.158,0,0,1,.465-.483,1.373,1.373,0,0,1,.686-.17,1.21,1.21,0,0,1,.91.342,1.334,1.334,0,0,1,.332.969v.288H15.338a.642.642,0,0,0,.22.415.692.692,0,0,0,.465.156.835.835,0,0,0,.68-.3l.37.388a1.118,1.118,0,0,1-.458.35A1.59,1.59,0,0,1,15.974.049Zm-.086-2.17a.486.486,0,0,0-.363.142.713.713,0,0,0-.178.407h1.047v-.056a.506.506,0,0,0-.135-.364A.5.5,0,0,0,15.888-2.122Z" transform="translate(-106.948 1726.019)" fill="#636363"/>
    <g id="Grupo_900823" data-name="Grupo 900823" transform="translate(-152.46 1719.5)">
      <path id="Trazado_628741" data-name="Trazado 628741" d="M-163.623,178.965h-31.812c-.909,0-1.646,1.092-1.646,2.439v5.3c0,1.347.737,2.439,1.646,2.439h31.812c.909,0,1.647-1.092,1.647-2.439v-5.3C-161.977,180.057-162.714,178.965-163.623,178.965Z" transform="translate(197.082 -178.965)" fill="#f6f6f6"/>
    </g>
    <g id="Grupo_900824" data-name="Grupo 900824" transform="translate(-44.705 1719.5)">
      <path id="Trazado_628741-2" data-name="Trazado 628741" d="M-163.623,178.965h-31.812c-.909,0-1.646,1.092-1.646,2.439v5.3c0,1.347.737,2.439,1.646,2.439h31.812c.909,0,1.647-1.092,1.647-2.439v-5.3C-161.977,180.057-162.714,178.965-163.623,178.965Z" transform="translate(197.082 -178.965)" fill="#f6f6f6"/>
    </g>
    <path id="Trazado_628753" data-name="Trazado 628753" d="M2.294-.933a.367.367,0,0,0-.156-.319,2.118,2.118,0,0,0-.563-.234,4.145,4.145,0,0,1-.643-.243A.987.987,0,0,1,.286-2.61a.822.822,0,0,1,.173-.514,1.125,1.125,0,0,1,.5-.353A1.983,1.983,0,0,1,1.684-3.6a1.8,1.8,0,0,1,.724.138,1.137,1.137,0,0,1,.494.389.973.973,0,0,1,.176.571H2.3a.465.465,0,0,0-.164-.38.7.7,0,0,0-.461-.135.756.756,0,0,0-.445.114.351.351,0,0,0-.159.3.34.34,0,0,0,.186.291A2.179,2.179,0,0,0,1.8-2.1a2.426,2.426,0,0,1,.972.466.9.9,0,0,1,.3.693.838.838,0,0,1-.372.724,1.711,1.711,0,0,1-1,.262,2.048,2.048,0,0,1-.8-.15A1.249,1.249,0,0,1,.357-.513a1.006,1.006,0,0,1-.189-.605H.952q0,.588.75.588a.767.767,0,0,0,.435-.106A.339.339,0,0,0,2.294-.933ZM5.19,0a.748.748,0,0,1-.076-.237A.94.94,0,0,1,4.4.049a1.042,1.042,0,0,1-.686-.225.7.7,0,0,1-.272-.566.731.731,0,0,1,.332-.645,1.723,1.723,0,0,1,.96-.227h.346v-.151a.418.418,0,0,0-.1-.293.409.409,0,0,0-.316-.11.469.469,0,0,0-.3.085.282.282,0,0,0-.108.234H3.508a.68.68,0,0,1,.151-.425.993.993,0,0,1,.427-.306,1.648,1.648,0,0,1,.62-.111,1.285,1.285,0,0,1,.827.245.834.834,0,0,1,.306.69V-.61a1.2,1.2,0,0,0,.112.569V0ZM4.568-.491a.684.684,0,0,0,.307-.07.475.475,0,0,0,.208-.187V-1.2H4.8q-.565,0-.6.366l0,.042a.274.274,0,0,0,.1.217A.4.4,0,0,0,4.568-.491ZM7.212,0H6.456V-3.75h.755ZM9.129.049A1.436,1.436,0,0,1,8.119-.308a1.225,1.225,0,0,1-.389-.95v-.068a1.512,1.512,0,0,1,.164-.712,1.158,1.158,0,0,1,.465-.483,1.373,1.373,0,0,1,.686-.17,1.21,1.21,0,0,1,.91.342,1.334,1.334,0,0,1,.332.969v.288H8.493a.642.642,0,0,0,.22.415.692.692,0,0,0,.465.156.835.835,0,0,0,.68-.3l.37.388a1.118,1.118,0,0,1-.458.35A1.59,1.59,0,0,1,9.129.049Zm-.086-2.17a.486.486,0,0,0-.363.142.713.713,0,0,0-.178.407H9.548v-.056a.506.506,0,0,0-.135-.364A.5.5,0,0,0,9.043-2.122Zm3.2,1.392a.226.226,0,0,0-.137-.2,1.626,1.626,0,0,0-.439-.133q-1.005-.2-1.005-.8a.711.711,0,0,1,.311-.587,1.313,1.313,0,0,1,.814-.236,1.416,1.416,0,0,1,.858.237.731.731,0,0,1,.322.615h-.753a.33.33,0,0,0-.1-.25.46.46,0,0,0-.326-.1.472.472,0,0,0-.294.081.249.249,0,0,0-.1.205.215.215,0,0,0,.119.189,1.275,1.275,0,0,0,.4.125,3.441,3.441,0,0,1,.474.118.74.74,0,0,1,.6.71.678.678,0,0,1-.331.585,1.5,1.5,0,0,1-.854.223,1.576,1.576,0,0,1-.629-.118,1.045,1.045,0,0,1-.431-.325.723.723,0,0,1-.156-.446h.714a.361.361,0,0,0,.148.288.617.617,0,0,0,.37.1.573.573,0,0,0,.327-.077A.235.235,0,0,0,12.241-.73Z" transform="translate(-141.96 1726.259)" fill="#636363"/>
    <path id="Trazado_628754" data-name="Trazado 628754" d="M2.294-.933a.367.367,0,0,0-.156-.319,2.118,2.118,0,0,0-.563-.234,4.145,4.145,0,0,1-.643-.243A.987.987,0,0,1,.286-2.61a.822.822,0,0,1,.173-.514,1.125,1.125,0,0,1,.5-.353A1.983,1.983,0,0,1,1.684-3.6a1.8,1.8,0,0,1,.724.138,1.137,1.137,0,0,1,.494.389.973.973,0,0,1,.176.571H2.3a.465.465,0,0,0-.164-.38.7.7,0,0,0-.461-.135.756.756,0,0,0-.445.114.351.351,0,0,0-.159.3.34.34,0,0,0,.186.291A2.179,2.179,0,0,0,1.8-2.1a2.426,2.426,0,0,1,.972.466.9.9,0,0,1,.3.693.838.838,0,0,1-.372.724,1.711,1.711,0,0,1-1,.262,2.048,2.048,0,0,1-.8-.15A1.249,1.249,0,0,1,.357-.513a1.006,1.006,0,0,1-.189-.605H.952q0,.588.75.588a.767.767,0,0,0,.435-.106A.339.339,0,0,0,2.294-.933ZM5.19,0a.748.748,0,0,1-.076-.237A.94.94,0,0,1,4.4.049a1.042,1.042,0,0,1-.686-.225.7.7,0,0,1-.272-.566.731.731,0,0,1,.332-.645,1.723,1.723,0,0,1,.96-.227h.346v-.151a.418.418,0,0,0-.1-.293.409.409,0,0,0-.316-.11.469.469,0,0,0-.3.085.282.282,0,0,0-.108.234H3.508a.68.68,0,0,1,.151-.425.993.993,0,0,1,.427-.306,1.648,1.648,0,0,1,.62-.111,1.285,1.285,0,0,1,.827.245.834.834,0,0,1,.306.69V-.61a1.2,1.2,0,0,0,.112.569V0ZM4.568-.491a.684.684,0,0,0,.307-.07.475.475,0,0,0,.208-.187V-1.2H4.8q-.565,0-.6.366l0,.042a.274.274,0,0,0,.1.217A.4.4,0,0,0,4.568-.491ZM7.212,0H6.456V-3.75h.755ZM9.129.049A1.436,1.436,0,0,1,8.119-.308a1.225,1.225,0,0,1-.389-.95v-.068a1.512,1.512,0,0,1,.164-.712,1.158,1.158,0,0,1,.465-.483,1.373,1.373,0,0,1,.686-.17,1.21,1.21,0,0,1,.91.342,1.334,1.334,0,0,1,.332.969v.288H8.493a.642.642,0,0,0,.22.415.692.692,0,0,0,.465.156.835.835,0,0,0,.68-.3l.37.388a1.118,1.118,0,0,1-.458.35A1.59,1.59,0,0,1,9.129.049Zm-.086-2.17a.486.486,0,0,0-.363.142.713.713,0,0,0-.178.407H9.548v-.056a.506.506,0,0,0-.135-.364A.5.5,0,0,0,9.043-2.122Zm3.2,1.392a.226.226,0,0,0-.137-.2,1.626,1.626,0,0,0-.439-.133q-1.005-.2-1.005-.8a.711.711,0,0,1,.311-.587,1.313,1.313,0,0,1,.814-.236,1.416,1.416,0,0,1,.858.237.731.731,0,0,1,.322.615h-.753a.33.33,0,0,0-.1-.25.46.46,0,0,0-.326-.1.472.472,0,0,0-.294.081.249.249,0,0,0-.1.205.215.215,0,0,0,.119.189,1.275,1.275,0,0,0,.4.125,3.441,3.441,0,0,1,.474.118.74.74,0,0,1,.6.71.678.678,0,0,1-.331.585,1.5,1.5,0,0,1-.854.223,1.576,1.576,0,0,1-.629-.118,1.045,1.045,0,0,1-.431-.325.723.723,0,0,1-.156-.446h.714a.361.361,0,0,0,.148.288.617.617,0,0,0,.37.1.573.573,0,0,0,.327-.077A.235.235,0,0,0,12.241-.73Z" transform="translate(-34.205 1726.26)" fill="#636363"/>
    <g id="Grupo_900826" data-name="Grupo 900826" transform="translate(-217.6 1719)">
      <path id="Trazado_628742" data-name="Trazado 628742" d="M-169.2,99.869H-195.71c-.758,0-1.372,1.253-1.372,2.8v6.084c0,1.545.614,2.8,1.372,2.8H-169.2c.758,0,1.372-1.253,1.372-2.8v-6.084C-167.832,101.122-168.446,99.869-169.2,99.869Z" transform="translate(197.082 -99.869)" fill="#fecb2f"/>
    </g>
    <path id="Trazado_628755" data-name="Trazado 628755" d="M.317,0V-3.555H1.411a1.661,1.661,0,0,1,.839.211,1.473,1.473,0,0,1,.577.6,1.852,1.852,0,0,1,.208.885v.164a1.858,1.858,0,0,1-.2.881,1.46,1.46,0,0,1-.575.6A1.674,1.674,0,0,1,1.418,0ZM1.05-2.961V-.588H1.4a.8.8,0,0,0,.657-.281,1.269,1.269,0,0,0,.232-.8V-1.86a1.289,1.289,0,0,0-.225-.822.793.793,0,0,0-.657-.28ZM5.051,0A.784.784,0,0,1,4.98-.237a.854.854,0,0,1-.667.286.938.938,0,0,1-.643-.225.722.722,0,0,1-.255-.566.747.747,0,0,1,.311-.645,1.536,1.536,0,0,1,.9-.227h.325v-.151a.435.435,0,0,0-.094-.293.37.37,0,0,0-.3-.11.42.42,0,0,0-.28.085.29.29,0,0,0-.1.234H3.474a.709.709,0,0,1,.142-.425.936.936,0,0,1,.4-.306A1.459,1.459,0,0,1,4.6-2.69a1.153,1.153,0,0,1,.775.245.858.858,0,0,1,.287.69V-.61a1.263,1.263,0,0,0,.1.569V0ZM4.468-.491a.608.608,0,0,0,.288-.07.457.457,0,0,0,.2-.187V-1.2H4.688q-.53,0-.564.366l0,.042a.282.282,0,0,0,.093.217A.36.36,0,0,0,4.468-.491ZM7.632-.73a.227.227,0,0,0-.128-.2,1.456,1.456,0,0,0-.411-.133q-.942-.2-.942-.8a.726.726,0,0,1,.292-.587A1.177,1.177,0,0,1,7.2-2.69a1.267,1.267,0,0,1,.8.237.746.746,0,0,1,.3.615H7.6a.341.341,0,0,0-.1-.25.413.413,0,0,0-.305-.1.422.422,0,0,0-.276.081.254.254,0,0,0-.1.205.217.217,0,0,0,.111.189,1.143,1.143,0,0,0,.375.125,3.061,3.061,0,0,1,.444.118.73.73,0,0,1,.559.71.689.689,0,0,1-.31.585,1.338,1.338,0,0,1-.8.223,1.4,1.4,0,0,1-.59-.118.989.989,0,0,1-.4-.325A.754.754,0,0,1,6.067-.84h.669a.368.368,0,0,0,.139.288.552.552,0,0,0,.347.1.511.511,0,0,0,.306-.077A.239.239,0,0,0,7.632-.73ZM9.46-2.354a.881.881,0,0,1,.706-.337q.859,0,.872,1V0h-.706V-1.672a.491.491,0,0,0-.1-.336.419.419,0,0,0-.325-.109.48.48,0,0,0-.449.239V0H8.755V-3.75H9.46ZM13.95-1.3a1.6,1.6,0,0,1-.271.99.9.9,0,0,1-.757.355.825.825,0,0,1-.686-.33L12.2,0H11.57V-3.75h.706V-2.4a.8.8,0,0,1,.642-.286.905.905,0,0,1,.758.355,1.6,1.6,0,0,1,.275,1Zm-.706-.051a1.051,1.051,0,0,0-.127-.585.429.429,0,0,0-.378-.184.465.465,0,0,0-.464.276V-.8a.472.472,0,0,0,.469.278.436.436,0,0,0,.449-.337A1.738,1.738,0,0,0,13.245-1.348Zm1.03,0a1.567,1.567,0,0,1,.151-.7,1.108,1.108,0,0,1,.436-.476,1.271,1.271,0,0,1,.66-.168,1.2,1.2,0,0,1,.873.327,1.313,1.313,0,0,1,.377.889l0,.181a1.381,1.381,0,0,1-.339.975,1.18,1.18,0,0,1-.911.367,1.185,1.185,0,0,1-.912-.366,1.4,1.4,0,0,1-.341-1Zm.706.05a.987.987,0,0,0,.142.576.467.467,0,0,0,.405.2.468.468,0,0,0,.4-.2,1.08,1.08,0,0,0,.144-.63.978.978,0,0,0-.144-.572.468.468,0,0,0-.405-.2.461.461,0,0,0-.4.2A1.1,1.1,0,0,0,14.98-1.3ZM18.743,0a.784.784,0,0,1-.071-.237.854.854,0,0,1-.667.286.938.938,0,0,1-.643-.225.722.722,0,0,1-.255-.566.747.747,0,0,1,.311-.645,1.536,1.536,0,0,1,.9-.227h.325v-.151a.435.435,0,0,0-.094-.293.37.37,0,0,0-.3-.11.42.42,0,0,0-.28.085.29.29,0,0,0-.1.234h-.706a.709.709,0,0,1,.142-.425.936.936,0,0,1,.4-.306,1.459,1.459,0,0,1,.581-.111,1.153,1.153,0,0,1,.775.245.858.858,0,0,1,.287.69V-.61a1.263,1.263,0,0,0,.1.569V0Zm-.583-.491a.608.608,0,0,0,.288-.07.457.457,0,0,0,.2-.187V-1.2h-.264q-.53,0-.564.366l0,.042a.282.282,0,0,0,.093.217A.36.36,0,0,0,18.159-.491ZM21.377-1.98A1.917,1.917,0,0,0,21.123-2a.517.517,0,0,0-.525.271V0h-.706V-2.642h.667l.02.315a.654.654,0,0,1,.588-.364.739.739,0,0,1,.22.032Zm.183.64a1.592,1.592,0,0,1,.277-.984A.9.9,0,0,1,22.6-2.69a.809.809,0,0,1,.637.288V-3.75h.708V0H23.3l-.034-.281a.83.83,0,0,1-.679.33.9.9,0,0,1-.748-.367A1.643,1.643,0,0,1,21.56-1.34Zm.706.053a1.043,1.043,0,0,0,.129.57.422.422,0,0,0,.376.2A.472.472,0,0,0,23.232-.8V-1.84a.465.465,0,0,0-.457-.276Q22.266-2.117,22.266-1.288Z" transform="translate(-214.917 1726.75)" fill="#fff"/>
  </g>
</svg>
