<svg xmlns="http://www.w3.org/2000/svg" xmlns:xlink="http://www.w3.org/1999/xlink" width="505" height="370" viewBox="0 0 505 370">
  <defs>
    <linearGradient id="linear-gradient" x1="0.5" y1="0.176" x2="0.5" y2="0.915" gradientUnits="objectBoundingBox">
      <stop offset="0" stop-color="#324179"/>
      <stop offset="1" stop-color="#0c124d"/>
    </linearGradient>
    <linearGradient id="linear-gradient-2" x1="0.5" y1="0.176" x2="0.499" y2="0.915" xlink:href="#linear-gradient"/>
    <linearGradient id="linear-gradient-3" x1="0.486" y1="0.295" x2="0.346" y2="0.879" gradientUnits="objectBoundingBox">
      <stop offset="0" stop-color="#d1e8ff"/>
      <stop offset="1" stop-color="#eaefff"/>
    </linearGradient>
    <linearGradient id="linear-gradient-4" x1="0.408" y1="0.675" x2="0.716" y2="0.158" gradientUnits="objectBoundingBox">
      <stop offset="0" stop-color="#965cf2"/>
      <stop offset="1" stop-color="#ff8adc"/>
    </linearGradient>
    <linearGradient id="linear-gradient-5" x1="0.775" y1="0.491" x2="0.129" y2="0.512" gradientUnits="objectBoundingBox">
      <stop offset="0" stop-color="#ff66bc"/>
      <stop offset="0.56" stop-color="#ff8adc"/>
      <stop offset="1" stop-color="#ffbba8"/>
    </linearGradient>
    <linearGradient id="linear-gradient-6" x1="0.657" y1="0.509" x2="0.395" y2="0.469" gradientUnits="objectBoundingBox">
      <stop offset="0" stop-color="#ff8a78"/>
      <stop offset="1" stop-color="#ffa799"/>
    </linearGradient>
    <linearGradient id="linear-gradient-7" x1="0.398" y1="0.535" x2="0.622" y2="0.759" xlink:href="#linear-gradient-6"/>
    <linearGradient id="linear-gradient-8" x1="0.595" y1="0.393" x2="0.477" y2="0.526" gradientUnits="objectBoundingBox">
      <stop offset="0" stop-color="#6d6afe"/>
      <stop offset="1" stop-color="#3fb0f7"/>
    </linearGradient>
    <linearGradient id="linear-gradient-9" x1="0.662" y1="0.557" x2="0.49" y2="0.513" xlink:href="#linear-gradient-6"/>
    <linearGradient id="linear-gradient-10" x1="0.704" y1="0.221" x2="0.253" y2="0.779" gradientUnits="objectBoundingBox">
      <stop offset="0" stop-color="#40457f"/>
      <stop offset="1" stop-color="#1e2353"/>
    </linearGradient>
    <linearGradient id="linear-gradient-11" x1="0.644" y1="0.321" x2="0.217" y2="0.982" gradientUnits="objectBoundingBox">
      <stop offset="0" stop-color="#3773b9"/>
      <stop offset="1" stop-color="#003c76"/>
    </linearGradient>
    <linearGradient id="linear-gradient-12" x1="0.851" y1="0.22" x2="-0.056" y2="0.742" xlink:href="#linear-gradient-10"/>
    <linearGradient id="linear-gradient-13" x1="0.587" y1="0.35" x2="0.051" y2="0.693" xlink:href="#linear-gradient-11"/>
    <linearGradient id="linear-gradient-14" x1="0.201" y1="0.854" x2="0.66" y2="0.351" xlink:href="#linear-gradient-6"/>
    <linearGradient id="linear-gradient-15" x1="0.603" y1="0.301" x2="0.48" y2="0.661" xlink:href="#linear-gradient-6"/>
    <linearGradient id="linear-gradient-16" x1="0.555" y1="0.429" x2="0.25" y2="0.705" gradientUnits="objectBoundingBox">
      <stop offset="0" stop-color="#ffb89e"/>
      <stop offset="1" stop-color="#ffa799"/>
    </linearGradient>
    <linearGradient id="linear-gradient-17" x1="0.288" y1="0.705" x2="0.792" y2="0.272" xlink:href="#linear-gradient-6"/>
  </defs>
  <g id="Grupo_901603" data-name="Grupo 901603" transform="translate(-139 -458)">
    <g id="Rectángulo_302898" data-name="Rectángulo 302898" transform="translate(139 458)" fill="#e8f7f3" stroke="#707070" stroke-width="1">
      <rect width="505" height="370" stroke="none"/>
      <rect x="0.5" y="0.5" width="504" height="369" fill="none"/>
    </g>
    <g id="Grupo_901601" data-name="Grupo 901601" transform="translate(-41 0.167)" style="isolation: isolate">
      <rect id="Rectángulo_301113" data-name="Rectángulo 301113" width="505" height="369.833" transform="translate(180 458)" fill="#63c8af" opacity="0.15"/>
      <g id="Grupo_896409" data-name="Grupo 896409" transform="translate(-24.912 -6762.51)">
        <g id="Grupo_880390" data-name="Grupo 880390" transform="translate(69.912 5536.226)">
          <g id="Rectángulo_293058" data-name="Rectángulo 293058" transform="translate(233.472 1696.285)" fill="none" stroke="#dc4c79" stroke-width="3">
            <rect width="275.672" height="339.493" rx="30" stroke="none"/>
            <rect x="1.5" y="1.5" width="272.672" height="336.493" rx="28.5" fill="none"/>
          </g>
          <g id="Grupo_2" data-name="Grupo 2" transform="translate(180 1707.805)">
            <path id="Trazado_1" data-name="Trazado 1" d="M62.944-75.2-45.679,33.424q.754,4.659,1.952,9.157L72.1-73.247Q67.606-74.442,62.944-75.2Z" transform="translate(46.916 76.436)" fill="none" stroke="#f6cd53" stroke-miterlimit="10" stroke-width="1.078"/>
            <path id="Trazado_2" data-name="Trazado 2" d="M72.633-72.715-43.195,43.113q1.144,4.3,2.668,8.441l121.6-121.6Q76.942-71.574,72.633-72.715Z" transform="translate(46.384 75.904)" fill="none" stroke="#f6cd53" stroke-miterlimit="10" stroke-width="1.078"/>
            <path id="Trazado_3" data-name="Trazado 3" d="M114.338-48.491-18.971,84.818c1.689,2.007,3.452,3.95,5.3,5.809L120.147-43.19C118.288-45.038,116.345-46.8,114.338-48.491Z" transform="translate(41.193 70.713)" fill="none" stroke="#f6cd53" stroke-miterlimit="10" stroke-width="1.078"/>
            <path id="Trazado_4" data-name="Trazado 4" d="M106.746-54.647-25.128,77.227q2.294,3.236,4.838,6.272L113.019-49.81Q109.991-52.359,106.746-54.647Z" transform="translate(42.513 72.032)" fill="none" stroke="#f6cd53" stroke-miterlimit="10" stroke-width="1.078"/>
            <path id="Trazado_5" data-name="Trazado 5" d="M90.512-65.12-35.6,60.992c1.181,2.48,2.478,4.892,3.863,7.247l129.5-129.5C95.4-62.642,92.992-63.939,90.512-65.12Z" transform="translate(44.756 74.276)" fill="none" stroke="#f6cd53" stroke-miterlimit="10" stroke-width="1.078"/>
            <path id="Trazado_6" data-name="Trazado 6" d="M98.812-60.2l-129.5,129.5q2.041,3.471,4.366,6.744L105.556-55.837Q102.283-58.158,98.812-60.2Z" transform="translate(43.703 73.223)" fill="none" stroke="#f6cd53" stroke-miterlimit="10" stroke-width="1.078"/>
            <path id="Trazado_7" data-name="Trazado 7" d="M81.8-69.319-39.8,52.282q1.477,3.994,3.3,7.81L89.613-66.02Q85.8-67.836,81.8-69.319Z" transform="translate(45.656 75.176)" fill="none" stroke="#f6cd53" stroke-miterlimit="10" stroke-width="1.078"/>
            <path id="Trazado_8" data-name="Trazado 8" d="M-38.97-14.849l53.64-53.64A94.89,94.89,0,0,0-38.97-14.849Z" transform="translate(45.478 74.998)" fill="none" stroke="#f6cd53" stroke-miterlimit="10" stroke-width="1.078"/>
            <path id="Trazado_9" data-name="Trazado 9" d="M13.4-69.757l-53.64,53.64A93.8,93.8,0,0,0-44.885-.359L29.161-74.4A93.833,93.833,0,0,0,13.4-69.757Z" transform="translate(46.746 76.266)" fill="none" stroke="#f6cd53" stroke-miterlimit="10" stroke-width="1.078"/>
            <path id="Trazado_10" data-name="Trazado 10" d="M52.625-76.583-47.064,23.105a94.87,94.87,0,0,0,1.088,10.022L62.647-75.5A94.9,94.9,0,0,0,52.625-76.583Z" transform="translate(47.213 76.732)" fill="none" stroke="#f6cd53" stroke-miterlimit="10" stroke-width="1.078"/>
            <path id="Trazado_11" data-name="Trazado 11" d="M47.377-76.773c-2,0-3.986.083-5.959.206L-47.047,11.9c-.123,1.972-.206,3.955-.206,5.959,0,1.747.055,3.482.149,5.207L52.585-76.624C50.86-76.717,49.125-76.773,47.377-76.773Z" transform="translate(47.253 76.773)" fill="none" stroke="#f6cd53" stroke-miterlimit="10" stroke-width="1.078"/>
            <path id="Trazado_12" data-name="Trazado 12" d="M28.71-74.856-45.336-.81a94.671,94.671,0,0,0-1.655,12.764L41.474-76.511A94.8,94.8,0,0,0,28.71-74.856Z" transform="translate(47.197 76.717)" fill="none" stroke="#f6cd53" stroke-miterlimit="10" stroke-width="1.078"/>
            <path id="Trazado_13" data-name="Trazado 13" d="M162.117,23.422,52.941,132.6a94.719,94.719,0,0,0,9.958,1.152L163.269,33.38A94.662,94.662,0,0,0,162.117,23.422Z" transform="translate(25.786 55.306)" fill="none" stroke="#f6cd53" stroke-miterlimit="10" stroke-width="1.078"/>
            <path id="Trazado_14" data-name="Trazado 14" d="M166.189,42.04c0-2-.083-3.977-.205-5.945L65.614,136.465c1.968.123,3.947.205,5.945.205,1.712,0,3.411-.051,5.1-.141l89.39-89.389C166.138,45.451,166.189,43.751,166.189,42.04Z" transform="translate(23.071 52.591)" fill="none" stroke="#f6cd53" stroke-miterlimit="10" stroke-width="1.078"/>
            <path id="Trazado_15" data-name="Trazado 15" d="M169.061,50.152l-89.39,89.389a94.677,94.677,0,0,0,12.657-1.547l75.186-75.185A94.82,94.82,0,0,0,169.061,50.152Z" transform="translate(20.059 49.579)" fill="none" stroke="#f6cd53" stroke-miterlimit="10" stroke-width="1.078"/>
            <path id="Trazado_16" data-name="Trazado 16" d="M170.965,66.26,95.779,141.445a93.869,93.869,0,0,0,15.414-4.3L166.66,81.674A94.041,94.041,0,0,0,170.965,66.26Z" transform="translate(16.608 46.128)" fill="none" stroke="#f6cd53" stroke-miterlimit="10" stroke-width="1.078"/>
            <path id="Trazado_17" data-name="Trazado 17" d="M170.863,85.877,115.4,141.344A94.9,94.9,0,0,0,170.863,85.877Z" transform="translate(12.405 41.924)" fill="none" stroke="#f6cd53" stroke-miterlimit="10" stroke-width="1.078"/>
            <path id="Trazado_18" data-name="Trazado 18" d="M157.628,11.837,41.357,128.108q4.468,1.221,9.1,2.007L159.635,20.94Q158.851,16.308,157.628,11.837Z" transform="translate(28.268 57.788)" fill="none" stroke="#f6cd53" stroke-miterlimit="10" stroke-width="1.078"/>
            <path id="Trazado_19" data-name="Trazado 19" d="M135.073-26.455,3.065,105.553c2.17,1.557,4.4,3.033,6.7,4.406l129.71-129.71C138.106-22.053,136.631-24.285,135.073-26.455Z" transform="translate(36.472 65.992)" fill="none" stroke="#f6cd53" stroke-miterlimit="10" stroke-width="1.078"/>
            <path id="Trazado_20" data-name="Trazado 20" d="M128.5-34.388-4.869,98.978q3.011,2.565,6.234,4.876L133.374-28.155Q131.062-31.375,128.5-34.388Z" transform="translate(38.172 67.692)" fill="none" stroke="#f6cd53" stroke-miterlimit="10" stroke-width="1.078"/>
            <path id="Trazado_21" data-name="Trazado 21" d="M152.622,1.157,30.676,123.1q4.109,1.551,8.393,2.718L155.339,9.549Q154.17,5.269,152.622,1.157Z" transform="translate(30.556 60.076)" fill="none" stroke="#f6cd53" stroke-miterlimit="10" stroke-width="1.078"/>
            <path id="Trazado_22" data-name="Trazado 22" d="M121.592-41.745-12.225,92.072c1.847,1.859,3.784,3.629,5.78,5.33L126.921-35.964C125.22-37.961,123.451-39.9,121.592-41.745Z" transform="translate(39.748 69.268)" fill="none" stroke="#f6cd53" stroke-miterlimit="10" stroke-width="1.078"/>
            <path id="Trazado_23" data-name="Trazado 23" d="M147.172-8.746l-126.4,126.4c2.531,1.226,5.131,2.328,7.781,3.328L150.5-.965C149.5-3.616,148.4-6.216,147.172-8.746Z" transform="translate(32.678 62.198)" fill="none" stroke="#f6cd53" stroke-miterlimit="10" stroke-width="1.078"/>
            <path id="Trazado_24" data-name="Trazado 24" d="M141.307-17.923,11.6,111.787c2.342,1.4,4.743,2.7,7.21,3.9l126.4-126.4C144.012-13.18,142.7-15.581,141.307-17.923Z" transform="translate(34.644 64.164)" fill="none" stroke="#f6cd53" stroke-miterlimit="10" stroke-width="1.078"/>
          </g>
          <ellipse id="Elipse_4759" data-name="Elipse 4759" cx="159.11" cy="159.11" rx="159.11" ry="159.11" transform="translate(183.834 1721.104)" fill="#21cbae"/>
          <g id="Grupo_91" data-name="Grupo 91" transform="translate(384.513 1830.282)">
            <g id="Grupo_68" data-name="Grupo 68" transform="translate(83.473 0)">
              <g id="Grupo_67" data-name="Grupo 67" transform="translate(0)">
                <rect id="Rectángulo_193" data-name="Rectángulo 193" width="3.338" height="3.338" transform="translate(101.703 104.063) rotate(-44.999)" fill="#61c8af"/>
                <rect id="Rectángulo_194" data-name="Rectángulo 194" width="3.168" height="3.168" transform="translate(92.458 94.698) rotate(-45)" fill="#61c8af"/>
                <rect id="Rectángulo_195" data-name="Rectángulo 195" width="2.998" height="2.998" transform="translate(83.212 85.332) rotate(-45)" fill="#61c8af"/>
                <rect id="Rectángulo_196" data-name="Rectángulo 196" width="2.828" height="2.828" transform="matrix(0.707, -0.707, 0.707, 0.707, 73.966, 75.966)" fill="#61c8af"/>
                <rect id="Rectángulo_197" data-name="Rectángulo 197" width="2.658" height="2.658" transform="translate(64.72 66.6) rotate(-45)" fill="#61c8af"/>
                <rect id="Rectángulo_198" data-name="Rectángulo 198" width="2.488" height="2.488" transform="matrix(0.707, -0.707, 0.707, 0.707, 55.475, 57.234)" fill="#61c8af"/>
                <rect id="Rectángulo_199" data-name="Rectángulo 199" width="2.318" height="2.318" transform="translate(46.229 47.868) rotate(-45)" fill="#61c8af"/>
                <rect id="Rectángulo_200" data-name="Rectángulo 200" width="2.148" height="2.148" transform="translate(36.983 38.502) rotate(-45.001)" fill="#61c8af"/>
                <rect id="Rectángulo_201" data-name="Rectángulo 201" width="1.978" height="1.978" transform="translate(27.737 29.136) rotate(-45)" fill="#61c8af"/>
                <rect id="Rectángulo_202" data-name="Rectángulo 202" width="1.808" height="1.808" transform="matrix(0.707, -0.707, 0.707, 0.707, 18.491, 19.77)" fill="#61c8af"/>
                <rect id="Rectángulo_203" data-name="Rectángulo 203" width="1.638" height="1.638" transform="translate(9.246 10.404) rotate(-45)" fill="#61c8af"/>
                <rect id="Rectángulo_204" data-name="Rectángulo 204" width="1.468" height="1.468" transform="matrix(0.707, -0.707, 0.707, 0.707, 0, 1.038)" fill="#61c8af"/>
              </g>
            </g>
            <g id="Grupo_70" data-name="Grupo 70" transform="translate(75.884 7.588)">
              <g id="Grupo_69" data-name="Grupo 69" transform="translate(0 0)">
                <rect id="Rectángulo_205" data-name="Rectángulo 205" width="3.338" height="3.338" transform="translate(101.703 104.064) rotate(-44.999)" fill="#61c8af"/>
                <rect id="Rectángulo_206" data-name="Rectángulo 206" width="3.168" height="3.168" transform="translate(92.458 94.698) rotate(-45)" fill="#61c8af"/>
                <rect id="Rectángulo_207" data-name="Rectángulo 207" width="2.998" height="2.998" transform="translate(83.212 85.332) rotate(-44.999)" fill="#61c8af"/>
                <rect id="Rectángulo_208" data-name="Rectángulo 208" width="2.828" height="2.828" transform="translate(73.966 75.966) rotate(-45)" fill="#61c8af"/>
                <rect id="Rectángulo_209" data-name="Rectángulo 209" width="2.658" height="2.658" transform="translate(64.72 66.6) rotate(-45)" fill="#61c8af"/>
                <rect id="Rectángulo_210" data-name="Rectángulo 210" width="2.488" height="2.488" transform="translate(55.475 57.234) rotate(-45)" fill="#61c8af"/>
                <rect id="Rectángulo_211" data-name="Rectángulo 211" width="2.318" height="2.318" transform="translate(46.229 47.868) rotate(-45)" fill="#61c8af"/>
                <rect id="Rectángulo_212" data-name="Rectángulo 212" width="2.148" height="2.148" transform="translate(36.983 38.502) rotate(-45)" fill="#61c8af"/>
                <rect id="Rectángulo_213" data-name="Rectángulo 213" width="1.978" height="1.978" transform="translate(27.737 29.136) rotate(-45)" fill="#61c8af"/>
                <rect id="Rectángulo_214" data-name="Rectángulo 214" width="1.808" height="1.808" transform="translate(18.492 19.77) rotate(-45)" fill="#61c8af"/>
                <rect id="Rectángulo_215" data-name="Rectángulo 215" width="1.638" height="1.638" transform="translate(9.246 10.404) rotate(-45)" fill="#61c8af"/>
                <rect id="Rectángulo_216" data-name="Rectángulo 216" width="1.468" height="1.468" transform="matrix(0.707, -0.707, 0.707, 0.707, 0, 1.038)" fill="#61c8af"/>
              </g>
            </g>
            <g id="Grupo_72" data-name="Grupo 72" transform="translate(68.296 15.177)">
              <g id="Grupo_71" data-name="Grupo 71" transform="translate(0 0)">
                <rect id="Rectángulo_217" data-name="Rectángulo 217" width="3.338" height="3.338" transform="translate(101.703 104.063) rotate(-44.999)" fill="#61c8af"/>
                <rect id="Rectángulo_218" data-name="Rectángulo 218" width="3.168" height="3.168" transform="translate(92.458 94.698) rotate(-44.999)" fill="#61c8af"/>
                <rect id="Rectángulo_219" data-name="Rectángulo 219" width="2.998" height="2.998" transform="translate(83.212 85.332) rotate(-44.999)" fill="#61c8af"/>
                <rect id="Rectángulo_220" data-name="Rectángulo 220" width="2.828" height="2.828" transform="matrix(0.707, -0.707, 0.707, 0.707, 73.966, 75.966)" fill="#61c8af"/>
                <rect id="Rectángulo_221" data-name="Rectángulo 221" width="2.658" height="2.658" transform="translate(64.72 66.6) rotate(-44.999)" fill="#61c8af"/>
                <rect id="Rectángulo_222" data-name="Rectángulo 222" width="2.488" height="2.488" transform="matrix(0.707, -0.707, 0.707, 0.707, 55.475, 57.234)" fill="#61c8af"/>
                <rect id="Rectángulo_223" data-name="Rectángulo 223" width="2.318" height="2.318" transform="matrix(0.707, -0.707, 0.707, 0.707, 46.229, 47.868)" fill="#61c8af"/>
                <rect id="Rectángulo_224" data-name="Rectángulo 224" width="2.148" height="2.148" transform="translate(36.983 38.502) rotate(-44.999)" fill="#61c8af"/>
                <rect id="Rectángulo_225" data-name="Rectángulo 225" width="1.978" height="1.978" transform="translate(27.737 29.136) rotate(-45)" fill="#61c8af"/>
                <rect id="Rectángulo_226" data-name="Rectángulo 226" width="1.808" height="1.808" transform="translate(18.492 19.77) rotate(-44.998)" fill="#61c8af"/>
                <rect id="Rectángulo_227" data-name="Rectángulo 227" width="1.638" height="1.638" transform="translate(9.246 10.404) rotate(-45)" fill="#61c8af"/>
                <rect id="Rectángulo_228" data-name="Rectángulo 228" width="1.468" height="1.468" transform="matrix(0.707, -0.707, 0.707, 0.707, 0, 1.038)" fill="#61c8af"/>
              </g>
            </g>
            <g id="Grupo_74" data-name="Grupo 74" transform="translate(60.707 22.765)">
              <g id="Grupo_73" data-name="Grupo 73" transform="translate(0 0)">
                <rect id="Rectángulo_229" data-name="Rectángulo 229" width="3.338" height="3.338" transform="translate(101.703 104.064) rotate(-45.001)" fill="#61c8af"/>
                <rect id="Rectángulo_230" data-name="Rectángulo 230" width="3.168" height="3.168" transform="translate(92.458 94.698) rotate(-45.001)" fill="#61c8af"/>
                <rect id="Rectángulo_231" data-name="Rectángulo 231" width="2.998" height="2.998" transform="translate(83.212 85.332) rotate(-45)" fill="#61c8af"/>
                <rect id="Rectángulo_232" data-name="Rectángulo 232" width="2.828" height="2.828" transform="matrix(0.707, -0.707, 0.707, 0.707, 73.966, 75.966)" fill="#61c8af"/>
                <rect id="Rectángulo_233" data-name="Rectángulo 233" width="2.658" height="2.658" transform="translate(64.72 66.6) rotate(-45)" fill="#61c8af"/>
                <rect id="Rectángulo_234" data-name="Rectángulo 234" width="2.488" height="2.488" transform="matrix(0.707, -0.707, 0.707, 0.707, 55.475, 57.234)" fill="#61c8af"/>
                <rect id="Rectángulo_235" data-name="Rectángulo 235" width="2.318" height="2.318" transform="translate(46.229 47.868) rotate(-45)" fill="#61c8af"/>
                <rect id="Rectángulo_236" data-name="Rectángulo 236" width="2.148" height="2.148" transform="translate(36.983 38.502) rotate(-45.001)" fill="#61c8af"/>
                <rect id="Rectángulo_237" data-name="Rectángulo 237" width="1.978" height="1.978" transform="translate(27.737 29.136) rotate(-45)" fill="#61c8af"/>
                <rect id="Rectángulo_238" data-name="Rectángulo 238" width="1.808" height="1.808" transform="translate(18.491 19.77) rotate(-45)" fill="#61c8af"/>
                <rect id="Rectángulo_239" data-name="Rectángulo 239" width="1.638" height="1.638" transform="translate(9.246 10.404) rotate(-45)" fill="#61c8af"/>
                <rect id="Rectángulo_240" data-name="Rectángulo 240" width="1.468" height="1.468" transform="translate(0 1.038) rotate(-44.998)" fill="#61c8af"/>
              </g>
            </g>
            <g id="Grupo_76" data-name="Grupo 76" transform="translate(53.119 30.354)">
              <g id="Grupo_75" data-name="Grupo 75" transform="translate(0 0)">
                <rect id="Rectángulo_241" data-name="Rectángulo 241" width="3.338" height="3.338" transform="translate(101.703 104.064) rotate(-45.001)" fill="#61c8af"/>
                <rect id="Rectángulo_242" data-name="Rectángulo 242" width="3.168" height="3.168" transform="translate(92.458 94.698) rotate(-45.001)" fill="#61c8af"/>
                <rect id="Rectángulo_243" data-name="Rectángulo 243" width="2.998" height="2.998" transform="translate(83.212 85.332) rotate(-45)" fill="#61c8af"/>
                <rect id="Rectángulo_244" data-name="Rectángulo 244" width="2.828" height="2.828" transform="matrix(0.707, -0.707, 0.707, 0.707, 73.966, 75.966)" fill="#61c8af"/>
                <rect id="Rectángulo_245" data-name="Rectángulo 245" width="2.658" height="2.658" transform="translate(64.72 66.6) rotate(-45)" fill="#61c8af"/>
                <rect id="Rectángulo_246" data-name="Rectángulo 246" width="2.488" height="2.488" transform="translate(55.475 57.234) rotate(-45.001)" fill="#61c8af"/>
                <rect id="Rectángulo_247" data-name="Rectángulo 247" width="2.318" height="2.318" transform="translate(46.229 47.868) rotate(-45)" fill="#61c8af"/>
                <rect id="Rectángulo_248" data-name="Rectángulo 248" width="2.148" height="2.148" transform="translate(36.983 38.502) rotate(-45.001)" fill="#61c8af"/>
                <rect id="Rectángulo_249" data-name="Rectángulo 249" width="1.978" height="1.978" transform="translate(27.737 29.136) rotate(-45)" fill="#61c8af"/>
                <rect id="Rectángulo_250" data-name="Rectángulo 250" width="1.808" height="1.808" transform="matrix(0.707, -0.707, 0.707, 0.707, 18.492, 19.77)" fill="#61c8af"/>
                <rect id="Rectángulo_251" data-name="Rectángulo 251" width="1.638" height="1.638" transform="translate(9.246 10.404) rotate(-45)" fill="#61c8af"/>
                <rect id="Rectángulo_252" data-name="Rectángulo 252" width="1.468" height="1.468" transform="matrix(0.707, -0.707, 0.707, 0.707, 0, 1.038)" fill="#61c8af"/>
              </g>
            </g>
            <g id="Grupo_78" data-name="Grupo 78" transform="translate(45.53 37.942)">
              <g id="Grupo_77" data-name="Grupo 77" transform="translate(0 0)">
                <rect id="Rectángulo_253" data-name="Rectángulo 253" width="3.338" height="3.338" transform="translate(101.703 104.064) rotate(-45)" fill="#61c8af"/>
                <rect id="Rectángulo_254" data-name="Rectángulo 254" width="3.168" height="3.168" transform="translate(92.458 94.698) rotate(-45)" fill="#61c8af"/>
                <rect id="Rectángulo_255" data-name="Rectángulo 255" width="2.998" height="2.998" transform="translate(83.212 85.332) rotate(-45.001)" fill="#61c8af"/>
                <rect id="Rectángulo_256" data-name="Rectángulo 256" width="2.828" height="2.828" transform="matrix(0.707, -0.707, 0.707, 0.707, 73.966, 75.966)" fill="#61c8af"/>
                <rect id="Rectángulo_257" data-name="Rectángulo 257" width="2.658" height="2.658" transform="matrix(0.707, -0.707, 0.707, 0.707, 64.72, 66.6)" fill="#61c8af"/>
                <rect id="Rectángulo_258" data-name="Rectángulo 258" width="2.488" height="2.488" transform="matrix(0.707, -0.707, 0.707, 0.707, 55.475, 57.234)" fill="#61c8af"/>
                <rect id="Rectángulo_259" data-name="Rectángulo 259" width="2.318" height="2.318" transform="translate(46.229 47.868) rotate(-45)" fill="#61c8af"/>
                <rect id="Rectángulo_260" data-name="Rectángulo 260" width="2.148" height="2.148" transform="translate(36.983 38.502) rotate(-45.001)" fill="#61c8af"/>
                <rect id="Rectángulo_261" data-name="Rectángulo 261" width="1.978" height="1.978" transform="translate(27.737 29.136) rotate(-45)" fill="#61c8af"/>
                <rect id="Rectángulo_262" data-name="Rectángulo 262" width="1.808" height="1.808" transform="matrix(0.707, -0.707, 0.707, 0.707, 18.492, 19.77)" fill="#61c8af"/>
                <rect id="Rectángulo_263" data-name="Rectángulo 263" width="1.638" height="1.638" transform="translate(9.246 10.404) rotate(-45)" fill="#61c8af"/>
                <rect id="Rectángulo_264" data-name="Rectángulo 264" width="1.468" height="1.468" transform="matrix(0.707, -0.707, 0.707, 0.707, 0, 1.038)" fill="#61c8af"/>
              </g>
            </g>
            <g id="Grupo_80" data-name="Grupo 80" transform="translate(37.942 45.53)">
              <g id="Grupo_79" data-name="Grupo 79" transform="translate(0 0)">
                <rect id="Rectángulo_265" data-name="Rectángulo 265" width="3.338" height="3.338" transform="translate(101.703 104.063) rotate(-44.999)" fill="#61c8af"/>
                <rect id="Rectángulo_266" data-name="Rectángulo 266" width="3.168" height="3.168" transform="translate(92.457 94.698) rotate(-45)" fill="#61c8af"/>
                <rect id="Rectángulo_267" data-name="Rectángulo 267" width="2.998" height="2.998" transform="translate(83.212 85.332) rotate(-44.999)" fill="#61c8af"/>
                <rect id="Rectángulo_268" data-name="Rectángulo 268" width="2.828" height="2.828" transform="translate(73.966 75.966) rotate(-45)" fill="#61c8af"/>
                <rect id="Rectángulo_269" data-name="Rectángulo 269" width="2.658" height="2.658" transform="translate(64.72 66.6) rotate(-44.999)" fill="#61c8af"/>
                <rect id="Rectángulo_270" data-name="Rectángulo 270" width="2.488" height="2.488" transform="matrix(0.707, -0.707, 0.707, 0.707, 55.474, 57.234)" fill="#61c8af"/>
                <rect id="Rectángulo_271" data-name="Rectángulo 271" width="2.318" height="2.318" transform="matrix(0.707, -0.707, 0.707, 0.707, 46.229, 47.868)" fill="#61c8af"/>
                <rect id="Rectángulo_272" data-name="Rectángulo 272" width="2.148" height="2.148" transform="translate(36.983 38.502) rotate(-45.001)" fill="#61c8af"/>
                <rect id="Rectángulo_273" data-name="Rectángulo 273" width="1.978" height="1.978" transform="translate(27.737 29.136) rotate(-45)" fill="#61c8af"/>
                <rect id="Rectángulo_274" data-name="Rectángulo 274" width="1.808" height="1.808" transform="translate(18.491 19.77) rotate(-45.002)" fill="#61c8af"/>
                <rect id="Rectángulo_275" data-name="Rectángulo 275" width="1.638" height="1.638" transform="translate(9.246 10.404) rotate(-45)" fill="#61c8af"/>
                <rect id="Rectángulo_276" data-name="Rectángulo 276" width="1.468" height="1.468" transform="matrix(0.707, -0.707, 0.707, 0.707, 0, 1.038)" fill="#61c8af"/>
              </g>
            </g>
            <g id="Grupo_82" data-name="Grupo 82" transform="translate(30.354 53.119)">
              <g id="Grupo_81" data-name="Grupo 81" transform="translate(0 0)">
                <rect id="Rectángulo_277" data-name="Rectángulo 277" width="3.338" height="3.338" transform="translate(101.703 104.063) rotate(-44.999)" fill="#61c8af"/>
                <rect id="Rectángulo_278" data-name="Rectángulo 278" width="3.168" height="3.168" transform="translate(92.458 94.698) rotate(-45)" fill="#61c8af"/>
                <rect id="Rectángulo_279" data-name="Rectángulo 279" width="2.998" height="2.998" transform="translate(83.212 85.332) rotate(-44.999)" fill="#61c8af"/>
                <rect id="Rectángulo_280" data-name="Rectángulo 280" width="2.828" height="2.828" transform="translate(73.966 75.966) rotate(-45)" fill="#61c8af"/>
                <rect id="Rectángulo_281" data-name="Rectángulo 281" width="2.658" height="2.658" transform="translate(64.72 66.6) rotate(-44.999)" fill="#61c8af"/>
                <rect id="Rectángulo_282" data-name="Rectángulo 282" width="2.488" height="2.488" transform="translate(55.475 57.234) rotate(-45)" fill="#61c8af"/>
                <rect id="Rectángulo_283" data-name="Rectángulo 283" width="2.318" height="2.318" transform="matrix(0.707, -0.707, 0.707, 0.707, 46.229, 47.868)" fill="#61c8af"/>
                <rect id="Rectángulo_284" data-name="Rectángulo 284" width="2.148" height="2.148" transform="translate(36.983 38.502) rotate(-45)" fill="#61c8af"/>
                <rect id="Rectángulo_285" data-name="Rectángulo 285" width="1.978" height="1.978" transform="translate(27.737 29.136) rotate(-45)" fill="#61c8af"/>
                <rect id="Rectángulo_286" data-name="Rectángulo 286" width="1.808" height="1.808" transform="translate(18.492 19.77) rotate(-45)" fill="#61c8af"/>
                <rect id="Rectángulo_287" data-name="Rectángulo 287" width="1.638" height="1.638" transform="translate(9.246 10.404) rotate(-45)" fill="#61c8af"/>
                <rect id="Rectángulo_288" data-name="Rectángulo 288" width="1.468" height="1.468" transform="matrix(0.707, -0.707, 0.707, 0.707, 0, 1.038)" fill="#61c8af"/>
              </g>
            </g>
            <g id="Grupo_84" data-name="Grupo 84" transform="translate(22.765 60.707)">
              <g id="Grupo_83" data-name="Grupo 83" transform="translate(0 0)">
                <rect id="Rectángulo_289" data-name="Rectángulo 289" width="3.338" height="3.338" transform="translate(101.703 104.063) rotate(-44.999)" fill="#61c8af"/>
                <rect id="Rectángulo_290" data-name="Rectángulo 290" width="3.168" height="3.168" transform="translate(92.458 94.698) rotate(-44.999)" fill="#61c8af"/>
                <rect id="Rectángulo_291" data-name="Rectángulo 291" width="2.998" height="2.998" transform="translate(83.212 85.332) rotate(-44.999)" fill="#61c8af"/>
                <rect id="Rectángulo_292" data-name="Rectángulo 292" width="2.828" height="2.828" transform="matrix(0.707, -0.707, 0.707, 0.707, 73.966, 75.966)" fill="#61c8af"/>
                <rect id="Rectángulo_293" data-name="Rectángulo 293" width="2.658" height="2.658" transform="translate(64.72 66.6) rotate(-44.999)" fill="#61c8af"/>
                <rect id="Rectángulo_294" data-name="Rectángulo 294" width="2.488" height="2.488" transform="matrix(0.707, -0.707, 0.707, 0.707, 55.475, 57.234)" fill="#61c8af"/>
                <rect id="Rectángulo_295" data-name="Rectángulo 295" width="2.318" height="2.318" transform="matrix(0.707, -0.707, 0.707, 0.707, 46.229, 47.868)" fill="#61c8af"/>
                <rect id="Rectángulo_296" data-name="Rectángulo 296" width="2.148" height="2.148" transform="translate(36.983 38.502) rotate(-44.999)" fill="#61c8af"/>
                <rect id="Rectángulo_297" data-name="Rectángulo 297" width="1.978" height="1.978" transform="matrix(0.707, -0.707, 0.707, 0.707, 27.737, 29.136)" fill="#61c8af"/>
                <rect id="Rectángulo_298" data-name="Rectángulo 298" width="1.808" height="1.808" transform="translate(18.492 19.77) rotate(-44.998)" fill="#61c8af"/>
                <rect id="Rectángulo_299" data-name="Rectángulo 299" width="1.638" height="1.638" transform="translate(9.246 10.404) rotate(-44.998)" fill="#61c8af"/>
                <rect id="Rectángulo_300" data-name="Rectángulo 300" width="1.468" height="1.468" transform="translate(0 1.038) rotate(-44.998)" fill="#61c8af"/>
              </g>
            </g>
            <g id="Grupo_86" data-name="Grupo 86" transform="translate(15.177 68.296)">
              <g id="Grupo_85" data-name="Grupo 85" transform="translate(0 0)">
                <rect id="Rectángulo_301" data-name="Rectángulo 301" width="3.338" height="3.338" transform="matrix(0.707, -0.707, 0.707, 0.707, 101.703, 104.064)" fill="#61c8af"/>
                <rect id="Rectángulo_302" data-name="Rectángulo 302" width="3.168" height="3.168" transform="translate(92.458 94.698) rotate(-45.001)" fill="#61c8af"/>
                <rect id="Rectángulo_303" data-name="Rectángulo 303" width="2.998" height="2.998" transform="translate(83.212 85.332) rotate(-45.001)" fill="#61c8af"/>
                <rect id="Rectángulo_304" data-name="Rectángulo 304" width="2.828" height="2.828" transform="matrix(0.707, -0.707, 0.707, 0.707, 73.966, 75.966)" fill="#61c8af"/>
                <rect id="Rectángulo_305" data-name="Rectángulo 305" width="2.658" height="2.658" transform="translate(64.72 66.6) rotate(-45)" fill="#61c8af"/>
                <rect id="Rectángulo_306" data-name="Rectángulo 306" width="2.488" height="2.488" transform="translate(55.475 57.234) rotate(-45.001)" fill="#61c8af"/>
                <rect id="Rectángulo_307" data-name="Rectángulo 307" width="2.318" height="2.318" transform="translate(46.229 47.868) rotate(-45)" fill="#61c8af"/>
                <rect id="Rectángulo_308" data-name="Rectángulo 308" width="2.148" height="2.148" transform="translate(36.983 38.502) rotate(-45.001)" fill="#61c8af"/>
                <rect id="Rectángulo_309" data-name="Rectángulo 309" width="1.978" height="1.978" transform="translate(27.737 29.136) rotate(-45)" fill="#61c8af"/>
                <rect id="Rectángulo_310" data-name="Rectángulo 310" width="1.808" height="1.808" transform="translate(18.491 19.77) rotate(-45)" fill="#61c8af"/>
                <rect id="Rectángulo_311" data-name="Rectángulo 311" width="1.638" height="1.638" transform="translate(9.246 10.404) rotate(-45)" fill="#61c8af"/>
                <rect id="Rectángulo_312" data-name="Rectángulo 312" width="1.468" height="1.468" transform="translate(0 1.038) rotate(-45)" fill="#61c8af"/>
              </g>
            </g>
            <g id="Grupo_88" data-name="Grupo 88" transform="translate(7.588 75.884)">
              <g id="Grupo_87" data-name="Grupo 87" transform="translate(0 0)">
                <rect id="Rectángulo_313" data-name="Rectángulo 313" width="3.338" height="3.338" transform="translate(101.703 104.064) rotate(-45)" fill="#61c8af"/>
                <rect id="Rectángulo_314" data-name="Rectángulo 314" width="3.168" height="3.168" transform="translate(92.458 94.698) rotate(-45)" fill="#61c8af"/>
                <rect id="Rectángulo_315" data-name="Rectángulo 315" width="2.998" height="2.998" transform="translate(83.212 85.332) rotate(-45)" fill="#61c8af"/>
                <rect id="Rectángulo_316" data-name="Rectángulo 316" width="2.828" height="2.828" transform="matrix(0.707, -0.707, 0.707, 0.707, 73.966, 75.966)" fill="#61c8af"/>
                <rect id="Rectángulo_317" data-name="Rectángulo 317" width="2.658" height="2.658" transform="translate(64.72 66.6) rotate(-45.001)" fill="#61c8af"/>
                <rect id="Rectángulo_318" data-name="Rectángulo 318" width="2.488" height="2.488" transform="matrix(0.707, -0.707, 0.707, 0.707, 55.474, 57.234)" fill="#61c8af"/>
                <rect id="Rectángulo_319" data-name="Rectángulo 319" width="2.318" height="2.318" transform="translate(46.229 47.868) rotate(-45)" fill="#61c8af"/>
                <rect id="Rectángulo_320" data-name="Rectángulo 320" width="2.148" height="2.148" transform="translate(36.983 38.502) rotate(-45.001)" fill="#61c8af"/>
                <rect id="Rectángulo_321" data-name="Rectángulo 321" width="1.978" height="1.978" transform="translate(27.737 29.136) rotate(-45)" fill="#61c8af"/>
                <rect id="Rectángulo_322" data-name="Rectángulo 322" width="1.808" height="1.808" transform="matrix(0.707, -0.707, 0.707, 0.707, 18.491, 19.77)" fill="#61c8af"/>
                <rect id="Rectángulo_323" data-name="Rectángulo 323" width="1.638" height="1.638" transform="translate(9.246 10.404) rotate(-45)" fill="#61c8af"/>
                <rect id="Rectángulo_324" data-name="Rectángulo 324" width="1.468" height="1.468" transform="matrix(0.707, -0.707, 0.707, 0.707, 0, 1.038)" fill="#61c8af"/>
              </g>
            </g>
            <g id="Grupo_90" data-name="Grupo 90" transform="translate(0 83.473)">
              <g id="Grupo_89" data-name="Grupo 89" transform="translate(0 0)">
                <rect id="Rectángulo_325" data-name="Rectángulo 325" width="3.338" height="3.338" transform="translate(101.703 104.064) rotate(-45)" fill="#61c8af"/>
                <rect id="Rectángulo_326" data-name="Rectángulo 326" width="3.168" height="3.168" transform="translate(92.458 94.698) rotate(-45)" fill="#61c8af"/>
                <rect id="Rectángulo_327" data-name="Rectángulo 327" width="2.998" height="2.998" transform="translate(83.212 85.332) rotate(-45)" fill="#61c8af"/>
                <rect id="Rectángulo_328" data-name="Rectángulo 328" width="2.828" height="2.828" transform="translate(73.966 75.966) rotate(-45)" fill="#61c8af"/>
                <rect id="Rectángulo_329" data-name="Rectángulo 329" width="2.658" height="2.658" transform="translate(64.72 66.6) rotate(-45)" fill="#61c8af"/>
                <rect id="Rectángulo_330" data-name="Rectángulo 330" width="2.488" height="2.488" transform="translate(55.475 57.234) rotate(-45)" fill="#61c8af"/>
                <rect id="Rectángulo_331" data-name="Rectángulo 331" width="2.318" height="2.318" transform="matrix(0.707, -0.707, 0.707, 0.707, 46.229, 47.868)" fill="#61c8af"/>
                <rect id="Rectángulo_332" data-name="Rectángulo 332" width="2.148" height="2.148" transform="translate(36.983 38.502) rotate(-45.001)" fill="#61c8af"/>
                <rect id="Rectángulo_333" data-name="Rectángulo 333" width="1.978" height="1.978" transform="translate(27.737 29.136) rotate(-45.002)" fill="#61c8af"/>
                <rect id="Rectángulo_334" data-name="Rectángulo 334" width="1.808" height="1.808" transform="translate(18.491 19.77) rotate(-45.002)" fill="#61c8af"/>
                <rect id="Rectángulo_335" data-name="Rectángulo 335" width="1.638" height="1.638" transform="matrix(0.707, -0.707, 0.707, 0.707, 9.246, 10.404)" fill="#61c8af"/>
                <rect id="Rectángulo_336" data-name="Rectángulo 336" width="1.468" height="1.468" transform="matrix(0.707, -0.707, 0.707, 0.707, 0, 1.038)" fill="#61c8af"/>
              </g>
            </g>
          </g>
          <g id="Grupo_875935" data-name="Grupo 875935" transform="translate(180 1917.371)">
            <g id="Grupo_4" data-name="Grupo 4" transform="translate(0)">
              <rect id="Rectángulo_4" data-name="Rectángulo 4" width="3.338" height="3.338" fill="none" stroke="#fecb27" stroke-miterlimit="10" stroke-width="1.078"/>
              <rect id="Rectángulo_5" data-name="Rectángulo 5" width="3.338" height="3.338" transform="translate(25.512)" fill="none" stroke="#fecb27" stroke-miterlimit="10" stroke-width="1.078"/>
              <rect id="Rectángulo_6" data-name="Rectángulo 6" width="3.338" height="3.338" transform="translate(51.023)" fill="none" stroke="#fecb27" stroke-miterlimit="10" stroke-width="1.078"/>
              <rect id="Rectángulo_7" data-name="Rectángulo 7" width="3.338" height="3.338" transform="translate(76.535)" fill="none" stroke="#fecb27" stroke-miterlimit="10" stroke-width="1.078"/>
              <rect id="Rectángulo_8" data-name="Rectángulo 8" width="3.338" height="3.338" transform="translate(102.047)" fill="none" stroke="#fecb27" stroke-miterlimit="10" stroke-width="1.078"/>
              <rect id="Rectángulo_9" data-name="Rectángulo 9" width="3.338" height="3.338" transform="translate(127.558)" fill="none" stroke="#fecb27" stroke-miterlimit="10" stroke-width="1.078"/>
            </g>
            <g id="Grupo_5" data-name="Grupo 5" transform="translate(0 18.597)">
              <rect id="Rectángulo_10" data-name="Rectángulo 10" width="3.338" height="3.338" fill="none" stroke="#fecb27" stroke-miterlimit="10" stroke-width="1.078"/>
              <rect id="Rectángulo_11" data-name="Rectángulo 11" width="3.338" height="3.338" transform="translate(25.512)" fill="none" stroke="#fecb27" stroke-miterlimit="10" stroke-width="1.078"/>
              <rect id="Rectángulo_12" data-name="Rectángulo 12" width="3.338" height="3.338" transform="translate(51.023)" fill="none" stroke="#fecb27" stroke-miterlimit="10" stroke-width="1.078"/>
              <rect id="Rectángulo_13" data-name="Rectángulo 13" width="3.338" height="3.338" transform="translate(76.535)" fill="none" stroke="#fecb27" stroke-miterlimit="10" stroke-width="1.078"/>
              <rect id="Rectángulo_14" data-name="Rectángulo 14" width="3.338" height="3.338" transform="translate(102.047)" fill="none" stroke="#fecb27" stroke-miterlimit="10" stroke-width="1.078"/>
              <rect id="Rectángulo_15" data-name="Rectángulo 15" width="3.338" height="3.338" transform="translate(127.558)" fill="none" stroke="#fecb27" stroke-miterlimit="10" stroke-width="1.078"/>
            </g>
            <g id="Grupo_6" data-name="Grupo 6" transform="translate(0 37.195)">
              <rect id="Rectángulo_16" data-name="Rectángulo 16" width="3.338" height="3.338" fill="none" stroke="#fecb27" stroke-miterlimit="10" stroke-width="1.078"/>
              <rect id="Rectángulo_17" data-name="Rectángulo 17" width="3.338" height="3.338" transform="translate(25.512)" fill="none" stroke="#fecb27" stroke-miterlimit="10" stroke-width="1.078"/>
              <rect id="Rectángulo_18" data-name="Rectángulo 18" width="3.338" height="3.338" transform="translate(51.023)" fill="none" stroke="#fecb27" stroke-miterlimit="10" stroke-width="1.078"/>
              <rect id="Rectángulo_19" data-name="Rectángulo 19" width="3.338" height="3.338" transform="translate(76.535)" fill="none" stroke="#fecb27" stroke-miterlimit="10" stroke-width="1.078"/>
              <rect id="Rectángulo_20" data-name="Rectángulo 20" width="3.338" height="3.338" transform="translate(102.047)" fill="none" stroke="#fecb27" stroke-miterlimit="10" stroke-width="1.078"/>
              <rect id="Rectángulo_21" data-name="Rectángulo 21" width="3.338" height="3.338" transform="translate(127.558)" fill="none" stroke="#fecb27" stroke-miterlimit="10" stroke-width="1.078"/>
            </g>
            <g id="Grupo_7" data-name="Grupo 7" transform="translate(0 55.792)">
              <rect id="Rectángulo_22" data-name="Rectángulo 22" width="3.338" height="3.338" fill="none" stroke="#fecb27" stroke-miterlimit="10" stroke-width="1.078"/>
              <rect id="Rectángulo_23" data-name="Rectángulo 23" width="3.338" height="3.338" transform="translate(25.512)" fill="none" stroke="#fecb27" stroke-miterlimit="10" stroke-width="1.078"/>
              <rect id="Rectángulo_24" data-name="Rectángulo 24" width="3.338" height="3.338" transform="translate(51.023)" fill="none" stroke="#fecb27" stroke-miterlimit="10" stroke-width="1.078"/>
              <rect id="Rectángulo_25" data-name="Rectángulo 25" width="3.338" height="3.338" transform="translate(76.535)" fill="none" stroke="#fecb27" stroke-miterlimit="10" stroke-width="1.078"/>
              <rect id="Rectángulo_26" data-name="Rectángulo 26" width="3.338" height="3.338" transform="translate(102.047)" fill="none" stroke="#fecb27" stroke-miterlimit="10" stroke-width="1.078"/>
              <rect id="Rectángulo_27" data-name="Rectángulo 27" width="3.338" height="3.338" transform="translate(127.558)" fill="none" stroke="#fecb27" stroke-miterlimit="10" stroke-width="1.078"/>
            </g>
            <g id="Grupo_8" data-name="Grupo 8" transform="translate(0 74.389)">
              <rect id="Rectángulo_28" data-name="Rectángulo 28" width="3.338" height="3.338" fill="none" stroke="#fecb27" stroke-miterlimit="10" stroke-width="1.078"/>
              <rect id="Rectángulo_29" data-name="Rectángulo 29" width="3.338" height="3.338" transform="translate(25.512)" fill="none" stroke="#fecb27" stroke-width="1"/>
              <rect id="Rectángulo_30" data-name="Rectángulo 30" width="3.338" height="3.338" transform="translate(51.023)" fill="none" stroke="#fecb27" stroke-width="1"/>
              <rect id="Rectángulo_31" data-name="Rectángulo 31" width="3.338" height="3.338" transform="translate(76.535)" fill="none" stroke="#fecb27" stroke-miterlimit="10" stroke-width="1.078"/>
              <rect id="Rectángulo_32" data-name="Rectángulo 32" width="3.338" height="3.338" transform="translate(102.047)" fill="none" stroke="#fecb27" stroke-miterlimit="10" stroke-width="1.078"/>
              <rect id="Rectángulo_33" data-name="Rectángulo 33" width="3.338" height="3.338" transform="translate(127.558)" fill="none" stroke="#fecb27" stroke-miterlimit="10" stroke-width="1.078"/>
            </g>
            <g id="Grupo_9" data-name="Grupo 9" transform="translate(0 92.986)">
              <rect id="Rectángulo_34" data-name="Rectángulo 34" width="3.338" height="3.338" fill="none" stroke="#fecb27" stroke-miterlimit="10" stroke-width="1.078"/>
              <rect id="Rectángulo_35" data-name="Rectángulo 35" width="3.338" height="3.338" transform="translate(25.512)" fill="none" stroke="#fecb27" stroke-miterlimit="10" stroke-width="1.078"/>
              <rect id="Rectángulo_36" data-name="Rectángulo 36" width="3.338" height="3.338" transform="translate(51.023)" fill="none" stroke="#fecb27" stroke-miterlimit="10" stroke-width="1.078"/>
              <rect id="Rectángulo_37" data-name="Rectángulo 37" width="3.338" height="3.338" transform="translate(76.535)" fill="none" stroke="#fecb27" stroke-width="1"/>
              <rect id="Rectángulo_38" data-name="Rectángulo 38" width="3.338" height="3.338" transform="translate(102.047)" fill="none" stroke="#fecb27" stroke-miterlimit="10" stroke-width="1.078"/>
              <rect id="Rectángulo_39" data-name="Rectángulo 39" width="3.338" height="3.338" transform="translate(127.558)" fill="none" stroke="#fecb27" stroke-miterlimit="10" stroke-width="1.078"/>
            </g>
            <g id="Grupo_10" data-name="Grupo 10" transform="translate(0 111.584)">
              <rect id="Rectángulo_40" data-name="Rectángulo 40" width="3.338" height="3.338" fill="none" stroke="#fecb27" stroke-miterlimit="10" stroke-width="1.078"/>
              <rect id="Rectángulo_41" data-name="Rectángulo 41" width="3.338" height="3.338" transform="translate(25.512)" fill="none" stroke="#fecb27" stroke-miterlimit="10" stroke-width="1.078"/>
              <rect id="Rectángulo_42" data-name="Rectángulo 42" width="3.338" height="3.338" transform="translate(51.023)" fill="none" stroke="#fecb27" stroke-miterlimit="10" stroke-width="1.078"/>
              <rect id="Rectángulo_43" data-name="Rectángulo 43" width="3.338" height="3.338" transform="translate(76.535)" fill="none" stroke="#fecb27" stroke-miterlimit="10" stroke-width="1.078"/>
              <rect id="Rectángulo_44" data-name="Rectángulo 44" width="3.338" height="3.338" transform="translate(102.047)" fill="none" stroke="#fecb27" stroke-width="1"/>
              <rect id="Rectángulo_45" data-name="Rectángulo 45" width="3.338" height="3.338" transform="translate(127.558)" fill="none" stroke="#fecb27" stroke-miterlimit="10" stroke-width="1.078"/>
            </g>
          </g>
          <g id="Grupo_879273" data-name="Grupo 879273" transform="translate(230.004 1702.988)">
            <path id="Trazado_34" data-name="Trazado 34" d="M695.1,390.082l-7.781,13.477H702.88Z" transform="translate(-687.318 -264.289)" fill="#fdfdfd"/>
            <path id="Trazado_35" data-name="Trazado 35" d="M695.1,361.354l-7.781,13.477H702.88Z" transform="translate(-687.318 -258.133)" fill="#fdfdfd"/>
            <path id="Trazado_36" data-name="Trazado 36" d="M695.1,332.626,687.318,346.1H702.88Z" transform="translate(-687.318 -251.978)" fill="#fdfdfd"/>
            <path id="Trazado_37" data-name="Trazado 37" d="M695.99,245.931l-4.514,7.819H700.5Z" transform="translate(-637.214 -245.931)" fill="#f13b76"/>
          </g>
        </g>
      </g>
      <g id="Grupo_900121" data-name="Grupo 900121" transform="translate(-868.631 179.796)">
        <g id="Grupo_900118" data-name="Grupo 900118" transform="translate(1093.027 329.465)">
          <g id="Grupo_900067" data-name="Grupo 900067" transform="translate(146.218 34.723)">
            <path id="Trazado_627950" data-name="Trazado 627950" d="M2050.641,661.463c.167.1.393.168.659.307.869,2.089,1.2,2.7,1.026,2.911-.14.17-.124.079-.2.5-.1.573,1.906,3.052,2.216,3.838a2.861,2.861,0,0,1,.07,2.086,10.779,10.779,0,0,1-2.139,3.624c-.8.9-1.675,1.465-2.438,1.294-.941-.212-.781-1.056-.64-1.89.051-.3.618-.958.573-1.252-.252-1.673-1.475-3.132-2.374-4.581-.771-.718-2.068-1.472-2.788-2.3-1.039-1.2-1.234-2.46.055-3.193.411-.234,1.447-1.4,1.977-1.356C2047.656,661.532,2049.357,660.712,2050.641,661.463Z" transform="translate(-2015.608 -627.729)" fill="#202249" fill-rule="evenodd"/>
            <path id="Trazado_627951" data-name="Trazado 627951" d="M1907.009,538.117c-.7,1.9-.154,3.589,1.374,4.316l.03.029.186.064a3.855,3.855,0,0,0,.5.158c1.829.542,4.563,1.036,6.235,1.355,6.669,1.273,16.606,2.068,21.273,3.849,1.831-1.345,2.373-3.841,1.175-5.339-5.091-2.426-11.967-5.577-14.851-6.646a8.262,8.262,0,0,0-2.407-.4c4.3-3.874,8.846-8.069,10.614-11.646,1.251-2.531,1.453-6.046,2.324-8.246-7.013,2.053-8.356-2.179-9.644-3.667-1.1,1.619-1.078,1.32-2.2,3.051-3.781,5.855-9.357,14.157-13.149,20.324A9.867,9.867,0,0,0,1907.009,538.117Z" transform="translate(-1906.708 -509.177)" fill-rule="evenodd" fill="url(#linear-gradient)"/>
            <path id="Trazado_627952" data-name="Trazado 627952" d="M1953.384,538.881c-2.86-1.294-5.455-2.42-6.961-2.978a8.264,8.264,0,0,0-2.407-.4c4.3-3.874,8.846-8.069,10.614-11.646,1.251-2.531,1.453-6.046,2.324-8.246a10.278,10.278,0,0,1-4.7.44l.189,1.37c-5.411,5.388-15.252,17.909-16.167,26.086,3.308.771,12.343,1.93,13.792,2.092.378-2.426,1.962-4.359,3.32-6.714Zm-4.932-25.345c-.455-.613-.8-1.2-1.142-1.6-.7,1.031-.948,1.284-1.321,1.779Z" transform="translate(-1930.199 -509.177)" fill="#1e2353" fill-rule="evenodd" opacity="0.3" style="mix-blend-mode: multiply;isolation: isolate"/>
            <path id="Trazado_627953" data-name="Trazado 627953" d="M2005.167,785.2c.985,1.366-1.672,8.222-2.318,9.666-.571,1.273-.389,2.054.961,2.075,1.063.016,2.752-1.491,3.781-2.477,1.931-1.849,2.041-3.733,2.6-4.536l.658-.211a6.989,6.989,0,0,0,1.98-2.83,15.433,15.433,0,0,0-.732-1.909c-1.05-1.938-1.28-1.091-2.663-2.275C2007.853,783.845,2008.973,784.3,2005.167,785.2Z" transform="translate(-1982.856 -724.315)" fill="#202249" fill-rule="evenodd"/>
            <path id="Trazado_627954" data-name="Trazado 627954" d="M1951.741,535.876c2.881,5.578,10.046,18.155,12.578,23.746,2.231.471,4.494-.833,4.69-2.588-1.629-5.361-4.273-14.186-5.58-17a37.464,37.464,0,0,0-3.93-6.232c4.257-5.956,11-15.333,12.949-20.829,2.65-7.477-.391-11.744-4.474-14.094-1.451-.835-3.014.5-3.751-.391a59.731,59.731,0,0,0-4.336,12.185c-1.422,5.8-8.2,18.114-8.715,22.254a4.488,4.488,0,0,0,.407,2.342C1951.621,535.465,1951.674,535.667,1951.741,535.876Z" transform="translate(-1942.025 -498.488)" fill-rule="evenodd" fill="url(#linear-gradient-2)"/>
          </g>
          <path id="Trazado_627955" data-name="Trazado 627955" d="M1680.771,1328.161l-196.109-110.3c-2.475-1.127-6.113-2.19-8.541-.708l-6.212,3.793c-1.249.763-5.359,3.3-2.61,4.786,8.086,4.386,189.165,106.8,197.376,111.259a11.513,11.513,0,0,0,6.21.944,15.621,15.621,0,0,0,6.726-2.012l2.481-1.533c1.754-1.084,2.726-2.267,2.819-3.4C1683,1329.878,1682.291,1328.853,1680.771,1328.161Z" transform="translate(-1410.612 -1034.214)" fill="#955cf1" fill-rule="evenodd" opacity="0.3"/>
          <g id="Grupo_900070" data-name="Grupo 900070" transform="translate(60.493 3.131)">
            <path id="Trazado_627956" data-name="Trazado 627956" d="M1634.962,345.491a5.2,5.2,0,0,0-4.421-.494l-3.318,1.3c-1.2,6.236,170.888,292.345,172.427,293.93l2.962-1.118a5.788,5.788,0,0,0,3.25-4.758l25.008-170.7a.088.088,0,0,0,0-.019,12.2,12.2,0,0,0-2.034-8.258,9.609,9.609,0,0,0-3.341-3.221Z" transform="translate(-1598.908 -344.704)" fill-rule="evenodd" fill="url(#linear-gradient-3)"/>
            <path id="Trazado_627957" data-name="Trazado 627957" d="M1712.732,458.279,1522.2,351.621c-3.6-2-7.035-.08-7.672,4.268l-25.008,170.7c-.637,4.348,1.759,9.5,5.362,11.492l190.536,106.657c3.6,2,7.043.085,7.68-4.262l25.008-170.7C1718.741,465.429,1716.335,460.277,1712.732,458.279Z" transform="translate(-1489.415 -349.572)" fill="#afafaf" fill-rule="evenodd"/>
            <g id="Grupo_900069" data-name="Grupo 900069" transform="translate(24.267 1.259)">
              <path id="Trazado_627958" data-name="Trazado 627958" d="M1806.592,458.279,1616.058,351.621c-3.6-2-7.036-.08-7.672,4.267l-.844,5.757L1811.111,475.6l.853-5.823C1812.6,465.429,1810.2,460.277,1806.592,458.279Z" transform="translate(-1607.543 -350.831)" fill="#0b5999" fill-rule="evenodd"/>
              <g id="Grupo_900068" data-name="Grupo 900068" transform="translate(4.573 4.985)">
                <path id="Trazado_627959" data-name="Trazado 627959" d="M1632.562,375.15a3.744,3.744,0,0,1,2.479,3.843c-.076,1.792-1.309,2.977-2.754,2.646a3.744,3.744,0,0,1-2.479-3.843C1629.884,376,1631.117,374.82,1632.562,375.15Z" transform="translate(-1629.804 -375.095)" fill="#f6f6f6" fill-rule="evenodd"/>
                <path id="Trazado_627960" data-name="Trazado 627960" d="M1664.592,393.546a3.744,3.744,0,0,1,2.479,3.843c-.076,1.792-1.309,2.977-2.754,2.646a3.744,3.744,0,0,1-2.479-3.843C1661.914,394.4,1663.147,393.216,1664.592,393.546Z" transform="translate(-1655.254 -389.712)" fill="#f6f6f6" fill-rule="evenodd"/>
                <path id="Trazado_627961" data-name="Trazado 627961" d="M1699.251,413.752a3.744,3.744,0,0,1,2.479,3.843c-.076,1.792-1.309,2.976-2.754,2.646a3.743,3.743,0,0,1-2.478-3.843C1696.573,414.606,1697.806,413.421,1699.251,413.752Z" transform="translate(-1682.793 -405.767)" fill="#f6f6f6" fill-rule="evenodd"/>
              </g>
            </g>
          </g>
          <path id="Trazado_627962" data-name="Trazado 627962" d="M2278.5,1085.412l-34.227-18.79a6.474,6.474,0,0,0-5.553-.623c-2.082.811-3.639,2.917-4.089,5.986l-3.88,27.834c-.8,5.464,2.211,11.933,6.74,14.444l34.228,18.79c4.531,2.51,8.853.106,9.653-5.356l3.878-27.836C2286.05,1094.4,2283.027,1087.922,2278.5,1085.412Z" transform="translate(-2017.861 -914.397)" fill="#ef3c79" fill-rule="evenodd" opacity="0.5" style="mix-blend-mode: multiply;isolation: isolate"/>
          <path id="Trazado_627963" data-name="Trazado 627963" d="M2145.3,685.386l75.046,36.6-1.988,2.03-7.2,50.345c-.735,5.164-4.665,7.453-8.767,5.106l-70.246-40.163-6.1-13.61Z" transform="translate(-1934.767 -612.269)" fill="#fecb2f" fill-rule="evenodd" opacity="0.5" style="mix-blend-mode: multiply;isolation: isolate"/>
          <g id="Grupo_900074" data-name="Grupo 900074" transform="translate(0 89.818)">
            <path id="Trazado_627964" data-name="Trazado 627964" d="M1546.125,964.02l-46.4-25.718-1.551,2.368-7.618,51.893,48.056,26.637c5.087,2.818,9.941.119,10.839-6.015l4.252-32.94C1554.605,974.111,1551.21,966.838,1546.125,964.02Z" transform="translate(-1429.83 -903.045)" fill-rule="evenodd" opacity="0.5" fill="url(#linear-gradient-4)" style="mix-blend-mode: multiply;isolation: isolate"/>
            <g id="Grupo_900073" data-name="Grupo 900073">
              <g id="Grupo_900071" data-name="Grupo 900071">
                <path id="Trazado_627965" data-name="Trazado 627965" d="M1338.318,839.035l-5.543,36.416.879.107,2.4-.932c2.631-1.036,4.012-3.776,4.4-6.438l4.078-31.578a.151.151,0,0,0,0-.026,16.5,16.5,0,0,0-2.752-11.173,13,13,0,0,0-4.52-4.358l-96.17-53.306a7.026,7.026,0,0,0-5.981-.668l-2.116.826c-1.065.4-1.394.72-1.387.786C1232.606,778,1339.719,829.489,1338.318,839.035Z" transform="translate(-1224.077 -766.682)" fill="#d0e7ff" fill-rule="evenodd"/>
                <path id="Trazado_627966" data-name="Trazado 627966" d="M1305.712,825.662l-96.167-53.307a6.97,6.97,0,0,0-5.978-.67c-2.241.873-3.918,3.14-4.4,6.444l-4.077,31.579c-.862,5.882,2.38,12.847,7.255,15.55l96.169,53.307c4.877,2.7,9.53.114,10.392-5.767l4.077-31.58C1313.843,835.337,1310.588,828.365,1305.712,825.662Z" transform="translate(-1194.949 -770.339)" fill="#ef3c79" fill-rule="evenodd"/>
              </g>
              <g id="Grupo_900072" data-name="Grupo 900072" transform="translate(7.154 16.598)">
                <path id="Trazado_627967" data-name="Trazado 627967" d="M1445.374,941.637,1379,905.132a1.663,1.663,0,0,0-1.429-.159,1.831,1.831,0,0,0-1.052,1.54l-.366,2.216a3.877,3.877,0,0,0,1.734,3.717l66.37,36.5a1.613,1.613,0,0,0,2.484-1.379l.366-2.217a3.881,3.881,0,0,0-1.737-3.718Zm-36.96,8.587a3.881,3.881,0,0,1,1.737,3.718l-.367,2.217a1.613,1.613,0,0,1-2.484,1.378l-33.379-17.967a3.878,3.878,0,0,1-1.734-3.717l.366-2.216a1.834,1.834,0,0,1,1.053-1.541,1.667,1.667,0,0,1,1.429.16l33.379,17.967Zm34.975,4.975a3.88,3.88,0,0,1,1.737,3.718l-.366,2.216a1.614,1.614,0,0,1-2.484,1.379l-66.369-36.505a3.879,3.879,0,0,1-1.735-3.717l.367-2.216a1.832,1.832,0,0,1,1.052-1.541,1.667,1.667,0,0,1,1.43.159Z" transform="translate(-1342.905 -893.084)" fill="#fffcf1" fill-rule="evenodd" opacity="0.5"/>
                <path id="Trazado_627968" data-name="Trazado 627968" d="M1244.722,858.878c-3.138-1.74-6.467.607-6.433,5.148a9.084,9.084,0,0,0,2.585,6.287,6.151,6.151,0,0,0,1.272.953c3.133,1.736,6.446-.609,6.422-5.129a9.067,9.067,0,0,0-2.564-6.3,6.246,6.246,0,0,0-1.282-.962ZM1241.7,873.4a8.3,8.3,0,0,1-1.707-1.277,12.244,12.244,0,0,1-3.478-8.457c-.037-6.091,4.43-9.256,8.648-6.918a8.243,8.243,0,0,1,1.731,1.3,12.156,12.156,0,0,1,3.453,8.453c.026,6.074-4.435,9.234-8.647,6.9Zm14.369-5.175a2.3,2.3,0,0,1,.973,2.4l-.767,3.568a1.129,1.129,0,0,1-1.686.91l-.376-.209a1.053,1.053,0,0,0-1.486.41,11.309,11.309,0,0,1-.683,1.013,2.106,2.106,0,0,0-.152,2.02l.2.484a1.871,1.871,0,0,1-.5,2.326l-2.584,1.4a1.066,1.066,0,0,1-1.047-.038,2,2,0,0,1-.838-1.008l-.2-.473a1.981,1.981,0,0,0-.83-1,1.212,1.212,0,0,0-.62-.159c-.365,0-.736-.013-1.1-.046a1.183,1.183,0,0,0-1.233,1.059l-.1.465a1.129,1.129,0,0,1-1.686.91l-2.88-1.6a2.3,2.3,0,0,1-.977-2.386l.1-.464a2.432,2.432,0,0,0-.563-2.055c-.311-.341-.6-.694-.887-1.057a1.8,1.8,0,0,0-.549-.49,1.056,1.056,0,0,0-1.037-.039l-.338.174a1.067,1.067,0,0,1-1.048-.036,2,2,0,0,1-.838-1.008l-1.5-3.658a1.873,1.873,0,0,1,.5-2.325l.341-.185a1.662,1.662,0,0,0,.658-1.74q-.1-.735-.148-1.474a2.231,2.231,0,0,0-1.012-1.793l-.375-.209a2.3,2.3,0,0,1-.977-2.385l.768-3.568c.2-.921.953-1.329,1.687-.921l.375.208a1.051,1.051,0,0,0,1.486-.409,10.712,10.712,0,0,1,.684-1.012,2.09,2.09,0,0,0,.149-2.011l-.2-.483a1.887,1.887,0,0,1,.5-2.335l2.584-1.4a1.071,1.071,0,0,1,1.047.037,2,2,0,0,1,.839,1.008l.2.483a1.974,1.974,0,0,0,.83,1,1.2,1.2,0,0,0,.62.16,9.081,9.081,0,0,1,1.105.036,1.165,1.165,0,0,0,1.231-1.049l.1-.466c.2-.92.953-1.328,1.687-.92l2.881,1.6a2.3,2.3,0,0,1,.973,2.395l-.1.466a2.4,2.4,0,0,0,.558,2.04q.465.512.892,1.072a1.791,1.791,0,0,0,.549.489,1.054,1.054,0,0,0,1.036.039l.341-.184a1.065,1.065,0,0,1,1.047.038,2,2,0,0,1,.839,1.008l1.5,3.658a1.886,1.886,0,0,1-.5,2.335l-.341.184a1.652,1.652,0,0,0-.656,1.731c.067.49.118.982.149,1.473a2.228,2.228,0,0,0,1.012,1.795Z" transform="translate(-1229.774 -847.477)" fill="#fffcf1" fill-rule="evenodd" opacity="0.5"/>
              </g>
            </g>
          </g>
          <g id="Grupo_900076" data-name="Grupo 900076" transform="translate(47.121 6.345)">
            <path id="Trazado_627969" data-name="Trazado 627969" d="M1592.195,438.488l-20.755-10.033-8.192,51.261-1.055,7.2,21.581,11.645c3.75,2.077,7.328.087,7.99-4.435l6.019-43.677C1598.447,445.928,1595.944,440.566,1592.195,438.488Z" transform="translate(-1533.87 -414.464)" fill="#fecb2f" fill-rule="evenodd" opacity="0.5" style="mix-blend-mode: multiply;isolation: isolate"/>
            <g id="Grupo_900075" data-name="Grupo 900075">
              <path id="Trazado_627970" data-name="Trazado 627970" d="M1511.048,396.564l-6.468,41.784.677.082,1.845-.717a6.02,6.02,0,0,0,3.381-4.95l5.341-38.064a.124.124,0,0,0,0-.02,12.684,12.684,0,0,0-2.116-8.592,10,10,0,0,0-3.475-3.351l-39.691-21.569a5.405,5.405,0,0,0-4.6-.514l-1.627.635c-.818.308-1.072.554-1.066.6C1464.017,369.05,1512.125,389.224,1511.048,396.564Z" transform="translate(-1455.254 -360.35)" fill="#d0e7ff" fill-rule="evenodd"/>
              <path id="Trazado_627971" data-name="Trazado 627971" d="M1477.444,386.281l-39.69-21.569a5.359,5.359,0,0,0-4.6-.515c-1.724.671-3.013,2.415-3.385,4.955l-5.341,38.065c-.663,4.523,1.83,9.879,5.579,11.957l39.692,21.569c3.749,2.078,7.328.088,7.99-4.434l5.34-38.066C1483.7,393.721,1481.193,388.359,1477.444,386.281Z" transform="translate(-1424.325 -363.162)" fill="#fecb2f" fill-rule="evenodd"/>
              <path id="Trazado_627972" data-name="Trazado 627972" d="M1485.116,458.452l-39.875-21.4c-.921-.494-1.8.015-1.977,1.156a2.96,2.96,0,0,0,1.344,2.9l39.874,21.4c.92.495,1.816-.007,1.995-1.149a2.989,2.989,0,0,0-1.36-2.905Zm1.783-11.587a2.989,2.989,0,0,1,1.36,2.905c-.178,1.142-1.075,1.644-1.995,1.149l-39.874-21.4a2.959,2.959,0,0,1-1.344-2.9c.178-1.142,1.056-1.65,1.977-1.156l39.875,21.4Zm4.1-26.275-39.875-21.4a1.3,1.3,0,0,0-1.97,1.117l-.444,2.834a2.966,2.966,0,0,0,1.345,2.9l39.875,21.4a1.312,1.312,0,0,0,1.987-1.11l.441-2.834a2.984,2.984,0,0,0-1.36-2.9Zm-2.308,14.78a2.963,2.963,0,0,1,1.364,2.887c-.183,1.162-1.075,1.642-1.993,1.148L1448.188,418a2.932,2.932,0,0,1-1.349-2.876c.183-1.161,1.059-1.65,1.978-1.159Z" transform="translate(-1439.349 -391.057)" fill="#fffcf1" fill-rule="evenodd"/>
            </g>
          </g>
          <g id="Grupo_900077" data-name="Grupo 900077" transform="translate(212.824 151.141)">
            <path id="Trazado_627973" data-name="Trazado 627973" d="M2301.617,1098.03l-4.718,29.1.735.089,2.007-.779c2.2-.866,3.354-3.157,3.676-5.383L2306.81,1096a.137.137,0,0,0,0-.022,13.794,13.794,0,0,0-2.3-9.343,10.88,10.88,0,0,0-3.78-3.644l-30.812-16.914a5.878,5.878,0,0,0-5-.559l-1.769.691c-.89.334-1.166.6-1.16.657C2262.825,1074.651,2302.788,1090.048,2301.617,1098.03Z" transform="translate(-2255.61 -1065.19)" fill="#d0e7ff" fill-rule="evenodd"/>
            <path id="Trazado_627974" data-name="Trazado 627974" d="M2274.031,1086.848l-30.81-16.915a5.829,5.829,0,0,0-5-.561c-1.874.73-3.276,2.626-3.681,5.389l-3.493,25.056c-.721,4.918,1.99,10.742,6.067,13l30.812,16.915c4.078,2.26,7.968.1,8.689-4.822l3.491-25.058C2280.829,1094.938,2278.107,1089.108,2274.031,1086.848Z" transform="translate(-2230.932 -1068.248)" fill="#fff" fill-rule="evenodd"/>
            <path id="Trazado_627975" data-name="Trazado 627975" d="M2276.4,1150.654a2.458,2.458,0,0,1,.254,1.434,9.4,9.4,0,0,1-.56,1.834l-6.565,18.234c-.212.609-.407,1.073-.547,1.406a1.116,1.116,0,0,1-.594.637,1.062,1.062,0,0,1-.947-.219,2.472,2.472,0,0,1-1.3-2.514,12.938,12.938,0,0,1,.543-1.9l6.547-18.244a6.583,6.583,0,0,1,.881-1.885c.238-.3.651-.259,1.2.083a2.753,2.753,0,0,1,1.079,1.135Zm1.752,4.736-.6,5.071,9.7,11.251-10.873-1.377-.6,5.093,15.646,1.223.512-4.316-13.78-16.945Zm-27.347-3.869,13.784,16.962.6-5.093-9.654-11.323,10.823,1.471.61-5.136-15.649-1.249Z" transform="translate(-2246.72 -1130.316)" fill="#ef3c79" fill-rule="evenodd"/>
          </g>
          <g id="Grupo_900084" data-name="Grupo 900084" transform="translate(131.822 168.211)">
            <g id="Grupo_900080" data-name="Grupo 900080">
              <path id="Trazado_627976" data-name="Trazado 627976" d="M1842.663,1152.694c.554-3.788,3.439-5.462,6.443-3.73l44.657,25.181c3,1.729,4.989,6.209,4.435,10l-5.94,40.425c-.554,3.788-3.442,5.46-6.444,3.731l-44.657-25.182c-3.005-1.731-4.99-6.21-4.435-10Z" transform="translate(-1836.629 -1148.281)" fill="#fff" fill-rule="evenodd"/>
              <g id="Grupo_900079" data-name="Grupo 900079" transform="translate(4.648 6.532)">
                <g id="Grupo_900078" data-name="Grupo 900078" transform="translate(6.819 17.51)">
                  <path id="Trazado_627977" data-name="Trazado 627977" d="M1892.448,1286.89l15.578-21.578,3.02,22.882,7.589-8.25,4.469,24.468Z" transform="translate(-1892.448 -1265.312)" fill="#21cbae" fill-rule="evenodd"/>
                  <path id="Trazado_627978" data-name="Trazado 627978" d="M2004.838,1269.776c1.666.339,2.92,2.289,2.8,4.356s-1.566,3.466-3.231,3.127-2.92-2.289-2.8-4.355S2003.172,1269.437,2004.838,1269.776Z" transform="translate(-1979.175 -1268.818)" fill="#21cbae" fill-rule="evenodd"/>
                </g>
                <path id="Trazado_627979" data-name="Trazado 627979" d="M1864.268,1183.743c.461-3.147,2.857-4.538,5.354-3.1l37.1,20.923c2.494,1.437,4.145,5.159,3.685,8.307l-4.935,33.588c-.46,3.147-2.86,4.536-5.354,3.1l-37.1-20.923c-2.5-1.438-4.146-5.16-3.685-8.307Z" transform="translate(-1859.255 -1180.076)" fill-rule="evenodd" opacity="0.2" fill="url(#linear-gradient-5)"/>
              </g>
            </g>
            <g id="Grupo_900083" data-name="Grupo 900083" transform="translate(60.267 35.004)">
              <path id="Trazado_627980" data-name="Trazado 627980" d="M2136.033,1323.084c.554-3.788,3.439-5.462,6.443-3.73l44.657,25.181c3,1.729,4.989,6.21,4.435,10l-5.94,40.425c-.554,3.787-3.442,5.459-6.444,3.73l-44.657-25.181c-3-1.731-4.989-6.21-4.435-10Z" transform="translate(-2129.999 -1318.671)" fill="#fff" fill-rule="evenodd"/>
              <g id="Grupo_900082" data-name="Grupo 900082" transform="translate(4.648 6.532)">
                <g id="Grupo_900081" data-name="Grupo 900081" transform="translate(6.819 17.51)">
                  <path id="Trazado_627981" data-name="Trazado 627981" d="M2185.819,1457.28,2201.4,1435.7l3.021,22.882,7.589-8.249,4.469,24.468Z" transform="translate(-2185.819 -1435.702)" fill="#ef3c79" fill-rule="evenodd"/>
                  <path id="Trazado_627982" data-name="Trazado 627982" d="M2298.209,1440.166c1.666.339,2.92,2.289,2.8,4.355s-1.566,3.466-3.232,3.127-2.92-2.289-2.8-4.355S2296.543,1439.827,2298.209,1440.166Z" transform="translate(-2272.547 -1439.209)" fill="#ef3c79" fill-rule="evenodd"/>
                </g>
                <path id="Trazado_627983" data-name="Trazado 627983" d="M2157.638,1354.133c.46-3.147,2.857-4.538,5.353-3.1l37.1,20.923c2.494,1.437,4.146,5.16,3.685,8.307l-4.935,33.588c-.46,3.147-2.86,4.536-5.354,3.1l-37.1-20.923c-2.5-1.438-4.146-5.16-3.686-8.307Z" transform="translate(-2152.625 -1348.466)" fill="#21cbae" fill-rule="evenodd" opacity="0.2"/>
              </g>
            </g>
          </g>
          <g id="Grupo_900090" data-name="Grupo 900090" transform="translate(128.386)">
            <path id="Trazado_627984" data-name="Trazado 627984" d="M1822.123,333.918c-3.975,2.333-2.07,7.723,1.541,13.421,5.124,8.085-7.277,17.185,9.579,21.788-1.756-4.934,5.549-6.74,9.139-13.477,4.141-7.774,1.845-15.571-3.475-22.212C1834.574,328.03,1826.648,328.1,1822.123,333.918Z" transform="translate(-1819.907 -329.465)" fill="#12263f" fill-rule="evenodd"/>
            <g id="Grupo_900086" data-name="Grupo 900086" transform="translate(8.773 13.584)">
              <path id="Trazado_627985" data-name="Trazado 627985" d="M1868.327,573.055l.972,3.664c.305.785.489,1,1.616.488.615-.3.422-1.582.252-2.518a5.51,5.51,0,0,1,.042-2.314,1.9,1.9,0,0,1,.708-.963c.673-.541,1.461-.9.976-2.622a8.926,8.926,0,0,1-.211-2.5l-2.349-.155c.054,2.1-.877,3.509-1.847,5.273C1868.017,572.261,1868.12,572.1,1868.327,573.055Z" transform="translate(-1867.014 -531.1)" fill-rule="evenodd" fill="url(#linear-gradient-6)"/>
              <g id="Grupo_900085" data-name="Grupo 900085">
                <path id="Trazado_627986" data-name="Trazado 627986" d="M1872.288,414.283l-.017-.117a2,2,0,0,0-.074-.5c-.6-3.985-1.81-10.7-2.755-14.2-1.65-6.116-6.884-4-6.83-.352.051,3.453,3.263,10.932,4,14.172-.263,2.361-1.248,14.15-.908,16.209a4.49,4.49,0,0,1,.218,1.08,3.922,3.922,0,0,1-.2.852c.925.123,1.85.254,2.759.468a5.777,5.777,0,0,1,.138-.917c.158-.444.565-.671.748-1.047.9-1.847,2.394-11.538,2.8-14.692A3.915,3.915,0,0,0,1872.288,414.283Z" transform="translate(-1862.612 -395.589)" fill="#ef3c79" fill-rule="evenodd"/>
                <path id="Trazado_627987" data-name="Trazado 627987" d="M1871.751,430.926a18.513,18.513,0,0,0,.743-4.655c-.009-2.429-.926-4.439-1.211-5.981l-8.487-8.448c.054,1.582,1.9,5.8,2.657,8.908C1866.633,425.6,1869.2,429.785,1871.751,430.926Z" transform="translate(-1862.758 -408.503)" fill="#ef3c79" fill-rule="evenodd" opacity="0.35" style="mix-blend-mode: multiply;isolation: isolate"/>
              </g>
            </g>
            <path id="Trazado_627988" data-name="Trazado 627988" d="M1897.632,415.772c-1.2,3.956-6.815,7.073-12.444,5.834-1.344-1.495-1.743-1.03-2.972-2.235-1.119-1.1-2.5-2.6-4.432-4.556-1.074-1.686-5.311-2.375-7.18-3.109a8.011,8.011,0,0,1-4.859-5.91c-.423-1.627-2.267-6.605-2.93-8.265-1.917-4.8,2.241-6.59,5.053-4.814a51.662,51.662,0,0,0,7.734,2.06,32.6,32.6,0,0,0,3.431.51c2.336.226,4.873,1.931,6.686,3.375C1890.593,402.544,1897.2,410.347,1897.632,415.772Z" transform="translate(-1853.612 -379.189)" fill="#ef3c79" fill-rule="evenodd"/>
            <g id="Grupo_900088" data-name="Grupo 900088" transform="translate(3.996 8.745)">
              <path id="Trazado_627989" data-name="Trazado 627989" d="M1882.932,385.9a11.927,11.927,0,0,0,3.347,5.646c-.6,2.129-4.66,3.664-5.953,2.226a7.539,7.539,0,0,0-.377-1.129c-.213-.624-.426-1.172-.608-1.61Z" transform="translate(-1871.127 -383.048)" fill-rule="evenodd" fill="url(#linear-gradient-7)"/>
              <g id="Grupo_900087" data-name="Grupo 900087">
                <path id="Trazado_627990" data-name="Trazado 627990" d="M1839.357,372.034a6.9,6.9,0,0,0,2.111,4.377,2.029,2.029,0,0,1,.588.978,4.458,4.458,0,0,0,2.185,3.213c1.206.86,1.658,1.455,2.345,1.527a2.847,2.847,0,0,0,1.876-.679,11.37,11.37,0,0,0,2.8-4.2c.413-1.016.157-1.271-.1-2.234.306-1.773-.921-1.885-1.329-1.666-1.171.628-.385,1.926-.774,2.673C1844.943,376.927,1840.684,373.236,1839.357,372.034Z" transform="translate(-1839.357 -372.034)" fill="#ffa698" fill-rule="evenodd"/>
                <path id="Trazado_627991" data-name="Trazado 627991" d="M1839.357,372.034a9.265,9.265,0,0,0,9.7,3.984C1844.943,376.927,1840.684,373.236,1839.357,372.034Z" transform="translate(-1839.357 -372.034)" fill="#ff9080" fill-rule="evenodd"/>
              </g>
            </g>
            <path id="Trazado_627992" data-name="Trazado 627992" d="M1930.959,439.836a.911.911,0,0,1-.1.021,7.918,7.918,0,0,1-1.907-1.278c-1.119-1.1-2.5-2.6-4.432-4.556-.547-.859-1.917-1.459-3.374-1.939.23-3.939.128-12.939,1.42-14.11,1.782-1.616,4.234-2.691,6.281-.587C1932.708,421.356,1928.861,436.05,1930.959,439.836Z" transform="translate(-1900.346 -398.397)" fill="#3469c0" fill-rule="evenodd" opacity="0.35" style="mix-blend-mode: multiply;isolation: isolate"/>
            <g id="Grupo_900089" data-name="Grupo 900089" transform="translate(21.597 33.952)">
              <path id="Trazado_627993" data-name="Trazado 627993" d="M1932.932,515.493l-2.447-9.21,1.692-1.507,15.448,8.67-1.437,1.612-6.71,4.489Z" transform="translate(-1929.366 -502.714)" fill="#4a9ff8" fill-rule="evenodd"/>
              <path id="Trazado_627994" data-name="Trazado 627994" d="M1926.164,498.333l-1.126-3.6,19.277,10.7-2.483,1.662Z" transform="translate(-1925.038 -494.738)" fill="#d0e7ff" fill-rule="evenodd"/>
            </g>
          </g>
          <g id="Grupo_900099" data-name="Grupo 900099" transform="translate(110.093 50.848)">
            <path id="Trazado_627995" data-name="Trazado 627995" d="M1740.308,585.472c1-7.379,6.6-10.556,12.5-7.081L1813.8,614c5.9,3.472,9.878,12.282,8.878,19.661L1813.379,704c-1,7.378-6.6,10.552-12.5,7.081l-60.984-35.608c-5.906-3.475-9.879-12.283-8.879-19.661Z" transform="translate(-1730.858 -576.982)" fill="#0b5999" fill-rule="evenodd" opacity="0.5" style="mix-blend-mode: multiply;isolation: isolate"/>
            <g id="Grupo_900098" data-name="Grupo 900098" transform="translate(0.825 0.196)">
              <path id="Trazado_627996" data-name="Trazado 627996" d="M1753.422,585.823c.108-.8.265-4.361,1.222-5.086a22.293,22.293,0,0,1,4.343-2.587,7.868,7.868,0,0,1,6.053,1.093l56.987,33.024c5.481,3.226,9.179,11.413,8.25,18.27l-8.637,65.358a10.526,10.526,0,0,1-2.369,5.657,17.593,17.593,0,0,1-4.284,3c-1.633.844-3.93-1.467-4.966-2.076l-56.986-33.024c-5.489-3.229-9.18-11.413-8.251-18.269Z" transform="translate(-1742.635 -577.934)" fill="#d0e7ff" fill-rule="evenodd"/>
              <path id="Trazado_627997" data-name="Trazado 627997" d="M1743.657,592.644c.929-6.857,6.131-9.809,11.618-6.58l56.668,33.087c5.481,3.226,9.179,11.413,8.25,18.269l-8.637,65.358c-.929,6.856-6.137,9.805-11.619,6.58l-56.667-33.088c-5.488-3.229-9.18-11.413-8.251-18.269Z" transform="translate(-1734.876 -583.354)" fill="#fff" fill-rule="evenodd"/>
              <g id="Grupo_900092" data-name="Grupo 900092" transform="translate(7.885 1.401)">
                <path id="Trazado_627998" data-name="Trazado 627998" d="M1774.155,592.644c.929-6.857,6.131-9.809,11.618-6.58l56.668,33.087c5.481,3.226,9.179,11.413,8.25,18.269l-.885,6.493-76.547-44.694Z" transform="translate(-1773.259 -584.755)" fill="#0b5999" fill-rule="evenodd"/>
                <g id="Grupo_900091" data-name="Grupo 900091" transform="translate(7.611 8.094)">
                  <path id="Trazado_627999" data-name="Trazado 627999" d="M1812.705,624.206a3.252,3.252,0,0,1,2.129,3.34c-.072,1.549-1.143,2.564-2.391,2.268a3.252,3.252,0,0,1-2.13-3.341C1810.386,624.925,1811.457,623.91,1812.705,624.206Z" transform="translate(-1810.31 -624.154)" fill="#fff" fill-rule="evenodd"/>
                  <path id="Trazado_628000" data-name="Trazado 628000" d="M1845.134,644.422a3.252,3.252,0,0,1,2.13,3.34c-.072,1.549-1.143,2.564-2.391,2.268a3.252,3.252,0,0,1-2.129-3.34C1842.815,645.141,1843.886,644.126,1845.134,644.422Z" transform="translate(-1836.077 -640.217)" fill="#fff" fill-rule="evenodd"/>
                  <path id="Trazado_628001" data-name="Trazado 628001" d="M1877.563,664.638a3.253,3.253,0,0,1,2.13,3.34c-.072,1.549-1.143,2.564-2.391,2.268a3.252,3.252,0,0,1-2.129-3.34C1875.244,665.357,1876.315,664.342,1877.563,664.638Z" transform="translate(-1861.844 -656.28)" fill="#fff" fill-rule="evenodd"/>
                </g>
              </g>
              <g id="Grupo_900097" data-name="Grupo 900097" transform="translate(4.992 28.613)">
                <g id="Grupo_900095" data-name="Grupo 900095" transform="translate(4.71)">
                  <g id="Grupo_900093" data-name="Grupo 900093">
                    <path id="Trazado_628002" data-name="Trazado 628002" d="M1793.2,717.454c5.785,1.372,10.2,8.3,9.869,15.48s-5.3,11.885-11.082,10.513-10.2-8.3-9.869-15.481S1787.417,716.081,1793.2,717.454Z" transform="translate(-1782.103 -717.216)" fill-rule="evenodd" opacity="0.2" fill="url(#linear-gradient-8)"/>
                    <path id="Trazado_628003" data-name="Trazado 628003" d="M1811.628,747.032c3.119.74,5.5,4.477,5.321,8.346s-2.856,6.408-5.975,5.668-5.5-4.477-5.321-8.346S1808.508,746.293,1811.628,747.032Z" transform="translate(-1800.807 -740.805)" fill="#21cbae" fill-rule="evenodd"/>
                  </g>
                  <g id="Grupo_900094" data-name="Grupo 900094" transform="translate(22.719 12.434)">
                    <path id="Trazado_628004" data-name="Trazado 628004" d="M1899.436,779.473c.206-1.525,1.361-2.164,2.579-1.423l37.04,21.35a4.457,4.457,0,0,1,1.83,4.1l-.4,3.016c-.207,1.525-1.363,2.162-2.579,1.423l-37.04-21.351a4.454,4.454,0,0,1-1.83-4.1Z" transform="translate(-1897.707 -777.741)" fill="#955cf1" fill-rule="evenodd" opacity="0.2"/>
                    <path id="Trazado_628005" data-name="Trazado 628005" d="M1892.95,836.222c.122-.9.8-1.278,1.523-.84l21.873,12.608a2.632,2.632,0,0,1,1.08,2.423l-.236,1.781c-.122.9-.8,1.277-1.523.84l-21.872-12.608a2.632,2.632,0,0,1-1.081-2.423Z" transform="translate(-1892.695 -823.396)" fill="#955cf1" fill-rule="evenodd" opacity="0.2"/>
                  </g>
                </g>
                <g id="Grupo_900096" data-name="Grupo 900096" transform="translate(0 26.828)">
                  <path id="Trazado_628006" data-name="Trazado 628006" d="M1772.731,849.069c.15-1.11.991-1.576,1.877-1.036l63.968,36.7a3.247,3.247,0,0,1,1.332,2.988l-.2,1.455c-.15,1.11-.992,1.575-1.878,1.036l-63.968-36.7a3.243,3.243,0,0,1-1.333-2.988Z" transform="translate(-1769.77 -847.808)" fill="#955cf1" fill-rule="evenodd" opacity="0.2"/>
                  <path id="Trazado_628007" data-name="Trazado 628007" d="M1766.221,901.467c.15-1.11.991-1.575,1.878-1.036l63.968,36.7a3.247,3.247,0,0,1,1.332,2.988l-.2,1.454c-.15,1.111-.992,1.575-1.878,1.036l-63.967-36.7a3.242,3.242,0,0,1-1.332-2.988Z" transform="translate(-1764.598 -889.442)" fill="#955cf1" fill-rule="evenodd" opacity="0.2"/>
                  <path id="Trazado_628008" data-name="Trazado 628008" d="M1759.4,951.381c.15-1.11.991-1.575,1.878-1.036l63.968,36.7a3.247,3.247,0,0,1,1.332,2.989l-.2,1.454c-.151,1.11-.992,1.575-1.879,1.036l-63.968-36.7a3.244,3.244,0,0,1-1.333-2.989Z" transform="translate(-1759.178 -929.102)" fill="#955cf1" fill-rule="evenodd" opacity="0.2"/>
                </g>
              </g>
            </g>
          </g>
          <g id="Grupo_900103" data-name="Grupo 900103" transform="translate(188.991 47.141)">
            <g id="Grupo_900100" data-name="Grupo 900100">
              <path id="Trazado_628009" data-name="Trazado 628009" d="M2132.6,564.78c.2-1.423-.744-2.519-.126-3.461.667-1.018,2.936-1.747,3.917-2.1a5.556,5.556,0,0,1,4.7.617l68.039,38.9c3.972,2.273,6.621,8.181,5.908,13.182L2207.4,665.3a6.94,6.94,0,0,1-2.931,5.146c-.911.558-3.4,1.624-4.533,1.487-.794-.1-.19-1.209-1.027-1.687l-68.038-38.9c-3.977-2.275-6.621-8.181-5.909-13.182Z" transform="translate(-2122.804 -558.94)" fill="#fecb2f" fill-rule="evenodd"/>
              <path id="Trazado_628010" data-name="Trazado 628010" d="M2122.672,568.737c.712-5,4.514-7.222,8.49-4.946l68.039,38.9c3.973,2.273,6.621,8.181,5.909,13.183l-7.637,53.382c-.712,5-4.518,7.219-8.491,4.946l-68.038-38.9c-3.977-2.275-6.621-8.181-5.909-13.182Z" transform="translate(-2114.918 -562.084)" fill="#fecb2f" fill-rule="evenodd"/>
            </g>
            <g id="Grupo_900101" data-name="Grupo 900101" transform="translate(2.261 61.984)">
              <path id="Trazado_628011" data-name="Trazado 628011" d="M2126.133,861.161c.062-.434.391-.62.735-.413l75.46,43.269a1.246,1.246,0,0,1,.511,1.161l-.2,1.317c-.062.434-.391.62-.735.413l-75.46-43.269a1.245,1.245,0,0,1-.511-1.161Z" transform="translate(-2125.922 -860.663)" fill="#ef3c79" fill-rule="evenodd"/>
              <path id="Trazado_628012" data-name="Trazado 628012" d="M2126.339,861.429c.06-.419.377-.6.709-.4l30.438,17.448a1.2,1.2,0,0,1,.493,1.12l-.193,1.271c-.06.419-.377.6-.709.4l-30.438-17.448a1.2,1.2,0,0,1-.493-1.12Z" transform="translate(-2126.092 -860.891)" fill="#ef3c79" fill-rule="evenodd"/>
            </g>
            <g id="Grupo_900102" data-name="Grupo 900102" transform="translate(29.484 35.448)">
              <path id="Trazado_628013" data-name="Trazado 628013" d="M2261.295,732.883c.169-1.19,1.074-1.718,2.02-1.177l20.946,11.981a3.31,3.31,0,0,1,1.406,3.137l-2.826,19.93c-.169,1.19-1.075,1.718-2.021,1.177l-20.946-11.981a3.308,3.308,0,0,1-1.406-3.137Z" transform="translate(-2258.441 -731.493)" fill="#ef3c79" fill-rule="evenodd"/>
              <path id="Trazado_628014" data-name="Trazado 628014" d="M2300.162,777.322c-3.626-2.075-7.088-.054-7.738,4.508s1.759,9.944,5.385,12.018,7.088.053,7.738-4.512S2303.785,779.394,2300.162,777.322Z" transform="translate(-2285.358 -767.26)" fill="#0b5999" fill-rule="evenodd"/>
              <path id="Trazado_628015" data-name="Trazado 628015" d="M2309.743,791.258l-1.145,8.256,7,.19Z" transform="translate(-2298.294 -778.981)" fill="#fff" fill-rule="evenodd"/>
            </g>
          </g>
          <g id="Grupo_900104" data-name="Grupo 900104" transform="translate(142.208 17.719)">
            <path id="Trazado_628016" data-name="Trazado 628016" d="M1893.428,583.348c-.594.993-.281,3.143-.475,4.166a16.67,16.67,0,0,1-.91,2.988c-.125.264-4.07,3.768-4.3,3.592-.52-.4-.858-3.168-.176-3.973a5.634,5.634,0,0,0,1.376-2.249c.118-.671.079-2.847.364-3.184.647-.765,1.324-1.007,1.613-1.962Z" transform="translate(-1887.186 -548.417)" fill-rule="evenodd" fill="url(#linear-gradient-9)"/>
            <path id="Trazado_628017" data-name="Trazado 628017" d="M1914.166,437.26a5.916,5.916,0,0,0,.149-.693,73.14,73.14,0,0,0,1.937-15.731c-.1-3.216-1.668-5.939-5.441-4.891a3.43,3.43,0,0,0-2.673,2.731,61.472,61.472,0,0,0,.24,7.966c.138,2.479.126,6.95.221,8.762-.016.055-.032.111-.047.169a98.048,98.048,0,0,0-4.61,12.808,4.9,4.9,0,0,0-.01,1.178,2.193,2.193,0,0,1-.305.947,5.737,5.737,0,0,0,2.587,1.333,6.951,6.951,0,0,1,.529-.932c.163-.25.919-.486,1.213-.839,1.563-1.873,5.689-10.438,6.194-12.716C1914.155,437.321,1914.161,437.291,1914.166,437.26Z" transform="translate(-1900.248 -415.717)" fill="#ef3c79" fill-rule="evenodd"/>
          </g>
          <g id="Grupo_900117" data-name="Grupo 900117" transform="translate(92.605 96.397)">
            <path id="Trazado_628018" data-name="Trazado 628018" d="M1648.971,1502.552l34.256-19.51c3.735-1.706,9.08-3.065,12.884-1.084,3.466,1.8,9.177,5.5,11.7,6.937,1.918,1.094,8.576,5.083,4.429,7.338-12.2,6.634-24.272,14.094-36.659,20.832-2.343,1.275-5.77,1.735-9.367,1.437a24.809,24.809,0,0,1-10.146-3.022q-3.088-1.8-6.075-3.536c-2.687-1.565-4.112-3.415-4.253-5.125C1645.605,1505.147,1646.679,1503.6,1648.971,1502.552Z" transform="translate(-1645.732 -1340.817)" fill="#955cf1" fill-rule="evenodd" opacity="0.3"/>
            <g id="Grupo_900116" data-name="Grupo 900116" transform="translate(12.836)">
              <g id="Grupo_900109" data-name="Grupo 900109" transform="translate(0 83.845)">
                <g id="Grupo_900105" data-name="Grupo 900105" transform="translate(0 71.538)">
                  <path id="Trazado_628019" data-name="Trazado 628019" d="M1711.515,1575.672c.67-.015,2.931-2.14,5.072-1.067,2.571,1.288,7.454.147,9.918.739.439.105,1.3-.217,1.466.083.531.944,1.045,2.356-.261,3.28a22.36,22.36,0,0,1-4.366,2.058,36.853,36.853,0,0,1-5.524,1.563c-1.819.285-2.649.4-3.33.927a4.845,4.845,0,0,1-2.54.611,4.282,4.282,0,0,1-3.238-2.261,9.661,9.661,0,0,1,.025-3.585,18.077,18.077,0,0,1,1.145-3.13Z" transform="translate(-1708.488 -1570.354)" fill="#fff" fill-rule="evenodd"/>
                  <path id="Trazado_628020" data-name="Trazado 628020" d="M1722,1555.829c-.814,1.953-.564,4.975-2.491,6.024a2.867,2.867,0,0,1-4.186-1.3c-.49-1.117.161-3.025.017-5.477Z" transform="translate(-1713.716 -1555.081)" fill="#ffa495" fill-rule="evenodd"/>
                  <path id="Trazado_628021" data-name="Trazado 628021" d="M1717.036,1567c1.477.429,5.556.143,8.134.351,1.108.09,2.1.082,2.62,1.088.477.925.227,1.719-.852,2.482a18.274,18.274,0,0,1-3.94,1.933,36.953,36.953,0,0,1-5.524,1.564c-1.819.284-2.649.4-3.33.927a4.848,4.848,0,0,1-2.54.611,4.473,4.473,0,0,1-3.239-2.4,8.907,8.907,0,0,1,.025-3.443,6.464,6.464,0,0,1,.189-.729c.2-1.94.844-2.725,1.448-2.393a3.732,3.732,0,0,1,1.454,1.945,1.9,1.9,0,0,0,1.124,1.072,2.219,2.219,0,0,0,2.476-1.088,6.983,6.983,0,0,0,.678-1.966q0-.1,0-.2c.194-1.7,1.019-1.549.894-1.191A1.46,1.46,0,0,0,1717.036,1567Z" transform="translate(-1708.214 -1563.229)" fill="#193161" fill-rule="evenodd"/>
                  <path id="Trazado_628022" data-name="Trazado 628022" d="M1800.989,1578.172c-.02.656.985.718.695,1.87.483-.473-.191-1.833-.49-2.039C1801.072,1577.917,1800.968,1577.882,1800.989,1578.172Z" transform="translate(-1781.927 -1573.245)" fill="#fff" fill-rule="evenodd"/>
                </g>
                <g id="Grupo_900106" data-name="Grupo 900106" transform="translate(16.662 63.589)">
                  <path id="Trazado_628023" data-name="Trazado 628023" d="M1797.162,1525.22c.624-.245,2.017-3.018,4.4-2.747a12.105,12.105,0,0,0,4.07-.586c2.5-.71,5.978-2.943,6.572-2.578,1.294.8,1.4,2.248.489,3.564a18.281,18.281,0,0,1-3.034,3.171,32.032,32.032,0,0,1-4.282,3.257c-1.374.762-1.83.694-2.808,2.016a4.588,4.588,0,0,1-2.174,1.376,5.17,5.17,0,0,1-4.248-1.6c-.475-1.536-1.3-2.99-.771-5.3Z" transform="translate(-1793.993 -1518.677)" fill="#fff" fill-rule="evenodd"/>
                  <path id="Trazado_628024" data-name="Trazado 628024" d="M1795.789,1516.386c-.038,2.115,1.305,4.833-.1,6.518a2.867,2.867,0,0,1-4.369.335c-.867-.859-.963-2.872-2-5.1Z" transform="translate(-1789.319 -1516.386)" fill="#ffa495" fill-rule="evenodd"/>
                  <path id="Trazado_628025" data-name="Trazado 628025" d="M1803.83,1520.3q.213-.056.427-.117c2.5-.71,5.835-2.431,6.429-2.066,1.294.8,1.54,1.736.632,3.053a18.257,18.257,0,0,1-3.034,3.17A32.053,32.053,0,0,1,1804,1527.6c-1.374.762-1.83.694-2.807,2.016a4.6,4.6,0,0,1-2.175,1.376,5.308,5.308,0,0,1-4.311-1.6,12.745,12.745,0,0,1-.876-3.669c-.208-1.881-.079-2.839.74-2.815a4.539,4.539,0,0,1,2.779,1.239c1.354.845,2.261-.246,2.483-1.6a7.883,7.883,0,0,0-.124-1.784c-.021-.063-.045-.125-.07-.185-.443-1.649.378-1.814.393-1.436a1.414,1.414,0,0,0,1.256,1.44A11.05,11.05,0,0,0,1803.83,1520.3Z" transform="translate(-1792.836 -1517.724)" fill="#193161" fill-rule="evenodd"/>
                  <path id="Trazado_628026" data-name="Trazado 628026" d="M1875.205,1518.375c.265.6,1.2.223,1.432,1.388.232-.636-.962-1.572-1.32-1.629C1875.171,1518.109,1875.062,1518.123,1875.205,1518.375Z" transform="translate(-1857.508 -1517.768)" fill="#fff" fill-rule="evenodd"/>
                </g>
                <g id="Grupo_900107" data-name="Grupo 900107" transform="translate(6.98)">
                  <path id="Trazado_628027" data-name="Trazado 628027" d="M1756.9,1213.3c.547,6.13,3.619,25.706,2.764,31.08-1.285,8.081-.918,17.845-.9,26.422-.217,3.6-5.172,5.487-6.615,3.2-1.158-7.665-2.806-14.38-3.476-18.639-.75-4.769-.5-10.564.708-13.7a163.022,163.022,0,0,0-4.781-18.379c-.7-2.209-4.692-9.346-.564-16.44Z" transform="translate(-1742.193 -1206.847)" fill-rule="evenodd" fill="url(#linear-gradient-10)"/>
                  <path id="Trazado_628028" data-name="Trazado 628028" d="M1796.2,1506.988c0,.636-.019,1.605-.018,2.229-.217,3.6-5.234,5.559-6.677,3.269-.085-.565-.209-1.125-.3-1.679C1791.15,1512.9,1794.951,1510.182,1796.2,1506.988Z" transform="translate(-1779.551 -1445.33)" fill-rule="evenodd" fill="url(#linear-gradient-11)"/>
                  <path id="Trazado_628029" data-name="Trazado 628029" d="M1779,1272.077c-1.616,8.1-6.186,18.931-8.681,27.079-1.3-6.982-4.548-18.872-1.738-26.15-.282-1.95-1.162-5.655-2.226-9.614,2.162-4.1.1-7.372,1.117-13.146,5.725-1-2.916-7.986,9.2-.626C1777.755,1258.319,1778.773,1263.788,1779,1272.077Z" transform="translate(-1761.391 -1238.188)" fill="#1e2353" fill-rule="evenodd" opacity="0.3" style="mix-blend-mode: multiply;isolation: isolate"/>
                </g>
                <g id="Grupo_900108" data-name="Grupo 900108" transform="translate(0.894 3.715)">
                  <path id="Trazado_628030" data-name="Trazado 628030" d="M1733.434,1262.794c-3.3,7.477-9.4,22.144-12.638,31.321-1.677,2.437-7.656,2.183-7.644-.09,1.32-7.672,2.872-19.505,5.625-26.234a60.382,60.382,0,0,1,5.074-8.485c.872-3.386,1.964-12.532,2.807-17.481-.756-4.095-4.059-10.942,2.287-16.893,2.561,1.821,10.477,2.96,14.067.932C1743.592,1242.04,1739.621,1248.786,1733.434,1262.794Z" transform="translate(-1713.031 -1224.932)" fill-rule="evenodd" fill="url(#linear-gradient-12)"/>
                  <path id="Trazado_628031" data-name="Trazado 628031" d="M1721,1553.911c-.145.4-.432,1.211-.567,1.595-1.726,2.509-7.881,2.248-7.869-.093q.1-.569.2-1.166C1714.23,1555.743,1718.668,1555.763,1721,1553.911Z" transform="translate(-1712.565 -1486.328)" fill-rule="evenodd" fill="url(#linear-gradient-13)"/>
                </g>
              </g>
              <g id="Grupo_900111" data-name="Grupo 900111" transform="translate(6.328)">
                <g id="Grupo_900110" data-name="Grupo 900110" transform="translate(25.286)">
                  <path id="Trazado_628032" data-name="Trazado 628032" d="M1872.037,799.367c-.235.5-.46,1-.705,1.487l-1.01,2.021c-.216-.99-1.006-1.37-1.614-.87a1.735,1.735,0,0,0-.492.661c-.1-.27-.862-.879-1.9.591a1.136,1.136,0,0,0-1.258.725,8.227,8.227,0,0,0-.433,1.059,4.248,4.248,0,0,0-.3,1.435c.006.974.049,2.031.021,3.195-.03,1.263-1.463,2.863-2.241,3.784l4.69,1.487a25.988,25.988,0,0,1,1.826-2.283c.736-.745,1.666-.834,2.368-1.41a9.02,9.02,0,0,0,1.286-1.694c.553-.783.855-1.629,1.382-2.486a2.3,2.3,0,0,0,.535-1.686,17.992,17.992,0,0,1,.352-1.992c-.963-.48-1.723.709-1.716,1.868a2.875,2.875,0,0,0-1.039,1.41c-.766-1-.31-1.42,0-2.707a12.974,12.974,0,0,0,1.1-2.581c.149-.4.3-.807.46-1.25a1.243,1.243,0,0,0-.279-1.374C1872.893,798.638,1872.428,798.691,1872.037,799.367Z" transform="translate(-1862.105 -798.706)" fill-rule="evenodd" fill="url(#linear-gradient-14)"/>
                  <path id="Trazado_628033" data-name="Trazado 628033" d="M1887.006,817.008c-.685.1-1.168,1.043-1.163,1.969a2.807,2.807,0,0,0-1.012,1.34,6.36,6.36,0,0,1,1.232-1.227,2.936,2.936,0,0,1,.943-2.082Zm-3.583-.588-.087.174a1.778,1.778,0,0,0-.255-.621,2.507,2.507,0,0,1-.668,1.487,1.674,1.674,0,0,0,1.01-1.04Zm-2.2-.051a.579.579,0,0,0-.248-.252,3.982,3.982,0,0,1-.527,1.344,2.248,2.248,0,0,0,.775-1.091Zm-1.869.576-.022.03a1.639,1.639,0,0,0-.3-.007,3.054,3.054,0,0,1-.548,1.5A2.43,2.43,0,0,0,1879.355,816.945Z" transform="translate(-1875.121 -812.426)" fill="#ff8978" fill-rule="evenodd"/>
                </g>
                <path id="Trazado_628034" data-name="Trazado 628034" d="M1756.526,871.967c2.36-4.112,4.208-9.264,7.506-13.44.275-.348.921-.615,1.158-.981q.517-.8,1.028-1.567a7.315,7.315,0,0,1,4.747,2.14q-.278.826-.546,1.644c-.209.635.192,1.994.011,2.629a105.838,105.838,0,0,1-5.782,15.753c-3.271,4.219-17.806,31.3-25.4,21.475a12.24,12.24,0,0,1,2-9.233,25.1,25.1,0,0,1,3.449-3.964C1747.083,883.944,1752.939,875.667,1756.526,871.967Z" transform="translate(-1739.017 -844.213)" fill="#0d5188" fill-rule="evenodd"/>
              </g>
              <path id="Trazado_628035" data-name="Trazado 628035" d="M1740.178,1046.81c.532,4.8-.911,9.512.558,13.891.066.452.107,2.227.185,2.71.967,5.672,12.964,11.412,22.97,5.969.055-.7-.009-1.438.046-2.741-.185-1.216.34-2.521.337-3.262-.014-3.087-.975-4.665-.514-8.1.938-6.988,4.809-13.7,2.667-19.2a5.844,5.844,0,0,0-2.177-2.485c-2.365-1.9-14.595-8.127-18.3-8.567C1735.183,1023.629,1739.6,1041.607,1740.178,1046.81Z" transform="translate(-1732.512 -978.47)" fill="#0b5999" fill-rule="evenodd"/>
              <path id="Trazado_628036" data-name="Trazado 628036" d="M1840.656,1082c1.388-5.135,3.2-9.982,1.583-14.135a5.847,5.847,0,0,0-2.177-2.485c-2.365-1.9-2.051,3.208-5.758,2.769C1833.59,1074.974,1836.965,1081.184,1840.656,1082Z" transform="translate(-1808.324 -1010.258)" fill="#6266d7" fill-rule="evenodd" opacity="0.35" style="mix-blend-mode: multiply;isolation: isolate"/>
              <g id="Grupo_900114" data-name="Grupo 900114" transform="translate(8.642 26.117)">
                <path id="Trazado_628037" data-name="Trazado 628037" d="M1767.784,954.727a26.372,26.372,0,0,0,.272,5.889c-3.505-.114-8.377-1.031-8.909-3.641.025-.313.047-.63.063-.942a1.261,1.261,0,0,0-.143-.112c-1.257-.836-3.336-1.456-4.673-2.984-2.136-2.442-3.271-5.724-1.595-9.026,3.061-6.031,10.465-6.133,14.59-1.257.805.952.215,1.938.673,2.858.09.18.419.26.8.575a13.732,13.732,0,0,1,2.026,6.174c-.016.792-1.837,1.909-2.645,2.347A2.138,2.138,0,0,1,1767.784,954.727Z" transform="translate(-1751.642 -936.436)" fill="#ffa698" fill-rule="evenodd"/>
                <path id="Trazado_628038" data-name="Trazado 628038" d="M1791.6,1004.672a26.387,26.387,0,0,0,.272,5.889c-3.505-.114-8.376-1.031-8.908-3.641.025-.313.047-.63.063-.942-.048-.042-.1-.073-.143-.112-2.664-2.494.9-5.352,5.4-2.889A3.491,3.491,0,0,0,1791.6,1004.672Z" transform="translate(-1775.462 -986.381)" fill-rule="evenodd" fill="url(#linear-gradient-15)"/>
                <path id="Trazado_628039" data-name="Trazado 628039" d="M1821.142,958.162c-.016.346-1.45.868-2.051.949.409-3.725-3.137-4.295-2.6-7.932.321-2.186-1.927-2.977-1.045-4.577a10.214,10.214,0,0,1,2.2,1.952c.805.952.215,1.938.674,2.858.089.18.419.26.8.575A13.137,13.137,0,0,1,1821.142,958.162Z" transform="translate(-1801.893 -942.336)" fill-rule="evenodd" fill="url(#linear-gradient-16)"/>
                <g id="Grupo_900112" data-name="Grupo 900112" transform="translate(13.23 13.449)">
                  <path id="Trazado_628040" data-name="Trazado 628040" d="M1815.871,992.167c-.069-.834-.407-.994-.686-.772a2.236,2.236,0,0,0-.485,1.823c.136,1.384,1.419,2.624,2.3,1.5-.967.513-1.423-.727-1.464-1.6C1815.511,992.527,1815.661,992.028,1815.871,992.167Z" transform="translate(-1814.683 -991.304)" fill="#ffb49c" fill-rule="evenodd"/>
                  <path id="Trazado_628041" data-name="Trazado 628041" d="M1818.9,998.1c.515.39.752.653.744.871-.005.152-.133.381-.585.221A1.968,1.968,0,0,1,1818.9,998.1Z" transform="translate(-1818.02 -996.702)" fill="#ff9d8e" fill-rule="evenodd"/>
                </g>
                <path id="Trazado_628042" data-name="Trazado 628042" d="M1779.49,1025.366c-1.037.32-2.006,1.386-1.817,2.071,1.032,4.22,8.767,5.162,13.577,4.146.058-.012-1.8-2.47-2.721-2.769C1785.5,1029.11,1780.424,1027.858,1779.49,1025.366Z" transform="translate(-1772.027 -1004.92)" fill="#0b5999" fill-rule="evenodd"/>
                <g id="Grupo_900113" data-name="Grupo 900113">
                  <path id="Trazado_628043" data-name="Trazado 628043" d="M1757.372,946.022c-1.282-1.368-3.452-2.022-4.845-3.614-1.373-1.57-2.877-3.98-1.959-6.455-1.617-5.086,3.91-9.119,8.565-10.036a3.616,3.616,0,0,1,3.875,5.333,4.877,4.877,0,0,1,1.12,3.718,3.4,3.4,0,0,0,.236,2.723c.367.858,1.281,2.933-.374,1.619-1.069-.849-1.817,1.027-1.455,2.324a5.926,5.926,0,0,1,.232,2.507C1762.457,946.862,1758.086,946.783,1757.372,946.022Z" transform="translate(-1750.281 -925.837)" fill="#12263f" fill-rule="evenodd"/>
                  <path id="Trazado_628044" data-name="Trazado 628044" d="M1758.71,934.942c-1.1-4.926,5.373-7.42,7.907-7.478,2.563-.059,4.572,4.159,1.533,5.58C1766.077,934.012,1761.972,932.118,1758.71,934.942Z" transform="translate(-1756.879 -927.129)" fill="#12263f" fill-rule="evenodd"/>
                </g>
              </g>
              <g id="Grupo_900115" data-name="Grupo 900115" transform="translate(25.956 36.413)">
                <path id="Trazado_628045" data-name="Trazado 628045" d="M1997.12,980.447a3.34,3.34,0,0,0-.209,1,7.973,7.973,0,0,0-.482,1.511,14.067,14.067,0,0,0-.122,2.487,5.471,5.471,0,0,0,.216,1.529,14.069,14.069,0,0,1-2.514,2.968l2.961,2.258c1.249-.824,2.225-1.689,3.3-2.405a3.632,3.632,0,0,0,1.441-.813c.686-.715,2.705-2.839,2.821-3.674a19.055,19.055,0,0,0-.328-4.247c-.535-3-1.678-6.153-1.874-4.762-.286.333-.052,3.045-.233,3.447-.7.807-1.036,1.139-1.913,2.1a10.032,10.032,0,0,1-1.166.7c-.3.082-.47-.129-.48-.4a12.761,12.761,0,0,1,.335-1.6c0-1.286-.319-2.014-1.007-1.947a.679.679,0,0,0-.645.6C1997.151,979.506,1997.169,979.922,1997.12,980.447Z" transform="translate(-1961.254 -975.955)" fill-rule="evenodd" fill="url(#linear-gradient-17)"/>
                <path id="Trazado_628046" data-name="Trazado 628046" d="M1840.586,1036.306c4.077.629,11.942,5.113,17.37,7.545,3.027-4.314,7-9.484,9.449-11.224a8.185,8.185,0,0,0,1.219-.875q.533-.654,1.037-1.344c1.531.213,3.749,2.125,3.72,3.027-.247.451-.5.923-.753,1.41a9.237,9.237,0,0,0-.214,1.438c-.831,3.02-5.414,10-7.55,13.11-1.234,1.8-1.668,2.854-2.5,3.391-1.341.862-3.141.391-6.609-.481-2.918-.733-12.339-2.447-16.674-4.735-3.056-1.613-5.4-4.519-4.188-7.863A5.266,5.266,0,0,1,1840.586,1036.306Z" transform="translate(-1834.564 -1019.222)" fill="#0d5188" fill-rule="evenodd"/>
              </g>
            </g>
          </g>
        </g>
        <g id="Grupo_900120" data-name="Grupo 900120" transform="translate(1066.676 339.807)">
          <path id="Trazado_628047" data-name="Trazado 628047" d="M2360.873,415.542c-2.662-1.476-5.487.515-5.458,4.367a7.709,7.709,0,0,0,2.193,5.334,5.22,5.22,0,0,0,1.079.808c2.657,1.473,5.469-.517,5.448-4.351a7.691,7.691,0,0,0-2.175-5.342,5.276,5.276,0,0,0-1.088-.816Zm-2.565,12.318a7.027,7.027,0,0,1-1.448-1.083,10.387,10.387,0,0,1-2.951-7.174c-.032-5.167,3.758-7.853,7.337-5.869a7.015,7.015,0,0,1,1.469,1.1,10.315,10.315,0,0,1,2.929,7.171c.022,5.153-3.762,7.833-7.336,5.852Zm12.19-4.39a1.955,1.955,0,0,1,.825,2.033l-.65,3.027a.957.957,0,0,1-1.43.772l-.319-.177a.894.894,0,0,0-1.261.348,9.54,9.54,0,0,1-.579.86,1.786,1.786,0,0,0-.13,1.714l.167.41a1.587,1.587,0,0,1-.425,1.973l-2.191,1.184a.9.9,0,0,1-.888-.032,1.7,1.7,0,0,1-.711-.855l-.169-.4a1.678,1.678,0,0,0-.7-.845,1.025,1.025,0,0,0-.526-.135c-.31,0-.625-.011-.937-.039a1,1,0,0,0-1.046.9l-.084.395a.958.958,0,0,1-1.43.773l-2.443-1.355a1.953,1.953,0,0,1-.829-2.024l.085-.394a2.061,2.061,0,0,0-.477-1.743c-.263-.29-.509-.589-.752-.9a1.524,1.524,0,0,0-.466-.416.9.9,0,0,0-.879-.033l-.287.148a.907.907,0,0,1-.889-.031,1.7,1.7,0,0,1-.711-.855l-1.27-3.1a1.588,1.588,0,0,1,.424-1.972l.29-.157a1.411,1.411,0,0,0,.558-1.476c-.059-.416-.1-.833-.126-1.251a1.892,1.892,0,0,0-.858-1.522l-.319-.177a1.952,1.952,0,0,1-.829-2.023l.652-3.027c.168-.781.808-1.127,1.431-.781l.319.176a.891.891,0,0,0,1.26-.347,9.153,9.153,0,0,1,.58-.859,1.774,1.774,0,0,0,.126-1.706l-.168-.41a1.6,1.6,0,0,1,.427-1.981l2.192-1.185a.907.907,0,0,1,.888.032,1.7,1.7,0,0,1,.712.855l.167.41a1.675,1.675,0,0,0,.7.845,1.016,1.016,0,0,0,.526.136,7.69,7.69,0,0,1,.938.031.989.989,0,0,0,1.044-.89l.085-.4c.167-.78.808-1.126,1.431-.78l2.444,1.355a1.953,1.953,0,0,1,.825,2.032l-.085.395a2.037,2.037,0,0,0,.473,1.731q.394.435.757.909a1.517,1.517,0,0,0,.466.415.9.9,0,0,0,.879.033l.29-.156a.9.9,0,0,1,.888.032,1.694,1.694,0,0,1,.712.855l1.269,3.1a1.6,1.6,0,0,1-.425,1.981l-.29.156a1.4,1.4,0,0,0-.556,1.468q.086.624.126,1.25a1.889,1.889,0,0,0,.858,1.522Z" transform="translate(-2084.928 -400.515)" fill="#21cbae" fill-rule="evenodd"/>
          <path id="Trazado_628048" data-name="Trazado 628048" d="M1092.531,387.692c-.274,1.876-1.742,2.724-3.293,1.864a5.175,5.175,0,0,1-2.322-4.977c.273-1.862,1.736-2.676,3.315-1.8a5.112,5.112,0,0,1,2.3,4.913Zm-8.512,16.661c.275-1.874,1.737-2.687,3.316-1.813a5.115,5.115,0,0,1,2.3,4.925c-.274,1.874-1.743,2.723-3.294,1.864a5.176,5.176,0,0,1-2.322-4.977Zm-9.689-16.036c-.273,1.864-1.765,2.661-3.315,1.8a5.125,5.125,0,0,1-2.3-4.913c.274-1.876,1.752-2.719,3.293-1.864a5.211,5.211,0,0,1,2.322,4.975Zm16.251-7.926c-2.639-1.464-5.172-.1-5.64,3.094l0,.238-9.2,1.448a7.8,7.8,0,0,0-3.387-4.181c-2.639-1.463-5.135-.064-5.6,3.126a8.76,8.76,0,0,0,3.915,8.391,3.442,3.442,0,0,0,4.016-.115l7.42,10.7-.057.171A8.783,8.783,0,0,0,1086,411.67c2.609,1.447,5.133.076,5.6-3.115a8.822,8.822,0,0,0-3.914-8.4,3.47,3.47,0,0,0-4.739.787l-7.028-10.243a4.184,4.184,0,0,0,.358-1.3,5.687,5.687,0,0,0,.055-1.518l8.748-1.5a8.486,8.486,0,0,0,3.815,5.526c2.609,1.446,5.135.063,5.6-3.127A8.762,8.762,0,0,0,1090.582,380.392Z" transform="translate(-1066.676 -379.805)" fill="#ef3c79" fill-rule="evenodd"/>
          <g id="Grupo_900119" data-name="Grupo 900119" transform="translate(9.831 194.562)">
            <path id="Trazado_628049" data-name="Trazado 628049" d="M1114.529,1349.51l13.692-22.617,6.915,25.113,7.026-8.552,8.753,26.926Z" transform="translate(-1114.529 -1326.893)" fill="#0b5999" fill-rule="evenodd" opacity="0.5"/>
            <path id="Trazado_628050" data-name="Trazado 628050" d="M1223.879,1334.47a5.709,5.709,0,0,1,3.758,4.909c.195,2.245-1.172,3.687-3.053,3.221a5.709,5.709,0,0,1-3.758-4.909C1220.632,1335.447,1222,1334,1223.879,1334.47Z" transform="translate(-1198.975 -1332.844)" fill="#0b5999" fill-rule="evenodd" opacity="0.5"/>
          </g>
        </g>
      </g>
    </g>
  </g>
</svg>
