<svg xmlns="http://www.w3.org/2000/svg" xmlns:xlink="http://www.w3.org/1999/xlink" width="505" height="308" viewBox="0 0 505 308">
  <defs>
    <filter id="Trazado_629077" x="0" y="0" width="505" height="308" filterUnits="userSpaceOnUse">
      <feOffset dy="5" input="SourceAlpha"/>
      <feGaussianBlur stdDeviation="3" result="blur"/>
      <feFlood flood-opacity="0.161"/>
      <feComposite operator="in" in2="blur"/>
      <feComposite in="SourceGraphic"/>
    </filter>
  </defs>
  <g id="Grupo_901590" data-name="Grupo 901590" transform="translate(-819 -1511.289)">
    <g transform="matrix(1, 0, 0, 1, 819, 1511.29)" filter="url(#Trazado_629077)">
      <path id="Trazado_629077-2" data-name="Trazado 629077" d="M10,0H477a10,10,0,0,1,10,10V280a10,10,0,0,1-10,10H10A10,10,0,0,1,0,280V10A10,10,0,0,1,10,0Z" transform="translate(9 4)" fill="#fdfdfd"/>
    </g>
    <g id="Grupo_898148" data-name="Grupo 898148" transform="translate(973.248 1591.958)">
      <g id="Rectángulo_301475" data-name="Rectángulo 301475" transform="translate(0)" fill="#e6cbd4" stroke="#ef3c79" stroke-linecap="round" stroke-width="2">
        <rect width="187.394" height="83.04" rx="17" stroke="none"/>
        <rect x="1" y="1" width="185.394" height="81.04" rx="16" fill="none"/>
      </g>
    </g>
    <g id="Grupo_898156" data-name="Grupo 898156" transform="translate(973.248 1678.042)">
      <g id="Rectángulo_301475-2" data-name="Rectángulo 301475" transform="translate(0)" fill="#e6cbd4" stroke="#ef3c79" stroke-linecap="round" stroke-width="2">
        <rect width="187.394" height="83.04" rx="17" stroke="none"/>
        <rect x="1" y="1" width="185.394" height="81.04" rx="16" fill="none"/>
      </g>
    </g>
    <g id="Grupo_898150" data-name="Grupo 898150" transform="translate(914 1533.059)">
      <g id="Grupo_894944" data-name="Grupo 894944">
        <g id="Rectángulo_301475-3" data-name="Rectángulo 301475" fill="#c3cfd9" stroke="#0b5999" stroke-linecap="round" stroke-width="2">
          <rect width="315" height="23.394" rx="4" stroke="none"/>
          <rect x="1" y="1" width="313" height="21.394" rx="3" fill="none"/>
        </g>
      </g>
      <text id="_header_" data-name="&lt;header&gt;" transform="translate(9.693 4.01)" fill="#12263f" font-size="16" font-family="Roboto-Regular, Roboto"><tspan x="0" y="17">&lt;header&gt;</tspan></text>
    </g>
    <g id="Grupo_898158" data-name="Grupo 898158" transform="translate(914 1764.127)">
      <g id="Grupo_894944-2" data-name="Grupo 894944">
        <g id="Rectángulo_301475-4" data-name="Rectángulo 301475" fill="#c3cfd9" stroke="#0b5999" stroke-linecap="round" stroke-width="2">
          <rect width="315" height="23.394" rx="4" stroke="none"/>
          <rect x="1" y="1" width="313" height="21.394" rx="3" fill="none"/>
        </g>
      </g>
      <text id="_footer_" data-name="&lt;footer&gt;" transform="translate(9.693 4.01)" fill="#12263f" font-size="16" font-family="Roboto-Regular, Roboto"><tspan x="0" y="17">&lt;footer&gt;</tspan></text>
    </g>
    <g id="Grupo_898151" data-name="Grupo 898151" transform="translate(914 1562.509)">
      <g id="Grupo_898149" data-name="Grupo 898149" transform="translate(0)">
        <g id="Rectángulo_301475-5" data-name="Rectángulo 301475" fill="#c3cfd9" stroke="#0b5999" stroke-linecap="round" stroke-width="2">
          <rect width="315" height="23.394" rx="4" stroke="none"/>
          <rect x="1" y="1" width="313" height="21.394" rx="3" fill="none"/>
        </g>
      </g>
      <text id="_nav_" data-name="&lt;nav&gt;" transform="translate(9.693 4.01)" fill="#12263f" font-size="16" font-family="Roboto-Regular, Roboto"><tspan x="0" y="17">&lt;nav&gt;</tspan></text>
    </g>
    <path id="Trazado_629073" data-name="Trazado 629073" d="M2.063,11.969l4.891,1.977v1.531L.563,12.516V11.375L6.953,8.422V9.953Zm12.086,2.789a1.064,1.064,0,0,0-.441-.91,4.249,4.249,0,0,0-1.539-.559,7.277,7.277,0,0,1-1.742-.562,2.479,2.479,0,0,1-.953-.781,1.869,1.869,0,0,1-.309-1.078,2.193,2.193,0,0,1,.879-1.758,3.432,3.432,0,0,1,2.246-.719,3.532,3.532,0,0,1,2.332.742,2.357,2.357,0,0,1,.895,1.9H14.063a1.3,1.3,0,0,0-.5-1.023,1.888,1.888,0,0,0-1.27-.43,1.976,1.976,0,0,0-1.234.344,1.082,1.082,0,0,0-.445.9.877.877,0,0,0,.414.789,5.1,5.1,0,0,0,1.5.508,7.8,7.8,0,0,1,1.754.578,2.558,2.558,0,0,1,1,.809,1.988,1.988,0,0,1,.324,1.152,2.163,2.163,0,0,1-.906,1.816,3.8,3.8,0,0,1-2.352.684,4.257,4.257,0,0,1-1.8-.359,2.922,2.922,0,0,1-1.223-1A2.42,2.42,0,0,1,8.875,14.4H10.32a1.5,1.5,0,0,0,.582,1.152,2.258,2.258,0,0,0,1.434.426,2.331,2.331,0,0,0,1.316-.332A1.02,1.02,0,0,0,14.148,14.758Zm6.836,2.4a3.693,3.693,0,0,1-2.8-1.129,4.19,4.19,0,0,1-1.078-3.02v-.266a5.073,5.073,0,0,1,.48-2.246,3.748,3.748,0,0,1,1.344-1.547A3.378,3.378,0,0,1,20.8,8.391a3.166,3.166,0,0,1,2.563,1.086,4.7,4.7,0,0,1,.914,3.109v.6H18.555a3,3,0,0,0,.73,2.02,2.3,2.3,0,0,0,1.777.77,2.517,2.517,0,0,0,1.3-.312,3.259,3.259,0,0,0,.93-.828l.883.688A3.55,3.55,0,0,1,20.984,17.156ZM20.8,9.578a1.928,1.928,0,0,0-1.469.637A3.1,3.1,0,0,0,18.6,12h4.234v-.109a2.753,2.753,0,0,0-.594-1.707A1.815,1.815,0,0,0,20.8,9.578Zm8.539,6.4a2.082,2.082,0,0,0,1.352-.469,1.649,1.649,0,0,0,.641-1.172H32.7a2.621,2.621,0,0,1-.5,1.383,3.293,3.293,0,0,1-1.23,1.047,3.55,3.55,0,0,1-1.629.391A3.482,3.482,0,0,1,26.6,16a4.59,4.59,0,0,1-1.02-3.152v-.242a5.089,5.089,0,0,1,.453-2.2,3.451,3.451,0,0,1,1.3-1.492,3.7,3.7,0,0,1,2-.531,3.39,3.39,0,0,1,2.363.852,3.043,3.043,0,0,1,1,2.211H31.336a1.992,1.992,0,0,0-.621-1.348,1.932,1.932,0,0,0-1.379-.527,2.023,2.023,0,0,0-1.707.793,3.724,3.724,0,0,0-.605,2.293v.273a3.65,3.65,0,0,0,.6,2.25A2.033,2.033,0,0,0,29.344,15.977ZM36.289,6.5V8.547h1.578V9.664H36.289v5.249a1.173,1.173,0,0,0,.211.763.888.888,0,0,0,.719.254,3.5,3.5,0,0,0,.688-.094V17a4.215,4.215,0,0,1-1.109.155,1.8,1.8,0,0,1-1.461-.586,2.517,2.517,0,0,1-.492-1.664V9.664H33.3V8.547h1.539V6.5ZM41.125,17H39.68V8.547h1.445ZM39.563,6.3a.863.863,0,0,1,.215-.594.807.807,0,0,1,.637-.242.819.819,0,0,1,.641.242.854.854,0,0,1,.219.594.826.826,0,0,1-.219.586.834.834,0,0,1-.641.234.821.821,0,0,1-.637-.234A.834.834,0,0,1,39.563,6.3ZM43.055,12.7a4.993,4.993,0,0,1,.488-2.234A3.643,3.643,0,0,1,44.9,8.93a3.7,3.7,0,0,1,1.988-.539,3.565,3.565,0,0,1,2.793,1.2,4.6,4.6,0,0,1,1.066,3.18v.1a5.036,5.036,0,0,1-.473,2.215,3.589,3.589,0,0,1-1.352,1.527,3.743,3.743,0,0,1-2.02.547,3.556,3.556,0,0,1-2.785-1.2A4.575,4.575,0,0,1,43.055,12.8Zm1.453.172a3.616,3.616,0,0,0,.652,2.258,2.211,2.211,0,0,0,3.5-.012A3.955,3.955,0,0,0,49.3,12.7a3.61,3.61,0,0,0-.66-2.254,2.1,2.1,0,0,0-1.754-.863,2.075,2.075,0,0,0-1.727.852A3.925,3.925,0,0,0,44.508,12.867Zm9.422-4.32.047,1.063a3.08,3.08,0,0,1,2.531-1.219q2.68,0,2.7,3.023V17H57.766V11.406a1.946,1.946,0,0,0-.418-1.352,1.675,1.675,0,0,0-1.277-.437,2.086,2.086,0,0,0-1.234.375,2.546,2.546,0,0,0-.828.984V17H52.563V8.547Zm12.578,3.375L61.344,9.9V8.414l6.672,2.953v1.141l-6.672,2.961v-1.5Z" transform="translate(986.133 1597.244)" fill="#12263f"/>
    <path id="Trazado_629074" data-name="Trazado 629074" d="M2.063,11.969l4.891,1.977v1.531L.563,12.516V11.375L6.953,8.422V9.953Zm12.086,2.789a1.064,1.064,0,0,0-.441-.91,4.249,4.249,0,0,0-1.539-.559,7.277,7.277,0,0,1-1.742-.562,2.479,2.479,0,0,1-.953-.781,1.869,1.869,0,0,1-.309-1.078,2.193,2.193,0,0,1,.879-1.758,3.432,3.432,0,0,1,2.246-.719,3.532,3.532,0,0,1,2.332.742,2.357,2.357,0,0,1,.895,1.9H14.063a1.3,1.3,0,0,0-.5-1.023,1.888,1.888,0,0,0-1.27-.43,1.976,1.976,0,0,0-1.234.344,1.082,1.082,0,0,0-.445.9.877.877,0,0,0,.414.789,5.1,5.1,0,0,0,1.5.508,7.8,7.8,0,0,1,1.754.578,2.558,2.558,0,0,1,1,.809,1.988,1.988,0,0,1,.324,1.152,2.163,2.163,0,0,1-.906,1.816,3.8,3.8,0,0,1-2.352.684,4.257,4.257,0,0,1-1.8-.359,2.922,2.922,0,0,1-1.223-1A2.42,2.42,0,0,1,8.875,14.4H10.32a1.5,1.5,0,0,0,.582,1.152,2.258,2.258,0,0,0,1.434.426,2.331,2.331,0,0,0,1.316-.332A1.02,1.02,0,0,0,14.148,14.758Zm6.836,2.4a3.693,3.693,0,0,1-2.8-1.129,4.19,4.19,0,0,1-1.078-3.02v-.266a5.073,5.073,0,0,1,.48-2.246,3.748,3.748,0,0,1,1.344-1.547A3.378,3.378,0,0,1,20.8,8.391a3.166,3.166,0,0,1,2.563,1.086,4.7,4.7,0,0,1,.914,3.109v.6H18.555a3,3,0,0,0,.73,2.02,2.3,2.3,0,0,0,1.777.77,2.517,2.517,0,0,0,1.3-.312,3.259,3.259,0,0,0,.93-.828l.883.688A3.55,3.55,0,0,1,20.984,17.156ZM20.8,9.578a1.928,1.928,0,0,0-1.469.637A3.1,3.1,0,0,0,18.6,12h4.234v-.109a2.753,2.753,0,0,0-.594-1.707A1.815,1.815,0,0,0,20.8,9.578Zm8.539,6.4a2.082,2.082,0,0,0,1.352-.469,1.649,1.649,0,0,0,.641-1.172H32.7a2.621,2.621,0,0,1-.5,1.383,3.293,3.293,0,0,1-1.23,1.047,3.55,3.55,0,0,1-1.629.391A3.482,3.482,0,0,1,26.6,16a4.59,4.59,0,0,1-1.02-3.152v-.242a5.089,5.089,0,0,1,.453-2.2,3.451,3.451,0,0,1,1.3-1.492,3.7,3.7,0,0,1,2-.531,3.39,3.39,0,0,1,2.363.852,3.043,3.043,0,0,1,1,2.211H31.336a1.992,1.992,0,0,0-.621-1.348,1.932,1.932,0,0,0-1.379-.527,2.023,2.023,0,0,0-1.707.793,3.724,3.724,0,0,0-.605,2.293v.273a3.65,3.65,0,0,0,.6,2.25A2.033,2.033,0,0,0,29.344,15.977ZM36.289,6.5V8.547h1.578V9.664H36.289v5.249a1.173,1.173,0,0,0,.211.763.888.888,0,0,0,.719.254,3.5,3.5,0,0,0,.688-.094V17a4.215,4.215,0,0,1-1.109.155,1.8,1.8,0,0,1-1.461-.586,2.517,2.517,0,0,1-.492-1.664V9.664H33.3V8.547h1.539V6.5ZM41.125,17H39.68V8.547h1.445ZM39.563,6.3a.863.863,0,0,1,.215-.594.807.807,0,0,1,.637-.242.819.819,0,0,1,.641.242.854.854,0,0,1,.219.594.826.826,0,0,1-.219.586.834.834,0,0,1-.641.234.821.821,0,0,1-.637-.234A.834.834,0,0,1,39.563,6.3ZM43.055,12.7a4.993,4.993,0,0,1,.488-2.234A3.643,3.643,0,0,1,44.9,8.93a3.7,3.7,0,0,1,1.988-.539,3.565,3.565,0,0,1,2.793,1.2,4.6,4.6,0,0,1,1.066,3.18v.1a5.036,5.036,0,0,1-.473,2.215,3.589,3.589,0,0,1-1.352,1.527,3.743,3.743,0,0,1-2.02.547,3.556,3.556,0,0,1-2.785-1.2A4.575,4.575,0,0,1,43.055,12.8Zm1.453.172a3.616,3.616,0,0,0,.652,2.258,2.211,2.211,0,0,0,3.5-.012A3.955,3.955,0,0,0,49.3,12.7a3.61,3.61,0,0,0-.66-2.254,2.1,2.1,0,0,0-1.754-.863,2.075,2.075,0,0,0-1.727.852A3.925,3.925,0,0,0,44.508,12.867Zm9.422-4.32.047,1.063a3.08,3.08,0,0,1,2.531-1.219q2.68,0,2.7,3.023V17H57.766V11.406a1.946,1.946,0,0,0-.418-1.352,1.675,1.675,0,0,0-1.277-.437,2.086,2.086,0,0,0-1.234.375,2.546,2.546,0,0,0-.828.984V17H52.563V8.547Zm12.578,3.375L61.344,9.9V8.414l6.672,2.953v1.141l-6.672,2.961v-1.5Z" transform="translate(986.133 1683.328)" fill="#12263f"/>
    <g id="Grupo_898155" data-name="Grupo 898155" transform="translate(982.691 1614.277)">
      <g id="Grupo_898153" data-name="Grupo 898153" transform="translate(0 0)">
        <g id="Rectángulo_301475-6" data-name="Rectángulo 301475" fill="#dee4f0" stroke="#ef3c79" stroke-linecap="round" stroke-width="2">
          <rect width="77.43" height="52.964" rx="13" stroke="none"/>
          <rect x="1" y="1" width="75.43" height="50.964" rx="12" fill="none"/>
        </g>
      </g>
      <g id="Grupo_898154" data-name="Grupo 898154" transform="translate(91.078 0)">
        <g id="Rectángulo_301475-7" data-name="Rectángulo 301475" transform="translate(0)" fill="#dee4f0" stroke="#ef3c79" stroke-linecap="round" stroke-width="2">
          <rect width="77.43" height="52.964" rx="13" stroke="none"/>
          <rect x="1" y="1" width="75.43" height="50.964" rx="12" fill="none"/>
        </g>
      </g>
      <text id="_artide_" data-name="&lt;artide&gt;" transform="translate(3.824 2.886)" fill="#12263f" font-size="16" font-family="Roboto-Regular, Roboto"><tspan x="0" y="17">&lt;artide</tspan></text>
      <text id="_aside_" data-name="&lt;aside&gt;" transform="translate(94.902 2.886)" fill="#12263f" font-size="16" font-family="Roboto-Regular, Roboto"><tspan x="0" y="17">&lt;aside&gt;</tspan></text>
    </g>
    <g id="Grupo_898157" data-name="Grupo 898157" transform="translate(982.691 1700.361)">
      <g id="Grupo_898153-2" data-name="Grupo 898153" transform="translate(0 0)">
        <g id="Rectángulo_301475-8" data-name="Rectángulo 301475" fill="#dee4f0" stroke="#ef3c79" stroke-linecap="round" stroke-width="2">
          <rect width="77.43" height="52.964" rx="13" stroke="none"/>
          <rect x="1" y="1" width="75.43" height="50.964" rx="12" fill="none"/>
        </g>
      </g>
      <g id="Grupo_898154-2" data-name="Grupo 898154" transform="translate(91.078 0)">
        <g id="Rectángulo_301475-9" data-name="Rectángulo 301475" transform="translate(0)" fill="#dee4f0" stroke="#ef3c79" stroke-linecap="round" stroke-width="2">
          <rect width="77.43" height="52.964" rx="13" stroke="none"/>
          <rect x="1" y="1" width="75.43" height="50.964" rx="12" fill="none"/>
        </g>
      </g>
      <text id="_artide_2" data-name="&lt;artide&gt;" transform="translate(3.824 2.886)" fill="#12263f" font-size="16" font-family="Roboto-Regular, Roboto"><tspan x="0" y="17">&lt;artide</tspan></text>
      <text id="_aside_2" data-name="&lt;aside&gt;" transform="translate(94.902 2.886)" fill="#12263f" font-size="16" font-family="Roboto-Regular, Roboto"><tspan x="0" y="17">&lt;aside&gt;</tspan></text>
    </g>
    <g id="Grupo_894944-3" data-name="Grupo 894944" transform="translate(914 1591.958)">
      <g id="Rectángulo_301475-10" data-name="Rectángulo 301475" fill="#c7e0dc" stroke="#21cbae" stroke-linecap="round" stroke-width="2">
        <rect width="54.369" height="169.124" rx="14" stroke="none"/>
        <rect x="1" y="1" width="52.369" height="167.124" rx="13" fill="none"/>
      </g>
    </g>
    <g id="Grupo_898152" data-name="Grupo 898152" transform="translate(1166.967 1591.958)">
      <g id="Rectángulo_301475-11" data-name="Rectángulo 301475" fill="#c7e0dc" stroke="#21cbae" stroke-linecap="round" stroke-width="2">
        <rect width="62.033" height="169.124" rx="14" stroke="none"/>
        <rect x="1" y="1" width="60.033" height="167.124" rx="13" fill="none"/>
      </g>
    </g>
    <path id="Trazado_629075" data-name="Trazado 629075" d="M6.18,11.969l4.891,1.977v1.531L4.68,12.516V11.375l6.391-2.953V9.953Zm8.531-3.422.047,1.063a3.08,3.08,0,0,1,2.531-1.219q2.68,0,2.7,3.023V17H18.547V11.406a1.946,1.946,0,0,0-.418-1.352,1.675,1.675,0,0,0-1.277-.437,2.086,2.086,0,0,0-1.234.375,2.546,2.546,0,0,0-.828.984V17H13.344V8.547ZM27.391,17a3.036,3.036,0,0,1-.2-.891,3.225,3.225,0,0,1-2.406,1.047,2.984,2.984,0,0,1-2.051-.707,2.287,2.287,0,0,1-.8-1.793,2.39,2.39,0,0,1,1-2.051,4.733,4.733,0,0,1,2.824-.73h1.406v-.664A1.623,1.623,0,0,0,26.711,10a1.821,1.821,0,0,0-1.336-.449,2.107,2.107,0,0,0-1.3.391,1.151,1.151,0,0,0-.523.945H22.1a2,2,0,0,1,.449-1.223,3.066,3.066,0,0,1,1.219-.934,4.1,4.1,0,0,1,1.691-.344,3.342,3.342,0,0,1,2.289.73,2.635,2.635,0,0,1,.859,2.012v3.891a4.757,4.757,0,0,0,.3,1.852V17Zm-2.4-1.1a2.54,2.54,0,0,0,1.289-.352,2.127,2.127,0,0,0,.883-.914V12.9H26.032q-2.656,0-2.656,1.555a1.316,1.316,0,0,0,.453,1.063A1.742,1.742,0,0,0,24.993,15.9Zm8.555-.859,2.094-6.492h1.477L34.086,17h-1.1L29.922,8.547H31.4Z" transform="translate(920.041 1601.44)" fill="#12263f"/>
    <path id="Trazado_629076" data-name="Trazado 629076" d="M3.832,11.969l4.891,1.977v1.531L2.332,12.516V11.375L8.723,8.422V9.953ZM16.215,17a3.036,3.036,0,0,1-.2-.891,3.225,3.225,0,0,1-2.406,1.047,2.984,2.984,0,0,1-2.051-.707,2.287,2.287,0,0,1-.8-1.793,2.39,2.39,0,0,1,1-2.051,4.733,4.733,0,0,1,2.824-.73h1.406v-.664A1.623,1.623,0,0,0,15.536,10,1.821,1.821,0,0,0,14.2,9.555a2.107,2.107,0,0,0-1.3.391,1.151,1.151,0,0,0-.523.945H10.926a2,2,0,0,1,.449-1.223,3.066,3.066,0,0,1,1.219-.934,4.1,4.1,0,0,1,1.691-.344,3.342,3.342,0,0,1,2.289.73,2.635,2.635,0,0,1,.859,2.012v3.891a4.757,4.757,0,0,0,.3,1.852V17Zm-2.4-1.1a2.54,2.54,0,0,0,1.289-.352,2.127,2.127,0,0,0,.883-.914V12.9H14.856q-2.656,0-2.656,1.555a1.316,1.316,0,0,0,.453,1.063A1.742,1.742,0,0,0,13.817,15.9Zm10.8-1.141a1.064,1.064,0,0,0-.441-.91,4.249,4.249,0,0,0-1.539-.559,7.277,7.277,0,0,1-1.742-.562,2.479,2.479,0,0,1-.953-.781,1.869,1.869,0,0,1-.309-1.078,2.193,2.193,0,0,1,.879-1.758,3.432,3.432,0,0,1,2.246-.719,3.532,3.532,0,0,1,2.332.742,2.357,2.357,0,0,1,.895,1.9H24.536a1.3,1.3,0,0,0-.5-1.023,1.888,1.888,0,0,0-1.27-.43,1.976,1.976,0,0,0-1.234.344,1.082,1.082,0,0,0-.445.9.877.877,0,0,0,.414.789,5.1,5.1,0,0,0,1.5.508,7.8,7.8,0,0,1,1.754.578,2.558,2.558,0,0,1,1,.809,1.988,1.988,0,0,1,.324,1.152,2.163,2.163,0,0,1-.906,1.816,3.8,3.8,0,0,1-2.352.684,4.257,4.257,0,0,1-1.8-.359,2.922,2.922,0,0,1-1.223-1,2.42,2.42,0,0,1-.441-1.395h1.445a1.5,1.5,0,0,0,.582,1.152,2.258,2.258,0,0,0,1.434.426,2.331,2.331,0,0,0,1.316-.332A1.02,1.02,0,0,0,24.621,14.758ZM29.52,17H28.075V8.547H29.52ZM27.957,6.3a.863.863,0,0,1,.215-.594.807.807,0,0,1,.637-.242.819.819,0,0,1,.641.242.854.854,0,0,1,.219.594.826.826,0,0,1-.219.586.834.834,0,0,1-.641.234.821.821,0,0,1-.637-.234A.834.834,0,0,1,27.957,6.3Zm3.523,6.4A4.952,4.952,0,0,1,32.4,9.574a3.137,3.137,0,0,1,4.766-.168V5h1.445V17H37.286l-.07-.906A2.943,2.943,0,0,1,34.8,17.156a2.887,2.887,0,0,1-2.395-1.2,5.008,5.008,0,0,1-.926-3.141Zm1.445.164a3.749,3.749,0,0,0,.594,2.25,1.92,1.92,0,0,0,1.641.813A2.108,2.108,0,0,0,37.168,14.7V10.813a2.125,2.125,0,0,0-1.992-1.2,1.929,1.929,0,0,0-1.656.82A4.128,4.128,0,0,0,32.926,12.867Z" transform="translate(1177.217 1600.996)" fill="#12263f"/>
  </g>
</svg>
