<svg xmlns="http://www.w3.org/2000/svg" xmlns:xlink="http://www.w3.org/1999/xlink" width="200" height="183.307" viewBox="0 0 200 183.307">
  <defs>
    <clipPath id="clip-path">
      <rect id="Rectángulo_297391" data-name="Rectángulo 297391" width="85.008" height="85.008" fill="#404040"/>
    </clipPath>
  </defs>
  <g id="Grupo_901615" data-name="Grupo 901615" transform="translate(-181 -452)">
    <g id="seleccion-multiple" transform="translate(180.977 452)">
      <path id="blob_4_" d="M198.573,56.922c7.777,28.379-16.664,62.3-50.548,87.767S70.953,187.6,40.263,169.469C9.295,151.334-9.175,98.175,4.712,61.352,18.6,24.39,64.981,4.04,108.031,5.009,151.219,6.117,190.935,28.82,198.573,56.922Z" transform="translate(0 2.28)" fill="#fecb2f" opacity="0.1"/>
      <text id="_" data-name="+" transform="translate(107.316 62.889) rotate(180)" fill="#0b5999" font-size="28" font-family="Montserrat-Bold, Montserrat" font-weight="700"><tspan x="0" y="0">+</tspan></text>
      <text id="_2" data-name="+" transform="translate(189.737 40.908) rotate(180)" fill="#0b5999" font-size="28" font-family="Montserrat-Bold, Montserrat" font-weight="700"><tspan x="0" y="0">+</tspan></text>
      <text id="_3" data-name="+" transform="translate(79.665 156.307) rotate(180)" fill="#0b5999" font-size="28" font-family="Montserrat-Bold, Montserrat" font-weight="700"><tspan x="0" y="0">+</tspan></text>
      <circle id="Elipse_1" cx="5.832" cy="5.832" r="5.832" transform="translate(183.919 141.189)" fill="#ef3c79"/>
      <circle id="Elipse_2" cx="5.832" cy="5.832" r="5.832" transform="translate(146.759 13.123)" fill="#ef3c79"/>
      <circle id="Elipse_5" cx="5.832" cy="5.832" r="5.832" transform="translate(41.529 18.956)" fill="#ef3c79"/>
      <circle id="Elipse_6" cx="14.581" cy="14.581" r="14.581" transform="translate(111.568 138.251)" fill="#0b5999" opacity="0.1"/>
      <circle id="Elipse_7" cx="14.581" cy="14.581" r="14.581" transform="translate(26.235 48.308)" fill="#21cbae" opacity="0.23"/>
      <circle id="Elipse_11" cx="10.207" cy="10.207" r="10.207" transform="translate(11.654 158.664)" fill="#21cbae" opacity="0.23"/>
      <circle id="Elipse_12" cx="10.207" cy="10.207" r="10.207" transform="translate(176.629)" fill="#0b5999" opacity="0.1"/>
      <circle id="Elipse_8" cx="14.581" cy="14.581" r="14.581" transform="translate(115.7 10.207)" fill="#0b5999" opacity="0.1"/>
      <g id="Elipse_3" transform="translate(47.019 71.946)">
        <circle id="Elipse_5096" data-name="Elipse 5096" cx="5.832" cy="5.832" r="5.832" fill="none"/>
        <circle id="Elipse_5097" data-name="Elipse 5097" cx="4.374" cy="4.374" r="4.374" transform="translate(1.458 1.458)" fill="none" stroke="#21cbae" stroke-width="2"/>
      </g>
      <g id="Elipse_4" transform="translate(175.119 99.63)">
        <circle id="Elipse_5098" data-name="Elipse 5098" cx="5.832" cy="5.832" r="5.832" transform="translate(0 0)" fill="none"/>
        <circle id="Elipse_5099" data-name="Elipse 5099" cx="4.374" cy="4.374" r="4.374" transform="translate(1.458 1.458)" fill="none" stroke="#21cbae" stroke-width="2"/>
      </g>
      <g id="Grupo_13" transform="translate(42.529 27.71)">
        <g id="Grupo_10" transform="translate(0 0)">
          <circle id="Elipse_13" cx="18.956" cy="18.956" r="18.956" transform="translate(0 0)" fill="#d2e1f1"/>
          <g id="Icon_feather-check-circle" transform="translate(1.169 1.024)">
            <path id="Trazado_18" d="M26.895,2.894V4.5a17.549,17.549,0,0,1-17.5,17.5A17.549,17.549,0,0,1-8.1,4.5,17.549,17.549,0,0,1,9.4-13a20.163,20.163,0,0,1,7.145,1.458" transform="translate(8.1 13)" fill="none" stroke="#404040" stroke-linecap="round" stroke-linejoin="round" stroke-width="3"/>
            <path id="Trazado_19" d="M10.753-4.6.4,5.753" transform="translate(11.994 16.848)" fill="none" stroke="#404040" stroke-linecap="round" stroke-linejoin="round" stroke-width="3"/>
            <path id="Trazado_41" d="M10.753,5.753.4-4.6" transform="translate(11.994 16.848)" fill="none" stroke="#404040" stroke-linecap="round" stroke-linejoin="round" stroke-width="3"/>
          </g>
        </g>
        <g id="Grupo_16" transform="translate(0 90.042)">
          <path id="Elipse_13-2" d="M18.956,0A18.956,18.956,0,1,1,0,18.956,18.956,18.956,0,0,1,18.956,0Z" transform="translate(0 0)" fill="#ef3c79"/>
          <g id="Icon_feather-check-circle-2" transform="translate(1.169 1.461)">
            <path id="Trazado_18-2" d="M26.895,2.894V4.5a17.549,17.549,0,0,1-17.5,17.5A17.549,17.549,0,0,1-8.1,4.5,17.549,17.549,0,0,1,9.4-13a20.163,20.163,0,0,1,7.145,1.458" transform="translate(8.1 13)" fill="none" stroke="#404040" stroke-linecap="round" stroke-linejoin="round" stroke-width="3"/>
            <path id="Trazado_19-2" d="M10.753-4.6.4,5.753" transform="translate(11.994 16.848)" fill="none" stroke="#404040" stroke-linecap="round" stroke-linejoin="round" stroke-width="3"/>
            <path id="Trazado_41-2" d="M10.753,5.753.4-4.6" transform="translate(11.994 16.848)" fill="none" stroke="#404040" stroke-linecap="round" stroke-linejoin="round" stroke-width="3"/>
          </g>
        </g>
        <g id="Grupo_11" transform="translate(0 44.955)">
          <path id="Elipse_13-3" d="M18.956,0A18.956,18.956,0,1,1,0,18.956,18.956,18.956,0,0,1,18.956,0Z" fill="#21cbae"/>
          <g id="Icon_feather-check-circle-3" transform="translate(1.169 1.315)">
            <path id="Trazado_18-3" d="M26.895,2.894V4.5a17.549,17.549,0,0,1-17.5,17.5A17.549,17.549,0,0,1-8.1,4.5,17.549,17.549,0,0,1,9.4-13a20.163,20.163,0,0,1,7.145,1.458" transform="translate(8.1 13)" fill="none" stroke="#404040" stroke-linecap="round" stroke-linejoin="round" stroke-width="3"/>
            <path id="Trazado_19-3" d="M23-10.6,5.649,6.9.4,1.648" transform="translate(11.994 14.099)" fill="none" stroke="#404040" stroke-linecap="round" stroke-linejoin="round" stroke-width="3"/>
          </g>
        </g>
      </g>
      <g id="Grupo_15" transform="translate(83.163 50.47)">
        <path id="Trazado_40" d="M67.7,111.681l5.541-17.352s61.241-64.3,63.137-64.595a47.1,47.1,0,0,1,6.416,0l6.853,6.853v6.853L85.052,106.432Z" transform="translate(-65.221 -28.339)" fill="#fecb2f"/>
        <g id="Grupo_14" transform="translate(0)">
          <g id="Grupo_882291" data-name="Grupo 882291">
            <g id="Grupo_8" clip-path="url(#clip-path)">
              <path id="Trazado_35" d="M9.315,63.032a1.656,1.656,0,0,1-1.166-.437L-3.663,50.638a1.771,1.771,0,0,1,0-2.333L49.7-5.063a1.771,1.771,0,0,1,2.333,0L63.848,6.894a1.771,1.771,0,0,1,0,2.333h0L10.481,62.448a1.326,1.326,0,0,1-1.166.583M-.309,49.471l9.624,9.624L60.349,8.061,50.725-1.563Z" transform="translate(9.787 16.436)" fill="#404040" stroke="#404040" stroke-width="1"/>
              <path id="Trazado_36" d="M47.3,12.563a1.656,1.656,0,0,1-1.166-.437l-14-14a1.771,1.771,0,0,1,0-2.333L37.1-9.163a1.771,1.771,0,0,1,2.333,0l14,14a1.771,1.771,0,0,1,0,2.333h0l-4.958,4.958a1.656,1.656,0,0,1-1.166.437M35.637-3.038,47.3,8.627l2.77-2.77L38.407-5.809Z" transform="translate(26.187 14.558)" fill="#404040" stroke="#404040" stroke-width="1"/>
              <path id="Trazado_37" d="M49.461,8.043a1.656,1.656,0,0,1-1.166-.437L36.337-4.351a1.771,1.771,0,0,1,0-2.333L41-11.35a5.984,5.984,0,0,1,8.457,0l5.687,5.687a5.984,5.984,0,0,1,0,8.457L50.481,7.46a1.263,1.263,0,0,1-1.021.583M39.837-5.372l9.624,9.624,3.5-3.5a2.912,2.912,0,0,0,0-3.937h0L47.273-8.871a2.912,2.912,0,0,0-3.937,0Z" transform="translate(28.112 12.954)" fill="#404040" stroke="#404040" stroke-width="1"/>
              <path id="Trazado_38" d="M-6.4,51.788a1.618,1.618,0,0,1-1.6-1.6.536.536,0,0,1,.146-.437l5.541-17.5A1.576,1.576,0,0,1-.272,31.228a1.942,1.942,0,0,1,.729.437L12.414,43.622a1.771,1.771,0,0,1,0,2.333c-.146.146-.437.292-.583.437l-17.5,5.541a1.951,1.951,0,0,0-.729-.146M.02,35.748-3.771,47.705,8.039,43.914Z" transform="translate(8 33.221)" fill="#404040" stroke="#404040" stroke-width="1"/>
              <path id="Trazado_39" d="M1.5,55.175a1.618,1.618,0,0,1-1.6-1.6A1.656,1.656,0,0,1,.337,52.4L53.7-.963a1.771,1.771,0,0,1,2.333,0,1.626,1.626,0,0,1,0,2.333h0L2.67,54.738a1.656,1.656,0,0,1-1.166.437" transform="translate(11.619 18.314)" fill="#404040" stroke="#404040" stroke-width="1"/>
            </g>
          </g>
        </g>
      </g>
    </g>
  </g>
</svg>
